<?xml version="1.0" encoding="utf-8"?>
<!-- Generator: Adobe Illustrator 26.0.0, SVG Export Plug-In . SVG Version: 6.00 Build 0)  -->
<svg version="1.1" id="Layer_1" xmlns="http://www.w3.org/2000/svg" xmlns:xlink="http://www.w3.org/1999/xlink" x="0px" y="0px"
	 viewBox="0 0 500.43 642.9" enable-background="new 0 0 500.43 642.9" xml:space="preserve">
<rect x="-792.57" y="-140.08" display="none" width="1400" height="766"/>
<g>
	<g>
		<path id="Path_187" fill="#FFDC6D" d="M168.5,471.09L168.5,471.09l-1.32,0.15l-5.8,0.7l6.64-24.92l0.01-0.02l0.2-0.76l-0.02-0.03
			c-0.05-0.06-0.19-0.26-0.72-0.95c-0.73-0.98-3.42-5.93-3.42-5.93c-3.38-0.73-6.89-0.53-10.16,0.58
			c-10.06,3.56-12.76,14.79-12.97,15.74c-0.62,0.1-1.52,0.24-2.6,0.45c-2.4,0.48-4.78,1.11-7.11,1.87c-1.42,0.41-2.8,0.94-4.12,1.59
			c-1.31,0.73-2.53,1.59-3.67,2.57c-2.46,2.15-6.51,7.47-10.64,15.06c1.49-1.94,7.33-9.2,15.1-10.7c6.72-1.52,13.4,2.7,14.92,9.42
			c0,0.02,0.01,0.04,0.01,0.06c0.53,2.7,0.45,5.48-0.25,8.14c-1.37,5.05-4.77,8.14-6.3,9.48c-11.18,9.88-35.12,11.33-49.18,23.43
			c-6.6,5.69-15.42,15.72-15.42,23.06c2.13-3.04,4.66-5.78,7.52-8.14c2.11-1.65,4.36-3.1,6.74-4.34c1.76-0.9,3.53-1.57,3.53-1.57
			c0.61-0.24,1.12-0.41,1.53-0.55c3.71-1.25,5.57-1.86,7.11-1.98c1.12-0.08,4.96-0.37,7.03,2.02c0.71,0.87,1.16,1.94,1.28,3.06
			c0.96,6.14-5.4,15.7-6.36,17.13c-3.16,4.13-6.64,8.39-10.43,12.78c-4.72,5.44-8.59,9.45-12.39,13.39
			c-7.78,8.07-8.12,7.9-11.65,11.71c-2.69,2.9-6.16,6.95-20.72,29.3c-2.41,3.69-5.72,8.83-9.65,15.02l32.54-20.55
			c6.01-3.05,12.44-5.2,19.08-6.36c8.47-1.47,12.67-0.45,21.53-1.96c6.08-1.03,12-2.84,17.61-5.38c4.41-5.22,8.81-10.44,13.21-15.66
			c2.78-1.96,5.55-3.92,8.32-5.87c2.17-1.5,4.99-1.68,7.34-0.49c2.8,1.4,3.62,4.57,3.79,5.32c-0.35,1.72-0.69,3.43-1.04,5.14
			c-3.29,5.43-7.05,10.55-11.25,15.31c-1.32,1.49-2.16,2.32-3.98,4.4c-3.68,4.2-7.01,8.36-10.03,12.41
			c3.74-2.31,7.77-4.12,11.99-5.38c5.57-1.65,6.54-0.84,13.21-2.13c7.72-1.48,16.76-3.33,22.84-10.6c1.42-1.74,2.62-3.66,3.55-5.7
			c2.51-5.72,3.12-12.1,1.75-18.2c-2.61-7.67-1.95-14.87,2.13-18.27c0.97-0.83,2.12-1.41,3.36-1.69
			c4.95-1.03,10.93,3.27,15.06,10.82c2.39,5.76,3.31,12.02,2.69,18.23c-0.61,5.7-2.53,11.19-5.61,16.03
			c-1.8,2.87-3.95,5.5-6.41,7.83c15.38-10.01,19.75-19.35,20.57-26.43c1.52-12.86-8.1-22.93-3.18-37.19
			c1.36-3.83,3.48-7.35,6.25-10.33c4.43-4.06,11.31-3.76,15.37,0.66c2.39,2.61,3.37,6.21,2.61,9.67l-6.6,17.86
			c3.56-3.34,7.12-6.69,10.69-10.03c2.66-3.4,5.42-7.23,8.15-11.5c2.16-3.37-11.26-20.31-11.26-20.31l-27.4,5.64l1.91-25.72
			l0.02-0.32c-0.61-0.39-1.23-0.81-1.83-1.25c-2.44-1.75-4.77-3.65-6.96-5.7c-0.03-0.03-0.06-0.06-0.1-0.09
			c-5.03-4.76-9.69-9.89-13.94-15.35c-2.76-3.5-4.42-5.9-4.42-5.9l-12.16,1.47L168.5,471.09z"/>
		<path id="Path_189" fill="#D81330" d="M166.59,473.55c-6.27,4.22-8.16,8.02-8.3,11.12c-0.21,4.58,3.41,7.04,1.88,9.83
			c-1.22,2.21-4.01,1.56-10.19,6c-0.11,0.07-0.86,0.62-1.55,1.17c-2.26,1.81-5.62,5.19-8.49,11.51c1.17-1.31,2.44-2.53,3.79-3.65
			c1.31-1.16,2.74-2.18,4.27-3.03c2.64-1.31,5.54-2.03,8.49-2.11c2.12-0.16,4.26-0.09,6.37,0.22c1.48,8.64,0.02,11.98-1.88,13.3
			c-1.13,0.78-2.19,0.7-4.59,1.13c-3.44,0.63-6.76,1.78-9.85,3.43c-4.83,2.59-8.94,6.34-11.97,10.9c-2.25,3.49-3.25,6.62-4.92,11.85
			c-2.34,7.38-2.83,12.6-7.22,19.33c-0.38,0.59-0.71,1.06-0.92,1.35c7.1-8.44,11-14.55,13.27-18.72c0.72-1.38,1.6-2.68,2.63-3.85
			c3.49-3.95,13.67-7.03,13.67-7.03c2.62-0.89,5.31-1.58,8.04-2.04c8.06-1.17,11.99,0.84,12.6,1.79c0.45,0.7,0.71,1.52,0.74,2.36
			c0,0.07,0,0.12-0.01,0.15c-0.16,3.18-4.59,5.93-4.59,5.93l13.4-6.16c0.68-0.46,1.33-0.98,1.94-1.54c2.39-2.26,4.12-5.13,5-8.3
			c0.95-1.89,2.58-3.34,4.56-4.07c2.33-0.78,5.63-0.58,6.31,0.91c0,0,0.38,0.82-3.01,6.31l-6.73,10.03l15.66-11.13
			c3.25-3.63,6.51-7.26,9.76-10.89C198.73,504.28,182.66,488.92,166.59,473.55z"/>
		<g>
			<path fill="#FFDC6D" stroke="#D81330" stroke-width="0.6895" stroke-miterlimit="10" d="M367.23,417.19
				c0,0,8.52,18.83,7.12,31.27c0,0-23.94,46.71-40.14,56.57c0,0,5.83-27.84,0.92-44.49L367.23,417.19z"/>
			<g>
				<path fill="none" stroke="#D81330" stroke-width="0.6895" stroke-miterlimit="10" d="M335.13,460.53
					c0,0,30.18-31.08,39.22-12.07"/>
				<path fill="none" stroke="#D81330" stroke-width="0.6895" stroke-miterlimit="10" d="M367.23,418.03c0,0-0.43,48.97-32.1,85.11
					l-0.92,1.88"/>
			</g>
		</g>
		<g>
			<path fill="#FFDC6D" stroke="#D81330" stroke-width="0.6895" stroke-miterlimit="10" d="M253.43,316.44
				c0,0-21.46-4.41-32.55-4.59c0,0-42.78,27.99-51.58,49.29c0,0,38.65-11.16,44.59-6.64L253.43,316.44z"/>
			<g>
				<path fill="none" stroke="#D81330" stroke-width="0.6895" stroke-miterlimit="10" d="M169.3,361.14c0,0,31.36-33.43,84.13-44.7"
					/>
				<path fill="none" stroke="#D81330" stroke-width="0.6895" stroke-miterlimit="10" d="M220.88,311.85c0,0,16.18,7.38-6.99,42.65"
					/>
			</g>
		</g>
		<path fill="#BA082A" stroke="#FFFFFF" stroke-width="1.3789" stroke-miterlimit="10" d="M191.7,378.53
			c23.5-24.63,190.2-196.19,280.64-202.97c2.75-0.21,5.24,1.65,5.78,4.35c3.63,17.95,3.2,93.6-163.4,305.76
			c-1.38,1.76-3.69,2.5-5.83,1.88c-15.09-4.4-74.44-25.96-117.98-102.51C189.72,382.92,190.03,380.28,191.7,378.53z"/>
		<path fill="#840026" stroke="#FFFFFF" stroke-width="1.3789" stroke-miterlimit="10" d="M197.02,395.26c0,0-2.11,18.77,0,26.17
			c2.11,7.39,43.66,76.41,97.7,61C294.72,482.42,233.64,457.87,197.02,395.26z"/>
		<path fill="#6D071B" stroke="#FFFFFF" stroke-width="1.3789" stroke-miterlimit="10" d="M196.09,421.07l-47.65,27.64
			c0,0,19.89,63.2,101.04,90.13l24.12-54.18C273.59,484.66,227.19,481.27,196.09,421.07z"/>
		<path fill="none" stroke="#FFFFFF" stroke-width="0.6895" stroke-miterlimit="10" d="M186.02,426.91c0,0,24.2,51.02,80.88,70.38
			l0.94,0.28"/>
		<path fill="none" stroke="#FFFFFF" stroke-width="0.6895" stroke-miterlimit="10" d="M174.14,433.8c0,0,24.21,53.56,87.97,76.66"
			/>
		<path fill="none" stroke="#FFFFFF" stroke-width="0.6895" stroke-miterlimit="10" d="M161.05,441.39c0,0,35.6,62.45,94.84,83.03"
			/>
		<path fill="none" stroke="#FFFFFF" stroke-width="2.7578" stroke-miterlimit="10" d="M254.56,316.69c0,0,69.52,34.74,111.6,100.63
			l-52.03,68.97c0,0-1.96,2.78-10.06-0.28c-13.14-5.15-28.39-12.57-44.12-23.44c-37.67-26.04-58.73-58.47-69.58-78.84
			c0,0-0.41-3.1,1.66-5.13L254.56,316.69z"/>
		<path fill="#840026" stroke="#FFFFFF" stroke-width="1.3789" stroke-miterlimit="10" d="M198.07,396.6
			c0,0,49.48-58.46,68.66-73.06l32.26,22.11l-75.94,84.59L198.07,396.6z"/>
		<path fill="#840026" stroke="#FFFFFF" stroke-width="1.3789" stroke-miterlimit="10" d="M258.08,461.24l74.16-86.15l26.01,30.62
			c-29.35,39.5-63.53,76.71-63.53,76.71L258.08,461.24z"/>
		<g>
			<polygon fill="#FFDC6D" stroke="#D81330" stroke-width="0.6895" stroke-miterlimit="10" points="247.36,437.27 282.04,373.72 
				312.49,363.86 306.33,395.26 			"/>
			
				<line fill="none" stroke="#D81330" stroke-width="0.6895" stroke-miterlimit="10" x1="248.4" y1="436.53" x2="312.37" y2="364.47"/>
			<path fill="none" stroke="#D81330" stroke-width="0.6895" stroke-miterlimit="10" d="M282.04,373.72c0,0,16.99,5.58,24.29,21.54"
				/>
		</g>
		<circle fill="#FFDC6D" cx="361.9" cy="307.92" r="21.82"/>
		<circle fill="#D81330" cx="361.9" cy="307.92" r="17.25"/>
		<circle fill="#FFDC6D" cx="413.83" cy="248.75" r="35.87"/>
		<circle fill="#D81330" cx="413.83" cy="248.75" r="28.36"/>
	</g>
	<path stroke="#FFFFFF" stroke-width="1.1329" stroke-miterlimit="10" d="M139.26,184.08l45.9-60.94
		c12.38-7.88,24.77-15.77,37.15-23.65c2.14-3.81,4.29-7.63,6.43-11.44c3.6-1.32,7.2-2.64,10.81-3.96c3.4,3.57,6.81,7.14,10.21,10.71
		l33.17-4.05c2.31-4.56,4.62-9.12,6.93-13.68c5.02-0.9,10.04-1.8,15.06-2.71c2.46,1.54,4.93,3.09,7.39,4.63
		c8.42-3.79,16.84-7.58,25.26-11.38c0.94-2.76,1.89-5.53,2.83-8.29l57.79-43.26l-50.65,70.19c-13.71,6.51-27.43,13.03-41.14,19.54
		c-1.52,7.52-3.04,15.04-4.56,22.56c-2.6,3.89-5.21,7.78-7.81,11.67c-0.76,8.65-1.52,17.29-2.28,25.94c0,0-24.17,4.63-53.48,3.6
		l3.41-23.65l-7.33-7.62l-4.44-13.5l-34.13,15.91l-5.01,10.61L139.26,184.08z"/>
	<path fill="#D81330" stroke="#FFFFFF" stroke-width="0.7553" stroke-miterlimit="10" d="M238.25,169.55
		c-0.43,2.33-0.86,4.66-1.29,6.99c5.16,0.45,10.7,0.71,16.55,0.68c14.55-0.08,27.41-1.94,38.14-4.34c0.03-2.37,0.06-4.74,0.09-7.1
		c-7.27,1.23-15.18,2.27-23.65,2.96C257.32,169.63,247.31,169.8,238.25,169.55z"/>
	<path fill="#FFFFFF" stroke="#000000" stroke-width="0.7553" stroke-miterlimit="10" d="M261.59,59.41
		c0.88,1.16,2.54,3.03,5.2,4.53c2.71,1.53,5.23,1.97,6.69,2.12c1.97-2.97,6.7-11.01,5.97-21.76c-0.35-5.15-1.83-9.28-3.13-12.06
		c-3.76,2.07-8.6,4.27-14.45,5.89c-3.26,0.9-6.3,1.47-9.03,1.83c-0.28,2.93,0.31,4.22,0.94,4.86c0.24,0.25,1,0.91,1.66,2.07
		c0.22,0.38,0.37,0.72,0.46,0.94c-0.99,0.04-1.5-0.01-1.52-0.14c-0.02-0.11,0.28-0.27,0.89-0.48c-2.63,0.65-4.41,2.93-4.36,5.28
		c0.06,2.88,2.87,5.48,6.29,5.16c0.19,3.41,0.33,6.9,0.43,10.46c0.08,2.88,0.13,5.71,0.15,8.49c-5.83,2.39-11.66,4.78-17.5,7.17
		c3.24,3.42,6.48,6.84,9.73,10.26c10.81-1.33,21.62-2.65,32.43-3.98c2.2-4.36,4.4-8.72,6.61-13.08c-4.68-0.94-9.36-1.88-14.04-2.81
		c-0.25-3.08-0.5-6.16-0.75-9.24"/>
	<path stroke="#FFFFFF" stroke-width="0.7553" stroke-miterlimit="10" d="M257.62,66.64c0,0-25.61-24.39-8.54-28.15
		c0,0-1.97-5.87,1.12-9.42c0.44-0.5,1.89-2.02,7.42-2.63c8.76-0.97,12.55,2.02,20.23,0.77c2.68-0.44,4.75-1.21,5.89-1.69
		c-0.75,1.13-1.67,2.37-2.78,3.65c-1.37,1.57-2.74,2.85-3.97,3.87c-2.07,1.23-4.4,2.45-6.98,3.59c-6.08,2.68-11.75,4.07-16.4,4.8
		c1.84,3.58,3.67,7.17,5.51,10.75c-0.28-2.09-1.93-3.51-3.55-3.44c-1.6,0.07-2.56,1.58-2.65,1.73c-0.24,0.46-0.33,0.88-0.34,1.23
		c-0.1,2.03,2.08,4.14,5.37,5.38C257.84,60.26,257.73,63.45,257.62,66.64z"/>
	<path fill="#D81330" d="M267.67,93.01c0.65,20.97,1.3,41.94,1.95,62.91l-4.92-8.1l4.02,20.59c-4.06,0.31-8.27,0.55-12.63,0.7
		c-6.06,0.21-11.87,0.22-17.39,0.08c1.13-7.82,2.26-15.63,3.39-23.45c-2.48-2.54-4.96-5.07-7.44-7.61
		c-1.51-4.63-3.01-9.26-4.52-13.88c-11.55,5.4-23.1,10.8-34.65,16.2c-1.67,3.53-3.35,7.07-5.02,10.6
		c-16.55,10.53-33.1,21.07-49.66,31.6l44.64-59.19c12.38-7.91,24.76-15.82,37.13-23.73c2.14-3.8,4.28-7.59,6.42-11.39
		c3.49-1.28,6.99-2.55,10.48-3.83c3.37,3.56,6.75,7.11,10.12,10.67C255.62,94.46,261.65,93.74,267.67,93.01z"/>
	<polyline fill="none" stroke="#FFFFFF" stroke-width="0.7553" stroke-miterlimit="10" points="267.67,93.01 269.62,155.92 
		264.7,147.83 268.72,168.41 	"/>
	<path fill="#F9C626" stroke="#FFFFFF" stroke-width="0.7553" stroke-miterlimit="10" d="M250.91,123.53
		c1.16-3.54,2.31-7.07,3.47-10.61l28.93-4.63c2.25,2.76,4.5,5.53,6.75,8.29c-5.76,8.01-11.53,16.03-17.29,24.04
		C265.48,134.93,258.2,129.23,250.91,123.53z"/>
	<path stroke="#FFFFFF" stroke-width="0.7553" stroke-miterlimit="10" d="M238.54,169.62c2.19,0.14,4.46,0.22,6.81,0.26
		c3.98,0.05,7.75-0.06,11.28-0.29c-0.16,2.54-0.32,5.08-0.48,7.61c-2.43,0.06-4.97,0.07-7.62-0.01c-4.04-0.11-7.84-0.4-11.38-0.79
		C237.62,174.14,238.08,171.88,238.54,169.62z"/>
	<path fill="#444444" stroke="#FFFFFF" stroke-width="0.7553" stroke-miterlimit="10" d="M256.95,169.78l-0.4,7
		c0,0,9.47-0.25,12.52-0.7v-7.1L256.95,169.78z"/>
	
		<text transform="matrix(0.9899 -0.1415 0.1415 0.9899 265.6537 135.876)" fill="#D81330" font-family="'CenturyGothic'" font-size="30.3998px">P</text>
	<path fill="#D81330" d="M269.64,177.13c-1.19,11.86-2.23,24.05-3.08,36.58c-1,14.66-1.7,28.92-2.14,42.74
		c-1.42,2.2-2.84,4.41-4.26,6.61c-0.63,7.81-1.26,15.63-1.89,23.44c-0.85,1.17-2.03,2.88-3.33,5.01c-2.58,4.26-4.09,7.71-5.33,10.58
		c-5.43,12.59-6.35,14.91-6.35,14.91c-3.78,9.59-7.22,18.47-10.35,26.61l18.45,6.94c0,0-18.9,3.54-32.91,3.6l10.59-43.12l-0.82-24.5
		l8.74-15.3l-7.46-50.52c2.59-14.38,5.19-28.76,7.78-43.14c0.97,0.06,2.33,0.13,3.95,0.2c7.33,0.31,13.19,0.19,16.49,0.08
		C261.04,177.75,265.06,177.54,269.64,177.13z"/>
	<path d="M269.59,177.66c-0.51,5.11-0.99,10.28-1.44,15.51c-0.6,6.94-1.13,13.79-1.59,20.54c19.15-5.44,38.29-10.88,57.44-16.32
		l2.89,19.67l5.82,7.91c0,0,0.93,44.1,2.28,46.47c0,0,27.32-13.69,30.28-17.16l-20.06,2.12l3.21-82.66l-14.01-11.25
		C334.41,162.48,296.82,174.96,269.59,177.66z"/>
	<path fill="none" stroke="#FFFFFF" stroke-width="1.1329" stroke-miterlimit="10" d="M236.96,177.14l-7.46,43.58l7.46,50.52
		l-8.74,15.3l0.82,24.5l-10.59,43.12c0,0,25.26-1.41,32.91-3.6l-18.45-6.94c0,0,19.16-50.2,25.71-56.95l1.93-23.53l4.24-6.56
		l2.12-42.42L324,197.38l2.89,19.67l5.82,7.91c0,0,0.8,39.21,2.28,46.47c0,0,21.41-9.83,30.28-17.16l-20.06,2.12l3.21-82.66
		l-14.01-11.25c-14.15,4.69-26.46,7.75-36.04,9.79c-13.29,2.82-26.44,5.54-43.98,5.64C247.21,177.95,241.21,177.54,236.96,177.14z"
		/>
	<polygon fill="#AA0029" points="140.8,182.66 192.1,133.59 232.98,112.34 250.91,140.63 245.27,169.28 238.69,169.19 
		242.09,145.74 234.65,138.13 230.09,123.96 195.48,140.45 190.46,151.06 	"/>
	<path fill="#AA0029" d="M244.21,178.05c-4.83,14.69-9.66,29.38-14.5,44.07l7.57-44.54C239.59,177.74,241.9,177.89,244.21,178.05z"
		/>
	<path fill="#AA0029" d="M266.56,213.29l-5.43,38.79l-4.58,10.54l-1.08,21.86c-10.64,22.99-21.28,45.98-31.91,68.97
		c2.71-0.2,5.03-0.39,6.85-0.55c1.69-0.14,2.9-0.25,4.16-0.36c2.71-0.24,4.09-0.36,5.37-0.51c0.85-0.09,2.38-0.27,4.35-0.55
		c1.53-0.22,3.49-0.54,5.79-1c-5.88-2.22-11.76-4.44-17.63-6.65c1.24-3.34,2.82-7.51,4.71-12.31c2.43-6.14,4.28-10.52,6.68-16.18
		c1.84-4.35,4.23-9.9,7.06-15.92c0.91-1.94,2.5-5.25,5.01-9.32c0.94-1.53,1.77-2.76,2.36-3.62c0.63-7.81,1.26-15.63,1.89-23.44
		l4.26-6.61L266.56,213.29z"/>
	<polygon fill="#AA0029" points="266.56,213.29 253.03,222.12 250.91,271.43 236.96,289.37 236.96,309.42 223.56,353.45 
		255.48,284.48 256.55,262.63 261.13,252.09 	"/>
	<polygon fill="#AA0029" points="253.03,222.12 269.59,177.66 266.56,213.29 	"/>
	<path fill="#AA0029" d="M222.58,99.74c0.65-1.15,10.4-9.76,10.4-9.76l11.23,4.06l5.39,1.16l-10.12-10.67L229,88.35L222.58,99.74z"
		/>
	<polygon fill="#E2E2E2" points="249.6,93.01 263.48,80.07 260.94,60.37 258,67.36 258.14,76.69 240.88,83.9 	"/>
	<path fill="#E2E2E2" d="M260.94,60.37c0,0-0.48-17.45,16.05-27.33c0,0-15.25,7.57-23.99,8.02l3.89,7.52c0,0-3.5-1.38-4.71,2.86
		c0,0-0.72,3.41,5.42,5.88l-0.32,8.29l0.87,1.41L260.94,60.37z"/>
</g>
</svg>
