<?xml version="1.0" encoding="utf-8"?>
<!-- Generator: Adobe Illustrator 26.0.0, SVG Export Plug-In . SVG Version: 6.00 Build 0)  -->
<svg version="1.1" id="Layer_1" xmlns="http://www.w3.org/2000/svg" xmlns:xlink="http://www.w3.org/1999/xlink" x="0px" y="0px"
	 viewBox="0 0 484.85 476.43" enable-background="new 0 0 484.85 476.43" xml:space="preserve">
<rect x="-808.91" y="-148.77" display="none" width="1400" height="766"/>
<g>
	<path stroke="#FFFFFF" stroke-width="0.7695" stroke-miterlimit="10" d="M123.61,189.86l15.72,27.33l17.73,7.6l15.28,22.44
		c20.96-7.07,40.65-21.61,40.65-21.61l-7.86-16.37l2.62-8.64l-1.7-7.07l26.85,4.78l2.75,12.12l14.8,8.64l23.84,30.13l-21.87-56.19
		l-14.54-17.16l-37.33-15.19l-0.92-4.58l-15.19-8.64l-23.45,1.83l-13.36,19.25l-25.15,7.34l-1.44-6.16l-5.63,10.35l5.89,20.63
		l8.64,6.94l10.74,21.09l-9.43,4.26l-7.99,12.97l-34.58,17.2v6.51l73.09-23.58c0,0,1-3.01,1.44-11.74"/>
	<path fill="#D81330" stroke="#FFFFFF" stroke-width="0.513" stroke-miterlimit="10" d="M172.53,247.84
		c0.96,1.74,1.91,3.48,2.87,5.22c4.67-1.41,9.76-3.24,15.1-5.64c10.85-4.88,19.54-10.66,26.16-15.86c-1.15-1.85-2.3-3.71-3.45-5.56
		c-4.47,3.09-9.38,6.23-14.72,9.29C189.29,240.56,180.51,244.64,172.53,247.84z"/>
	<path fill="#D81330" stroke="#FFFFFF" stroke-width="0.7695" stroke-miterlimit="10" d="M206.45,299.73l21.73,35.39l9.04,3.93
		c0,0,22.79,38.25,38.9,53.7l11.92,10.09l24.1,44.01l-5.24-28.03l2.75-12.44l-12.09-9.21l-18.86-25.24l-4.45-19.73l-20.52-19.47
		l-27.47-75.24C226.25,257.48,216.03,284.91,206.45,299.73z"/>
	<path stroke="#FFFFFF" stroke-width="0.7695" stroke-miterlimit="10" d="M175.31,253.36l-15.02,51.16c0,0,0,0,0,0l3.32,37.72
		c0,0,0,0,0,0l81.21,26.2c0,0,0,0,0,0l16.94,37.01c0,0,0,0,0,0v-41.9c0,0,0,0,0,0l-50.73-24.27c0,0,0,0,0,0l-6.35-13.38c0,0,0,0,0,0
		l-10.8-5.57c0,0,0,0,0,0c12.4-18.71,23.46-39.49,32.26-62.52c0.57-1.48,1.12-2.96,1.66-4.44c-0.77-2.7-1.91-5.68-3.28-8.92
		c-2.02-4.79-4.81-10.24-7.85-12.88c0,0,0,0,0,0c-0.02,0.02-14.21,13.45-41.26,21.5"/>
	<path fill="#D81330" d="M344.01,133.31v-22.25c0.11,0.04,0.23,0.09,0.35,0.13c0,0,2.45,20.17,4.45,21.92
		C348.81,133.1,346.67,133.71,344.01,133.31z"/>
	<polygon fill="#D81330" points="350.91,280.71 344.01,304.78 344.01,282.45 	"/>
	<path fill="#D81330" d="M361.65,184.23c-3.99-2.26-10.7-6.12-17.64-10.37v-21.29l8.07,6.51
		C352.09,159.08,373.44,190.91,361.65,184.23z"/>
	<path fill="#D81330" d="M367.54,298.93l-6.59,3.32l-8.56,4.02c-0.52-6.11,7.58-7.34,7.58-7.34
		C366.85,296.66,367.54,298.93,367.54,298.93z"/>
	<path fill="#D81330" d="M371.08,190.25l8.77,9.43l-1.31,4.32l-12.05-1.05l-4.59-7.34C361.91,195.63,370.82,192.88,371.08,190.25z"
		/>
	<path fill="#D81330" d="M375.43,261.55l6.13-2.4c0,0-3.85,5.29-6.89,9.54c-1.82,2.53-3.34,4.69-3.59,5.14
		c-0.66,1.18-2.45,10.73-7.63,13.22c0.12-0.2,1.6-2.91,1.34-21.34L375.43,261.55z"/>
	<path fill="#D81330" d="M388.63,274.61c12.97-3.14-8.64,14.28-12.31,12.45C376.32,287.06,375.66,277.75,388.63,274.61z"/>
	<path fill="#D81330" d="M460.15,250.13c0,0-9.43,209.3-71.51,181.53c0,0-45.32-13.36-38.51-111.86l6.74-5.96l0.42,0.02
		c0-0.03,0.01-0.06,0.01-0.09l5.71-3.5c0,0-1.21,73.82,20.27,82.02c0,0,21.31,18.64,34.43-103.79c-0.33,2.34-0.67,4.76-1.03,7.3
		c-2.1,14.9-3.77,24.54-5.72,35.88c-4.43,25.72-7.36,38.58-15.5,52.71c-1.1,1.91-2.16,3.6-3.09,5.02c-1.45,2.21-4.12,3.34-6.69,2.71
		c-0.02-0.01-0.03-0.01-0.04-0.01c-22.3-5.55-22.25-72.73-22.18-81.86v-0.22l3.89-5.28c0,0,0.09,2.2,0.32,5.82
		c-0.08-2.08-0.1-3.99-0.11-5.68c1.11-0.83,2.21-1.66,3.32-2.49l0.22-0.11l4.19-2.14c12.23,18.32,16.24-15.28,16.24-15.28
		c5.07-2.48,6.96-6.94,7.27-11.71c0.57-8.88-4.29-18.87-4.27-19.44c0.01-0.43,3.41-3.03,6.85-5.56c0.01,0,0.01-0.01,0.01-0.01
		c3.52-2.59,7.08-5.08,7.08-5.08l-6.62-9.02l-0.12-0.17l-3.39-4.61l2.62-10.13l-17.62-17.99l3.12-10.88l-2.86-5.05l-0.26-0.45
		l-2.82-3.01l-6.81-8.73l-4.71-4.37l-7.07-4.98c0,0,7.6-127.05,59.21-123.65c1.03,0.07,2.02,0.24,2.99,0.5
		C424.1,40.52,477.97,11.73,460.15,250.13z"/>
	<path fill="#FFFFFF" stroke="#000000" stroke-width="0.513" stroke-miterlimit="10" d="M127.39,138.39c0,0-1.24,12.57-7.34,20.56
		c0,0-16.96-8.91-24.04-22.01c1.41-1.79,2.83-3.58,4.28-5.37c4.51-5.59,9.03-10.97,13.53-16.15c1.67,4.18,3.33,8.36,5,12.54
		c-0.45-0.8-1.46-2.88-1.1-5.52c0.34-2.52,1.97-5.85,4.16-6.06c3.47-0.33,6.32,7.4,6.53,7.97c0.93,2.59,1.11,4.89,1.11,6.37
		c3.81,4.69,7.61,9.39,11.42,14.08c6.51,1.39,13.02,2.78,19.53,4.18c-4.33,6.46-8.66,12.91-12.98,19.37l-24.92,7.2l-1.38-6.45
		l6.17-12.86l-3.51-3.32"/>
	<path stroke="#FFFFFF" stroke-width="0.7695" stroke-miterlimit="10" d="M138.22,141.95l-10.32-11.18c0,0,1.45-10.06-5.03-12.88
		c0,0-5.08-0.72-3.99,10.54l-6.03-10.69c0,0-12.51,26.02-27.51,18.94c0,0,6.48-2.49,10.68-16.37c4.19-13.88,11.4-19.78,18.6-14.02
		c0,0,12.31-6.29,18.73,8.16C139.76,128.91,138.22,141.95,138.22,141.95z"/>
	<path fill="#D81330" d="M401.37,248.13c-0.02,0.59-0.04,1.19-0.06,1.78c0,0.12-0.01,0.24-0.01,0.36
		c-0.41,11.34-1.08,22.85-2.13,34.02c-0.02,0.21-0.04,0.41-0.05,0.62c-0.83,8.77-1.89,17.32-3.23,25.4
		c-1.72,10.46-3.92,20.13-6.68,28.48c-0.03,0.07-0.05,0.13-0.07,0.2c-0.97,2.93-2.02,5.69-3.14,8.26c-0.32,0.75-0.65,1.48-0.99,2.2
		c-0.2,0.42-0.52,0.71-0.89,0.86l-0.01,0.01h-0.01c-0.41,0.17-0.87,0.18-1.29,0.03h-0.01l-0.01-0.01c-0.34-0.13-0.65-0.37-0.86-0.73
		c-0.16-0.27-0.32-0.55-0.5-0.86v-0.01c-0.01-0.01-0.01-0.01-0.01-0.02c-3.44-6.12-9.73-20.72-10.36-46.46l4.19-2.14
		c12.23,18.32,16.24-15.28,16.24-15.28c5.07-2.48,6.96-6.94,7.27-11.71c0.57-8.88-4.29-18.87-4.27-19.44
		C394.52,253.26,397.92,250.66,401.37,248.13z"/>
	<path fill="#D81330" d="M401.82,219.12c0.01,4.8-0.03,9.73-0.11,14.74l-3.39-4.61l2.62-10.13l-17.62-17.99l3.12-10.88l-2.86-5.05
		l0.07-0.67c0,0,5.92-41.59,13.94-33.76l0.01,0.01c0.64,0.63,1.29,1.57,1.96,2.87c0.1,0.21,0.16,0.43,0.18,0.66
		c0.07,1.01,0.29,4.18,0.54,9.04c0.01,0.01,0.01,0.02,0.01,0.03v0.03C400.91,174.77,401.8,195.29,401.82,219.12z"/>
	<path fill="#FFFFFF" d="M413.08,211.69c-0.09,4.5-0.16,7.83-0.23,10.49c-0.01,0.06-0.01,0.08-0.01,0.08
		c-0.06,2.4-0.12,4.25-0.2,5.93c-0.3,6.29-0.65,10.27-1.14,15.61c-0.01,0.07-0.01,0.14-0.02,0.21c-0.31,3.38-0.68,7.32-1.12,12.74
		c-0.42,5.1-0.63,8.16-0.79,10.68v0.04c-0.19,3.04-0.32,5.27-0.65,9.37c0,0-1.6,19.83-4.8,38.73c-0.48,2.81-1.7,10.07-3.48,18.56
		c-0.02,0.08-0.04,0.16-0.05,0.24c-2.46,11.72-5.95,25.7-9.92,33.55c-0.08,0.17-0.17,0.34-0.26,0.5c-1.05,2-2.14,3.56-3.25,4.52
		c-0.04,0.04-0.07,0.07-0.11,0.1c-0.8,0.67-1.61,1.02-2.43,1.01c-0.45-0.01-0.88-0.12-1.31-0.34h-0.01
		c-1.43-0.7-2.77-2.47-4.02-4.91c-0.01-0.01-0.01-0.03-0.02-0.04c-5.17-10.12-8.75-31.73-9.61-37.23c-0.01-0.08-0.03-0.17-0.04-0.25
		c-0.06-0.35-0.1-0.63-0.13-0.81c-1.16-7.62-1.66-14.37-1.86-19.87v-0.03c-0.08-2.08-0.1-3.99-0.11-5.68
		c1.11-0.83,2.21-1.66,3.32-2.49c0,0,0.95,33.6,10.58,46.35c0.01,0.01,0.01,0.01,0.01,0.02v0.01c0.44,0.57,0.88,1.1,1.36,1.59
		l0.01,0.01h0.01c0.18,0.19,0.38,0.38,0.57,0.56c0,0,0.25-0.06,0.71-0.59h0.01l0.01-0.01c0.44-0.49,1.08-1.4,1.88-3.05
		c0.86-1.76,1.92-4.39,3.14-8.26c0.02-0.07,0.04-0.13,0.07-0.2c1.88-6.02,4.15-15.02,6.68-28.48c1.25-6.63,2.33-15.39,3.23-25.4
		c0.02-0.21,0.04-0.41,0.05-0.62c0.31-3.54,0.61-7.25,0.87-11.07c0.51-7.32,0.93-15.06,1.26-22.95c0.01-0.12,0.01-0.24,0.01-0.36
		c0.03-0.59,0.05-1.19,0.07-1.78c3.52-2.59,7.08-5.08,7.08-5.08l-6.62-9.02c0.7-27.55,0.25-54.77-1.54-70.6v-0.03
		c0-0.01,0-0.02-0.01-0.03c-0.69-6.1-1.58-10.51-2.68-12.57l-0.01-0.01c-0.23-0.43-0.47-0.76-0.72-0.98
		c-7.86-6.96-13.55,34.95-13.55,34.95l-2.82-3.01c4.64-34.55,10.52-52.08,17.64-52.6c2.46-0.18,5.07,1.68,7.84,5.58
		c0.9,1.99,2.1,4.87,3.21,8.45c2.01,6.48,2.65,11.84,3.14,17.75c0.21,2.4,0.37,4.77,0.51,7.19c0.01,0.05,0.02,0.1,0.01,0.15
		c0.31,5.45,0.47,11.16,0.52,17.94C413.45,194.14,413.32,200,413.08,211.69z"/>
	<path fill="#D81330" d="M425.57,184.36c-0.02,1.75-0.34,7.55-0.92,19.13c-1.3,26.05-1.93,39.08-2.49,46.1
		c-1.13,14.15-2.55,25.12-4.47,38.89v0.02c-0.16,1.17-0.33,2.36-0.5,3.57c-0.3,2.11-0.52,3.67-0.52,3.72
		c-0.76,5.4,1.7,13.4,1.7,13.4c1.43,4.67,0.87,10.84-0.26,23.18c-1.51,16.52-3.26,35.61-12.84,46.5
		c-4.05,4.61-7.96,5.99-12.24,10.74c-0.84,0.94-2.96,3.4-6.08,3.66c-0.67,0.05-1.22-0.01-1.58-0.06c-2.84-0.77-6.95-2.3-10.8-5.56
		c-5.89-5-9.5-12.68-11.35-33.97c-0.93-10.67-1.48-25.53,0.22-43.44v-0.22l3.89-5.28c0,0,0.09,2.2,0.32,5.82v0.03
		c0.33,4.92,0.93,12.46,1.99,20.68c0.01,0.08,0.03,0.17,0.04,0.25c1.74,13.49,4.7,28.74,9.61,37.23c0.01,0.01,0.02,0.03,0.02,0.04
		c1.22,2.1,2.55,3.78,4.02,4.91h0.01c0.15,0.12,0.3,0.23,0.46,0.34c0,0,1.23,0.82,3.28-1.01c0.04-0.03,0.07-0.06,0.11-0.1
		c0.93-0.86,2.03-2.26,3.25-4.52c0.09-0.16,0.18-0.33,0.26-0.5c2.82-5.42,6.27-15.38,9.92-33.55c0.02-0.08,0.03-0.16,0.05-0.24
		v-0.02c4.1-20.52,7-45.5,8.93-66.65v-0.04c0.79-8.63,1.42-16.63,1.91-23.41c0.01-0.07,0.01-0.14,0.02-0.21
		c0.93-13.02,1.34-21.54,1.34-21.54s0-0.03,0.01-0.08c0.11-1.7,1.89-29.24,0.01-53.92c0.01-0.05,0-0.1-0.01-0.15
		c-1.53-20.07-5.48-38.21-14.7-38.97c0,0-11.53-5.38-17.64,52.6l-6.81-8.73l0.02-0.09c0.37-1.88,6.28-32.88,14.25-56.63
		c0.08-0.25,0.16-0.51,0.25-0.75c3.95-11.61,8.38-21.37,12.9-24.93c0.04-0.03,0.07-0.05,0.1-0.08c2.72-2.1,5.48-1.92,8.17,1.5
		c0.01,0.01,0.01,0.01,0.02,0.02c1.75,2.24,3.48,5.85,5.16,11.11c2.96,10.34,6.1,23.46,8.28,38.83c0,0.03,0.01,0.05,0.01,0.07
		l0.02,0.11v0.01c0.96,6.81,1.72,14.06,2.2,21.7v0.02C425.47,170.42,425.66,177.26,425.57,184.36z"/>
	<path fill="#FFFFFF" d="M434.48,212.39c0,0-0.92,28.16-4.31,63.22c-3,31.13-7.95,67.69-15.92,94.81
		c-6.57,22.35-15.2,38.27-26.48,39.43c-0.02,0.01-0.05,0.01-0.07,0.01c-0.42,0.04-0.84,0.06-1.26,0.06c0,0-4.86-0.29-10.65-5.8
		c-0.01-0.01-0.03-0.02-0.04-0.04c-9.43-9.03-21.29-31.97-18.49-90.21c0-0.03,0.01-0.06,0.01-0.09l5.71-3.5
		c0,0-1.21,73.82,20.27,82.02c0,0,21.31,18.64,34.43-103.79v-0.02c7.17-66.88,8.04-104.36,7.37-124.6v-0.02
		c-0.54-16.11-2.07-21.3-2.2-21.7v-0.01c-0.01-0.02-0.01-0.02-0.01-0.02s-0.01-0.03-0.01-0.09c0-0.02-0.01-0.04-0.01-0.07
		c-0.3-2.65-4.61-39.46-13.44-49.93c-0.01-0.01-0.01-0.02-0.02-0.02c-2.39-2.82-5.11-3.72-8.17-1.5c-0.03,0.03-0.07,0.05-0.1,0.08
		c-3.78,2.82-8.07,10.39-12.9,24.93c-0.09,0.25-0.17,0.5-0.25,0.75l-14.25,56.63l-0.02,0.09l-4.71-4.37
		c0.01-0.03,0.01-0.05,0.01-0.08c0.01-0.05,0.02-0.12,0.03-0.22c0.22-1.66,1.36-10.05,3.49-21.4c0.02-0.12,0.04-0.25,0.07-0.37
		c6-31.93,19.66-86.68,42.23-81.68c0.01,0.01,0.02,0.01,0.02,0.01c4.05,0.9,7.38,3.98,10.12,8.66c0.03,0.05,0.05,0.09,0.08,0.13
		C443.62,105.84,434.48,212.39,434.48,212.39z"/>
	<path fill="#D81330" d="M445.93,239.06l-0.16,2.04c-0.32,3.9-0.65,7.67-0.98,11.31c-0.01,0.03-0.01,0.07-0.01,0.11
		c-2.55,28.36-5.06,47.9-5.06,47.9s-1.78,32.22-10.18,64.99c-0.02,0.06-0.03,0.12-0.04,0.17c-1.07,4.14-2.23,8.29-3.52,12.37
		c-0.04,0.11-0.07,0.22-0.1,0.32c-1.13,3.58-2.35,7.12-3.66,10.56c-0.05,0.12-0.09,0.23-0.12,0.32c-0.04,0.1-0.07,0.19-0.1,0.27
		c-0.08,0.19-0.13,0.33-0.15,0.4c-1.2,3.08-2.47,6.08-3.82,8.98c-0.33,0.72-0.69,1.46-1.06,2.21c-0.27,0.55-0.54,1.1-0.83,1.66
		c-3.91,7.65-8.45,14.43-13.71,19.68c-4.13,4.13-8.71,7.33-13.77,9.28c0,0-45.32-13.36-38.51-111.86l6.74-5.96
		c0,0-7.43,67.79,18.9,90.23c0.01,0.02,0.03,0.03,0.04,0.04c3.07,2.61,6.6,4.6,10.65,5.8c0,0,0.45,0.06,1.26-0.06
		c0.02,0,0.05-0.01,0.07-0.01c3.89-0.61,15.73-5.37,26.48-39.43c6.28-19.91,12.19-49.84,15.92-94.81c0,0,19.53-161.2-5.15-201.91
		c-0.03-0.05-0.06-0.09-0.08-0.13c-2.79-4.55-6.13-7.56-10.12-8.66c0,0-0.01,0-0.02-0.01c-0.67-0.34-25.1-12.14-42.23,81.68
		c-0.03,0.12-0.05,0.25-0.07,0.37c-1.21,6.6-2.37,13.72-3.49,21.4c-0.01,0.07-0.02,0.14-0.03,0.22c-0.01,0.03-0.01,0.05-0.01,0.08
		l-7.07-4.98c0,0,7.6-127.05,59.21-123.65c1.03,0.07,2.02,0.24,2.99,0.5c6.86,1.89,12.06,8.7,15.94,18.96
		C454.23,97.05,450.67,180.91,445.93,239.06z"/>
	<path fill="#AA0029" d="M460.15,250.13c0,0-9.43,209.3-71.51,181.53c6.58-3.01,11.06-6.67,13.77-9.28
		c3.85-3.69,6.24-7.21,8.14-10.02c2.44-3.6,4.08-6.69,5.57-9.67c0.28-0.56,0.55-1.11,0.83-1.66c0.37-0.75,0.73-1.49,1.06-2.21
		c1.64-3.48,2.86-6.49,3.82-8.98c0.03-0.07,0.08-0.21,0.15-0.4c0.04-0.09,0.07-0.18,0.1-0.27c0.04-0.11,0.08-0.22,0.12-0.32
		c0.67-1.8,2.11-5.74,3.66-10.56c0.03-0.11,0.07-0.22,0.1-0.32c1.22-3.8,2.49-8.12,3.52-12.37c0.02-0.06,0.03-0.12,0.04-0.17
		c5.99-24.93,14.7-107.74,15.24-112.89c0.01-0.04,0.01-0.08,0.01-0.11c0.01-0.1,0.02-0.14,0.02-0.14s0.4-4.1,0.96-11.17l0.16-2.04
		c0.39-4.98,0.85-11.2,1.3-18.31c2.86-44.59,5.72-124.69-7.19-161.26c-3.81-10.78-8.98-17.78-15.94-18.96
		C424.1,40.52,477.97,11.73,460.15,250.13z"/>
	<path fill="#D81330" d="M348.81,133.1c0,0-2.14,0.61-4.8,0.21c-4.05-0.6-9.3-3.53-10.04-14.44c0,0,0.09-11.6,10.04-7.82
		c0.11,0.04,0.23,0.09,0.35,0.13C344.36,111.19,346.81,131.36,348.81,133.1z"/>
	<path fill="#FFFFFF" stroke="#000000" stroke-width="0.513" stroke-miterlimit="10" d="M361.65,184.23
		c-3.99-2.26-10.7-6.12-17.64-10.37c-13.54-8.31-27.92-18.12-24.54-20.55l19.65-1.31l1.44-2.21l3.45,2.78l8.07,6.51
		C352.09,159.08,373.44,190.91,361.65,184.23z"/>
	<path fill="#D81330" d="M333.97,185.15c0,0-9.78-0.14-18.82-1.31c-9.04-1.18-28.55-11.77-22.53-16.36s6.55-1.06,15.06-3.42
		C307.68,164.06,317.95,184.76,333.97,185.15z"/>
	<path fill="#D81330" d="M379.86,199.69l-1.31,4.32l-12.05-1.05l-4.59-7.34c0,0,8.91-2.75,9.17-5.37L379.86,199.69z"/>
	<path fill="#FFFFFF" stroke="#000000" stroke-width="0.513" stroke-miterlimit="10" d="M381.56,259.15c0,0-3.85,5.29-6.89,9.54
		c-1.82,2.53-3.34,4.69-3.59,5.14c-0.66,1.18-2.45,10.73-7.63,13.22c0.12-0.2,1.6-2.91,1.34-21.34l10.63-4.16L381.56,259.15z"/>
	<path fill="#D81330" d="M376.32,287.06c0,0-0.66-9.3,12.31-12.45C401.6,271.47,379.99,288.89,376.32,287.06z"/>
	<path fill="#D81330" d="M350.91,280.71l-6.9,24.07l-0.17,0.61c0,0-14.8,14.67-18.47,14.14c0,0-4.85-3.53,4.85-13.1
		c0,0,1.05-0.39-2.23-4.06c-3.28-3.67-2.75-15.19-2.75-15.19l18.78-4.74L350.91,280.71z"/>
	<path fill="#FFFFFF" stroke="#000000" stroke-width="0.513" stroke-miterlimit="10" d="M295.37,311.94l-8.64-13.1l3.27-2.36
		c0,0-2.36-12.05,4.45-18.47l-0.52-12.71c0,0,5.37-6.13,8.91-7.39s23.45,4.64,23.45,4.64l3.8,9.95l-7.07,8.2
		c0,0-11.26,2.63-12.05,19.42L295.37,311.94z"/>
	<path fill="#D81330" d="M317.9,355.16c0,0,8.25-12.31,12.18-11.53c0,0,5.76-3.27,6.42-9.82c0.65-6.55,2.75-9.95,2.75-9.95
		s-10.87,2.36-17.94,15.65c-7.07,13.29-7.07,13.29-7.07,13.29S313.97,356.47,317.9,355.16z"/>
	<path fill="#FFFFFF" stroke="#000000" stroke-width="0.3848" stroke-miterlimit="10" d="M367.54,298.93l-6.59,3.32l-8.56,4.02
		c-0.52-6.11,7.58-7.34,7.58-7.34C366.85,296.66,367.54,298.93,367.54,298.93z"/>
	<path fill="none" stroke="#000000" stroke-width="0.513" stroke-miterlimit="10" d="M370.86,302.38l0.22-0.11l4.19-2.14
		c12.23,18.32,16.24-15.28,16.24-15.28c5.07-2.48,6.96-6.94,7.27-11.71c0.57-8.88-4.29-18.87-4.27-19.44
		c0.01-0.43,3.41-3.03,6.85-5.56c0.01,0,0.01-0.01,0.01-0.01c3.52-2.59,7.08-5.08,7.08-5.08l-6.62-9.02l-0.12-0.17l-3.39-4.61
		l2.62-10.13l-17.62-17.99l3.12-10.88l-2.86-5.05l-0.26-0.45"/>
	<polygon fill="#FFFFFF" stroke="#000000" stroke-width="0.513" stroke-miterlimit="10" points="274.28,121.87 278.87,111.71 
		290.57,111.71 293.54,116.79 310.13,123.24 303.32,142.27 284.81,141.05 	"/>
	<path fill="#D81330" d="M130.16,174.01c13.36,19.4,26.72,38.8,40.08,58.2c-1.89-0.44-3.78-0.87-5.68-1.31
		c4.01,4.79,8.02,9.58,12.02,14.36c-0.86,0.35-1.75,0.69-2.69,1.01c-0.5,0.17-0.99,0.34-1.47,0.49c-4.63-6.75-9.27-13.5-13.9-20.25
		c-0.35-0.67-0.71-1.33-1.06-2l-18-7.5c-5.17-9.12-10.35-18.23-15.52-27.35c-0.22,0.13-0.44,0.25-0.66,0.38
		c5.26,9.15,10.53,18.3,15.79,27.45c5.92,2.54,11.84,5.08,17.76,7.63c2.07,3.05,4.15,6.1,6.22,9.15c-0.29,2.41-0.48,4.26-0.6,5.51
		c-0.12,1.27-0.24,2.67-0.67,4.57c-0.14,0.61-0.27,1.11-0.36,1.44c-24.15,7.8-48.3,15.6-72.46,23.4v-5.89l34.59-17.07l7.96-13.04
		l9.67-4.3l-11.01-21.61l-8.63-6.72L115.77,180l5.17-9.55c0.43,1.97,0.86,3.93,1.28,5.9C124.87,175.57,127.52,174.79,130.16,174.01z
		"/>
	<path fill="none" stroke="#FFFFFF" stroke-width="0.7695" stroke-miterlimit="10" d="M130.16,174.01l40.08,58.2l-5.68-1.31
		c4.06,4.83,8.12,9.66,12.19,14.49"/>
	<polygon fill="#F9C626" stroke="#FFFFFF" stroke-width="0.513" stroke-miterlimit="10" points="126.73,195.29 151.81,186.13 
		166.29,195.56 158.43,226.41 157.3,224.69 139.46,217.02 	"/>
	<g>
		<path fill="#FFEB99" stroke="#000000" stroke-width="2.0521" stroke-miterlimit="10" d="M43.04,270.47l32.57-18.02
			c2.06-1.14,2.87-3.79,1.62-5.78c-0.54-0.85-1.43-1.55-2.91-1.77c-0.9-0.13-1.82,0.05-2.62,0.49l-32.37,17.95
			c-0.87,0.48-1.55,1.25-1.89,2.18c-0.61,1.66-0.91,4.2,2.26,5.28C40.81,271.17,42.02,271.03,43.04,270.47z"/>
		<path fill="#FFDE55" stroke="#000000" stroke-width="2.0521" stroke-miterlimit="10" d="M45.04,269.36c0,0,6.89,10.31,7.8,12.41
			c0.92,2.1,7.92,19.32,22.46,11.53s8.64-18.6,7.73-20.5s-9.05-15.57-8.94-19.51L45.04,269.36z"/>
		<path fill="#FFCD00" stroke="#000000" stroke-width="1.5391" stroke-miterlimit="10" d="M41.19,271.23c0,0-8.69,3.84-4.85,11.31
			c3.84,7.47,14.14,12.4,22.81,8.88c0,0-3.16-3.26-3.75-4.69c0,0-11.82,1.92-14.8-9.21l7.43-3.62l-2.98-4.3L41.19,271.23z"/>
		<path fill="#FFCD00" stroke="#000000" stroke-width="1.5391" stroke-miterlimit="10" d="M74.12,253.83c0,0,10.03-8.21,14.09-2.51
			s5.09,18.73-3.22,26.07l-2.29-5.6c0,0,4.92-5.86,2.99-11.92s-2.81-5.29-2.81-5.29l-6.92,3.91
			C75.96,258.48,75.07,257.78,74.12,253.83z"/>
		<path fill="#FFCD00" stroke="#000000" stroke-width="1.5391" stroke-miterlimit="10" d="M68.34,295.31c0,0,1.57,5.61,9.82,1.5
			c8.25-4.1,4.37-9.4,4.37-9.4S78.57,294.44,68.34,295.31z"/>
		<path fill="#DDB200" stroke="#000000" stroke-width="1.5391" stroke-miterlimit="10" d="M74.68,298.32c0,0,3.21,6.02,3.44,7.3
			l8.25-4.45c0,0-3.44-4.39-4.26-6.94C82.12,294.22,80.22,296.98,74.68,298.32z"/>
		<path fill="#CC7400" stroke="#000000" stroke-width="1.5391" stroke-miterlimit="10" d="M98.15,313.35l-17.09,8.9
			c-2.18,1.13-4.88,0.28-6.02-1.9l-0.59-1.14c-1.13-2.18-0.28-4.88,1.9-6.02l17.09-8.9c2.18-1.13,4.88-0.28,6.02,1.9l0.59,1.14
			C101.18,309.5,100.33,312.21,98.15,313.35z"/>
		<path fill="#FFCD00" stroke="#000000" stroke-width="1.5391" stroke-miterlimit="10" d="M91.9,304.16l-14.45,7.53
			c-1.12,0.58-2.51,0.14-3.09-0.97l0,0c-0.58-1.12-0.14-2.51,0.97-3.09l14.45-7.53c1.12-0.58,2.51-0.14,3.09,0.97l0,0
			C93.45,302.19,93.02,303.58,91.9,304.16z"/>
		<path fill="#FFD422" d="M59.15,263.35c0.87,4.12,2.33,7.03,3.47,8.89c2.13,3.47,4.19,4.98,10.57,11.22c2.61,2.55,4.68,4.67,5.98,6
			c-2.38,2.04-4.66,3.08-6.15,3.62c-1.88,0.69-3.8,1.39-6.3,1.07c-2.87-0.37-4.85-1.89-5.73-2.66c-0.91-0.72-1.88-1.6-2.84-2.67
			c-2.45-2.72-3.83-5.53-4.61-7.61c-2.34-3.87-4.69-7.74-7.03-11.61l12.4-6.75L59.15,263.35z"/>
		<path fill="#FFDE55" d="M51.41,257.81c-0.43,1.79,0.11,3.54,1.35,4.4c0.75,0.53,1.58,0.59,2.03,0.59c-4.1,2.28-8.2,4.55-12.3,6.83
			c-0.29,0.15-0.75,0.34-1.34,0.37c-0.97,0.05-2.31-0.35-2.86-1.45c-0.43-0.85-0.18-1.74-0.04-2.25c0.07-0.26,0.24-0.84,0.74-1.4
			c0.24-0.27,0.48-0.46,0.66-0.57C43.57,262.15,47.49,259.98,51.41,257.81z"/>
	</g>
	
		<text transform="matrix(0.887 -0.4618 0.4618 0.887 144.1099 219.375)" fill="#D81330" font-family="'CenturyGothic'" font-size="31.5473px">P</text>
	<path stroke="#FFFFFF" stroke-width="0.513" stroke-miterlimit="10" d="M172.9,247.95l2.58,4.58c0,0,4.28-1.29,9.39-3.08
		l-2.79-5.46L172.9,247.95z"/>
	<path fill="#444444" stroke="#FFFFFF" stroke-width="0.513" stroke-miterlimit="10" d="M182.29,244l2.77,5.26
		c0,0,2.17-0.43,9.17-3.87l-2.97-5.87L182.29,244z"/>
</g>
</svg>
