<?xml version="1.0" encoding="utf-8"?>
<!-- Generator: Adobe Illustrator 26.0.0, SVG Export Plug-In . SVG Version: 6.00 Build 0)  -->
<svg version="1.1" id="Layer_1" xmlns="http://www.w3.org/2000/svg" xmlns:xlink="http://www.w3.org/1999/xlink" x="0px" y="0px"
	 viewBox="0 0 302.3 642.9" enable-background="new 0 0 302.3 642.9" xml:space="preserve">
<rect x="-883.47" y="-140.08" display="none" width="1400" height="766"/>
<g>
	<path fill="#FFFFFF" stroke="#000000" stroke-width="0.8183" stroke-miterlimit="10" d="M181.45,235.92c0,0,22.72,8.12,24.78,10.11
		c0,0,3,43.84,1.61,63.06l-11.87,61.98l-5.73-4.49c0,0,0.82-79.18-0.74-87.28C187.92,271.2,186.96,257.61,181.45,235.92z"/>
	<path stroke="#FFFFFF" stroke-width="1.2275" stroke-miterlimit="10" d="M134.45,142.08l75.84,27.58l33.22-13.79l18.8,13.79
		l5.64,33.85c-20.16,26.98-40.31,53.95-60.47,80.93c-0.58-12.77-1.16-25.54-1.74-38.31c-8.05-3.23-16.11-6.47-24.16-9.7
		c-0.45-0.52-0.9-1.04-1.35-1.56c-2.73-0.95-5.96-2.07-8.69-3.02c-13.19-4.59-26.37-9.21-39.55-13.86l-19.5-30.37L134.45,142.08z"/>
	<path fill="#FFFFFF" stroke="#000000" stroke-width="0.8183" stroke-miterlimit="10" d="M178.17,100.64
		c-1.49,4.62-2.97,9.24-4.46,13.86l-28.83,4.18c-3.4,7.49-6.81,14.97-10.21,22.46c25.23,9.23,50.45,18.46,75.68,27.68
		c10.82-4.55,21.63-9.11,32.45-13.66c-8.98-9.56-17.96-19.12-26.94-28.69c-2.58-7.87-5.16-15.73-7.74-23.6
		c3.23-2.23,5.44-4.43,6.87-6.03c0.53-0.6,1.71-0.88,5.22-6.79c0.75-1.27,1.93-3.04,3.66-4.91c6.02-6.53,11.35-6.25,12.12-9.51
		c1.19-5.03-9.23-13.89-14.31-11.6c-0.86,0.39-1.71,1.15-2.4,2.61c0.19-8.26-0.46-12.54-1.93-12.85c-0.48-0.1-1.04,0.21-1.69,0.94
		c-11.51,0.33-34.54,0.98-34.54,0.98c-19.92,35.66,6.96,57.95,9.05,57.25c4.49-1.5,8.49-4.95,10.31-7.8"/>
	<path stroke="#FFFFFF" stroke-width="1.2275" stroke-miterlimit="10" d="M214.04,120.6c-0.03,0.1-6.58-17.31-6.58-17.31l7.13-16.89
		c0,0,7.63-0.17,7.91-9.75c0,0,0.6-7.4-3.48-6.42c0,0-2.72,0.29-6.03,4.15l2.65-19.64c0,0-12.22,8.01-34.54,0.98
		c0,0-11.98-5.26-12.4-11.32c0,0,11.07,1.98,24.65-7.21c13.58-9.19,46.49-9.72,39.38,16.71c0,0,20.16-1.36,5.95,26.22
		c0,0-5.75,10.66-11.8,15.57C226.89,95.7,219.16,103.6,214.04,120.6z"/>
	<polygon stroke="#FFFFFF" stroke-width="1.2275" stroke-miterlimit="10" points="77.75,265.35 92.23,407.43 130.68,487.66 
		185.3,571.66 207.98,638.1 212.86,618.46 197.45,560.93 140.15,448.94 129,411.61 121.2,325.81 129.35,411.54 140.57,448.8 
		197.88,560.79 217.45,631.55 223.17,569.57 213.55,558.7 205.27,456.74 187.3,435.43 186.25,381.73 185.3,291.26 	"/>
	<path fill="#FFFFFF" stroke="#000000" stroke-width="0.8183" stroke-miterlimit="10" d="M139.45,220.29
		c14.16,4.32,28.32,8.64,42.48,12.95c5.37,25.93,7.43,47.52,8.29,63.03c0,0,0.01,73.96,0.01,73.96l0,0L171,353.11l2.93-46.59
		c0,0-13.24-21.31-15.08-54.11c-9.67,15.48-20.12,24.21-26.24,21.86c-1.27-0.49-2.85-1.65-4.16-4.58
		c-4.83-11.87-5.24-15.27-4.39-15.75c0.32-0.18,0.89,0.01,1.67-0.42c1.14-0.62,1.54-1.91,1.67-2.3
		C128.07,249.22,132.86,237.06,139.45,220.29z"/>
	<path stroke="#FFFFFF" stroke-width="0.8183" stroke-miterlimit="10" d="M134.15,293.35c1.35-1.42,2.81-3.24,4.09-5.53
		c3.72-6.61,3.8-13.15,3.58-16.48c0,0-8,5.94-13.37-1.66c0.01,3.09,0.29,6.97,1.26,11.33C130.85,286.13,132.59,290.29,134.15,293.35
		z"/>
	<path stroke="#FFFFFF" stroke-width="0.8183" stroke-miterlimit="10" d="M163.16,282.88c-1.54,0.99-8.96,5.58-15.03,2.94
		c-7.4-3.22-11.66-16.73-4.92-31.32c4.58,11.42,10.39,18.86,14.92,18.12c0.7-0.11,1.47-0.44,2.27-1.14
		c0.25,1.62,0.57,3.34,0.99,5.15C161.92,278.89,162.53,280.98,163.16,282.88z"/>
	<path fill="#D81330" stroke="#FFFFFF" stroke-width="0.8183" stroke-miterlimit="10" d="M65.73,205.64
		c-1.64-1.29-11.07-19.38-5.94-51.84l12.17,41.28L65.73,205.64z"/>
	<path fill="#FFFFFF" stroke="#000000" stroke-width="0.8183" stroke-miterlimit="10" d="M99.06,72.16c0,0,5.29,14.21,9.89,16.85
		c4.6,2.65,20.06-15.74,20.06-15.74c0.16-8.1,0.31-16.19,0.47-24.29c-2.48-0.08-5.18-0.3-8.06-0.71c-5.83-0.85-10.86-2.3-14.96-3.83
		c-1.65,2.34-3.31,4.69-4.96,7.03c-0.63-0.05-1.59-0.16-2.79-0.38c-0.35-0.07-0.47-0.09-0.65-0.13c-1.17-0.23-3.17-0.61-4.13,0.13
		c0,0-0.64,0.5-0.55,5.33c0.03,0.86,0.09,1.75,0.19,2.68c0.22,2.13,0.58,4.06,1.01,5.78c-0.57,3.83-1.15,7.66-1.72,11.49
		l-3.21,13.81l53.42,32.2l2.44-4.53l-29.56-19.64c0.44-4.16,0.87-8.32,1.31-12.48"/>
	<path fill="#D81330" stroke="#FFFFFF" stroke-width="0.8183" stroke-miterlimit="10" d="M73.85,117.64l137.27,45.76L73.85,80.65
		c0,0-29.46,20.68-21.94,46.38l20.06,68.04c0,0-18.76,30.37-21.29,42.91c0,0,31.52,24.58,80.28-19.99l-19.5-30.37l23.61-48.95"/>
	<path stroke="#FFFFFF" stroke-width="0.8183" stroke-miterlimit="10" d="M173.09,64.91c-5.05,3.33-0.49,16.55-4.08,17.48
		c-0.77,0.2-2.13,0.15-4.28-1.74c0,0-52.65-26.4-23.4-34.82l5.95-2.16c0,0-31.55-31.86-46.8-21.62c0,0-29.04,10.03-18.39,44.92
		l3.48,20.76l4.07,2.45c0,0,5.09-22.17,6.34-24.57c0,0-6.3-11.34,0.9-14.04c0,0,4.74-0.79,5.36,9.31l3.9-15.04
		c0,0,14.9,3.62,22.84,3.34v24.1c-1.5,1.78-3.17,3.63-5.01,5.51c-2.42,2.46-4.79,4.63-7.05,6.52c-0.42,4.29-0.84,8.58-1.27,12.86
		c9.96,6.81,19.91,13.61,29.87,20.42c9.17-1.6,18.35-3.2,27.52-4.8c1.46-4.39,2.92-8.78,4.38-13.18c-3.53-7.32-4.3-13.55-4.46-17.2
		c-0.04-0.93-0.14-3.98,0.37-7.95c0.61-4.72,1.8-8.56,2.86-11.31C175.4,64.12,174.18,64.2,173.09,64.91z"/>
	<path fill="#FFFFFF" stroke="#000000" stroke-width="0.8183" stroke-miterlimit="10" d="M142.97,123.26
		c-2.26,4.76-4.51,9.53-6.77,14.29c24.97,8.61,49.94,17.23,74.92,25.84C188.4,150.02,165.68,136.64,142.97,123.26z"/>
	<polygon fill="#D81330" points="133.39,142.08 124.91,159.69 176.35,177.6 182.74,160.03 	"/>
	<polygon fill="#F9C626" stroke="#FFFFFF" stroke-width="0.8183" stroke-miterlimit="10" points="124.91,159.69 194.75,184.01 
		206.23,208.52 172.25,230.46 130.95,218 111.45,187.63 	"/>
	
		<text transform="matrix(0.947 0.3213 -0.3213 0.947 113.6999 225.9996)" fill="#D81330" font-family="'CenturyGothic'" font-size="85.5634px">P</text>
	<path fill="none" stroke="#FFFFFF" stroke-width="0.8183" stroke-miterlimit="10" d="M185.3,233.94c0.26-0.35,9.25-9.4,9.25-9.4"/>
	<path fill="none" stroke="#FFFFFF" stroke-width="0.8183" stroke-miterlimit="10" d="M230.55,233.94c7.4-3.07,14.8-6.13,22.19-9.2"
		/>
	<path fill="#D81330" d="M120.83,276.1c-1.63,27-1.05,41.78-0.36,49.81c0.1,1.21,0.59,6.73,1.18,13.13
		c1.04,11.34,1.88,19.75,2.16,22.63c0.85,8.64,2.28,23.4,4.81,50.01c3.75,12.54,7.5,25.07,11.25,37.61
		c19.06,37.27,38.13,74.55,57.19,111.82c5.12,19.11,10.24,38.21,15.37,57.32c-1.5,6.07-3.01,12.15-4.51,18.22
		c-7.38-21.78-14.76-43.55-22.14-65.33c-18.19-27.98-36.37-55.97-54.56-83.95c-12.81-26.73-25.62-53.45-38.44-80.18
		c-4.81-47.53-9.61-95.07-14.42-142.6C92.52,268.43,106.68,272.26,120.83,276.1z"/>
	<path fill="#161616" stroke="#FFFFFF" stroke-width="0.8183" stroke-miterlimit="10" d="M52.82,239.36c0,0,28.57,47.1,80.57,54.2
		c0,0-15.77-33.45,8.73-72.2L130.95,218C130.95,218,89.89,260.59,52.82,239.36z"/>
	<path fill="#AA0029" d="M51.14,237.81c11.26-13.04,22.52-26.07,33.78-39.11l-33.69-81.64c0,0-1.04,3.34,1.93,12.75
		c6.41,21.78,12.83,43.55,19.24,65.33c-1.21,1.96-2.73,4.48-4.46,7.44c-0.98,1.69-3.22,5.56-6.16,11.03c0,0-4.15,7.71-8.01,16.26
		c-0.48,1.07-1.43,3.2-2.2,6.12C51.37,236.76,51.23,237.41,51.14,237.81z"/>
	<path fill="#AA0029" d="M55.11,102.87c2.67-2.36,6.4-5.12,11.26-7.36c10.27-4.74,19.81-4.49,24.71-3.99L73.9,81.18
		c-2.82,2.05-6.05,4.75-9.28,8.25C60.15,94.26,57.13,99.05,55.11,102.87z"/>
	<path fill="#AA0029" d="M113.39,105.02c0,0,30.03,19.79,22.16,32.6l7.23-14.9L113.39,105.02z"/>
	<path fill="#AA0029" d="M88.54,276.43c3.28,42.83,6.57,85.66,9.85,128.5c13.17,26.37,26.35,52.74,39.52,79.12
		c18.39,29.11,36.77,58.22,55.16,87.34c5.33,20.21,10.66,40.41,15.99,60.62c-0.38,1.55-0.77,3.1-1.15,4.65l-22.14-65.33
		l-54.56-83.95l-38.44-80.18c-4.71-46.12-9.41-92.25-14.12-138.37C81.96,271.36,85.25,273.89,88.54,276.43z"/>
	<g>
		<g>
			<path fill="#FFFFFF" d="M174.69,64.36c0.01,0.09,0,0.19-0.01,0.28c0.01-0.04,0.01-0.07,0.02-0.11c-0.02,0.17-0.08,0.33-0.16,0.48
				c-0.04,0.06-0.03,0.12,0.02,0.16c0.04,0.06,0.1,0.1,0.18,0.1c0.11,0.02,0.22,0.03,0.33,0.02c0.14,0,0.28-0.01,0.42-0.04
				c0.31-0.06,0.62-0.14,0.9-0.28c0.18-0.09,0.38-0.19,0.48-0.37c0.07-0.12,0.12-0.24,0.14-0.38c0.04-0.16,0.06-0.33,0.05-0.5
				c-0.03-0.07-0.07-0.11-0.14-0.12c-0.09-0.04-0.18-0.06-0.28-0.06c-0.14-0.01-0.27,0-0.4,0.02c-0.16,0.02-0.31,0.05-0.47,0.09
				c-0.1,0.03-0.21,0.07-0.31,0.1c-0.17,0.06-0.34,0.14-0.5,0.24c-0.05,0.04-0.11,0.08-0.16,0.13
				C174.72,64.19,174.68,64.27,174.69,64.36L174.69,64.36z"/>
		</g>
	</g>
	<g>
		<g>
			<path fill="#1D1D1B" d="M174.6,64.13c-0.04,0.69-0.13,1.37-0.28,2.04c0.79-0.15,1.59-0.29,2.38-0.44
				c-0.03-0.13-0.05-0.26-0.05-0.4c0,0.06,0,0.13,0.01,0.19c-0.01-0.31,0.04-0.62,0.16-0.92c-0.03,0.07-0.05,0.13-0.08,0.2
				c0.08-0.21,0.19-0.4,0.33-0.58c-0.05,0.06-0.1,0.13-0.15,0.19c0.1-0.13,0.22-0.25,0.35-0.36c-0.07,0.06-0.14,0.11-0.21,0.17
				c0.02-0.01,0.04-0.03,0.05-0.04c0.18-0.14,0.4-0.32,0.44-0.56c0.03-0.2-0.08-0.4-0.26-0.5c-0.24-0.13-0.53-0.16-0.79-0.12
				c-0.31,0.04-0.65,0.12-0.9,0.31c-0.31,0.24-0.55,0.47-0.78,0.79c-0.18,0.23-0.29,0.49-0.39,0.77c-0.18,0.47-0.2,1-0.09,1.49
				c0.05,0.21,0.29,0.35,0.48,0.39c0.24,0.06,0.49,0.05,0.73,0.01c0.25-0.05,0.52-0.13,0.73-0.28c0.19-0.14,0.38-0.31,0.44-0.56
				c0.14-0.67,0.24-1.36,0.28-2.04c0.01-0.22-0.07-0.38-0.26-0.5c-0.22-0.13-0.55-0.16-0.79-0.12c-0.31,0.04-0.64,0.13-0.9,0.31
				C174.86,63.71,174.61,63.9,174.6,64.13L174.6,64.13z"/>
		</g>
	</g>
	<g>
		<g>
			<path d="M175.45,63.31c-0.34,0.64-0.32,1.34-0.55,2.01c-0.22,0.64-0.67,1.17-0.83,1.84c0.79-0.15,1.59-0.29,2.38-0.44
				c-0.2-1.23,0.19-2.46,0.43-3.65c0.11-0.55-0.68-0.69-1.06-0.64c-0.52,0.07-1.17,0.32-1.33,0.88c-0.32,1.16-0.61,2.33-0.87,3.51
				c-0.09,0.43,0.43,0.62,0.76,0.64c0.46,0.04,1.1-0.12,1.41-0.49c0.07-0.08,0.13-0.16,0.2-0.24c-0.72,0.02-1.44,0.03-2.16,0.05
				c0.06,0.7-0.38,1.43-0.54,2.1c-0.18,0.75-0.25,1.53-0.33,2.29c-0.1,1.09,2.3,0.69,2.39-0.24c0.08-0.82,0.15-1.64,0.36-2.44
				c0.21-0.8,0.56-1.5,0.49-2.35c-0.03-0.37-0.65-0.45-0.9-0.44c-0.42,0.01-0.98,0.15-1.26,0.49c-0.07,0.08-0.13,0.16-0.2,0.24
				c0.72,0.05,1.44,0.1,2.16,0.15c0.25-1.18,0.54-2.35,0.87-3.51c-0.8,0.08-1.59,0.16-2.39,0.24c-0.27,1.35-0.64,2.67-0.42,4.05
				c0.08,0.49,0.88,0.47,1.21,0.41c0.46-0.09,1.04-0.34,1.17-0.85c0.15-0.61,0.59-1.12,0.79-1.72c0.19-0.56,0.16-1.2,0.44-1.73
				c0.26-0.5-0.23-0.81-0.68-0.84C176.49,62.59,175.72,62.81,175.45,63.31L175.45,63.31z"/>
		</g>
	</g>
	<g>
		<g>
			<path d="M172.55,71.87c-0.32,1.85-0.73,3.72-0.88,5.6c-0.17,1.99-0.1,4.01-0.12,6.01c-0.01,1.24,2.39,0.89,2.4-0.18
				c0.02-1.99-0.05-4.02,0.12-6.01c0.16-1.88,0.57-3.74,0.88-5.6C175.16,70.51,172.73,70.81,172.55,71.87L172.55,71.87z"/>
		</g>
	</g>
	<g>
		<g>
			<path d="M171.53,84.4c0.07,3.66,0.26,7.36,1.48,10.84c0.18,0.5,2.52-0.21,2.37-0.64c-1.22-3.48-1.41-7.18-1.48-10.84
				C173.9,83.43,171.52,83.77,171.53,84.4L171.53,84.4z"/>
		</g>
	</g>
	<g>
		<g>
			<path d="M172.59,91.19c0.1,0.65,0.19,1.29,0.35,1.93c0.15,0.62,0.38,1.21,0.61,1.79c0.23,0.58,0.45,1.16,0.6,1.76
				c0.14,0.55,0.26,1.05,0.59,1.52c0.1,0.14,0.49,0.14,0.62,0.14c0.3-0.01,0.65-0.08,0.93-0.2c0.29-0.12,0.95-0.42,0.67-0.81
				c-0.31-0.43-0.36-1.02-0.5-1.52c-0.16-0.56-0.37-1.11-0.59-1.65c-0.46-1.18-0.73-2.36-0.92-3.61c-0.03-0.17-0.32-0.23-0.44-0.24
				c-0.28-0.04-0.61,0.01-0.88,0.08C173.34,90.48,172.52,90.73,172.59,91.19L172.59,91.19z"/>
		</g>
	</g>
	<g>
		<g>
			<path d="M175.07,98.35c0.19,1.05,0.6,2.13,0.42,3.21c-0.09,0.52-0.36,1-0.58,1.48c-0.24,0.52-0.48,1.04-0.72,1.56
				c-0.16,0.35,0.82,0.18,0.93,0.16c0.31-0.06,0.62-0.15,0.91-0.28c0.15-0.07,0.42-0.17,0.5-0.33c0.24-0.52,0.48-1.04,0.72-1.56
				c0.23-0.51,0.5-1,0.61-1.55c0.22-1.12-0.2-2.23-0.4-3.32c-0.06-0.31-1.1-0.04-1.27,0.01c-0.28,0.08-0.56,0.17-0.81,0.32
				C175.26,98.09,175.04,98.21,175.07,98.35L175.07,98.35z"/>
		</g>
	</g>
	<g>
		<g>
			<path d="M174.99,102.86c-0.01,0.14-0.05,0.28-0.1,0.41c0.03-0.06,0.05-0.13,0.08-0.19c-0.13,0.31-0.33,0.59-0.5,0.87
				c-0.21,0.36-0.38,0.76-0.45,1.17c-0.04,0.21,0.08,0.38,0.26,0.48c0.22,0.12,0.55,0.14,0.79,0.11c0.31-0.04,0.64-0.13,0.9-0.31
				c0.19-0.13,0.39-0.3,0.44-0.54c0.04-0.2,0.09-0.39,0.17-0.58c-0.03,0.06-0.05,0.13-0.08,0.19c0.27-0.64,0.82-1.16,0.89-1.88
				c0.06-0.54-0.64-0.64-1.05-0.59c-0.31,0.04-0.64,0.13-0.9,0.31C175.26,102.45,175.02,102.63,174.99,102.86L174.99,102.86z"/>
		</g>
	</g>
	<g>
		<g>
			<path d="M174.86,103.97c-0.13,1.67-0.81,3.33-1.3,4.92c-0.52,1.68-1.04,3.37-1.56,5.05c-0.16,0.51,0.74,0.52,1.02,0.48
				c0.46-0.06,1.2-0.28,1.35-0.79c0.52-1.68,1.04-3.37,1.56-5.05c0.49-1.59,1.17-3.25,1.3-4.92
				C177.3,102.73,174.92,103.19,174.86,103.97L174.86,103.97z"/>
		</g>
	</g>
	<g>
		<g>
			<path d="M171.62,113.49c-0.53,0.26-1.02,0.4-1.61,0.39c0.21,0.23,0.43,0.46,0.64,0.69c0.02-0.04,0.04-0.07,0.06-0.11
				c-0.12,0.11-0.25,0.22-0.37,0.32c-0.3,0.19,0.2-0.03,0.28-0.05c0.2-0.06,0.4-0.12,0.61-0.18c-0.37-0.26-0.74-0.52-1.11-0.78
				c-0.1,0.09-0.91,0.14-1.15,0.19c-0.27,0.06-0.53,0.15-0.8,0.24c-0.09,0.03-0.17,0.06-0.26,0.09c-0.23,0.06-0.25,0.07-0.07,0.03
				c0.15,0.16,0.31,0.33,0.46,0.49c0.08-0.15,0.03-0.15-0.15-0.01c-0.25,0.1-0.25,0.12,0,0.07c-0.19-0.33-0.38-0.66-0.57-0.99
				c-1.02,0.61-2.26,0.64-3.41,0.73c-1.39,0.11-2.97,0.19-4.18,0.95c-0.44,0.28-0.71,0.86,0.01,0.98c0.82,0.15,1.55-0.19,2.36-0.16
				c0.93,0.04,1.73-0.12,2.48-0.68c0.41-0.3,0.22-0.73-0.22-0.83c-0.58-0.12-1.21,0.11-1.68,0.45c0.74-0.18,0.91-0.27,0.51-0.26
				c-0.06,0-0.11-0.01-0.17-0.01c-0.25-0.01-0.49-0.01-0.73,0c-0.25,0.02-0.48,0.05-0.73,0.09c-0.12,0.02-0.24,0.05-0.37,0.08
				c-0.23,0.05-0.24,0.06-0.01,0.04c0,0.33,0,0.66,0.01,0.98c0.41-0.26,1.15-0.24,1.62-0.28c0.68-0.06,1.36-0.1,2.04-0.17
				c1.38-0.16,2.74-0.51,3.94-1.23c0.24-0.14,0.57-0.43,0.41-0.74c-0.16-0.3-0.7-0.3-0.98-0.26c-0.97,0.13-2.23,0.47-2.55,1.54
				c-0.08,0.28,0.23,0.45,0.46,0.49c0.56,0.08,1.1,0.06,1.65-0.08c0.4-0.1,0.79-0.29,1.19-0.36c1.02-0.19,1.96-0.3,2.78-1
				c0.23-0.2,0.34-0.49,0.07-0.71c-0.3-0.23-0.85-0.16-1.18-0.07c-0.79,0.23-2.02,0.37-2.47,1.14c-0.27,0.47,0.23,0.68,0.64,0.69
				c1.2,0.01,2.39-0.23,3.47-0.76c0.31-0.15,0.97-0.52,0.64-0.94C172.89,113.13,171.96,113.32,171.62,113.49L171.62,113.49z"/>
		</g>
	</g>
	<g>
		<g>
			<path d="M158.9,115.39c0.37-0.35,0.55-0.28,0.2-0.19c-0.1,0.02-0.19,0.04-0.29,0.06c-0.21,0.04-0.51,0.1-0.62,0.12
				c-0.51,0.09-1.02,0.15-1.53,0.19c-1.09,0.09-2.31-0.09-3.12,0.82c-0.24,0.27-0.3,0.67-0.01,0.93c0.32,0.3,0.81,0.29,1.21,0.2
				c0.36-0.08-0.1,0,0.27-0.04c-0.29-0.39-0.59-0.79-0.88-1.18c-0.02,0.02-0.04,0.04-0.05,0.06c0.16-0.11,0.31-0.23,0.47-0.34
				c0.5-0.22,0.26-0.09,0.01-0.06c-0.15,0.02-0.3,0.03-0.45,0.04c-0.27,0.02-0.55,0.03-0.83,0.03c-0.71,0-1.32,0.13-1.92,0.52
				c-0.3,0.19-0.53,0.6-0.35,0.94c0.19,0.37,0.64,0.44,1.03,0.43c0.33-0.01,0.66-0.02,1-0.03c0.51-0.02,1.24-0.38,1.31-0.94
				c0.07-0.6-0.64-0.77-1.09-0.75c-0.33,0.01-0.66,0.02-1,0.03c0.22,0.46,0.45,0.91,0.67,1.37c-0.1,0.07-0.2,0.11-0.32,0.14
				c0.04,0,0.08,0,0.13-0.01c0.13,0.01,0.27,0,0.4,0c0.3,0,0.6-0.01,0.9-0.04c0.73-0.06,1.56-0.11,2.07-0.71
				c0.58-0.69-0.18-1.25-0.88-1.18c-0.31,0.03-0.61,0.08-0.91,0.15c0.4,0.38,0.8,0.75,1.2,1.13c-0.15,0.15-0.32,0.23-0.51,0.25
				c-0.09,0.01-0.08,0.01,0.05,0c0.07,0,0.14,0,0.21,0c0.27,0,0.54-0.01,0.81-0.02c0.51-0.03,1.03-0.09,1.53-0.16
				c1.12-0.17,2.4-0.27,3.26-1.07c0.41-0.38,0.17-0.95-0.3-1.12C159.98,114.74,159.34,114.99,158.9,115.39L158.9,115.39z"/>
		</g>
	</g>
	<g>
		<g>
			<path d="M146.85,118.37c0.02-0.02,0.04-0.03,0.06-0.05c-0.16,0.09-0.32,0.18-0.49,0.28c0.02-0.01,0.05-0.02,0.07-0.03
				c-0.21,0.06-0.42,0.11-0.63,0.17c-0.33,0.03,0.08,0.03,0.13,0.03c0.13,0.01,0.26,0.01,0.39,0.02c0.01-0.35,0.01-0.7,0.02-1.05
				c-0.04,0.01-0.07,0.03-0.11,0.04c0.21-0.06,0.42-0.11,0.63-0.17c0.25,0.01,0.29,0,0.1-0.01c-0.12-0.01-0.24-0.02-0.36-0.02
				c-0.26,0-0.52,0.04-0.76,0.11c-0.45,0.12-0.94,0.33-1.21,0.72c-0.4,0.6,0.58,0.63,0.92,0.59c0.67-0.08,1.24-0.15,1.86-0.18
				c0.74-0.04,1.45-0.22,2.18-0.32c0.65-0.09,1.3-0.13,1.95-0.24c0.82-0.15,1.82-0.34,2.47-0.9c0.36-0.31,0.27-0.67-0.2-0.75
				c-0.53-0.09-1.26,0.09-1.68,0.45c0.24-0.12,0.26-0.15,0.07-0.07c0.09-0.03,0.09-0.03,0,0c-0.04,0.01-0.43,0.11-0.25,0.07
				c-0.26,0.05-0.52,0.08-0.77,0.11c-0.59,0.07-1.17,0.11-1.75,0.22c-1.17,0.22-2.3,0.27-3.52,0.42c0.31,0.2,0.61,0.4,0.92,0.59
				c-0.01,0.01-0.02,0.02-0.03,0.03c-0.16,0.09-0.32,0.18-0.49,0.28c-0.23,0.04-0.46,0.08-0.7,0.11c0.04,0,0.08,0.01,0.12,0.01
				c0.17,0.03,0.36,0.02,0.53,0.01c0.35-0.03,0.67-0.11,1-0.23c0.25-0.09,0.75-0.35,0.73-0.67c-0.02-0.34-0.45-0.36-0.71-0.38
				c-0.82-0.05-1.7-0.07-2.36,0.52c-0.12,0.11-0.3,0.28-0.25,0.47c0.05,0.18,0.29,0.26,0.45,0.28
				C145.7,118.91,146.44,118.73,146.85,118.37L146.85,118.37z"/>
		</g>
	</g>
</g>
<g>
	<g>
		<path d="M173.58,65.2c0.23,0.06,0.46,0.09,0.7,0.12c0.13,0.02,0.26,0.03,0.39,0.04c0.19,0.01,0.38,0,0.56-0.05
			c0.2-0.03,0.39-0.08,0.57-0.17c0.17-0.07,0.32-0.16,0.45-0.28c0.13-0.09,0.23-0.2,0.31-0.33c0.03-0.08,0.06-0.16,0.09-0.24
			c0.03-0.16-0.01-0.31-0.12-0.44c-0.07-0.05-0.13-0.1-0.2-0.16c-0.19-0.1-0.39-0.15-0.6-0.16c-0.13-0.01-0.26-0.02-0.39-0.04
			c0.11,0.02,0.22,0.03,0.33,0.05c-0.13-0.02-0.25-0.04-0.37-0.07c-0.17-0.05-0.34-0.06-0.51-0.05c-0.2,0-0.39,0.02-0.58,0.08
			c-0.19,0.05-0.37,0.12-0.54,0.22c-0.16,0.07-0.3,0.17-0.42,0.3c-0.06,0.08-0.12,0.15-0.18,0.23c-0.09,0.14-0.12,0.3-0.09,0.47
			c0.04,0.07,0.07,0.14,0.11,0.2C173.24,65.07,173.4,65.16,173.58,65.2L173.58,65.2z"/>
	</g>
</g>
<path fill="none" stroke="#FFFFFF" stroke-width="0.818" stroke-miterlimit="10" d="M173.04,64.96c0,0,2.08-1.84,4.35-1.16"/>
<rect x="133.09" y="232.36" transform="matrix(0.9388 0.3444 -0.3444 0.9388 92.0752 -33.3489)" fill="#FFFFFF" width="13.62" height="20.24"/>
</svg>
