<?xml version="1.0" encoding="utf-8"?>
<!-- Generator: Adobe Illustrator 26.0.0, SVG Export Plug-In . SVG Version: 6.00 Build 0)  -->
<svg version="1.1" id="Layer_1" xmlns="http://www.w3.org/2000/svg" xmlns:xlink="http://www.w3.org/1999/xlink" x="0px" y="0px"
	 viewBox="0 0 512.68 599.74" enable-background="new 0 0 512.68 599.74" xml:space="preserve">
<g>
	<circle fill="#2BAAE2" stroke="#FFFFFF" stroke-width="2.7862" stroke-miterlimit="10" cx="264.48" cy="209.55" r="195.95"/>
	<path stroke="#FFFFFF" stroke-width="1.0448" stroke-miterlimit="10" d="M206.81,379.47l21.88,29.88l65.45-4.45l19.39-35.21
		l16.9-6.76l30.77,4.45l62.6-33.08h13.52c-0.92-8.06-1.84-16.12-2.76-24.19c5.95-11.03,11.84-24.18,16.54-39.39
		c12.99-42.03,10.58-79.34,6.85-102.88c0,0,26.85,79.32,21.52,181.22l-21.87,30.41l-85.01,49.8l-11.2,53l-31.3,46.95l-0.71,37.17
		c0,0-51.87,19.39-117.32,5.16l-5.22-61.89l-49.8-54.78l-89.28,0.71l-25.25-10.32c-2.66-8.68-5.93-22.05-6.6-38.57
		c-1.1-27.08,5.43-47.38,14.02-73.29c5.24-15.8,13.53-37.37,26.66-61.92c1.05,3.52,2.38,7.3,4.07,11.27
		c3.16,7.44,6.8,13.67,10.23,18.71l-15.89,67.8l10.2,12.8l1.66,15.65l48.37-8.77l16.36,5.69l12.09-13.75L206.81,379.47z"/>
	<path fill="#D81330" stroke="#FFFFFF" stroke-width="1.0448" stroke-miterlimit="10" d="M262.72,407.03l5.99,144.94L258,538.11
		l13.68,38.41c0,0-28.11,2.02-59.65-4.98l-5.22-61.89l-49.8-54.78l-89.28,0.71l-25.25-10.32c-3.3-11.69-5.89-25.02-6.8-39.77
		c-3.92-63.32,25.47-112.42,40.9-134.41c1.21,4.06,2.79,8.53,4.87,13.26c2.98,6.76,6.29,12.46,9.4,17.13l-15.89,67.8l10.2,12.8
		l1.66,15.65l48.37-8.77c4.74,0.24,9.49,0.47,14.23,0.71c4.74-2.92,9.49-5.85,14.23-8.77l43.16-1.42l21.88,29.88L262.72,407.03z"/>
	<path fill="#FFFFFF" stroke="#000000" stroke-width="1.0448" stroke-miterlimit="10" d="M290.22,367.46
		c1.87,2.88,3.73,5.75,5.6,8.63c5.39-1.95,10.78-3.9,16.16-5.85c-6.16,11.23-12.32,22.46-18.48,33.7
		c-21.45,1.44-42.9,2.88-64.34,4.31c-7.02-9.59-14.03-19.19-21.05-28.78c1.82,0.14,3.72,0.23,5.69,0.25
		c5.94,0.07,11.32-0.49,16.01-1.32c0.16-11.59,0.32-23.18,0.47-34.77c-7.12-5.21-11.09-12.54-9.78-19.18
		c1.26-6.38,7.28-11.5,9.49-10.67c1.06,0.4,1.01,1.92,4.33,6.76c0.34,0.49,0.41,0.58,0.59,0.83c0,0,0.17,0.24,0.29,0.42
		c0.29,0.42,0.51,2.17,0.56,2.56c-0.39-0.53-0.93-1.28-1.56-2.2c-3.19-4.65-4.84-6.97-4.94-9.51c-0.03-0.86-0.14-3.84,1.96-6
		c2.11-2.18,5.7-2.77,9.2-1.51c2.79-0.37,6.92-1.09,11.74-2.58c8.02-2.48,11.12-4.99,17.34-7.11c4.12-1.41,10.17-2.83,18.2-2.58
		c3.22,6.15,6.5,14.15,8.34,23.82c5.2,27.2-4.39,49.54-8.97,58.64c-5.37-0.3-13.37-1.38-22.29-5.1
		c-7.58-3.16-13.26-7.16-17.07-10.32"/>
	<path stroke="#FFFFFF" stroke-width="1.0448" stroke-miterlimit="10" d="M230.51,370.15c0,0-46.93-89.33,1.68-72.02
		c0,0-5.1-28.4,24.78-22.7c29.88,5.69,25.43,5.69,43.22-3.73c0,0-0.94,19.33-15.62,26.41c-14.68,7.08-35.54,11.29-44.79,8.92
		c0,0-11.31,1.53,1.02,24.83c0,0-5-10.32-13.2-6.97c0,0-8.69,5.12,5.19,18.18L230.51,370.15z"/>
	<path fill="#65E580" d="M74.65,252.27L74.65,252.27c0,0,1.34-5.55,1.54-6.33c1.6-6.28,8.27-11.79,9.84-13.32
		c7.53-7.35,19.29-14.29,37.5-15.88c42.89-3.74-18.43-63.25,97.05-99.77c0,0,41.02-18.02,14.46-57.62
		c-7.41-6.36-10.57-16.29-8.08-25.39c2.84-10.36,12.5-17.84,23.73-18.12c-33.42,1.26-58.09,10.84-71.98,17.5
		c0,0-52.5,25.25-84.52,81.97c-3.62,6.41-6.62,12.53-9.14,18.33c-1.06,2.45-8.56,19.74-12.36,37.74
		C64.23,211.42,74.64,252.15,74.65,252.27z"/>
	<path fill="#FFFFFF" stroke="#1D1D1B" stroke-width="1.3931" stroke-miterlimit="10" d="M160.93,194.51c0,0,22.17-43.39,76.12-8.54
		c0,0,17.78-55.25,77.18-48.02c0,0-31.78,16.95-25.73,58.21c0,0,40.13-6.11,68.06-44.7c0,0,2.49,54.42-35.92,73.15
		c0,0,14.82,17.78,21.7,20.63c0,0,18.85-7,38.06,18.08l-43.93,24.36l-22.05-24.36c0,0-57.62,21.52-97.46-22.59
		c0,0-25.08-53.71-49.74-32.13c0,0-3.62,6.4,4.27,13.16c-3.98-1.3-8.66-3.59-12.72-7.7c-14.75-14.91-7.28-39.54-6.9-40.73
		c-1.8-1.52-4.98-4.64-6.84-9.61c-3.31-8.88,0.17-16.81,0.97-18.51c1.9-4.29,3.7-6.4,5.4-6.33c2.9,0.13,5.51,6.58,7.85,19.34
		c0,0-1.87-12.33,6.49-20.93c-1.24-2.57-2.98-7.01-3.29-12.78c-0.29-5.24,0.72-9.47,1.56-12.09c2.07-4.67,3.85-6.92,5.32-6.74
		c2.36,0.29,3.94,6.78,4.77,19.45c0,0,19.65-25.79,41.08-12.89c0,0-8.18,14.58-32.99,17.7c2.35-0.04,5.78,0.17,9.67,1.43
		c5.09,1.65,8.62,4.33,10.58,6.08c-1.55,1.31-5.37,4.17-11.07,4.95c-7.15,0.97-12.54-1.98-14.16-2.95c0,0-9.25,4.54-9.16,20.19
		c0,0,5.51-0.53,11.03-4.54c0,0,6.31,0.62,9.51,0.53c-0.81,2.05-2.38,5.28-5.39,8.44c-3.4,3.56-7.02,5.34-9.15,6.19
		c-1.2,0.4-4.22,1.23-7.79,0.2c-2.34-0.67-3.97-1.86-4.88-2.65C161.37,167.83,158,189.62,160.93,194.51z"/>
	<path fill="#65E580" d="M131.05,323.03c-2.45-5.76-5.08-13.53-6.49-22.97c-1.14-7.64-1.2-14.39-0.86-19.83
		c-0.16-7.01,0.55-18.17,5.75-30.46c2.69-6.34,5.92-11.43,8.83-15.31c3.53-3.35,5.25-3.23,6.04-2.91c3.8,1.55,1.7,14.28,1.31,16.55
		c-4.31,14.47-3.02,24.8-1.07,31.54c2.83,9.76,7.71,14.25,7.47,25.02c-0.09,4.16-0.28,12.8-6.64,17.07
		C139.75,325.53,132.71,323.54,131.05,323.03z"/>
	<path fill="#65E580" d="M412.56,83.42c-8.67,4.07-14.24,11.64-14.08,19.44c0.08,3.89,1.57,7.04,2.9,9.13c0,0-41.44-4.62-59.04,2.49
		c0,0-5.51,4.21,3.97,4.45c0,0-3.88,6.4,6.34,7.02s14.23,4.36,14.23,4.36s13.87,8.36,19.03,27.03c0,0-4.27,34.86,10.14,37.88
		c14.41,3.02,18.2,2.24,38.24,33.08c1.15,0.72,2.45,1.4,3.9,1.97c8.26,3.23,16.26,0.84,19.81-0.5c0.48-4.37,0.96-10.03,1.1-16.65
		c0.09-4.42,0.19-16.45-1.98-31.42c-3.52-24.24-11.01-42.6-13.64-48.75C434.07,111.05,422.17,94.62,412.56,83.42z"/>
	<path fill="#1794BF" d="M103.17,318.36c12.84,15.71,26.49,20.85,32.62,22.67c32.92,9.75,64.95-12.29,72.15-17.25
		c1.38-0.95,2.48-1.76,3.19-2.29c1.73,7.67,3.73,13.93,5.37,18.5c2,5.58,3.89,9.84,6.02,14.64c2.65,5.97,5.06,10.92,6.91,14.57
		c0.01,2.95,0.02,5.9,0.03,8.85c0,0-14.76,2.19-22.47,0.77l-36.28,1.24c0,0-23.84-12.1-43.75-32.96c-3.7-3.6-7.59-7.7-11.5-12.33
		C110.63,329.05,106.57,323.5,103.17,318.36z"/>
	<path fill="#1794BF" d="M296.6,316.48c13.32,0.32,30-0.98,48.17-6.66c56.57-17.69,85.13-64.62,93.41-79.55c0,0,7.76,4.1,19.74-0.55
		c0,0-4.73,36.4-12.79,51.34c0,0-16.9,41.14-38.95,61.24c0,0-21.1,12.15-23.36,12.98l-21.77,11.56l-30.83-4.51
		c-5.54,2.37-11.31,4.73-17.33,7.03c-5.76,2.2-11.38,4.23-16.85,6.09c-1.66-2.56-3.32-5.13-4.98-7.69c0.95-2.31,1.86-4.8,2.7-7.48
		c1.89-6,2.97-11.58,3.58-16.48c0.37-3.01,0.63-6.32,0.68-9.87C298.12,327.31,297.48,321.42,296.6,316.48z"/>
	<path fill="#50B561" d="M438.18,230.27c-1.5-0.56-2.33-0.86-3.38-1.55c-3.17-2.1-5.97-6.16-5.45-9.75
		c0.45-3.09,3.28-4.77,4.88-6.19c5.33-4.75,6.52-11.16,8.68-23.77c3.66-21.31,2.48-47.11,2.24-51.97c1.63,4.57,3.18,9.37,4.74,14.36
		c2.48,7.94,5.19,17.4,6.1,23.47c0,0,6.02,40.9,1.94,54.86c-2,0.9-5.19,2.02-9.24,2.23C447.62,232,443.27,232.15,438.18,230.27z"/>
	<path fill="#AA0029" d="M81.37,285.8c0,0-36.52,107.91-16.36,138.14l83.94-11.04l21.1-18.26l30.35,1.42l18.5,23.71l31.3,1.9
		l6.64,100.78l-14.92-6.4l15.58,59.93h13.58l-14.73-40.88l11.68,15.12l-5.9-142.65l-33.75,2.49l-21.89-30l-42.68,1.33l-14.2,8.86
		l-14.49-0.77l-48.88,8.97l-1.58-16.25l-10.38-12.8l15.96-67.93C90.24,301.47,82.97,290.43,81.37,285.8z"/>
	<path fill="#F9C626" stroke="#FFFFFF" stroke-width="1.0448" stroke-miterlimit="10" d="M221.75,455.35l11.38-20.16h78.96
		c2.77,6.96,5.53,13.91,8.3,20.87c-15.97,16.6-31.93,33.2-47.9,49.8C255.58,489.02,238.67,472.18,221.75,455.35z"/>
	<text transform="matrix(1 0 0 1 255.1596 490.0676)" fill="#D81330" font-family="'CenturyGothic'" font-size="66.1778px">P</text>
	<polyline fill="#AA0029" points="157.21,454.33 207.35,509.29 212.68,570.87 218.02,497.73 157.21,454.33 	"/>
</g>
</svg>
