<?xml version="1.0" encoding="utf-8"?>
<!-- Generator: Adobe Illustrator 26.0.0, SVG Export Plug-In . SVG Version: 6.00 Build 0)  -->
<svg version="1.1" id="Layer_1" xmlns="http://www.w3.org/2000/svg" xmlns:xlink="http://www.w3.org/1999/xlink" x="0px" y="0px"
	 viewBox="0 0 581.36 638.39" style="enable-background:new 0 0 581.36 638.39;" xml:space="preserve">
<style type="text/css">
	.st0{display:none;}
	.st1{display:inline;}
	.st2{clip-path:url(#SVGID_00000060015120677892132470000003941245419692738238_);}
	.st3{fill:#F9C626;}
	.st4{fill:#FFFFFF;}
	.st5{fill:none;stroke:#FFFFFF;stroke-width:0.925;stroke-miterlimit:10;}
	.st6{fill:#494949;}
	.st7{fill:none;stroke:#FFFFFF;stroke-width:0.308;stroke-miterlimit:10;}
	.st8{fill:#D81330;}
	.st9{fill:none;stroke:#FFFFFF;stroke-width:0.617;stroke-miterlimit:10;}
	.st10{fill:none;stroke:#FFFFFF;stroke-miterlimit:10;}
	.st11{fill:none;stroke:#000000;stroke-miterlimit:10;}
	.st12{fill:none;stroke:#FFFFFF;stroke-width:0.5;stroke-miterlimit:10;}
	.st13{fill:none;stroke:#000000;stroke-width:0.75;stroke-miterlimit:10;}
	.st14{display:inline;fill:#D81330;}
	.st15{font-family:'CenturyGothic';}
	.st16{font-size:33px;}
	.st17{clip-path:url(#SVGID_00000029047563498808562960000012222756562325354119_);}
	.st18{fill:#B9002D;}
	.st19{display:inline;fill:none;}
	.st20{display:inline;fill:none;stroke:#000000;stroke-width:3;stroke-miterlimit:10;}
	.st21{display:inline;fill:none;stroke:#FFFFFF;stroke-width:3;stroke-miterlimit:10;}
	.st22{display:inline;fill:#FFFFFF;}
	.st23{display:inline;fill:#F9C626;}
	.st24{clip-path:url(#SVGID_00000127018322259783577710000004392434183650468761_);}
	.st25{clip-path:url(#SVGID_00000155851353268170738540000003641394744413308346_);}
	.st26{font-size:75px;}
	.st27{clip-path:url(#SVGID_00000074436967362139032800000003963762397554655654_);}
	.st28{fill:none;stroke:#000000;stroke-width:2;stroke-miterlimit:10;}
	.st29{fill:none;stroke:#FFFFFF;stroke-width:1.5;stroke-miterlimit:10;}
	.st30{fill:none;stroke:#FFFFFF;stroke-width:0.25;stroke-miterlimit:10;}
	.st31{font-size:40.9969px;}
	.st32{clip-path:url(#SVGID_00000000208508955387685630000009884334093901783972_);}
	.st33{fill:none;stroke:#000000;stroke-width:4;stroke-miterlimit:10;}
	.st34{fill-rule:evenodd;clip-rule:evenodd;fill:#D81330;}
	.st35{fill:none;stroke:#D81330;stroke-width:2;stroke-miterlimit:10;}
	.st36{fill:none;stroke:#D81330;stroke-miterlimit:10;}
	.st37{fill:none;stroke:#FFFFFF;stroke-width:0.75;stroke-miterlimit:10;}
	.st38{fill:#AA0029;}
	.st39{fill:#D8D8D8;}
	.st40{clip-path:url(#SVGID_00000041995933360608994380000011441563054095746216_);}
	.st41{fill:none;stroke:#FFFFFF;stroke-width:2;stroke-miterlimit:10;}
	.st42{fill:none;stroke:#FFFFFF;stroke-width:2;stroke-miterlimit:10;stroke-dasharray:12.173,12.173;}
	.st43{fill:none;stroke:#1D1D1B;stroke-miterlimit:10;}
	.st44{fill:#444444;}
	.st45{font-size:41.4355px;}
	.st46{clip-path:url(#SVGID_00000052790310967542877310000015437215137427150490_);}
	.st47{fill:#F4F4F4;}
	.st48{fill:none;stroke:#000000;stroke-linecap:round;stroke-miterlimit:10;}
	.st49{fill:none;stroke:#FFFFFF;stroke-width:2;stroke-miterlimit:10;stroke-dasharray:12,12;}
	.st50{fill:#E2E2E2;}
	.st51{fill:#EAEAEA;}
	.st52{fill:#8A8A89;}
	.st53{fill:none;stroke:#1D1D1B;stroke-width:0.605;stroke-miterlimit:10;}
</style>
<g class="st0">
	<g id="Group_1280" class="st1">
		<g>
			<defs>
				<rect id="SVGID_1_" x="-252.43" y="97.86" width="945.32" height="390.17"/>
			</defs>
			<clipPath id="SVGID_00000104688806104283219350000000094095846560170135_">
				<use xlink:href="#SVGID_1_"  style="overflow:visible;"/>
			</clipPath>
			<g id="Group_1279" style="clip-path:url(#SVGID_00000104688806104283219350000000094095846560170135_);">
				<path id="Path_4092" class="st3" d="M395.18,281.92l-225.1,94.91l7.33-43.99L51.85,386.3c-1.22-15.89-2.44-31.77-3.67-47.66
					l-300.61,149.39l285.95-116.4l-1.83,36.66l120.98-47.05l-11.94,59.13c46.26-22.41,93.96-47.09,143.11-74.03
					C322.66,324.94,359.78,303.47,395.18,281.92"/>
				<path id="Path_4093" class="st4" d="M560.53,133.32v6.2c0,0-3.35,26.66-19.85,35.47l1.08,2.07l18.77-9.74v26l-3.9,2.84h-65.85
					V161.6c2.45,0.38,4.3,0.92,5.18,1.64l0.23,0.92l0.49-0.12l17.97-4.27c-0.24-1.12-3.73-18.95,0.97-25.81
					c0.16-0.23,0.31-0.44,0.48-0.65H560.53z"/>
				<path id="Path_4094" d="M415.75,237.12l6.84-4.12l43.94,38.16l-7.17,7.11l-32.29-25.74l-4.93-3.43L415.75,237.12z"/>
				<path id="Path_4095" class="st5" d="M415.75,237.12l6.84-4.12l43.94,38.16l-7.17,7.11l-32.29-25.74l-4.93-3.43L415.75,237.12z"
					/>
				<path id="Path_4096" class="st6" d="M434.44,258.4l8.29-7.92L454.84,261l-6.67,8.35L434.44,258.4"/>
				<path id="Path_4097" class="st7" d="M434.44,258.4l8.29-7.92L454.84,261l-6.67,8.35L434.44,258.4z"/>
				<path id="Path_4098" class="st8" d="M422.14,249.1l9.4-8.33l11.14,9.47l-8.52,8.17l-11.48-8.93"/>
				<path id="Path_4099" class="st7" d="M422.14,249.1l9.4-8.33l11.14,9.47l-8.52,8.17l-11.48-8.93"/>
				<path id="Path_4100" class="st8" d="M448.19,269.61c2.3-2.88,4.61-5.76,6.91-8.64l11.65,10.21c-2.5,2.39-5,4.78-7.5,7.17
					L448.19,269.61"/>
				<path id="Path_4101" class="st9" d="M448.19,269.61c2.3-2.88,4.61-5.76,6.91-8.64l11.65,10.21c-2.5,2.39-5,4.78-7.5,7.17
					L448.19,269.61z"/>
				<path id="Path_4102" d="M414.91,237.33l6.36,12.67l37.58,29.54l-41.9,32.38l-28.92,5.7L153.6,413.96L376,292.57l-165.38,66.8
					l77.8-60.29l22.4-4.48L414.91,237.33z"/>
				<path id="Path_4103" class="st10" d="M414.91,237.33l6.36,12.67l37.58,29.54l-41.9,32.38l-28.92,5.7L153.6,413.96L376,292.57
					l-165.38,66.8l77.8-60.29l22.4-4.48L414.91,237.33z"/>
				<path id="Path_4104" d="M688.23,100.51l-127.71,92.8l-3.9,2.84l-13.01,9.45l-9.57,21.59l-66.18,43.9l-35.02-30.62l-9.18-8.03
					l14.81-12.53l6.37-15.42L306.57,269.9l-0.35,0.17l88.96-70.37h10.55l42.66-38.29c0,0,0.2-0.02,0.59-0.06c0,0,0.05,0,0.16-0.01
					c0.08,0,0.19-0.01,0.32-0.02c0.01,0.01,0.03,0.01,0.05,0c0.07,0,0.16-0.01,0.25-0.01c4.82-0.42,21.47-1.63,34.6-0.36
					c2.27,0.21,4.44,0.51,6.41,0.9c1.76,0.32,3.5,0.79,5.18,1.4l0.23,0.92l4.06,16.39l25.28,15.59l0.79,0.49l0.81-0.49l10.59-6.43
					l1.22-11.21l2.81-1.46l18.77-9.74l21.18-11l4.28-12.01L688.23,100.51z"/>
				<path id="Path_4105" class="st10" d="M688.23,100.51l-127.71,92.8l-3.9,2.84l-13.01,9.45l-9.57,21.59l-66.18,43.9l-35.02-30.62
					l-9.18-8.03l14.81-12.53l6.37-15.42L306.57,269.9l-0.35,0.17l88.96-70.37h10.55l42.66-38.29c0,0,0.2-0.02,0.59-0.06
					c0,0,0.05,0,0.16-0.01c0.08,0,0.19-0.01,0.32-0.02c0.01,0.01,0.03,0.01,0.05,0c0.07,0,0.16-0.01,0.25-0.01
					c4.82-0.42,21.47-1.63,34.6-0.36c2.27,0.21,4.44,0.51,6.41,0.9c1.76,0.32,3.5,0.79,5.18,1.4l0.23,0.92l4.06,16.39l25.28,15.59
					l0.79,0.49l0.81-0.49l10.59-6.43l1.22-11.21l2.81-1.46l18.77-9.74l21.18-11l4.28-12.01L688.23,100.51z"/>
				<path id="Path_4106" d="M570.46,130.75c-0.17,0.28-0.43,0.67-0.77,1.14c-0.29,0.38-3.51,6.37-9.17,7.04l-0.3,0.04
					c-5.67,0.41-11.35-0.64-16.5-3.05c0,0-8.03-2.24-10.91-2.24c-0.65,0-1.03,0.12-1.01,0.39c0.16,1.53-1.99,11.15-1.99,11.15
					l-3.86,2.5c0.34-1.44,0.18-2.95-0.45-4.29c-1.08-1.97-4.89-0.86-5.5,1.69s1.42,9.37,1.42,9.37c-0.89,1.76-1.76,3.53-2.64,5.29
					l-22.1,4.27l17.97-4.27c-0.24-1.12-3.73-18.95,0.97-25.81c0.16-0.23,0.31-0.44,0.48-0.65c4.52-5.7,10.83-2,10.83-2
					c0.36-2.44,1.26-4.77,2.64-6.81c1.12-1.63,3.17-4.62,6.4-4.92c0.6-0.05,1.21-0.02,1.79,0.11c0.46,0.17,1.27,0.44,2.27,0.83
					c12.1,4.51,14.38,8.52,22.46,10.13c0.52,0.11,1.03,0.18,1.03,0.18C565.83,131.17,568.17,131.14,570.46,130.75"/>
				<path id="Path_4107" class="st10" d="M570.46,130.75c-0.17,0.28-0.43,0.67-0.77,1.14c-0.29,0.38-3.51,6.37-9.17,7.04l-0.3,0.04
					c-5.67,0.41-11.35-0.64-16.5-3.05c0,0-8.03-2.24-10.91-2.24c-0.65,0-1.03,0.12-1.01,0.39c0.16,1.53-1.99,11.15-1.99,11.15
					l-3.86,2.5c0.34-1.44,0.18-2.95-0.45-4.29c-1.08-1.97-4.89-0.86-5.5,1.69s1.42,9.37,1.42,9.37c-0.89,1.76-1.76,3.53-2.64,5.29
					l-22.1,4.27l17.97-4.27c-0.24-1.12-3.73-18.95,0.97-25.81c0.16-0.23,0.31-0.44,0.48-0.65c4.52-5.7,10.83-2,10.83-2
					c0.36-2.44,1.26-4.77,2.64-6.81c1.12-1.63,3.17-4.62,6.4-4.92c0.6-0.05,1.21-0.02,1.79,0.11c0.46,0.17,1.27,0.44,2.27,0.83
					c12.1,4.51,14.38,8.52,22.46,10.13c0.52,0.11,1.03,0.18,1.03,0.18C565.83,131.18,568.17,131.14,570.46,130.75z"/>
				<path id="Path_4108" class="st11" d="M529.16,160.49c0.81,5.1,9.87,15.28,9.87,15.28c0.56-0.25,1.1-0.51,1.64-0.79
					c16.5-8.81,19.85-35.47,19.85-35.47l0.08-1.58"/>
				<path id="Path_4109" class="st8" d="M524.45,196.15l1.5,0.92l-17.53,9.72l-28.33,15.68l-25.63,14.19l-8.09-6.81l-13.53,10.63
					l-0.22,0.17l-8.96-8.2l14.81-12.53l6.37-15.42L306.57,269.9l88.62-70.2h10.55l43.24-38.35c0,0,0.05,0,0.16-0.01
					c0.08,0,0.19-0.01,0.32-0.02c0.01,0.01,0.03,0.01,0.05,0c3.39-0.19,22.08-1.18,34.85-0.37c2.39,0.14,4.58,0.36,6.41,0.66
					c2.45,0.38,4.3,0.92,5.18,1.64l4.01,17.79L524.45,196.15z"/>
				<path id="Path_4110" class="st10" d="M524.45,196.15l1.5,0.92l-17.53,9.72l-28.33,15.68l-25.63,14.19l-8.09-6.81l-13.53,10.63
					l-0.22,0.17l-8.96-8.2l14.81-12.53l6.37-15.42L306.57,269.9l88.62-70.2h10.55l43.24-38.35c0,0,0.05,0,0.16-0.01
					c0.08,0,0.19-0.01,0.32-0.02c0.01,0.01,0.03,0.01,0.05,0c3.39-0.19,22.08-1.18,34.85-0.37c2.39,0.14,4.58,0.36,6.41,0.66
					c2.45,0.38,4.3,0.92,5.18,1.64l4.01,17.79L524.45,196.15z"/>
				<path id="Path_4111" class="st8" d="M525.94,197.07l1.58-0.86l-1.52,0.9L525.94,197.07z"/>
				<path id="Path_4112" class="st12" d="M525.94,197.07l1.58-0.86l-1.52,0.9L525.94,197.07z"/>
				<path id="Path_4113" class="st8" d="M688.23,100.51l-127.71,76.47l-21,12.58l-11.91,6.59l10.35-6.17l1.33-11.26l21.23-10.94
					l21.24-10.95l4.66-12.15L688.23,100.51z"/>
				<path id="Path_4114" class="st10" d="M688.23,100.51l-127.71,76.47l-21,12.58l-11.91,6.59l10.35-6.17l1.33-11.26l21.23-10.94
					l21.24-10.95l4.66-12.15L688.23,100.51z"/>
				<path id="Path_4115" class="st8" d="M420.88,249.93l-6.15-11.99l-103.82,56.98l-22.37,4.47l-75.9,58.9l41.43-16.82
					L420.88,249.93"/>
				<path id="Path_4116" class="st10" d="M420.88,249.93l-6.15-11.99l-103.82,56.98l-22.37,4.47l-75.9,58.9l41.43-16.82
					L420.88,249.93z"/>
				<path id="Path_4117" class="st13" d="M541.03,175.43c0.22,0.44,0.45,0.88,0.67,1.32"/>
				<path id="Path_4118" class="st13" d="M496.37,163.66l18.28-3.89"/>
				<path id="Path_4119" class="st3" d="M477.13,200.82l11.81-3.36l26.38,12.63l3.46,14.97l-37.27,7.74L477.13,200.82z"/>
				<path id="Path_4120" class="st10" d="M477.13,200.82l11.81-3.36l26.38,12.63l3.46,14.97l-37.27,7.74L477.13,200.82z"/>
			</g>
		</g>
	</g>
	<text transform="matrix(0.8839 0.4678 -0.4678 0.8839 481.3512 225.5712)" class="st14 st15 st16">P</text>
	<g id="Group_1282" class="st1">
		<g>
			<defs>
				<rect id="SVGID_00000164489650445727422620000001882607802564586393_" x="-252.43" y="97.86" width="945.32" height="390.17"/>
			</defs>
			<clipPath id="SVGID_00000062889345530084309640000011836426901176201140_">
				<use xlink:href="#SVGID_00000164489650445727422620000001882607802564586393_"  style="overflow:visible;"/>
			</clipPath>
			<g id="Group_1281" style="clip-path:url(#SVGID_00000062889345530084309640000011836426901176201140_);">
				<path id="Path_4121" class="st18" d="M496.37,167.52l-44.3,2.14l-40.02,34.83c-33.66,20.87-67.31,41.75-100.97,62.63l84.27-66.8
					l10.63,0.05l43.27-38.34c0,0,42.58-2.29,46.17,1.64L496.37,167.52z"/>
				<path id="Path_4122" class="st18" d="M449.53,200.1l-4.89,22.4l-17.36,12.42l-2.62-2.47l14.36-12.17
					c2.32-5.68,4.65-11.35,6.98-17.03l-134.84,63.81l138.99-68.85L449.53,200.1"/>
				<path id="Path_4123" class="st18" d="M415.55,240.88l-102.27,57.22l-24.24,4.85l-62.44,49.01l-10.18,4.1l72.39-56.13l22.3-4.44
					l103.37-56.75L415.55,240.88"/>
				<path id="Path_4124" class="st18" d="M539.68,181.38l45.18-23.44l3.46-11.2l76.22-32.92l14.59-8.78l-92.18,40.18l-4.63,12.07
					l-42.38,21.84L539.68,181.38z"/>
			</g>
		</g>
	</g>
</g>
<g class="st0">
	<rect x="-39.67" y="70.01" class="st19" width="530.43" height="444.83"/>
	<path class="st1" d="M488.52,348.46l-0.55,0.58l-37.76,39.8l-95.72-13.97l-0.12,0.77v0.23c0.13,7.48,0.25,14.96,0.38,22.44
		l-0.03,0.03l-23.38,30l-4.3,81.11l-0.05,1.01l-0.02,0.3l-23.96,0.12h-0.28c-27.97,0.15-55.94,0.29-83.91,0.44l-56.41,0.97
		l-0.05-0.68l-6.15-81.62l-24.08-29.51v-26.45l-0.21-0.55c-34.9,14.08-69.4,25.7-69.4,25.7c-34.15-12.1-44-30.91-45.63-34.56
		c-0.18-0.41-0.26-0.63-0.26-0.63c22.48-32.3,51.84-59.23,85.96-78.85h0.31v-7.59c0,0,11.03-15.71,17.98-25.4
		c0.11-0.17,0.23-0.33,0.35-0.49c-6.65-10.25-13.61-19.57-18.33-22.25C91,222.69-1.15,269.78-1.15,269.78v8.8l-35.08,3.9l-0.62,0.07
		l16.56-28.81l2.07-7.24c0,0,91.43-33.13,128.02-26.92c6.18,6.65,12.4,13.32,18.67,20c1.02,1.1,2.07,2.19,3.09,3.27
		c13.43-3.72,46.9-9.3,46.9-9.3l36.76-20.67l4.65-2.62l0.59-16.67l0.62-17.7c0.02-0.33,0.03-0.68,0.04-1.01l-0.72-0.09h-0.01
		l-0.12-0.01c-0.81,6.5-1.62,13.01-2.43,19.52c-0.01,0.12-0.03,0.24-0.04,0.36c-0.46-0.8-0.93-1.6-1.39-2.4
		c-1.21-2.09-2.42-4.19-3.64-6.28c-1.37-8.04-2.74-16.09-4.11-24.14h-0.03c0.01-0.3,0.01-0.61,0.02-0.91v-0.11l0.08-0.89
		c-0.29-0.06-0.56-0.15-0.83-0.27c-1.5-0.72-2.49-2.21-2.59-3.88c-0.06-1.27-0.11-2.55-0.14-3.87c-0.01-0.93-0.04-1.84-0.05-2.73
		c-1.81-2.22-2.29-5.57-2.36-8.19c-0.01-0.04-0.01-0.09-0.01-0.13v-0.2c-0.01-0.43,0-0.86,0.01-1.29c0.03-0.78,0.09-1.57,0.19-2.35
		c0.28-0.62,0.59-1.22,0.95-1.8l-2.4-1.04c0,0-1.13-3.19-2.37-7.75c-0.01-0.05-0.02-0.11-0.04-0.16
		c-1.41-5.26-2.94-12.29-3.03-18.35c-0.01-0.01-0.01-0.01,0-0.02c-0.01-0.01-0.01-0.01,0-0.02c-0.01-0.04-0.01-0.08,0-0.12
		c-0.08-7.01,1.82-12.68,8.14-12.67h0.15c-0.18-1.03-0.28-2.07-0.3-3.11v-0.4c-0.12-8.23,3.49-27.45,41.54-17.97
		c47.78,11.91,48.48,18.46,75.23-1.56c0,0,0,0.37-0.04,1.04v0.01c-0.32,5.58-2.93,32.08-24.65,42.09l-2.06,0.4l0.02,1.01v0.01
		l0.85,44.48c-0.01,0.01-0.01,0.03-0.02,0.04c0,0.01-0.01,0.01-0.01,0.02c-2.05,4.66-6.66,10.29-12.11,15.9c0,0.33,0,0.66,0.01,1
		v0.01c0.06,10.39,0.13,20.77,0.22,31.16c0,0,15.22,9.45,28.37,17.56c0.64,0.39,1.26,0.78,1.87,1.16l4.05,2.48l3.72,2.29l3.24,2
		c0.29,0.17,0.57,0.34,0.84,0.51c2.77,1.68,4.62,2.8,5,2.99c2.08,1.04,52.29,6.72,52.29,6.72l23.29,18.64L417.61,291l0.61,0.5
		c5.49-0.86,10.85-2.42,15.94-4.63c0,0,11.39-45.8,22.78-60.09c0,0,17.95-9.04,28.3-13.9l-0.05,1.04l-1.33,28.7l-8.97,24.4
		l-39.35,33.3c-1.09,0.89-2.25,1.7-3.46,2.42l0.71,0.57L488.52,348.46z"/>
	<path class="st1" d="M329.94,372.29l-17.29-2.52c0.54-0.52,1.05-1.03,1.59-1.56h0.01l25.36-4.08l0.03-0.01l-9.67,8.18H329.94z"/>
	<path id="Path_3509" class="st20" d="M327.54,510.45c-0.16,0-0.33,0.01-0.5,0.01c-36.08,0.62-72.15,1.24-108.22,1.86l-56.41,0.97
		l-0.05-0.68L156.21,431l-24.07-29.51v-26.47"/>
	<path id="Path_3510" class="st20" d="M161.83,512.62h0.54c18.82-0.1,37.64-0.2,56.46-0.29c36.05-0.18,72.09-0.37,108.15-0.56
		l0.07-1.31l4.3-81.11l23.4-30.03c-0.12-7.55-0.24-15.11-0.36-22.67"/>
	<path id="Path_3511" class="st21" d="M102.9,301.34v-22.78c0,0,11.4-16.24,18.34-25.89c2.41-3.35,4.29-5.92,4.96-6.72
		c0.47-0.56,2.44-1.28,5.37-2.09c13.42-3.72,46.9-9.3,46.9-9.3l36.76-20.68l4.65-2.62c0.42-11.79,0.83-23.58,1.25-35.38"/>
	<path id="Path_3512" class="st21" d="M48.03,346.37c8.63-3.33,17.25-6.67,25.88-10.02l21.4,10.7l85.46-8.77l22.2-2.28
		c-2.94,5.34-13.69,12.19-28.04,19.42c-12.54,6.32-27.8,12.91-43.01,19.06c-34.9,14.08-69.39,25.71-69.39,25.71
		C24.56,386.74,16.62,365,16.62,365c22.49-32.3,51.85-59.22,85.96-78.85"/>
	<path id="Path_3513" class="st21" d="M294.93,162.1c-2.04,4.67-6.65,10.32-12.13,15.96c-13.15,13.51-31.35,26.99-31.35,26.99
		c-13.78-4.92-24.64-21.28-30.75-32.59c-2.02-3.7-3.85-7.51-5.47-11.4v-53.84c14.41,23.7,70,11.43,77.91,9.55l0.05-0.01
		c0.58-0.14,0.89-0.22,0.89-0.22v0.05L294.93,162.1z"/>
	<path id="Path_3514" class="st21" d="M213.73,158.68c-1.04,1.71-3.02,2.61-5,2.27c-0.28-0.06-0.56-0.15-0.82-0.26
		c-1.5-0.73-2.5-2.21-2.6-3.88c-0.06-1.27-0.11-2.55-0.14-3.87c-0.02-0.92-0.04-1.84-0.05-2.73c-3.37-4.15-2.16-12.16-2.16-12.16
		c0.27-0.62,0.58-1.22,0.93-1.8c4.21-6.92,9.51,0.24,9.51,0.24"/>
	<path class="st21" d="M208.66,161.84c1.37,8.05,2.74,16.1,4.11,24.14c0.08,0.49,0.17,0.97,0.25,1.46c1.13,1.6,2.26,3.21,3.39,4.82
		c0.48,0.68,0.96,1.36,1.43,2.04c0.42,0.59,0.84,1.18,1.25,1.77c0.01-6.78,0.41-13.54,1.19-20.27c0.04-0.34,0.07-0.68,0.11-1.01
		h0.01c0.09-0.78,0.19-1.54,0.29-2.31"/>
	<path id="Path_3516" class="st21" d="M293.13,116.78l0.05-0.01l0.89-0.17l2.07-0.4c24.33-11.21,24.67-43.13,24.67-43.13
		c-26.74,20.01-27.44,13.46-75.22,1.55C197.8,62.72,204.35,96.1,204.35,96.1c-1.74-0.03-3.15,0.37-4.28,1.1
		c-7.96,5.16-1.14,28.89,1.44,37.98c0.52,1.85,1,3.35,1.31,4.32"/>
	<path id="Path_3517" class="st22" d="M183.28,233.6c-7.66,9.01-14.23,18.89-19.57,29.43l23.33-1.41c-0.66,1.06-1.65,2.63-2.87,4.54
		c-1.8,2.83-3.09,4.67-3.37,5.24c-2.35,3.95-4.5,8.03-6.44,12.2c-3.82,8.39-9.05,28.25-10.39,54.92l16.66-1.65
		c0.11-9.29,0.93-18.57,2.46-27.74c3.39-20.19,10.12-39.68,19.89-57.67c0,0-22.08,4.83-22.08,3.8c0-1.03,34.33-41.38,34.33-41.38
		L183.28,233.6"/>
	<rect id="Rectangle_719" x="315.99" y="333.24" class="st1" width="27.95" height="73.04"/>
	<path id="Path_3518" class="st22" d="M354.31,360.47c-1.77,0.31-3.57,0.88-5.36,1.18c-1.84,0.3-3.55,0.85-5.38,1.14
		c-0.69-3.05-3.51-5.68-4.21-8.75c-0.66-2.87,0.26-5.11-0.41-7.96v-1.39c-0.02-0.1,0.26-0.64,0.23-0.73
		c-8.79-32.44-22.62-63.3-40.97-91.45l26.57,6.9l-13.38-31.62c0.64,0.4,1.27,0.78,1.89,1.17l4.04,2.48l3.71,2.28l3.25,2
		c0.28,0.17,0.56,0.35,0.83,0.52c6.13,15.65,10.96,35.34,10.96,35.34l-18.55-8.37c8.01,16.83,15.96,35.47,23.35,55.86
		C346.04,333.35,350.56,347.36,354.31,360.47"/>
	<path id="Path_3519" class="st22" d="M169.78,359.59l89.27,72.64v-10.35l-73.75-70.34L169.78,359.59z"/>
	<path id="Path_3520" class="st22" d="M329.97,372.29c-23.65,19.98-47.29,39.96-70.92,59.94v-10.35
		c17.86-17.36,35.72-34.73,53.58-52.11h0.01l17.29,2.52H329.97z"/>
	<path id="Path_3521" class="st22" d="M343.33,360.99l0.38,1.08c-1.61-0.03-3.13,0.73-4.07,2.04l-0.03,0.01l-25.36,4.08
		c8.31-8.08,16.62-16.16,24.93-24.24v-0.01h0.01l0.06,0.24l0.02,0.07l0.04,0.18L343.33,360.99z"/>
	<path id="Path_3522" class="st14" d="M184.74,262.97l-5.6,11.27v0.01l-5.69,11.41l-0.04,0.09c-0.98,0.02-1.98,0.04-2.96,0.05
		c-10.04,0.16-19.96,0.16-29.76,0c-14.71-0.24-9.39-17.64-19.45-33.14c-6.65-10.25-13.6-19.57-18.34-22.25
		C90.99,223.7-1.15,270.8-1.15,270.8v8.8l-35.71,3.97l16.56-28.82l2.07-7.24c0,0,91.44-33.14,128.02-26.92
		c6.17,6.65,12.4,13.32,18.67,20c1.02,1.09,2.05,2.19,3.09,3.27c6.35,6.76,12.69,13.47,19.04,20.12c9.2-0.31,18.41-0.63,27.61-0.95
		L184.74,262.97z"/>
	<path id="Path_3523" class="st21" d="M184.74,262.97l-5.6,11.27v0.01l-5.69,11.41l-0.04,0.09c-0.98,0.02-1.98,0.04-2.96,0.05
		c-10.04,0.16-19.96,0.16-29.76,0c-14.71-0.24-9.39-17.64-19.45-33.14c-6.65-10.25-13.6-19.57-18.34-22.25
		C90.99,223.7-1.15,270.8-1.15,270.8v8.8l-35.71,3.97l16.56-28.82l2.07-7.24c0,0,91.44-33.14,128.02-26.92
		c6.17,6.65,12.4,13.32,18.67,20c1.02,1.09,2.05,2.19,3.09,3.27c6.35,6.76,12.69,13.47,19.04,20.12c9.2-0.31,18.41-0.63,27.61-0.95
		L184.74,262.97z"/>
	<path id="Path_3524" class="st23" d="M256.19,376.12l-59.74-60.58l25.41-24.72h33.21"/>
	<path id="Path_3525" class="st21" d="M256.19,376.12l-59.74-60.58l25.41-24.72h33.21"/>
	<path id="Path_3526" class="st23" d="M255.07,375.09l58.62-59.55l-25.41-24.72l-37.31,0.32"/>
	<path id="Path_3527" class="st21" d="M255.07,375.09l58.62-59.55l-25.41-24.72h-37.37"/>
	<g id="Group_1218" transform="translate(275.914 218.625)" class="st1">
		<g id="Group_1217">
			<g>
				<defs>
					<rect id="SVGID_00000010299782322137631200000001797464943768009659_" x="-39.67" y="70.01" width="47.84" height="89.77"/>
				</defs>
				<clipPath id="SVGID_00000166640407056708714310000013733150169937009077_">
					<use xlink:href="#SVGID_00000010299782322137631200000001797464943768009659_"  style="overflow:visible;"/>
				</clipPath>
				<g id="Group_1216" style="clip-path:url(#SVGID_00000166640407056708714310000013733150169937009077_);">
					<g id="Group_1215">
						<g id="Group_1214">
							<g>
								<defs>
									
										<rect id="SVGID_00000103973223372485433000000008526231079219144599_" x="-39.67" y="70.01" width="47.84" height="89.77"/>
								</defs>
								<clipPath id="SVGID_00000036933628252510774870000017333496906473166508_">
									<use xlink:href="#SVGID_00000103973223372485433000000008526231079219144599_"  style="overflow:visible;"/>
								</clipPath>
								<g id="Group_1213" style="clip-path:url(#SVGID_00000036933628252510774870000017333496906473166508_);">
									<text transform="matrix(0.9994 -0.0345 0.0345 0.9994 -37.4612 135.5778)" class="st8 st15 st26">P</text>
								</g>
							</g>
						</g>
					</g>
				</g>
			</g>
		</g>
	</g>
	<path id="Path_3528" class="st21" d="M451.76,341.71l-31.58-0.52l-17.6,12.79l-62.95,10.13l-0.03,0.01l-25.36,4.08h-0.01
		l-5.86,0.94l4.26,0.62h0.01l17.29,2.52h0.03l24.4,3.57l0.11,0.02l95.73,13.97l38.31-40.38l-0.55-0.44l-55.88-45.29h-0.01
		l-13.86-11.23h-0.01l-0.61-0.5l-11.91-27.43l-23.29-18.63c0,0-50.21-5.69-52.27-6.72c-0.39-0.19-2.24-1.31-5-2.98
		c0-0.01,0-0.01-0.01-0.01l0,0c-0.27-0.17-0.55-0.35-0.83-0.52c-0.99-0.61-2.09-1.28-3.25-2s-2.41-1.48-3.71-2.28
		s-2.66-1.63-4.04-2.48c-0.3-0.19-0.61-0.38-0.92-0.58s-0.62-0.38-0.94-0.58h-0.01v-0.01h-0.01c-13.15-8.11-28.37-17.56-28.37-17.56
		c-0.07-10.72-0.14-21.45-0.22-32.16v-0.01"/>
	<path id="Path_3529" class="st14" d="M485.23,213.9l-1.38,29.73l-8.97,24.41l-39.34,33.3c-1.1,0.88-2.26,1.69-3.46,2.41
		c-11,6.53-24.05,8.69-36.56,6.04c-24.5-4.83-63.58-16.47-63.58-16.47l-11.56-27.27l15.44,6.19l2.42,0.97c0,0,41.4,25.47,79.98,19.3
		c5.49-0.86,10.85-2.42,15.95-4.63c0,0,11.38-45.8,22.78-60.09C456.95,227.79,474.89,218.75,485.23,213.9"/>
	<path id="Path_3530" class="st21" d="M485.23,213.9l-1.38,29.73l-8.97,24.41l-39.34,33.3c-1.1,0.88-2.26,1.69-3.46,2.41
		c-11,6.53-24.05,8.69-36.56,6.04c-24.5-4.83-63.58-16.47-63.58-16.47l-11.56-27.27l15.44,6.19l2.42,0.97c0,0,41.4,25.47,79.98,19.3
		c5.49-0.86,10.85-2.42,15.95-4.63c0,0,11.38-45.8,22.78-60.09C456.94,227.8,474.88,218.76,485.23,213.9z"/>
</g>
<g id="Group_1258" transform="translate(14.984) rotate(3)" class="st0">
	<g id="Group_1255" class="st1">
		<g>
			<defs>
				
					<rect id="SVGID_00000118385020640630544130000008804129561984756414_" x="86.9" y="94.66" transform="matrix(0.0523 -0.9986 0.9986 0.0523 -62.3792 495.8141)" width="286.31" height="372.22"/>
			</defs>
			<clipPath id="SVGID_00000029045566729764386500000006097638974464043186_">
				<use xlink:href="#SVGID_00000118385020640630544130000008804129561984756414_"  style="overflow:visible;"/>
			</clipPath>
			<g id="Group_1254" style="clip-path:url(#SVGID_00000029045566729764386500000006097638974464043186_);">
				<path id="Path_3839" class="st4" d="M64.68,288.72L59,260.95c0,0-29.32-5.51-2.54,20.62c26.79,26.13,51.67,21.7,51.67,21.7
					s-6.34,72.12,5.39,87.96c0,0-48.5-13.15-60.7-40.26c-0.6-2.21-1.38-5.21-2.21-8.8c-5.67-24.52-7.38-49.8-5.06-74.86"/>
				<path id="Path_3840" class="st28" d="M64.68,288.72L59,260.95c0,0-29.32-5.51-2.54,20.62c26.79,26.13,51.67,21.7,51.67,21.7
					s-6.34,72.12,5.39,87.96c0,0-48.5-13.15-60.7-40.26c-0.6-2.21-1.38-5.21-2.21-8.8c-5.67-24.52-7.38-49.8-5.06-74.86"/>
				<path id="Path_3841" class="st4" d="M174.55,221.64l11.33,9.19h-33.11l1.01-1.85L174.55,221.64z"/>
				<path id="Path_3842" class="st4" d="M290.23,230.83h-96.74l50.48-2.22l13.47-14.43l16.33,1.74L290.23,230.83z"/>
				<path id="Path_3843" class="st4" d="M257.15,213.82l-13.36,14.35l-57.24,2.66l-11.68-9.45l24.36-15.06
					c-0.27-8.09-0.55-16.18-0.82-24.27l0.17-0.06c-0.12-0.37-0.21-0.67-0.28-0.9l-0.45,0.14l0.58,15.74
					c-1.94-4.62-4.91-11.81-8.5-20.82c-4.34-10.86-6.51-16.67-3.91-22.09c0.79-1.62,1.91-3.05,3.28-4.22
					c-0.07-0.65-0.08-1.31-0.04-1.96c0.02-0.37,0.06-0.76,0.12-1.19c0.02-0.13,0.04-0.26,0.06-0.38c0.02-0.13,0.04-0.27,0.07-0.4
					c0.06-0.27,0.12-0.54,0.2-0.81c0.24-0.88,0.61-1.73,1.08-2.52c0.08-0.13,0.17-0.27,0.26-0.41c0.09-0.14,0.19-0.27,0.29-0.4
					c0.42-0.56,0.91-1.06,1.45-1.5c0.13-0.1,0.26-0.2,0.4-0.3c0.02-0.02,0.04-0.03,0.06-0.05c0.31-0.22,0.64-0.42,0.98-0.6
					c0.17-0.09,0.34-0.17,0.53-0.26c0.03-0.02,0.07-0.04,0.11-0.05c0.17-0.07,0.34-0.14,0.51-0.2c0.19-0.07,0.39-0.15,0.6-0.21
					c0.02-0.01,0.05-0.02,0.07-0.03c0.44-0.13,0.89-0.25,1.34-0.33c0.22-0.04,0.43-0.08,0.66-0.11c0.05-0.01,0.1-0.02,0.15-0.03
					c0.24-0.04,0.5-0.06,0.75-0.09c11.09-1.02,21.03,7.07,21.03,7.07s3.97,2.8,13.74-0.58l7.08-2.9
					c-1.71,6.55-6.07,12.09-12.03,15.3l0.1,0.19c0.22,4.18,0.45,8.37,0.68,12.56c0.35,6.28,1.16-4.7,4.07-6.13
					c2.9-1.43,1.27,18.91-3.28,15.21l-1.19-1.1c-0.5,2.98-1.27,5.91-2.28,8.75h0.01c0.57,6.73,1.14,13.46,1.71,20.19L257.15,213.82z
					"/>
				<path id="Path_3844" class="st4" d="M232.56,179.08c0,0-1.56,9.93-4.73,14.5l-0.58-7.25c0.85-2.64,1.55-5.33,2.12-8.05
					C229.36,178.29,231.18,180.45,232.56,179.08"/>
				<path id="Path_3845" class="st4" d="M234.26,153.29c0.07-0.12-0.32,9.71-0.32,9.71c-2.06,0.9-3.57,2.72-4.08,4.91l-0.56-10.96
					C229.31,156.95,233.58,154.41,234.26,153.29"/>
				<path id="Path_3846" d="M398.08,265.12l-80.25,22.29l-24.73-2.85l-30.59-22.66v17.91L255.22,302l2.22,26.47
					c-12.91,2.74-29.51,3.86-43.03,4.28c-13.87,0.44-24.49,0.15-24.49,0.15l-4.6-27.1l-10.75-13.08l0.33,1.03l-9.55,22.19
					l-26.79,13.79c-32.55-18.09-70.56-64.88-71.16-65.61l50.87,29l27.9,1.8l1.9-28.53l-4.02-19.65l8.71-15.9l1.01-1.85l20.76-7.34
					l11.34,9.19l0.39,0.32l7.21-0.32l50.48-2.22l13.47-14.43l16.33,1.74l16.46,14.9l1.92,1.74l1.79,11.89l21.03,19.02l15.69-7.03
					l26.41,7.18L398.08,265.12z"/>
				<path id="Path_3847" class="st29" d="M398.08,265.12l-80.25,22.29l-24.73-2.85l-30.59-22.66v17.91L255.22,302l2.22,26.47
					c-12.91,2.74-29.51,3.86-43.03,4.28c-13.87,0.44-24.49,0.15-24.49,0.15l-4.6-27.1l-10.75-13.08l0.33,1.03l-9.55,22.19
					l-26.79,13.79c-32.55-18.09-70.56-64.88-71.16-65.61l50.87,29l27.9,1.8l1.9-28.53l-4.02-19.65l8.71-15.9l1.01-1.85l20.76-7.34
					l11.34,9.19l0.39,0.32l7.21-0.32l50.48-2.22l13.47-14.43l16.33,1.74l16.46,14.9l1.92,1.74l1.79,11.89l21.03,19.02l15.69-7.03
					l26.41,7.18L398.08,265.12z"/>
				<path id="Path_3848" d="M240.8,141.6c-1.71,6.55-6.07,12.09-12.03,15.3c-1.06,0.58-2.16,1.08-3.29,1.5
					c-12.94,4.86-28-1.74-28-1.74l-1.22,11.94c0,0-3.01-2.22-4.12,0.84c-1.11,3.07-1.11,9.77,5.7,11.78l0.58,15.74
					c-1.94-4.62-4.91-11.81-8.5-20.82c-4.34-10.86-6.51-16.67-3.91-22.09c0.79-1.62,1.91-3.05,3.28-4.22
					c-0.06-0.65-0.07-1.31-0.04-1.96c0.02-0.37,0.06-0.76,0.12-1.19c0.02-0.13,0.04-0.26,0.06-0.38c0.02-0.13,0.04-0.27,0.07-0.4
					c0.06-0.27,0.12-0.54,0.2-0.81c0.24-0.89,0.6-1.74,1.08-2.52c0.08-0.13,0.17-0.27,0.26-0.41c0.09-0.14,0.19-0.27,0.29-0.4
					c0.21-0.28,0.44-0.55,0.69-0.8c0.03-0.03,0.05-0.06,0.08-0.09c0.03-0.03,0.07-0.05,0.09-0.08c0.18-0.18,0.38-0.35,0.59-0.52
					c0.13-0.1,0.26-0.2,0.4-0.3c0.02-0.02,0.04-0.03,0.06-0.05c0.31-0.22,0.64-0.42,0.98-0.6c0.17-0.09,0.34-0.17,0.53-0.26
					c0.03-0.02,0.07-0.04,0.11-0.05c0.17-0.07,0.34-0.14,0.51-0.2c0.19-0.07,0.39-0.15,0.6-0.21c0.02-0.01,0.05-0.02,0.07-0.02
					c0.44-0.14,0.89-0.25,1.34-0.34c0.22-0.04,0.43-0.08,0.66-0.11c0.05-0.01,0.1-0.02,0.15-0.02c0.24-0.04,0.5-0.06,0.75-0.09
					c11.09-1.02,21.03,7.07,21.03,7.07s3.97,2.8,13.74-0.58L240.8,141.6z"/>
				<path id="Path_3849" class="st10" d="M240.8,141.6c-1.71,6.55-6.07,12.09-12.03,15.3c-1.06,0.58-2.16,1.08-3.29,1.5
					c-12.94,4.86-28-1.74-28-1.74l-1.22,11.94c0,0-3.01-2.22-4.12,0.84c-1.11,3.07-1.11,9.77,5.7,11.78l0.58,15.74
					c-1.94-4.62-4.91-11.81-8.5-20.82c-4.34-10.86-6.51-16.67-3.91-22.09c0.79-1.62,1.91-3.05,3.28-4.22
					c-0.06-0.65-0.07-1.31-0.04-1.96c0.02-0.37,0.06-0.76,0.12-1.19c0.02-0.13,0.04-0.26,0.06-0.38c0.02-0.13,0.04-0.27,0.07-0.4
					c0.06-0.27,0.12-0.54,0.2-0.81c0.24-0.89,0.6-1.74,1.08-2.52c0.08-0.13,0.17-0.27,0.26-0.41c0.09-0.14,0.19-0.27,0.29-0.4
					c0.21-0.28,0.44-0.55,0.69-0.8c0.03-0.03,0.05-0.06,0.08-0.09c0.03-0.03,0.07-0.05,0.09-0.08c0.18-0.18,0.38-0.35,0.59-0.52
					c0.13-0.1,0.26-0.2,0.4-0.3c0.02-0.02,0.04-0.03,0.06-0.05c0.31-0.22,0.64-0.42,0.98-0.6c0.17-0.09,0.34-0.17,0.53-0.26
					c0.03-0.02,0.07-0.04,0.11-0.05c0.17-0.07,0.34-0.14,0.51-0.2c0.19-0.07,0.39-0.15,0.6-0.21c0.02-0.01,0.05-0.02,0.07-0.02
					c0.44-0.14,0.89-0.25,1.34-0.34c0.22-0.04,0.43-0.08,0.66-0.11c0.05-0.01,0.1-0.02,0.15-0.02c0.24-0.04,0.5-0.06,0.75-0.09
					c11.09-1.02,21.03,7.07,21.03,7.07s3.97,2.8,13.74-0.58L240.8,141.6z"/>
				<path id="Path_3850" class="st11" d="M226.88,186.39c0.57,6.73,1.14,13.46,1.71,20.19l28.56,7.24l-13.36,14.35l-57.24,2.66
					l-11.68-9.45l24.36-15.06c-0.27-8.09-0.55-16.18-0.82-24.27"/>
				<path id="Path_3851" class="st11" d="M228.87,157.09c0.22,4.18,0.45,8.37,0.68,12.56c0.35,6.28,1.16-4.7,4.07-6.13
					s1.27,18.91-3.28,15.21l-1.19-1.1c-0.5,2.98-1.27,5.91-2.28,8.75c-0.06,0.17-0.12,0.34-0.18,0.51
					c-1.38,3.78-3.19,7.38-5.39,10.75c-3.3,4.03-6,4.54-7.41,4.57c-8.06,0.12-13.75-15.43-15.32-20.24
					c-0.12-0.37-0.21-0.67-0.28-0.9c-0.07-0.23-0.12-0.37-0.14-0.45c-1.13-3.92-1.76-7.97-1.9-12.04"/>
				<path id="Path_3852" d="M233.94,163c-2.06,0.9-3.57,2.72-4.08,4.91l-0.56-10.96c0,0,4.28-2.54,4.95-3.66
					C234.33,153.17,233.94,163,233.94,163"/>
				<path id="Path_3853" class="st30" d="M233.94,163c-2.06,0.9-3.57,2.72-4.08,4.91l-0.56-10.96c0,0,4.28-2.54,4.95-3.66
					C234.33,153.16,233.94,163,233.94,163z"/>
				<path id="Path_3854" d="M232.56,179.08c0,0-1.56,9.93-4.73,14.5l-0.58-7.25c0.85-2.64,1.55-5.33,2.12-8.05
					C229.36,178.29,231.18,180.45,232.56,179.08"/>
				<path id="Path_3855" class="st30" d="M232.56,179.08c0,0-1.56,9.93-4.73,14.5l-0.58-7.25c0.85-2.64,1.55-5.33,2.12-8.05
					C229.36,178.29,231.18,180.45,232.56,179.08z"/>
				<path id="Path_3856" class="st8" d="M212.75,230.46c0.56,29.87,1.13,59.73,1.69,89.6l-5.28-5.5l5.29,17.71
					c-3.77,0.12-7.63,0.2-11.57,0.23c-4.29,0.03-8.48,0.01-12.57-0.08c-1.51-8.95-3.02-17.91-4.53-26.86l-13.16-16l-7.43-27.79
					l-0.91,0.24c2.49,9.34,4.98,18.68,7.46,28.01l2.86,3.47L165,315.56l-26.39,13.63c-2.08-1.16-4.94-2.84-8.25-5.03
					c-5.33-3.56-10.41-7.48-15.2-11.74c-5.86-5.09-12.63-10.96-22-20.42c-6.61-6.66-14.81-15.41-23.76-26.21l48.85,27.86l28.41,1.76
					c0.63-9.68,1.27-19.35,1.9-29.03c-1.36-6.61-2.71-13.21-4.07-19.81l9.72-17.28l20.25-7.13l11.66,9.48L212.75,230.46"/>
				<path id="Path_3857" class="st29" d="M212.75,230.46l1.69,89.6l-5.28-5.5l5.26,18.1"/>
				<path id="Path_3858" class="st3" d="M182.53,260.47l8.24-14.58l47.76-2.11l10.99,11.41l-32.33,35.08L182.53,260.47z"/>
				<path id="Path_3859" class="st29" d="M182.53,260.47l8.24-14.58l47.76-2.11l10.99,11.41l-32.33,35.08L182.53,260.47z"/>
				<path id="Path_3860" class="st29" d="M175,293.23l-2.84-3.41l-7.44-27.93"/>
			</g>
		</g>
	</g>
	<text transform="matrix(0.9981 -0.062 0.062 0.9981 207.0907 279.3456)" class="st14 st15 st31">P</text>
	<g id="Group_1257" class="st1">
		<g>
			<defs>
				
					<rect id="SVGID_00000165196461762036413350000003184017743052345019_" x="86.9" y="94.66" transform="matrix(0.0523 -0.9986 0.9986 0.0523 -62.3792 495.8141)" width="286.31" height="372.22"/>
			</defs>
			<clipPath id="SVGID_00000080206934334030253470000015318246555674834048_">
				<use xlink:href="#SVGID_00000165196461762036413350000003184017743052345019_"  style="overflow:visible;"/>
			</clipPath>
			<g id="Group_1256" style="clip-path:url(#SVGID_00000080206934334030253470000015318246555674834048_);">
				<path id="Path_3861" class="st4" d="M398.02,297.39l6.83-37.13c0,0,21.34,5.28,1.9,28.95s-70.8,30.43-70.8,30.43l-3.17,79.67
					c0,0,65.93-12.89,77.77-59.59c1.38-21.73,2.76-43.47,4.14-65.21"/>
				<path id="Path_3862" class="st33" d="M398.02,297.39l6.83-37.13c0,0,21.34,5.28,1.9,28.95s-70.8,30.43-70.8,30.43l-3.17,79.67
					c0,0,65.93-12.89,77.77-59.59c1.38-21.73,2.76-43.47,4.14-65.21"/>
				<path id="Path_3863" class="st4" d="M168.5,415.31l-3.9-84.48c0,0,31.47,10.3,120.87-7.66l2.7,86.91
					C288.16,410.08,227.78,434.54,168.5,415.31"/>
				<path id="Path_3864" class="st33" d="M168.5,415.31l-3.9-84.48c0,0,31.47,10.3,120.87-7.66l2.7,86.91
					C288.16,410.08,227.78,434.54,168.5,415.31z"/>
				<path id="Path_3865" class="st34" d="M203.34,379.28v21.83c0,0.55-0.45,1-1,1h-8.62c-0.55,0-1-0.45-1-1v-21.83H203.34z
					 M192.72,372.15l22.79-19.95c5.05,4.93,9.94,10.92,14.93,15.86l18.21-18.29l-5.86-5.88l17.27-0.15v17.42l-5.63-5.63
					c-4.04,4.09-13.59,13.11-17.63,17.15c-5.11,5.11-7.55,5.2-12.66,0.09l-8.63-9.6l-10.12,8.97L192.72,372.15z M255.4,364.95v36.17
					c0,0.55-0.45,1-1,1h-8.62c-0.55-0.01-0.99-0.45-0.99-1l0-25.98c1.64-1.6,3.56-3.45,5.52-5.33l4.08-3.93
					c0.33-0.33,0.67-0.64,1.02-0.93L255.4,364.95z M238.05,381.2v19.92c0,0.55-0.45,1-1,1h-8.62c-0.55,0-1-0.45-1-1v-17.79
					c1.03,0.25,2.08,0.37,3.14,0.35C233.26,383.63,235.87,382.77,238.05,381.2 M220.7,379.56v21.53c0,0.55-0.45,1-1,1h-8.63
					c-0.55,0-1-0.45-1-1v-23.37c0.18-0.13,0.35-0.27,0.51-0.41l4.31-3.84l3.47,3.84l0.27,0.28c0.7,0.71,1.39,1.35,2.07,1.93
					L220.7,379.56z"/>
				<path id="Path_3866" class="st35" d="M350.21,336.13l15.11,4.76l15-26.63l16.8,7.5l12.58-25.46l2.34,1.08"/>
				<path id="Path_3867" class="st8" d="M367.28,340c0,1.1-0.89,1.99-1.99,1.99c-1.1,0-1.99-0.89-1.99-1.99
					c0-1.1,0.89-1.99,1.99-1.99l0,0C366.39,338.01,367.28,338.9,367.28,340"/>
				<path id="Path_3868" class="st8" d="M382.43,314.45c0,1.1-0.89,1.99-1.99,1.99c-1.1,0-1.99-0.89-1.99-1.99
					c0-1.1,0.89-1.99,1.99-1.99l0,0C381.54,312.46,382.43,313.35,382.43,314.45"/>
				<path id="Path_3869" class="st8" d="M399.27,321.62c0,1.1-0.89,1.99-1.99,1.99c-1.1,0-1.99-0.89-1.99-1.99
					c0-1.1,0.89-1.99,1.99-1.99l0,0C398.38,319.63,399.27,320.52,399.27,321.62"/>
				<path id="Path_3870" class="st8" d="M411.63,296.29c0,1.1-0.89,1.99-1.99,1.99c-1.1,0-1.99-0.89-1.99-1.99
					c0-1.1,0.89-1.99,1.99-1.99l0,0C410.74,294.3,411.63,295.19,411.63,296.29"/>
				<path id="Path_3871" class="st36" d="M350.21,345.32l-1.27,36.98c6.82-1.18,29.62-5.99,46.39-26.52
					c7.22-8.9,12.28-19.35,14.79-30.54"/>
				<path id="Path_3872" class="st36" d="M356.13,359.35c-0.01,4.62-0.02,9.25-0.02,13.88c3.02-0.14,5.99-0.86,8.74-2.12l0.13-13.26
					c-1.44,0.31-2.94,0.6-4.52,0.87C358.97,358.96,357.53,359.18,356.13,359.35z"/>
				<path id="Path_3873" class="st8" d="M369.65,350.6c-0.03,6.39-0.06,12.78-0.09,19.17c3.16-0.7,6.15-2.03,8.77-3.92
					c-0.05-5.98-0.1-11.96-0.15-17.94c-1.39,0.53-2.88,1.04-4.45,1.54C372.32,349.89,370.96,350.27,369.65,350.6"/>
				<path id="Path_3874" class="st36" d="M383.01,339.52c0.1,7.38,0.21,14.77,0.31,22.15c3.15-1.71,6.04-3.87,8.59-6.39
					c-0.04-7.26-0.09-14.52-0.13-21.78c-1.32,1.08-2.79,2.21-4.44,3.33C385.84,337.85,384.39,338.75,383.01,339.52z"/>
				<path id="Path_3875" class="st8" d="M396.46,329.22c0.04,6.59,0.07,13.19,0.11,19.78c1.19-1.52,2.41-3.17,3.63-4.98
					c1.34-1.98,2.51-3.9,3.54-5.72c-0.01-4.9-0.02-9.8-0.03-14.7c-1.09,1.01-2.31,2.06-3.67,3.1
					C398.8,327.66,397.6,328.49,396.46,329.22"/>
				<path id="Path_3876" class="st36" d="M45.27,286.85c0,0,6.92,10.67,34.55,20.08l-0.85,58.37c-11.5-4.65-21.27-12.74-27.97-23.17
					C46.38,324.08,44.45,305.45,45.27,286.85L45.27,286.85z"/>
				<path id="Path_3877" class="st8" d="M85.27,314.68c0,0,5.28,3.91,16.27,4.65"/>
				<path id="Path_3878" class="st8" d="M84.58,323.09c0,0,5.28,3.91,16.27,4.65"/>
				<path id="Path_3879" class="st8" d="M85.27,331.5c0,0,5.28,3.91,16.27,4.65"/>
				<path id="Path_3880" class="st8" d="M84.58,339.91c0,0,5.28,3.91,16.27,4.65"/>
				<path id="Path_3881" class="st8" d="M84.14,348.32c0,0,5.28,3.91,16.27,4.65"/>
				<path id="Path_3882" class="st8" d="M84.14,356.73c0,0,5.28,3.91,16.27,4.65"/>
				<path id="Path_3883" class="st8" d="M84.58,365.13c0,0,5.28,3.91,16.27,4.65"/>
				<path id="Path_3884" class="st36" d="M48.39,330.47c0.01,0.03,0.03,0.05,0.04,0.07c0.46,0.78,0.99,1.53,1.58,2.22
					c1.86,2.42,4.48,4.16,7.44,4.92c3.84,0.87,7.86-0.22,10.74-2.9c0.12-0.12,0.23-0.24,0.34-0.36c2.33-2.58,2.58-5.68,2.82-8.44
					c0.19-2.78-0.16-5.58-1.04-8.23c-0.93-3.02-2.55-5.78-4.74-8.06c-1.78-1.99-4.04-3.49-6.57-4.34c-1.82-0.57-3.74-0.77-5.64-0.59
					c-0.28,0.03-0.53,0.06-0.76,0.09c-2.07,0.39-3.96,1.44-5.38,2.99c-0.61,0.71-1.08,1.52-1.41,2.39
					c-0.06,0.17-0.12,0.34-0.17,0.52"/>
				<path id="Path_3885" class="st36" d="M47.84,328.47l6.88-7.4l-1.37-16.03"/>
				<path id="Path_3886" class="st36" d="M68.06,334.66l-13.34-13.6"/>
				<path id="Path_3887" class="st8" d="M46.06,310.46c0.33-0.95,0.84-1.82,1.5-2.58c1.44-1.57,3.4-2.56,5.52-2.77
					c0.44,5.3,0.88,10.6,1.33,15.9l-6.3,6.72c-0.53-3.01-1.01-6.2-1.39-9.57C46.42,315.49,46.21,312.93,46.06,310.46"/>
				<path id="Path_3888" class="st8" d="M54.78,321.41l-6.48,6.97l0.38,1.94c2.38,4.6,6.83,7.51,11.51,7.45
					c2.82-0.09,5.53-1.15,7.66-3L54.78,321.41"/>
				<path id="Path_3889" class="st37" d="M47.81,328.1c0.05-0.04,0.09-0.09,0.14-0.13c1.11-1.07,2.22-2.14,3.33-3.2l3.87-3.72"/>
				<path id="Path_3890" class="st18" d="M162.9,252.31l14.13,13.87l4.81,20.67l10.88,14.83l3.23,30.99c0,0-3.14-0.2-5.65-0.24
					l-4.53-26.86l-13.16-16L162.9,252.31"/>
				<path id="Path_3891" d="M293.32,284.07l-33.26-33.42l-3.41,26.69l-5.86,18.96v32.17l5.97-1.37l-2.09-25.25l7.29-22.21
					l0.04-18.72L293.32,284.07"/>
				<path id="Path_3892" class="st18" d="M162.82,252.43c1.57,14.09,3.13,28.19,4.7,42.28l-4.62,14.16l-6.77,11.29l8.87-4.58
					l9.59-22.08l-2.86-3.47c-1.27-4.75-2.53-9.5-3.8-14.26c-1.79-6.74-2.69-10.1-2.72-10.2c-0.49-1.85-0.5-1.85-0.54-2.03
					C163.76,259.89,163.14,256.18,162.82,252.43"/>
				
					<rect id="Rectangle_738" x="163.1" y="252.25" transform="matrix(-0.9739 0.2271 -0.2271 -0.9739 381.5906 470.3211)" class="st38" width="1.27" height="9.72"/>
				<path id="Path_3893" class="st18" d="M181.15,227.59l-21.87,7.1l-7.4,13.1l2.75,14.1l-4.81,33.82
					c-4.37,2.51-9.26,3.98-14.29,4.31c-7.94,0.46-13.82-2.27-20.65-5.55c-8.03-3.87-15.39-9-21.81-15.19l25.18,14.36l28.41,1.76
					l1.9-29.03l-4.07-19.81l9.72-17.28l20.25-7.13L181.15,227.59z"/>
				<path id="Path_3894" d="M221.42,215.89c0,0,11.03-2.53,15.77-1.42"/>
				<path id="Path_3895" class="st39" d="M181.31,226.15l21.45-13.94c-0.35-7.18-0.71-14.37-1.06-21.55
					c-0.55-1.25-1.09-2.53-1.63-3.84c-0.46-1.11-0.89-2.21-1.3-3.3l0.82,22.92l-24.2,14.98L181.31,226.15"/>
				<path id="Path_3896" d="M190.75,216.88c0,0,11.41-2.38,16.48-0.63"/>
				<path id="Path_3897" d="M197.3,181.41c-0.16,0.02-0.07,3.51,0.69,15.51l0.65,1.38c-0.06-1.9-0.16-5.11-0.22-7.01
					c-0.09-2.93-0.2-6.28-0.29-9.21c-0.13-0.14-0.25-0.28-0.37-0.43c-0.06-0.09-0.14-0.15-0.23-0.2
					C197.46,181.42,197.38,181.41,197.3,181.41"/>
			</g>
		</g>
	</g>
</g>
<g id="Group_1275">
	<g>
		<defs>
			<rect id="SVGID_00000171710836879332068160000017743369143717905560_" x="10.99" y="10.93" width="563.21" height="627.46"/>
		</defs>
		<clipPath id="SVGID_00000080171749305877846810000007873501532786291643_">
			<use xlink:href="#SVGID_00000171710836879332068160000017743369143717905560_"  style="overflow:visible;"/>
		</clipPath>
		<g id="Group_1274" style="clip-path:url(#SVGID_00000080171749305877846810000007873501532786291643_);">
			<path id="Path_4030" class="st41" d="M412.44,432.86c0,0-2.09,0.29-5.96,0.62"/>
			<path id="Path_4031" class="st42" d="M394.32,434.2c-46.9,1.73-174.89-4.75-264.24-115.43c-93.96-116.4,26.52-154.98,66.2-164.15
				"/>
			<path id="Path_4032" class="st41" d="M202.23,153.33c3.73-0.76,5.9-1.09,5.9-1.09"/>
			<path id="Path_4033" class="st4" d="M412.44,198.08H260.13v-4.95l16.51-14.11l22.47-4.43l10.55,15.66l39.15,6.81l41.54-12.25
				l16.68,5.1L412.44,198.08z"/>
			<path id="Path_4034" class="st28" d="M412.44,198.08H260.13v-4.95l16.51-14.11l22.47-4.43l10.55,15.66l39.15,6.81l41.54-12.25
				l16.68,5.1L412.44,198.08z"/>
			<path id="Path_4035" class="st4" d="M389.66,183.87l-41.1,12.08l-38.3-6.46l-10.81-15.79l26.17-8.94v-7.66l-0.04-0.89l1.02-0.72
				c-2.18-2.19-4.16-4.57-5.91-7.11c-3.67-5.3-6.3-11.25-7.75-17.53c-1.53-7.04-1.47-14.34,0.17-21.36l0.09-0.33
				c-0.68-0.21-1.37-0.45-2.05-0.73c-0.31-0.07-0.6-0.15-0.88-0.22c-0.4-0.22-0.82-0.47-1.25-0.76h-0.01
				c-1.27-0.82-2.47-1.75-3.58-2.79c-0.42-0.39-0.81-0.79-1.19-1.19c-0.33-0.36-0.64-0.71-0.94-1.07c-0.46-0.54-0.89-1.11-1.29-1.7
				c-0.39-0.55-0.73-1.08-1.03-1.59c-0.22-0.37-0.42-0.74-0.61-1.09c-0.09-0.17-0.18-0.34-0.26-0.5c-0.25-0.49-0.46-0.96-0.65-1.39
				c0.36,0.26,8.99,6.41,21.46-0.01c0,0,5.72-4.25,21.55-11.65c0,0,6.27-1.54,10.91,2.21c1.34,1.09,2.42,2.48,3.13,4.06
				c0.02,0.03,0.04,0.07,0.05,0.1c0.93,2.09,1.47,4.33,1.62,6.61c0,0,18.51-3.79,8.55,26.59l-8.55,28.2l3.83,14.18L389.66,183.87z"
				/>
			<path id="Path_4036" class="st28" d="M389.66,183.87l-41.1,12.08l-38.3-6.46l-10.81-15.79l26.17-8.94v-7.66l-0.04-0.89l1.02-0.72
				c-2.18-2.19-4.16-4.57-5.91-7.11c-3.67-5.3-6.3-11.25-7.75-17.53c-1.53-7.04-1.47-14.34,0.17-21.36l0.09-0.33
				c-0.68-0.21-1.37-0.45-2.05-0.73c-0.31-0.07-0.6-0.15-0.88-0.22c-0.4-0.22-0.82-0.47-1.25-0.76h-0.01
				c-1.27-0.82-2.47-1.75-3.58-2.79c-0.42-0.39-0.81-0.79-1.19-1.19c-0.33-0.36-0.64-0.71-0.94-1.07c-0.46-0.54-0.89-1.11-1.29-1.7
				c-0.39-0.55-0.73-1.08-1.03-1.59c-0.22-0.37-0.42-0.74-0.61-1.09c-0.09-0.17-0.18-0.34-0.26-0.5c-0.25-0.49-0.46-0.96-0.65-1.39
				c0.36,0.26,8.99,6.41,21.46-0.01c0,0,5.72-4.25,21.55-11.65c0,0,6.27-1.54,10.91,2.21c1.34,1.09,2.42,2.48,3.13,4.06
				c0.02,0.03,0.04,0.07,0.05,0.1c0.93,2.09,1.47,4.33,1.62,6.61c0,0,18.51-3.79,8.55,26.59l-8.55,28.2l3.83,14.18L389.66,183.87z"
				/>
			<path id="Path_4037" class="st8" d="M440.05,286.59l-32.68,90.56l-0.34-81.37l4.76-16.34l-27.91-43.57l-8.51,26.89l-20.43,18.05
				l-12.93,39.14c0,0-38.47-1.36-74.22-28.59l8.17-29.62l-4.76-18.72l1.36-18.73l-39.83,7.83l-105.53-59.91l77.61,11.23l0.18,0.17
				l16.5,15.49l36.43-4.08l2.21-1.89l16.51-14.11l22.47-4.43l10.55,15.66l39.15,6.81l41.54-12.25l16.68,5.1l5.41,8.17l11.95,18.04
				l-1.36,16L440.05,286.59z"/>
			<path id="Path_4038" class="st29" d="M440.05,286.59l-32.68,90.56l-0.34-81.37l4.76-16.34l-27.91-43.57l-8.51,26.89l-20.43,18.05
				l-12.93,39.14c0,0-38.47-1.36-74.22-28.59l8.17-29.62l-4.76-18.72l1.36-18.73l-39.83,7.83l-105.53-59.91l77.61,11.23l0.18,0.17
				l16.5,15.49l36.43-4.08l2.21-1.89l16.51-14.11l22.47-4.43l10.55,15.66l39.15,6.81l41.54-12.25l16.68,5.1l5.41,8.17l11.95,18.04
				l-1.36,16L440.05,286.59z"/>
			<path id="Path_4039" class="st10" d="M267.79,292.43l-4.6,10.6c0,0,14.81,21.32,75.83,27.06h2.81l0.89-9.83
				C342.73,320.26,303.92,318.47,267.79,292.43z"/>
			<path id="Path_4040" class="st8" d="M263.19,303.92l-83.75,40.38c0,0-19.66,27.92-19.92,37.87l62.81,128.94l-12-83.49l4.09-21.19
				l-6.64-25.28l73.02-27.06l-45.02,62.55l0.17,10.38l-11.75,20.08l-1.11,67.49l-6.38,72.26l-22.47,49.02l37.11-29.28l6.81-42.55
				l24.85-73.53l-4.43-26.89l74.04-86.47c3.07-15.54,6.13-31.08,9.19-46.62c-6.72-0.73-28.56-3.29-48.05-9.48
				c-8.9-2.82-15.72-5.9-22.4-10.79c-2.64-1.93-5.13-4.05-7.46-6.35"/>
			<path id="Path_4041" class="st29" d="M263.19,303.92l-83.75,40.38c0,0-19.66,27.92-19.92,37.87l62.81,128.94l-12-83.49
				l4.09-21.19l-6.64-25.28l73.02-27.06l-45.02,62.55l0.17,10.38l-11.75,20.08l-1.11,67.49l-6.38,72.26l-22.47,49.02l37.11-29.28
				l6.81-42.55l24.85-73.53l-4.43-26.89l74.04-86.47c3.07-15.54,6.13-31.08,9.19-46.62c-6.72-0.73-28.56-3.29-48.05-9.48
				c-8.9-2.82-15.72-5.9-22.4-10.79c-2.64-1.93-5.13-4.05-7.46-6.35"/>
			<path id="Path_4042" d="M366.73,124.04c-3.05,9.45-6.1,18.9-9.16,28.34c-1.24-6.72-2.48-13.44-3.73-20.17
				c4.83-2.49,7.34-7.04,6.44-10.8c-0.47-1.7-1.5-3.2-2.93-4.24c-0.92-0.22-1.88-0.19-2.79,0.08c-3.33,1.01-4.2,5.03-4.24,5.23
				c0,0,1.37-18.87-2.19-19.89c-3.68,2.33-7.67,4.13-11.85,5.36c-4.73,1.38-13.84,4.08-23.08,1.21c-0.68-0.21-1.37-0.45-2.05-0.73
				c-0.95-0.39-1.7-0.75-2.13-0.98h-0.01c-1.27-0.82-2.47-1.75-3.58-2.79c-0.42-0.39-0.81-0.79-1.19-1.19
				c-0.33-0.36-0.64-0.71-0.94-1.07c-0.46-0.54-0.89-1.11-1.29-1.7c-0.38-0.54-0.72-1.07-1.03-1.59c-0.22-0.37-0.42-0.74-0.61-1.09
				c-0.09-0.17-0.18-0.34-0.26-0.5c-0.25-0.49-0.46-0.96-0.65-1.39c1.98,0.65,4.04,1.02,6.12,1.1c7.3,0.26,13.38-3.26,19.91-7.15
				c4.85-2.88,5.85-4.14,9.71-5.44c3.01-1.01,6.17-1.53,9.35-1.53c3.2,0.17,6.27,1.38,8.71,3.46c0.04,0.04,0.08,0.07,0.12,0.11
				c1.29,1.14,2.35,2.52,3.13,4.06c0.02,0.03,0.04,0.07,0.05,0.1c1.02,2.06,1.57,4.31,1.62,6.61
				C358.18,97.45,376.69,93.66,366.73,124.04"/>
			<path id="Path_4043" class="st10" d="M366.73,124.04c-3.05,9.45-6.1,18.9-9.16,28.34c-1.24-6.72-2.48-13.44-3.73-20.17
				c4.83-2.49,7.34-7.04,6.44-10.8c-0.47-1.7-1.5-3.2-2.93-4.24c-0.92-0.22-1.88-0.19-2.79,0.08c-3.33,1.01-4.2,5.03-4.24,5.23
				c0,0,1.37-18.87-2.19-19.89c-3.68,2.33-7.67,4.13-11.85,5.36c-4.73,1.38-13.84,4.08-23.08,1.21c-0.68-0.21-1.37-0.45-2.05-0.73
				c-0.95-0.39-1.7-0.75-2.13-0.98h-0.01c-1.27-0.82-2.47-1.75-3.58-2.79c-0.42-0.39-0.81-0.79-1.19-1.19
				c-0.33-0.36-0.64-0.71-0.94-1.07c-0.46-0.54-0.89-1.11-1.29-1.7c-0.38-0.54-0.72-1.07-1.03-1.59c-0.22-0.37-0.42-0.74-0.61-1.09
				c-0.09-0.17-0.18-0.34-0.26-0.5c-0.25-0.49-0.46-0.96-0.65-1.39c1.98,0.65,4.04,1.02,6.12,1.1c7.3,0.26,13.38-3.26,19.91-7.15
				c4.85-2.88,5.85-4.14,9.71-5.44c3.01-1.01,6.17-1.53,9.35-1.53c3.2,0.17,6.27,1.38,8.71,3.46c0.04,0.04,0.08,0.07,0.12,0.11
				c1.29,1.14,2.35,2.52,3.13,4.06c0.02,0.03,0.04,0.07,0.05,0.1c1.02,2.06,1.57,4.31,1.62,6.61
				C358.18,97.45,376.69,93.66,366.73,124.04z"/>
			<path id="Path_4044" class="st43" d="M313.11,109.49c-1.64,7.02-1.7,14.32-0.17,21.36c1.45,6.28,4.08,12.23,7.75,17.53
				c1.75,2.54,3.73,4.92,5.91,7.11c9.39-2.14,17.65-7.71,23.15-15.62"/>
			<path id="Path_4045" class="st44" d="M280.62,301.23c-0.87,1.63-1.73,3.32-2.6,5.04c-0.97,1.93-1.88,3.84-2.75,5.71
				c2.74,1.47,4.82,2.61,6.05,3.29c3.66,2.02,6.03,3.32,9.62,4.27c0.18,0.05,0.36,0.09,0.53,0.13c0.26,0.05,4.93-9.58,5.23-10.4
				S289.94,306.54,280.62,301.23"/>
			<path id="Path_4046" class="st12" d="M280.62,301.23c-0.87,1.63-1.73,3.32-2.6,5.04c-0.97,1.93-1.88,3.84-2.75,5.71
				c2.74,1.47,4.82,2.61,6.05,3.29c3.66,2.02,6.03,3.32,9.62,4.27c0.18,0.05,0.36,0.09,0.53,0.13c0.26,0.05,4.93-9.58,5.23-10.4
				S289.94,306.53,280.62,301.23z"/>
			<path id="Path_4047" d="M268.04,293.28l-4.21,9.62c0,0,8.6,8.6,11.15,8.98l5.23-10.98C280.21,300.89,271.15,296,268.04,293.28"/>
			<path id="Path_4048" class="st12" d="M268.04,293.28l-4.21,9.62c0,0,8.6,8.6,11.15,8.98l5.23-10.98
				C280.21,300.89,271.15,296,268.04,293.28z"/>
			<path id="Path_4049" class="st8" d="M297.09,309.41l-5.23,10.28c0,0,33.06,10.53,49.4,9.77l0.83-8.78
				C342.08,320.67,322.48,319.75,297.09,309.41"/>
			<path id="Path_4050" class="st12" d="M297.09,309.41l-5.23,10.28c0,0,33.06,10.53,49.4,9.77l0.83-8.78
				C342.08,320.67,322.49,319.75,297.09,309.41z"/>
			<path id="Path_4051" d="M327.13,194.02l-35.17,86.79l-4-8.94l-8.68,26.3c0,0,26.72,18.89,62.55,20.94l12.25-38.38l20.68-18.55
				l8.77-27.91l29.28,45.15l-4.98,16.6l0.17,77.7l31.28-87.28l-17.08-54.19l1.53-16.02l-17.26-25.7l-16.21-4.94l-41.34,12.19
				L327.13,194.02z"/>
			<path id="Path_4052" class="st29" d="M327.13,194.02l-35.17,86.79l-4-8.94l-8.68,26.3c0,0,26.72,18.89,62.55,20.94l12.25-38.38
				l20.68-18.55l8.77-27.91l29.28,45.15l-4.98,16.6l0.17,77.7l31.28-87.28l-17.08-54.19l1.53-16.02l-17.26-25.7l-16.21-4.94
				l-41.34,12.19L327.13,194.02z"/>
			<path id="Path_4053" class="st3" d="M291.96,217.15l14.98-10.04l33.36,8l9.02,17.02l-42.89,22.3L291.96,217.15z"/>
			<path id="Path_4054" class="st29" d="M291.96,217.15l14.98-10.04l33.36,8l9.02,17.02l-42.89,22.3L291.96,217.15z"/>
		</g>
	</g>
</g>
<text transform="matrix(0.9715 0.2371 -0.2371 0.9715 303.3221 242.5225)" class="st8 st15 st45">P</text>
<g id="Group_1277">
	<g>
		<defs>
			<rect id="SVGID_00000039104715238388284490000008739630123435227009_" x="10.99" y="10.93" width="563.21" height="627.46"/>
		</defs>
		<clipPath id="SVGID_00000084517732085015161780000010644785448600474791_">
			<use xlink:href="#SVGID_00000039104715238388284490000008739630123435227009_"  style="overflow:visible;"/>
		</clipPath>
		<g id="Group_1276" style="clip-path:url(#SVGID_00000084517732085015161780000010644785448600474791_);">
			<path id="Path_4055" d="M289.13,320.32c-2.33,10.9-4.65,21.81-6.98,32.71c-15.28,21.25-30.57,42.5-45.85,63.76
				c0.04,3.4,0.09,6.8,0.13,10.19l-11.72,20.3c-0.37,22.33-0.74,44.65-1.12,66.97l-6.35,72.66l-21.65,47.32l35.33-27.89
				c2.25-14.14,4.49-28.28,6.74-42.41c8.29-24.49,16.57-48.97,24.86-73.46l-4.76-27.15l74.43-86.51
				c3.02-15.28,6.04-30.57,9.05-45.85c-4.76-0.39-10.34-1.01-16.56-2c-2.88-0.46-7.89-1.31-14.08-2.7
				C304.67,324.93,297.39,323.04,289.13,320.32"/>
			<path id="Path_4056" class="st4" d="M517.32,190.25c-0.45,0.37-0.98,0.63-1.55,0.77c-8.04,2.99-16.43,4.94-24.96,5.79
				c0,0-5.75,0.56-29.65,0h-0.22c0.07-0.01,0.15-0.02,0.22-0.04c-3.64-30.88-7.27-61.76-10.9-92.65
				c-5.44-46.33,62.64-27.23,67.06-31.65C517.32,72.47,541.84,152.81,517.32,190.25"/>
			<path id="Path_4057" class="st47" d="M517.32,72.47c-1.07,47.34-21.34,92.21-56.16,124.3c16.07-4.2,30.93-12.11,43.39-23.1
				c0,0,3.29,12.29,5.67,14.12c0,0,3.13,4.57,6.77,2.13c0,0,7.85-12.38,9.06-25.6c-0.32-18.98-0.64-37.96-0.95-56.95"/>
			<path id="Path_4058" class="st11" d="M461.16,196.81v-0.04c21.63-3.54,43.06-22.18,43.06-22.18
				c4.12,15.95,9.08,17.07,11.55,16.43c-8.04,2.99-16.43,4.94-24.96,5.79C490.81,196.81,485.06,197.37,461.16,196.81l-0.22,0
				c0.07-0.01,0.15-0.02,0.22-0.04c-3.64-30.88-7.27-61.76-10.9-92.65c-5.44-46.33,62.64-27.23,67.06-31.65
				c0,0,24.52,80.34,0,117.78c-0.45,0.37-0.98,0.63-1.55,0.77"/>
			<path id="Path_4059" class="st11" d="M459.11,109.06c0,0,20.43-1.02,47.66-19.92"/>
			<path id="Path_4060" class="st11" d="M459.11,118.77c0,0,17.87-3.23,28.77-8.34"/>
			<path id="Path_4061" class="st11" d="M460.81,128.98c0,0,43.57-7.15,57.53-16.17"/>
			<path id="Path_4062" class="st11" d="M464.72,142.26c0,0,17.53-1.87,28.08-6.3"/>
			<path id="Path_4063" class="st4" d="M573.66,272.13c0,0-51.06,6.86-60.76,7.52l-1.25-30.34l-0.03-0.66l58.47-15.07l0.12,1.33
				L573.66,272.13z"/>
			<path id="Path_4064" class="st43" d="M573.66,272.13c0,0-51.06,6.86-60.76,7.52l-1.25-30.34l-0.03-0.66l58.47-15.07l0.12,1.33
				L573.66,272.13z"/>
			<path id="Path_4065" class="st43" d="M512.38,249.28l32.17,13.02l24.77-27.32"/>
			<line id="Line_347" class="st43" x1="554.77" y1="260.38" x2="566.13" y2="266.38"/>
			<line id="Line_348" class="st43" x1="531.02" y1="263.38" x2="516.98" y2="275.57"/>
			<path id="Path_4066" class="st4" d="M209.41,85.15l-1.39,1.28l-39.29,36.33v-15.57l-7.41,13.28V99.78l-14.04-10.46L209.41,85.15z
				"/>
			<path id="Path_4067" class="st11" d="M209.41,85.15l-1.39,1.28l-39.29,36.33v-15.57l-7.41,13.28V99.78l-14.04-10.46L209.41,85.15
				z"/>
			<path id="Path_4068" class="st11" d="M161.32,99.78L207.62,86"/>
			<path id="Path_4069" class="st48" d="M168.66,106.11l39.47-20.47"/>
			<path id="Path_4070" class="st4" d="M487.86,407.2c-0.45,0.17-7.66,3.46-8.15,39.82c0,0-38.05,10.72-57.19,11.49l0.2-1.42
				l-0.2-0.03l-7.83-32.25l6.97-2.13l1.28-9.45l18.81-4.76l3.06,3.74l36.09-7.83l2.38,2.81l0.26,1.07L487.86,407.2z"/>
			<path id="Path_4071" class="st48" d="M487.86,407.2c-0.45,0.17-7.66,3.46-8.15,39.82c0,0-38.05,10.72-57.19,11.49l0.2-1.42
				l4.9-35.09l55.92-13.74L487.86,407.2z"/>
			<path id="Path_4072" class="st48" d="M422.52,457.06l-7.83-32.25l6.97-2.13l1.28-9.45l18.81-4.76l3.06,3.74l36.09-7.83l2.38,2.81
				"/>
			<path id="Path_4073" class="st48" d="M435.7,430.73c0.26,0.04,14.21-2.77,14.21-2.77"/>
			<line id="Line_349" class="st48" x1="435.19" y1="437.92" x2="440.89" y2="436.55"/>
			<path id="Path_4074" class="st4" d="M204.81,183.44l0.18,0.17h-0.18V183.44z"/>
			<path id="Path_4075" class="st4" d="M254.52,137.15l-26.22,43.57c0,0-0.52-0.68-1.37-1.89c-3.53-5.01-12.82-19.03-14.5-30.14
				c-0.3-1.79-0.34-3.62-0.13-5.42l35.75-42.04C248.04,101.24,247.36,130.18,254.52,137.15"/>
			<path id="Path_4076" class="st11" d="M254.52,137.15l-26.22,43.57c0,0-0.52-0.68-1.37-1.89c-3.53-5.01-12.82-19.03-14.5-30.14
				c-0.3-1.79-0.34-3.62-0.13-5.42l35.75-42.04C248.04,101.24,247.37,130.17,254.52,137.15z"/>
			<path id="Path_4077" class="st4" d="M172.05,306.47L62.26,338.64L52.3,338c-0.25-0.26-1.84-2.54-4.24-6.1
				c-10.42-15.39-36.27-54.5-36.27-54.5l88.85-25.53l44.94,49.36l-0.59,0.19l24.76-2.61C181.75,298.93,172.05,306.47,172.05,306.47"
				/>
			<path id="Path_4078" class="st11" d="M212.43,148.7c0.44-1.72,1.23-3.34,2.33-4.74c2-2.47,4.79-4.16,7.91-4.79
				c-2.16,13.36-0.69,27.06,4.27,39.66"/>
			<path id="Path_4079" class="st11" d="M226.09,134.17c0,0,5.7,17.45,10.47,22.89"/>
			<path id="Path_4080" class="st11" d="M234.85,140.98c0,0,1.62,6.81,3.32,8.51"/>
			<path id="Path_4081" class="st11" d="M237.07,127.28c0,0-0.94,7.23,6.3,15.15"/>
			<path id="Path_4082" class="st11" d="M241.07,120.55c0,0,3.06,11.75,6.81,17.45"/>
			<path id="Path_4083" class="st11" d="M49.37,331.61l95.62-30.19l0.59-0.19l-44.94-49.36L11.79,277.4c0,0,25.85,39.11,36.27,54.5
				c2.4,3.56,3.99,5.84,4.24,6.1l9.96,0.64l109.79-32.17c0,0,9.7-7.54-2.3-7.66c-8.25,0.87-16.5,1.74-24.76,2.61"/>
			<path id="Path_4084" class="st49" d="M159.53,109.06c-33.67-8.43-56.02-28.87-55.48-47.28c0.76-25.89,46.53-40.04,57.52-43.44
				c45.58-14.09,85.28-2.69,134.81,12.26C386.48,57.77,442.55,74.9,478.77,86"/>
			<path id="Path_4085" class="st18" d="M131.19,173.41l102.14,45.11l45.94-9.19c-0.57,10.96-1.15,21.91-1.72,32.87l5.11,18.89
				c-2.74,11.3-5.49,22.6-8.23,33.89l-5.7-3.91l8.06-29.4l-4.87-18.7l1.58-19.87l-40.68,8.06L131.19,173.41z"/>
			<path id="Path_4086" class="st18" d="M289.13,320.32l-89.09,53.38l6.88,32.04l-3.13,13.96l-3.23,44.26L220.73,506
				c-3.72-26.07-7.43-52.13-11.15-78.19l4.05-21.32c-2.33-8.7-4.66-17.4-6.99-26.11l75.57-27.64
				C284.52,341.93,286.83,331.13,289.13,320.32"/>
			<path id="Path_4087" class="st50" d="M354.98,192.98c0.51-3.63,0.95-7.46,1.28-11.49c0.36-4.43,0.56-8.65,0.64-12.64
				l-14.84-19.99c1.3-1.03,2.54-2.14,3.68-3.34c3.52-3.71,6.24-8.11,7.96-12.92c1.29,7.15,2.58,14.3,3.86,21.45l3.57,13.08
				l26.06,16.41c-5.27,1.56-10.55,3.11-15.82,4.65C365.91,189.78,360.45,191.38,354.98,192.98"/>
			<path id="Path_4088" class="st51" d="M99.89,252.09c0,0-34.66,61.91-51.94,78.68l95.62-30.55L99.89,252.09z"/>
			<path id="Path_4089" class="st52" d="M80.88,291.9c0.61,2.66-2.22,5.58-6.32,6.53s-7.93-0.45-8.54-3.11s2.22-5.58,6.32-6.53
				S80.27,289.24,80.88,291.9"/>
			<path id="Path_4090" class="st53" d="M80.88,291.9c0.61,2.66-2.22,5.58-6.32,6.53s-7.93-0.45-8.54-3.11s2.22-5.58,6.32-6.53
				S80.27,289.24,80.88,291.9z"/>
			<path id="Path_4091" class="st51" d="M415.36,425.15l7.15,29.62c1.54-11.08,3.08-22.15,4.62-33.23l56.11-13.71l-2.61-2.85
				l-36.04,7.83l-3.07-3.75l-18.17,4.6L415.36,425.15z"/>
		</g>
	</g>
</g>
</svg>
