<?xml version="1.0" encoding="utf-8"?>
<!-- Generator: Adobe Illustrator 26.0.0, SVG Export Plug-In . SVG Version: 6.00 Build 0)  -->
<svg version="1.1" id="Layer_1" xmlns="http://www.w3.org/2000/svg" xmlns:xlink="http://www.w3.org/1999/xlink" x="0px" y="0px"
	 viewBox="0 0 562.89 484.54" style="enable-background:new 0 0 562.89 484.54;" xml:space="preserve">
<style type="text/css">
	.st0{display:none;}
	.st1{display:inline;}
	.st2{clip-path:url(#SVGID_00000074417614135851631730000006343209148693589138_);}
	.st3{fill:#F9C626;}
	.st4{fill:#FFFFFF;}
	.st5{fill:none;stroke:#FFFFFF;stroke-width:0.925;stroke-miterlimit:10;}
	.st6{fill:#494949;}
	.st7{fill:none;stroke:#FFFFFF;stroke-width:0.308;stroke-miterlimit:10;}
	.st8{fill:#D81330;}
	.st9{fill:none;stroke:#FFFFFF;stroke-width:0.617;stroke-miterlimit:10;}
	.st10{fill:none;stroke:#FFFFFF;stroke-miterlimit:10;}
	.st11{fill:none;stroke:#000000;stroke-miterlimit:10;}
	.st12{fill:none;stroke:#FFFFFF;stroke-width:0.5;stroke-miterlimit:10;}
	.st13{fill:none;stroke:#000000;stroke-width:0.75;stroke-miterlimit:10;}
	.st14{display:inline;fill:#D81330;}
	.st15{font-family:'CenturyGothic';}
	.st16{font-size:33px;}
	.st17{clip-path:url(#SVGID_00000074406257531963579190000002171300807481682560_);}
	.st18{fill:#B9002D;}
	.st19{fill:none;}
	.st20{fill:none;stroke:#000000;stroke-width:3;stroke-miterlimit:10;}
	.st21{fill:none;stroke:#FFFFFF;stroke-width:3;stroke-miterlimit:10;}
	.st22{clip-path:url(#SVGID_00000183945971745329542080000005282356602925446536_);}
	.st23{clip-path:url(#SVGID_00000152260687514157920590000011456702598272400773_);}
	.st24{font-size:75px;}
</style>
<g class="st0">
	<g id="Group_1280" class="st1">
		<g>
			<defs>
				<rect id="SVGID_1_" x="-201.01" y="47.7" width="945.32" height="390.17"/>
			</defs>
			<clipPath id="SVGID_00000183927185978892066920000008398596213193615800_">
				<use xlink:href="#SVGID_1_"  style="overflow:visible;"/>
			</clipPath>
			<g id="Group_1279" style="clip-path:url(#SVGID_00000183927185978892066920000008398596213193615800_);">
				<path id="Path_4092" class="st3" d="M446.6,231.76l-225.1,94.91l7.33-43.99l-125.56,53.46c-1.22-15.89-2.44-31.77-3.67-47.66
					l-300.61,149.39l285.95-116.4l-1.83,36.66l120.98-47.05l-11.94,59.13c46.26-22.41,93.96-47.09,143.11-74.03
					C374.08,274.78,411.2,253.31,446.6,231.76"/>
				<path id="Path_4093" class="st4" d="M611.94,83.16v6.2c0,0-3.35,26.66-19.85,35.47l1.08,2.07l18.77-9.74v26l-3.9,2.84H542.2
					v-34.55c2.45,0.38,4.3,0.92,5.18,1.64l0.23,0.92l0.49-0.12l17.97-4.27c-0.24-1.12-3.73-18.95,0.97-25.81
					c0.16-0.23,0.31-0.44,0.48-0.65L611.94,83.16z"/>
				<path id="Path_4094" d="M467.17,186.96l6.84-4.12L517.96,221l-7.17,7.11l-32.29-25.74l-4.93-3.43L467.17,186.96z"/>
				<path id="Path_4095" class="st5" d="M467.17,186.96l6.84-4.12L517.96,221l-7.17,7.11l-32.29-25.74l-4.93-3.43L467.17,186.96z"/>
				<path id="Path_4096" class="st6" d="M485.86,208.24l8.29-7.92l12.11,10.52l-6.67,8.35L485.86,208.24"/>
				<path id="Path_4097" class="st7" d="M485.86,208.24l8.29-7.92l12.11,10.52l-6.67,8.35L485.86,208.24z"/>
				<path id="Path_4098" class="st8" d="M473.56,198.94l9.4-8.33l11.14,9.47l-8.52,8.18l-11.48-8.93"/>
				<path id="Path_4099" class="st7" d="M473.56,198.94l9.4-8.33l11.14,9.47l-8.52,8.18l-11.48-8.93"/>
				<path id="Path_4100" class="st8" d="M499.61,219.45c2.3-2.88,4.61-5.76,6.91-8.64l11.65,10.21c-2.5,2.39-5,4.78-7.5,7.17
					L499.61,219.45"/>
				<path id="Path_4101" class="st9" d="M499.61,219.45c2.3-2.88,4.61-5.76,6.91-8.64l11.65,10.21c-2.5,2.39-5,4.78-7.5,7.17
					L499.61,219.45z"/>
				<path id="Path_4102" d="M466.32,187.17l6.36,12.67l37.58,29.54l-41.9,32.38l-28.92,5.7L205.02,363.8l222.4-121.39l-165.38,66.8
					l77.8-60.29l22.4-4.48L466.32,187.17z"/>
				<path id="Path_4103" class="st10" d="M466.32,187.17l6.36,12.67l37.58,29.54l-41.9,32.38l-28.92,5.7L205.02,363.8l222.4-121.39
					l-165.38,66.8l77.8-60.29l22.4-4.48L466.32,187.17z"/>
				<path id="Path_4104" d="M739.65,50.35l-127.71,92.8l-3.9,2.84l-13.01,9.45l-9.57,21.59l-66.18,43.9l-35.02-30.62l-9.18-8.03
					l14.81-12.53l6.37-15.42l-138.27,65.42l-0.35,0.17l88.96-70.37h10.55l42.66-38.29c0,0,0.2-0.02,0.59-0.06c0,0,0.05,0,0.16-0.01
					c0.08,0,0.19-0.01,0.32-0.02c0.01,0.01,0.03,0.01,0.05,0c0.07,0,0.16-0.01,0.25-0.01c4.82-0.42,21.47-1.63,34.6-0.36
					c2.27,0.21,4.44,0.51,6.41,0.9c1.76,0.32,3.5,0.79,5.18,1.4l0.23,0.92l4.06,16.39l25.28,15.59l0.79,0.49l0.81-0.49l10.59-6.43
					l1.22-11.21l2.81-1.46l18.77-9.74l21.18-11l4.28-12.01L739.65,50.35z"/>
				<path id="Path_4105" class="st10" d="M739.65,50.35l-127.71,92.8l-3.9,2.84l-13.01,9.45l-9.57,21.59l-66.18,43.9l-35.02-30.62
					l-9.18-8.03l14.81-12.53l6.37-15.42l-138.27,65.42l-0.35,0.17l88.96-70.37h10.55l42.66-38.29c0,0,0.2-0.02,0.59-0.06
					c0,0,0.05,0,0.16-0.01c0.08,0,0.19-0.01,0.32-0.02c0.01,0.01,0.03,0.01,0.05,0c0.07,0,0.16-0.01,0.25-0.01
					c4.82-0.42,21.47-1.63,34.6-0.36c2.27,0.21,4.44,0.51,6.41,0.9c1.76,0.32,3.5,0.79,5.18,1.4l0.23,0.92l4.06,16.39l25.28,15.59
					l0.79,0.49l0.81-0.49l10.59-6.43l1.22-11.21l2.81-1.46l18.77-9.74l21.18-11l4.28-12.01L739.65,50.35z"/>
				<path id="Path_4106" d="M621.88,80.58c-0.17,0.28-0.43,0.67-0.77,1.14c-0.29,0.38-3.51,6.37-9.17,7.04l-0.3,0.04
					c-5.67,0.41-11.35-0.64-16.5-3.05c0,0-8.03-2.24-10.91-2.24c-0.65,0-1.03,0.12-1.01,0.39c0.16,1.53-1.99,11.15-1.99,11.15
					l-3.86,2.5c0.34-1.44,0.18-2.95-0.45-4.29c-1.08-1.97-4.89-0.86-5.5,1.69c-0.61,2.55,1.42,9.37,1.42,9.37
					c-0.89,1.76-1.76,3.53-2.64,5.29l-22.1,4.27l17.97-4.27c-0.24-1.12-3.73-18.95,0.97-25.81c0.16-0.23,0.31-0.44,0.48-0.65
					c4.52-5.7,10.83-2,10.83-2c0.36-2.44,1.26-4.77,2.64-6.81c1.12-1.63,3.17-4.62,6.4-4.92c0.6-0.05,1.21-0.02,1.79,0.11
					c0.46,0.17,1.27,0.44,2.27,0.83c12.1,4.51,14.38,8.52,22.46,10.13c0.52,0.11,1.03,0.18,1.03,0.18
					C617.25,81.01,619.59,80.98,621.88,80.58"/>
				<path id="Path_4107" class="st10" d="M621.88,80.58c-0.17,0.28-0.43,0.67-0.77,1.14c-0.29,0.38-3.51,6.37-9.17,7.04l-0.3,0.04
					c-5.67,0.41-11.35-0.64-16.5-3.05c0,0-8.03-2.24-10.91-2.24c-0.65,0-1.03,0.12-1.01,0.39c0.16,1.53-1.99,11.15-1.99,11.15
					l-3.86,2.5c0.34-1.44,0.18-2.95-0.45-4.29c-1.08-1.97-4.89-0.86-5.5,1.69c-0.61,2.55,1.42,9.37,1.42,9.37
					c-0.89,1.76-1.76,3.53-2.64,5.29l-22.1,4.27l17.97-4.27c-0.24-1.12-3.73-18.95,0.97-25.81c0.16-0.23,0.31-0.44,0.48-0.65
					c4.52-5.7,10.83-2,10.83-2c0.36-2.44,1.26-4.77,2.64-6.81c1.12-1.63,3.17-4.62,6.4-4.92c0.6-0.05,1.21-0.02,1.79,0.11
					c0.46,0.17,1.27,0.44,2.27,0.83c12.1,4.51,14.38,8.52,22.46,10.13c0.52,0.11,1.03,0.18,1.03,0.18
					C617.25,81.01,619.59,80.98,621.88,80.58z"/>
				<path id="Path_4108" class="st11" d="M580.58,110.33c0.81,5.1,9.87,15.28,9.87,15.28c0.56-0.25,1.1-0.51,1.64-0.79
					c16.5-8.81,19.85-35.47,19.85-35.47l0.08-1.58"/>
				<path id="Path_4109" class="st8" d="M575.87,145.99l1.5,0.92l-17.53,9.72l-28.33,15.68l-25.63,14.19l-8.09-6.81l-13.53,10.63
					l-0.22,0.17l-8.96-8.2l14.81-12.53l6.37-15.42l-138.27,65.41l88.62-70.2h10.55l43.24-38.35c0,0,0.05,0,0.16-0.01
					c0.08,0,0.19-0.01,0.32-0.02c0.01,0.01,0.03,0.01,0.05,0c3.39-0.19,22.08-1.18,34.85-0.37c2.39,0.14,4.58,0.36,6.41,0.66
					c2.45,0.38,4.3,0.92,5.18,1.64l4.01,17.79L575.87,145.99z"/>
				<path id="Path_4110" class="st10" d="M575.87,145.99l1.5,0.92l-17.53,9.72l-28.33,15.68l-25.63,14.19l-8.09-6.81l-13.53,10.63
					l-0.22,0.17l-8.96-8.2l14.81-12.53l6.37-15.42l-138.27,65.41l88.62-70.2h10.55l43.24-38.35c0,0,0.05,0,0.16-0.01
					c0.08,0,0.19-0.01,0.32-0.02c0.01,0.01,0.03,0.01,0.05,0c3.39-0.19,22.08-1.18,34.85-0.37c2.39,0.14,4.58,0.36,6.41,0.66
					c2.45,0.38,4.3,0.92,5.18,1.64l4.01,17.79L575.87,145.99z"/>
				<path id="Path_4111" class="st8" d="M577.36,146.91l1.58-0.86l-1.52,0.9L577.36,146.91z"/>
				<path id="Path_4112" class="st12" d="M577.36,146.91l1.58-0.86l-1.52,0.9L577.36,146.91z"/>
				<path id="Path_4113" class="st8" d="M739.65,50.35l-127.71,76.47l-21,12.58l-11.91,6.59l10.35-6.17l1.33-11.26l21.23-10.94
					l21.24-10.95l4.66-12.15L739.65,50.35z"/>
				<path id="Path_4114" class="st10" d="M739.65,50.35l-127.71,76.47l-21,12.58l-11.91,6.59l10.35-6.17l1.33-11.26l21.23-10.94
					l21.24-10.95l4.66-12.15L739.65,50.35z"/>
				<path id="Path_4115" class="st8" d="M472.29,199.77l-6.15-11.99l-103.82,56.98l-22.37,4.47l-75.9,58.9l41.43-16.82
					L472.29,199.77"/>
				<path id="Path_4116" class="st10" d="M472.29,199.77l-6.15-11.99l-103.82,56.98l-22.37,4.47l-75.9,58.9l41.43-16.82
					L472.29,199.77z"/>
				<path id="Path_4117" class="st13" d="M592.45,125.27c0.22,0.44,0.45,0.88,0.67,1.32"/>
				<path id="Path_4118" class="st13" d="M547.79,113.5l18.28-3.89"/>
				<path id="Path_4119" class="st3" d="M528.55,150.66l11.81-3.36l26.38,12.63l3.46,14.97l-37.27,7.74L528.55,150.66z"/>
				<path id="Path_4120" class="st10" d="M528.55,150.66l11.81-3.36l26.38,12.63l3.46,14.97l-37.27,7.74L528.55,150.66z"/>
			</g>
		</g>
	</g>
	<text transform="matrix(0.8839 0.4678 -0.4678 0.8839 532.7704 175.41)" class="st14 st15 st16">P</text>
	<g id="Group_1282" class="st1">
		<g>
			<defs>
				<rect id="SVGID_00000126310226683924848670000005995090296057109412_" x="-201.01" y="47.7" width="945.32" height="390.17"/>
			</defs>
			<clipPath id="SVGID_00000100365212074258291740000006306244723146503079_">
				<use xlink:href="#SVGID_00000126310226683924848670000005995090296057109412_"  style="overflow:visible;"/>
			</clipPath>
			<g id="Group_1281" style="clip-path:url(#SVGID_00000100365212074258291740000006306244723146503079_);">
				<path id="Path_4121" class="st18" d="M547.79,117.36l-44.3,2.14l-40.02,34.83c-33.66,20.87-67.31,41.75-100.97,62.63l84.27-66.8
					l10.63,0.05l43.27-38.34c0,0,42.58-2.29,46.17,1.64L547.79,117.36z"/>
				<path id="Path_4122" class="st18" d="M500.95,149.94l-4.89,22.4l-17.36,12.42l-2.62-2.47l14.36-12.17
					c2.32-5.68,4.65-11.35,6.98-17.03l-134.84,63.81l138.99-68.85L500.95,149.94"/>
				<path id="Path_4123" class="st18" d="M466.97,190.72l-102.27,57.22l-24.24,4.85l-62.44,49.01l-10.18,4.1l72.39-56.13l22.3-4.44
					l103.37-56.75L466.97,190.72"/>
				<path id="Path_4124" class="st18" d="M591.1,131.22l45.18-23.44l3.46-11.2l76.22-32.92l14.59-8.78l-92.18,40.17l-4.63,12.07
					l-42.38,21.84L591.1,131.22z"/>
			</g>
		</g>
	</g>
</g>
<g>
	<rect x="11.75" y="19.85" class="st19" width="530.43" height="444.83"/>
	<path d="M539.94,298.29l-0.55,0.58l-37.76,39.8l-95.72-13.97l-0.12,0.77v0.23c0.13,7.48,0.25,14.96,0.38,22.44l-0.03,0.03
		l-23.38,30l-4.3,81.11l-0.05,1.01l-0.02,0.3l-23.96,0.12h-0.28c-27.97,0.15-55.94,0.29-83.91,0.44l-56.41,0.97l-0.05-0.68
		l-6.15-81.62l-24.08-29.51v-26.45l-0.21-0.55c-34.9,14.08-69.4,25.7-69.4,25.7c-34.15-12.1-44-30.91-45.63-34.56
		c-0.18-0.41-0.26-0.63-0.26-0.63c22.48-32.3,51.84-59.23,85.96-78.85h0.31v-7.59c0,0,11.03-15.71,17.98-25.4
		c0.11-0.17,0.23-0.33,0.35-0.49c-6.65-10.25-13.61-19.57-18.33-22.25c-11.9-6.72-104.05,40.37-104.05,40.37v8.8l-35.08,3.9
		l-0.62,0.07l16.56-28.81l2.07-7.24c0,0,91.43-33.13,128.02-26.92c6.18,6.65,12.4,13.32,18.67,20c1.02,1.1,2.07,2.19,3.09,3.27
		c13.43-3.72,46.9-9.3,46.9-9.3l36.76-20.67l4.65-2.62l0.59-16.67l0.62-17.7c0.02-0.33,0.03-0.68,0.04-1.01l-0.72-0.09h-0.01
		l-0.12-0.01c-0.81,6.5-1.62,13.01-2.43,19.52c-0.01,0.12-0.03,0.24-0.04,0.36c-0.46-0.8-0.93-1.6-1.39-2.4
		c-1.21-2.09-2.42-4.19-3.64-6.28c-1.37-8.04-2.74-16.09-4.11-24.14h-0.03c0.01-0.3,0.01-0.61,0.02-0.91v-0.11l0.08-0.89
		c-0.29-0.06-0.56-0.15-0.83-0.27c-1.5-0.72-2.49-2.21-2.59-3.88c-0.06-1.27-0.11-2.55-0.14-3.87c-0.01-0.93-0.04-1.84-0.05-2.73
		c-1.81-2.22-2.29-5.57-2.36-8.19c-0.01-0.04-0.01-0.09-0.01-0.13v-0.2c-0.01-0.43,0-0.86,0.01-1.29c0.03-0.78,0.09-1.57,0.19-2.35
		c0.28-0.62,0.59-1.22,0.95-1.8l-2.4-1.04c0,0-1.13-3.19-2.37-7.75c-0.01-0.05-0.02-0.11-0.04-0.16
		c-1.41-5.26-2.94-12.29-3.03-18.35c-0.01-0.01-0.01-0.01,0-0.02c-0.01-0.01-0.01-0.01,0-0.02c-0.01-0.04-0.01-0.08,0-0.12
		c-0.08-7.01,1.82-12.68,8.14-12.67h0.15c-0.18-1.03-0.28-2.07-0.3-3.11v-0.4c-0.12-8.23,3.49-27.45,41.54-17.97
		c47.78,11.91,48.48,18.46,75.23-1.56c0,0,0,0.37-0.04,1.04v0.01c-0.32,5.58-2.93,32.08-24.65,42.09l-2.06,0.4l0.02,1.01v0.01
		l0.85,44.48c-0.01,0.01-0.01,0.03-0.02,0.04c0,0.01-0.01,0.01-0.01,0.02c-2.05,4.66-6.66,10.29-12.11,15.9c0,0.33,0,0.66,0.01,1
		v0.01c0.06,10.39,0.13,20.77,0.22,31.16c0,0,15.22,9.45,28.37,17.56c0.64,0.39,1.26,0.78,1.87,1.16l4.05,2.48l3.72,2.29l3.24,2
		c0.29,0.17,0.57,0.34,0.84,0.51c2.77,1.68,4.62,2.8,5,2.99c2.08,1.04,52.29,6.72,52.29,6.72l23.29,18.64l11.91,27.43l0.61,0.5
		c5.49-0.86,10.85-2.42,15.94-4.63c0,0,11.39-45.8,22.78-60.09c0,0,17.95-9.04,28.3-13.9l-0.05,1.04l-1.33,28.7l-8.97,24.4
		l-39.35,33.3c-1.09,0.89-2.25,1.7-3.46,2.42l0.71,0.57L539.94,298.29z"/>
	<path d="M381.36,322.13l-17.29-2.52c0.54-0.52,1.05-1.03,1.59-1.56h0.01l25.36-4.08l0.03-0.01l-9.67,8.18H381.36z"/>
	<path id="Path_3509" class="st20" d="M378.96,460.29c-0.16,0-0.33,0.01-0.5,0.01c-36.08,0.62-72.15,1.24-108.22,1.86l-56.41,0.97
		l-0.05-0.68l-6.15-81.62l-24.07-29.51v-26.47"/>
	<path id="Path_3510" class="st20" d="M213.25,462.46h0.54c18.82-0.1,37.64-0.2,56.46-0.29c36.05-0.18,72.09-0.37,108.15-0.56
		l0.07-1.31l4.3-81.11l23.4-30.03c-0.12-7.55-0.24-15.11-0.36-22.67"/>
	<path id="Path_3511" class="st21" d="M154.31,251.18V228.4c0,0,11.4-16.24,18.34-25.89c2.41-3.35,4.29-5.92,4.96-6.72
		c0.47-0.56,2.44-1.28,5.37-2.09c13.42-3.72,46.9-9.3,46.9-9.3l36.76-20.68l4.65-2.62c0.42-11.79,0.83-23.58,1.25-35.38"/>
	<path id="Path_3512" class="st21" d="M99.45,296.21c8.63-3.33,17.25-6.67,25.88-10.02l21.4,10.7l85.46-8.77l22.2-2.28
		c-2.94,5.34-13.69,12.19-28.04,19.42c-12.54,6.32-27.8,12.91-43.01,19.06c-34.9,14.08-69.39,25.71-69.39,25.71
		c-37.96-13.45-45.9-35.19-45.9-35.19c22.49-32.3,51.85-59.22,85.96-78.85"/>
	<path id="Path_3513" class="st21" d="M346.35,111.94c-2.04,4.67-6.65,10.32-12.13,15.96c-13.15,13.51-31.35,26.99-31.35,26.99
		c-13.78-4.92-24.64-21.28-30.75-32.59c-2.02-3.7-3.85-7.51-5.47-11.4V57.07c14.41,23.7,70,11.43,77.91,9.55l0.05-0.01
		c0.58-0.14,0.89-0.22,0.89-0.22v0.05L346.35,111.94z"/>
	<path id="Path_3514" class="st21" d="M265.15,108.52c-1.04,1.71-3.02,2.61-5,2.27c-0.28-0.06-0.56-0.15-0.82-0.26
		c-1.51-0.73-2.5-2.21-2.6-3.88c-0.06-1.27-0.11-2.55-0.14-3.87c-0.02-0.92-0.04-1.83-0.05-2.73c-3.37-4.15-2.16-12.16-2.16-12.16
		c0.27-0.62,0.58-1.22,0.93-1.8c4.21-6.92,9.51,0.24,9.51,0.24"/>
	<path class="st21" d="M260.08,111.67c1.37,8.05,2.74,16.1,4.11,24.14c0.08,0.49,0.17,0.97,0.25,1.46c1.13,1.6,2.26,3.21,3.39,4.82
		c0.48,0.68,0.96,1.36,1.43,2.04c0.42,0.59,0.84,1.18,1.25,1.77c0.01-6.78,0.41-13.54,1.19-20.27c0.04-0.34,0.07-0.68,0.11-1.01
		h0.01c0.09-0.78,0.19-1.54,0.29-2.31"/>
	<path id="Path_3516" class="st21" d="M344.55,66.62l0.05-0.01l0.89-0.17l2.07-0.4c24.33-11.21,24.67-43.13,24.67-43.13
		c-26.74,20.01-27.44,13.46-75.22,1.55c-47.78-11.91-41.24,21.48-41.24,21.48c-1.74-0.03-3.15,0.37-4.28,1.1
		c-7.96,5.16-1.14,28.89,1.44,37.98c0.52,1.85,1,3.35,1.31,4.32"/>
	<path id="Path_3517" class="st4" d="M234.7,183.44c-7.66,9.01-14.23,18.89-19.57,29.43l23.33-1.41c-0.66,1.06-1.65,2.63-2.87,4.54
		c-1.8,2.83-3.09,4.67-3.37,5.24c-2.35,3.95-4.5,8.03-6.44,12.2c-3.82,8.39-9.05,28.25-10.39,54.92l16.66-1.65
		c0.11-9.29,0.93-18.57,2.46-27.74c3.39-20.19,10.12-39.68,19.89-57.67c0,0-22.08,4.83-22.08,3.8s34.33-41.38,34.33-41.38
		L234.7,183.44"/>
	<rect id="Rectangle_719" x="367.41" y="283.08" width="27.95" height="73.04"/>
	<path id="Path_3518" class="st4" d="M405.73,310.31c-1.77,0.31-3.57,0.88-5.36,1.18c-1.84,0.3-3.55,0.85-5.38,1.14
		c-0.69-3.05-3.51-5.68-4.21-8.75c-0.66-2.87,0.26-5.11-0.41-7.96v-1.39c-0.02-0.1,0.26-0.64,0.23-0.73
		c-8.79-32.44-22.62-63.3-40.97-91.45l26.57,6.9l-13.38-31.62c0.64,0.4,1.27,0.78,1.89,1.17l4.04,2.48l3.71,2.28l3.25,2
		c0.28,0.17,0.56,0.35,0.83,0.52c6.13,15.65,10.96,35.34,10.96,35.34l-18.55-8.37c8.01,16.83,15.96,35.47,23.35,55.86
		C397.46,283.19,401.98,297.2,405.73,310.31"/>
	<path id="Path_3519" class="st4" d="M221.19,309.43l89.27,72.64v-10.35l-73.75-70.34L221.19,309.43z"/>
	<path id="Path_3520" class="st4" d="M381.39,322.13c-23.65,19.98-47.29,39.96-70.92,59.94v-10.35
		c17.86-17.36,35.72-34.73,53.58-52.11h0.01l17.29,2.52H381.39z"/>
	<path id="Path_3521" class="st4" d="M394.75,310.82l0.38,1.08c-1.61-0.03-3.13,0.73-4.07,2.04l-0.03,0.01l-25.36,4.08
		c8.31-8.08,16.62-16.16,24.93-24.24v-0.01h0.01l0.06,0.24l0.02,0.07l0.04,0.18L394.75,310.82z"/>
	<path id="Path_3522" class="st8" d="M236.16,212.81l-5.6,11.27v0.01l-5.69,11.41l-0.04,0.09c-0.98,0.02-1.98,0.04-2.96,0.05
		c-10.04,0.16-19.96,0.16-29.76,0c-14.71-0.24-9.39-17.64-19.45-33.14c-6.65-10.25-13.6-19.57-18.34-22.25
		c-11.9-6.72-104.04,40.37-104.04,40.37v8.8l-35.71,3.97l16.56-28.82l2.07-7.24c0,0,91.44-33.14,128.02-26.92
		c6.17,6.65,12.4,13.32,18.67,20c1.02,1.09,2.05,2.19,3.09,3.27c6.35,6.76,12.69,13.47,19.04,20.12c9.2-0.31,18.41-0.63,27.61-0.95
		L236.16,212.81z"/>
	<path id="Path_3523" class="st21" d="M236.16,212.81l-5.6,11.27v0.01l-5.69,11.41l-0.04,0.09c-0.98,0.02-1.98,0.04-2.96,0.05
		c-10.04,0.16-19.96,0.16-29.76,0c-14.71-0.24-9.39-17.64-19.45-33.14c-6.65-10.25-13.6-19.57-18.34-22.25
		c-11.9-6.72-104.04,40.37-104.04,40.37v8.8l-35.71,3.97l16.56-28.82l2.07-7.24c0,0,91.44-33.14,128.02-26.92
		c6.17,6.65,12.4,13.32,18.67,20c1.02,1.09,2.05,2.19,3.09,3.27c6.35,6.76,12.69,13.47,19.04,20.12c9.2-0.31,18.41-0.63,27.61-0.95
		L236.16,212.81z"/>
	<path id="Path_3524" class="st3" d="M307.61,325.96l-59.74-60.58l25.41-24.72h33.21"/>
	<path id="Path_3525" class="st21" d="M307.61,325.96l-59.74-60.58l25.41-24.72h33.21"/>
	<path id="Path_3526" class="st3" d="M306.49,324.93l58.62-59.55l-25.41-24.72l-37.31,0.32"/>
	<path id="Path_3527" class="st21" d="M306.49,324.93l58.62-59.55l-25.41-24.72h-37.37"/>
	<g id="Group_1218" transform="translate(275.914 218.625)">
		<g id="Group_1217">
			<g>
				<defs>
					<rect id="SVGID_00000179618158786568661640000017830279886707402942_" x="11.75" y="19.85" width="47.84" height="89.77"/>
				</defs>
				<clipPath id="SVGID_00000136402024977940816230000015172617286152570043_">
					<use xlink:href="#SVGID_00000179618158786568661640000017830279886707402942_"  style="overflow:visible;"/>
				</clipPath>
				<g id="Group_1216" style="clip-path:url(#SVGID_00000136402024977940816230000015172617286152570043_);">
					<g id="Group_1215">
						<g id="Group_1214">
							<g>
								<defs>
									<rect id="SVGID_00000106133634838467369560000006683928153625780660_" x="11.75" y="19.85" width="47.84" height="89.77"/>
								</defs>
								<clipPath id="SVGID_00000085968160777727946530000002241980788450527421_">
									<use xlink:href="#SVGID_00000106133634838467369560000006683928153625780660_"  style="overflow:visible;"/>
								</clipPath>
								<g id="Group_1213" style="clip-path:url(#SVGID_00000085968160777727946530000002241980788450527421_);">
									<text transform="matrix(0.9994 -0.0345 0.0345 0.9994 13.958 85.4165)" class="st8 st15 st24">P</text>
								</g>
							</g>
						</g>
					</g>
				</g>
			</g>
		</g>
	</g>
	<path id="Path_3528" class="st21" d="M503.18,291.55l-31.58-0.52L454,303.82l-62.95,10.13l-0.03,0.01l-25.36,4.08h-0.01l-5.86,0.94
		l4.26,0.62h0.01l17.29,2.52h0.03l24.4,3.57l0.11,0.02l95.73,13.97l38.31-40.38l-0.55-0.44l-55.88-45.29h-0.01l-13.86-11.23h-0.01
		l-0.61-0.5l-11.91-27.43l-23.29-18.63c0,0-50.21-5.69-52.27-6.72c-0.39-0.19-2.24-1.31-5-2.98c0-0.01,0-0.01-0.01-0.01l0,0
		c-0.27-0.17-0.55-0.35-0.83-0.52c-0.99-0.61-2.09-1.28-3.25-2s-2.41-1.48-3.71-2.28s-2.66-1.63-4.04-2.48
		c-0.3-0.19-0.61-0.38-0.92-0.58s-0.62-0.38-0.94-0.58h-0.01v-0.01h-0.01c-13.15-8.11-28.37-17.56-28.37-17.56
		c-0.07-10.72-0.14-21.45-0.22-32.16v-0.01"/>
	<path id="Path_3529" class="st8" d="M536.65,163.74l-1.38,29.73l-8.97,24.41l-39.34,33.3c-1.1,0.88-2.26,1.69-3.46,2.41
		c-11,6.53-24.05,8.69-36.56,6.04c-24.5-4.82-63.58-16.47-63.58-16.47l-11.56-27.27l15.44,6.19l2.42,0.97c0,0,41.4,25.47,79.98,19.3
		c5.49-0.86,10.85-2.42,15.95-4.63c0,0,11.38-45.8,22.78-60.09C508.37,177.63,526.31,168.59,536.65,163.74"/>
	<path id="Path_3530" class="st21" d="M536.65,163.74l-1.38,29.73l-8.97,24.41l-39.34,33.3c-1.1,0.88-2.26,1.69-3.46,2.41
		c-11,6.53-24.05,8.69-36.56,6.04c-24.5-4.82-63.58-16.47-63.58-16.47l-11.56-27.27l15.44,6.19l2.42,0.97c0,0,41.4,25.47,79.98,19.3
		c5.49-0.86,10.85-2.42,15.95-4.63c0,0,11.38-45.8,22.78-60.09C508.36,177.64,526.3,168.59,536.65,163.74z"/>
</g>
</svg>
