<?xml version="1.0" encoding="utf-8"?>
<!-- Generator: Adobe Illustrator 26.0.0, SVG Export Plug-In . SVG Version: 6.00 Build 0)  -->
<svg version="1.1" id="Layer_1" xmlns="http://www.w3.org/2000/svg" xmlns:xlink="http://www.w3.org/1999/xlink" x="0px" y="0px"
	 viewBox="0 0 280.34 438.13" style="enable-background:new 0 0 280.34 438.13;" xml:space="preserve">
<style type="text/css">
	.st0{display:none;}
	.st1{display:inline;}
	.st2{clip-path:url(#SVGID_00000049901056092422898070000006338081148131137954_);}
	.st3{fill:#F9C626;}
	.st4{fill:#FFFFFF;}
	.st5{fill:none;stroke:#FFFFFF;stroke-width:0.925;stroke-miterlimit:10;}
	.st6{fill:#494949;}
	.st7{fill:none;stroke:#FFFFFF;stroke-width:0.308;stroke-miterlimit:10;}
	.st8{fill:#D81330;}
	.st9{fill:none;stroke:#FFFFFF;stroke-width:0.617;stroke-miterlimit:10;}
	.st10{fill:none;stroke:#FFFFFF;stroke-miterlimit:10;}
	.st11{fill:none;stroke:#000000;stroke-miterlimit:10;}
	.st12{fill:none;stroke:#FFFFFF;stroke-width:0.5;stroke-miterlimit:10;}
	.st13{fill:none;stroke:#000000;stroke-width:0.75;stroke-miterlimit:10;}
	.st14{clip-path:url(#SVGID_00000173146256928103188880000005893798739078503300_);}
	.st15{fill:#B9002D;}
	.st16{display:inline;fill:none;}
	.st17{display:inline;fill:none;stroke:#000000;stroke-width:3;stroke-miterlimit:10;}
	.st18{display:inline;fill:none;stroke:#FFFFFF;stroke-width:3;stroke-miterlimit:10;}
	.st19{display:inline;fill:#FFFFFF;}
	.st20{display:inline;fill:#D81330;}
	.st21{display:inline;fill:#F9C626;}
	.st22{clip-path:url(#SVGID_00000147187136898639772290000017849073883968140474_);}
	.st23{clip-path:url(#SVGID_00000104675425427970881140000009623345528272421024_);}
	.st24{font-family:'CenturyGothic';}
	.st25{font-size:75px;}
	.st26{clip-path:url(#SVGID_00000147186818562659207580000004561477888602105266_);}
	.st27{fill:none;stroke:#000000;stroke-width:2;stroke-miterlimit:10;}
	.st28{fill:none;stroke:#FFFFFF;stroke-width:1.5;stroke-miterlimit:10;}
	.st29{fill:none;stroke:#FFFFFF;stroke-width:0.25;stroke-miterlimit:10;}
	.st30{font-size:40.9969px;}
	.st31{clip-path:url(#SVGID_00000048500815160600051300000002750688201559684753_);}
	.st32{fill:none;stroke:#000000;stroke-width:4;stroke-miterlimit:10;}
	.st33{fill-rule:evenodd;clip-rule:evenodd;fill:#D81330;}
	.st34{fill:none;stroke:#D81330;stroke-width:2;stroke-miterlimit:10;}
	.st35{fill:none;stroke:#D81330;stroke-miterlimit:10;}
	.st36{fill:none;stroke:#FFFFFF;stroke-width:0.75;stroke-miterlimit:10;}
	.st37{fill:#AA0029;}
	.st38{fill:#D8D8D8;}
	.st39{clip-path:url(#SVGID_00000162322266209024340260000011333263582976070319_);}
	.st40{fill:none;stroke:#FFFFFF;stroke-width:2;stroke-miterlimit:10;}
	.st41{fill:none;stroke:#FFFFFF;stroke-width:2;stroke-miterlimit:10;stroke-dasharray:12.173,12.173;}
	.st42{fill:none;stroke:#1D1D1B;stroke-miterlimit:10;}
	.st43{fill:#444444;}
	.st44{font-size:41.4355px;}
	.st45{clip-path:url(#SVGID_00000121998852899310564650000006042419020363959192_);}
	.st46{fill:#F4F4F4;}
	.st47{fill:none;stroke:#000000;stroke-linecap:round;stroke-miterlimit:10;}
	.st48{fill:none;stroke:#FFFFFF;stroke-width:2;stroke-miterlimit:10;stroke-dasharray:12,12;}
	.st49{fill:#E2E2E2;}
	.st50{fill:#EAEAEA;}
	.st51{fill:#8A8A89;}
	.st52{fill:none;stroke:#1D1D1B;stroke-width:0.605;stroke-miterlimit:10;}
	.st53{clip-path:url(#SVGID_00000054236040479543598250000002644945402268612025_);}
	.st54{fill:#1D1D1B;}
	.st55{font-size:35px;}
	.st56{clip-path:url(#SVGID_00000124866708948157135210000015717921362047947448_);}
</style>
<g class="st0">
	<g id="Group_1280" class="st1">
		<g>
			<defs>
				<rect id="SVGID_1_" x="-404.86" y="14.37" width="945.32" height="390.17"/>
			</defs>
			<clipPath id="SVGID_00000165929067922703499100000012679011706141961872_">
				<use xlink:href="#SVGID_1_"  style="overflow:visible;"/>
			</clipPath>
			<g id="Group_1279" style="clip-path:url(#SVGID_00000165929067922703499100000012679011706141961872_);">
				<path id="Path_4092" class="st3" d="M242.75,198.43l-225.1,94.91l7.33-43.99l-125.56,53.46c-1.22-15.89-2.44-31.77-3.67-47.66
					l-300.61,149.39l285.95-116.4l-1.83,36.66L0.24,277.75l-11.94,59.13c46.26-22.41,93.96-47.09,143.11-74.03
					C170.24,241.45,207.35,219.98,242.75,198.43"/>
				<path id="Path_4093" class="st4" d="M408.1,49.83v6.2c0,0-3.35,26.66-19.85,35.47l1.08,2.07l18.77-9.74v26l-3.9,2.84h-65.85
					V78.11c2.45,0.38,4.3,0.92,5.18,1.64l0.23,0.92l0.49-0.12l17.97-4.27c-0.24-1.12-3.73-18.95,0.97-25.81
					c0.16-0.23,0.31-0.44,0.48-0.65L408.1,49.83z"/>
				<path id="Path_4094" d="M263.33,153.63l6.84-4.12l43.94,38.16l-7.17,7.11l-32.29-25.74l-4.93-3.43L263.33,153.63z"/>
				<path id="Path_4095" class="st5" d="M263.33,153.63l6.84-4.12l43.94,38.16l-7.17,7.11l-32.29-25.74l-4.93-3.43L263.33,153.63z"
					/>
				<path id="Path_4096" class="st6" d="M282.01,174.91l8.29-7.92l12.11,10.52l-6.67,8.35L282.01,174.91"/>
				<path id="Path_4097" class="st7" d="M282.01,174.91l8.29-7.92l12.11,10.52l-6.67,8.35L282.01,174.91z"/>
				<path id="Path_4098" class="st8" d="M269.72,165.61l9.4-8.33l11.14,9.47l-8.52,8.18l-11.48-8.93"/>
				<path id="Path_4099" class="st7" d="M269.72,165.61l9.4-8.33l11.14,9.47l-8.52,8.18l-11.48-8.93"/>
				<path id="Path_4100" class="st8" d="M295.76,186.12c2.3-2.88,4.61-5.76,6.91-8.64l11.65,10.21c-2.5,2.39-5,4.78-7.5,7.17
					L295.76,186.12"/>
				<path id="Path_4101" class="st9" d="M295.76,186.12c2.3-2.88,4.61-5.76,6.91-8.64l11.65,10.21c-2.5,2.39-5,4.78-7.5,7.17
					L295.76,186.12z"/>
				<path id="Path_4102" d="M262.48,153.84l6.36,12.67l37.58,29.54l-41.9,32.38l-28.92,5.7L1.17,330.47l222.4-121.38L58.2,275.88
					L136,215.6l22.4-4.48L262.48,153.84z"/>
				<path id="Path_4103" class="st10" d="M262.48,153.84l6.36,12.67l37.58,29.54l-41.9,32.38l-28.92,5.7L1.17,330.47l222.4-121.38
					L58.2,275.88L136,215.6l22.4-4.48L262.48,153.84z"/>
				<path id="Path_4104" d="M535.81,17.02l-127.71,92.8l-3.9,2.84l-13.01,9.45l-9.57,21.59l-66.18,43.9l-35.02-30.62l-9.18-8.03
					l14.81-12.53l6.37-15.42l-138.27,65.42l-0.35,0.17l88.96-70.37h10.55l42.66-38.29c0,0,0.2-0.02,0.59-0.06c0,0,0.05,0,0.16-0.01
					c0.08,0,0.19-0.01,0.32-0.02c0.01,0.01,0.03,0.01,0.05,0c0.07,0,0.16-0.01,0.25-0.01c4.82-0.42,21.47-1.63,34.6-0.36
					c2.27,0.21,4.44,0.51,6.41,0.9c1.76,0.32,3.5,0.79,5.18,1.4l0.23,0.92l4.06,16.39l25.28,15.59l0.79,0.49l0.81-0.49l10.59-6.43
					l1.22-11.21l2.81-1.46l18.77-9.74l21.18-11l4.28-12.01L535.81,17.02z"/>
				<path id="Path_4105" class="st10" d="M535.81,17.02l-127.71,92.8l-3.9,2.84l-13.01,9.45l-9.57,21.59l-66.18,43.9l-35.02-30.62
					l-9.18-8.03l14.81-12.53l6.37-15.42l-138.27,65.42l-0.35,0.17l88.96-70.37h10.55l42.66-38.29c0,0,0.2-0.02,0.59-0.06
					c0,0,0.05,0,0.16-0.01c0.08,0,0.19-0.01,0.32-0.02c0.01,0.01,0.03,0.01,0.05,0c0.07,0,0.16-0.01,0.25-0.01
					c4.82-0.42,21.47-1.63,34.6-0.36c2.27,0.21,4.44,0.51,6.41,0.9c1.76,0.32,3.5,0.79,5.18,1.4l0.23,0.92l4.06,16.39l25.28,15.59
					l0.79,0.49l0.81-0.49l10.59-6.43l1.22-11.21l2.81-1.46l18.77-9.74l21.18-11l4.28-12.01L535.81,17.02z"/>
				<path id="Path_4106" d="M418.03,47.26c-0.17,0.28-0.43,0.67-0.77,1.14c-0.29,0.38-3.51,6.37-9.17,7.04l-0.3,0.04
					c-5.67,0.41-11.35-0.64-16.5-3.05c0,0-8.03-2.24-10.91-2.24c-0.65,0-1.03,0.12-1.01,0.4c0.16,1.53-1.99,11.15-1.99,11.15
					l-3.86,2.5c0.34-1.44,0.18-2.95-0.45-4.29c-1.08-1.97-4.89-0.86-5.5,1.69s1.42,9.37,1.42,9.37c-0.89,1.76-1.76,3.53-2.64,5.29
					l-22.1,4.27l17.97-4.27c-0.24-1.12-3.73-18.95,0.97-25.81c0.16-0.23,0.31-0.44,0.48-0.65c4.52-5.7,10.83-2,10.83-2
					c0.36-2.44,1.26-4.77,2.64-6.81c1.12-1.63,3.17-4.62,6.4-4.92c0.6-0.05,1.21-0.02,1.79,0.11c0.46,0.17,1.27,0.44,2.27,0.83
					c12.1,4.51,14.38,8.52,22.46,10.13c0.52,0.11,1.03,0.18,1.03,0.18C413.41,47.68,415.75,47.65,418.03,47.26"/>
				<path id="Path_4107" class="st10" d="M418.03,47.26c-0.17,0.28-0.43,0.67-0.77,1.14c-0.29,0.38-3.51,6.37-9.17,7.04l-0.3,0.04
					c-5.67,0.41-11.35-0.64-16.5-3.05c0,0-8.03-2.24-10.91-2.24c-0.65,0-1.03,0.12-1.01,0.4c0.16,1.53-1.99,11.15-1.99,11.15
					l-3.86,2.5c0.34-1.44,0.18-2.95-0.45-4.29c-1.08-1.97-4.89-0.86-5.5,1.69s1.42,9.37,1.42,9.37c-0.89,1.76-1.76,3.53-2.64,5.29
					l-22.1,4.27l17.97-4.27c-0.24-1.12-3.73-18.95,0.97-25.81c0.16-0.23,0.31-0.44,0.48-0.65c4.52-5.7,10.83-2,10.83-2
					c0.36-2.44,1.26-4.77,2.64-6.81c1.12-1.63,3.17-4.62,6.4-4.92c0.6-0.05,1.21-0.02,1.79,0.11c0.46,0.17,1.27,0.44,2.27,0.83
					c12.1,4.51,14.38,8.52,22.46,10.13c0.52,0.11,1.03,0.18,1.03,0.18C413.4,47.69,415.74,47.65,418.03,47.26z"/>
				<path id="Path_4108" class="st11" d="M376.74,77c0.81,5.1,9.87,15.28,9.87,15.28c0.56-0.25,1.1-0.51,1.64-0.79
					c16.5-8.81,19.85-35.47,19.85-35.47l0.08-1.58"/>
				<path id="Path_4109" class="st8" d="M372.02,112.66l1.5,0.92l-17.53,9.72l-28.33,15.68l-25.63,14.19l-8.09-6.81l-13.53,10.63
					l-0.22,0.17l-8.96-8.2l14.81-12.53l6.37-15.42l-138.27,65.41l88.62-70.2h10.55l43.24-38.35c0,0,0.05,0,0.16-0.01
					c0.08,0,0.19-0.01,0.32-0.02c0.01,0.01,0.03,0.01,0.05,0c3.39-0.19,22.08-1.18,34.85-0.37c2.39,0.14,4.58,0.36,6.41,0.66
					c2.45,0.38,4.3,0.92,5.18,1.64l4.01,17.79L372.02,112.66z"/>
				<path id="Path_4110" class="st10" d="M372.02,112.66l1.5,0.92l-17.53,9.72l-28.33,15.68l-25.63,14.19l-8.09-6.81l-13.53,10.63
					l-0.22,0.17l-8.96-8.2l14.81-12.53l6.37-15.42l-138.27,65.41l88.62-70.2h10.55l43.24-38.35c0,0,0.05,0,0.16-0.01
					c0.08,0,0.19-0.01,0.32-0.02c0.01,0.01,0.03,0.01,0.05,0c3.39-0.19,22.08-1.18,34.85-0.37c2.39,0.14,4.58,0.36,6.41,0.66
					c2.45,0.38,4.3,0.92,5.18,1.64l4.01,17.79L372.02,112.66z"/>
				<path id="Path_4111" class="st8" d="M373.52,113.58l1.58-0.86l-1.52,0.9L373.52,113.58z"/>
				<path id="Path_4112" class="st12" d="M373.52,113.58l1.58-0.86l-1.52,0.9L373.52,113.58z"/>
				<path id="Path_4113" class="st8" d="M535.81,17.02L408.1,93.49l-21,12.58l-11.91,6.59l10.35-6.17l1.33-11.26l21.23-10.94
					l21.24-10.95l4.66-12.15L535.81,17.02z"/>
				<path id="Path_4114" class="st10" d="M535.81,17.02L408.1,93.49l-21,12.58l-11.91,6.59l10.35-6.17l1.33-11.26l21.23-10.94
					l21.24-10.95l4.66-12.15L535.81,17.02z"/>
				<path id="Path_4115" class="st8" d="M268.45,166.44l-6.15-11.99l-103.82,56.98l-22.37,4.47l-75.9,58.9l41.43-16.82
					L268.45,166.44"/>
				<path id="Path_4116" class="st10" d="M268.45,166.44l-6.15-11.99l-103.82,56.98l-22.37,4.47l-75.9,58.9l41.43-16.82
					L268.45,166.44z"/>
				<path id="Path_4117" class="st13" d="M388.61,91.94c0.22,0.44,0.45,0.88,0.67,1.32"/>
				<path id="Path_4118" class="st13" d="M343.94,80.17l18.28-3.89"/>
				<path id="Path_4119" class="st3" d="M324.7,117.33l11.81-3.36l26.38,12.63l3.46,14.97l-37.27,7.74L324.7,117.33z"/>
				<path id="Path_4120" class="st10" d="M324.7,117.33l11.81-3.36l26.38,12.63l3.46,14.97l-37.27,7.74L324.7,117.33z"/>
			</g>
		</g>
	</g>
	<text transform="matrix(0.8839 0.4678 -0.4678 0.8839 328.9257 142.0819)" class="st20 st24" style="font-size:33px;">P</text>
	<g id="Group_1282" class="st1">
		<g>
			<defs>
				<rect id="SVGID_00000042016800295288258800000013420777663225973934_" x="-404.86" y="14.37" width="945.32" height="390.17"/>
			</defs>
			<clipPath id="SVGID_00000134226314679259320910000009372414004207135160_">
				<use xlink:href="#SVGID_00000042016800295288258800000013420777663225973934_"  style="overflow:visible;"/>
			</clipPath>
			<g id="Group_1281" style="clip-path:url(#SVGID_00000134226314679259320910000009372414004207135160_);">
				<path id="Path_4121" class="st15" d="M343.95,84.03l-44.3,2.14l-40.02,34.83c-33.66,20.87-67.31,41.75-100.97,62.63l84.27-66.8
					l10.63,0.05l43.27-38.34c0,0,42.58-2.29,46.17,1.64L343.95,84.03z"/>
				<path id="Path_4122" class="st15" d="M297.1,116.61l-4.89,22.4l-17.36,12.42l-2.62-2.47l14.36-12.17
					c2.32-5.68,4.65-11.35,6.98-17.03l-134.84,63.81l138.99-68.85L297.1,116.61"/>
				<path id="Path_4123" class="st15" d="M263.12,157.39l-102.27,57.22l-24.24,4.85l-62.44,49.01l-10.18,4.11l72.39-56.13l22.3-4.44
					l103.37-56.75L263.12,157.39"/>
				<path id="Path_4124" class="st15" d="M387.26,97.89l45.18-23.44l3.46-11.2l76.22-32.92l14.59-8.78l-92.18,40.18l-4.63,12.07
					l-42.38,21.84L387.26,97.89z"/>
			</g>
		</g>
	</g>
</g>
<g class="st0">
	<rect x="-192.09" y="-13.48" class="st16" width="530.43" height="444.83"/>
	<path class="st1" d="M336.09,264.97l-0.55,0.58l-37.76,39.8l-95.72-13.97l-0.12,0.77v0.23c0.13,7.48,0.25,14.96,0.38,22.44
		l-0.03,0.03l-23.38,30l-4.3,81.11l-0.05,1.01l-0.02,0.3l-23.96,0.12h-0.28c-27.97,0.15-55.94,0.29-83.91,0.44L9.98,428.8
		l-0.05-0.68L3.78,346.5l-24.08-29.51v-26.45l-0.21-0.55c-34.9,14.08-69.4,25.7-69.4,25.7c-34.15-12.1-44-30.91-45.63-34.56
		c-0.18-0.41-0.26-0.63-0.26-0.63c22.48-32.3,51.84-59.23,85.96-78.85h0.31v-7.59c0,0,11.03-15.71,17.98-25.4
		c0.11-0.17,0.23-0.33,0.35-0.49c-6.65-10.25-13.61-19.57-18.33-22.25c-11.9-6.72-104.05,40.37-104.05,40.37v8.8l-35.08,3.9
		l-0.62,0.07l16.56-28.81l2.07-7.24c0,0,91.43-33.13,128.02-26.92c6.18,6.65,12.4,13.32,18.67,20c1.02,1.1,2.07,2.19,3.09,3.27
		c13.43-3.72,46.9-9.3,46.9-9.3l36.76-20.67l4.65-2.62l0.59-16.67l0.62-17.7c0.02-0.33,0.03-0.68,0.04-1.01l-0.72-0.09h-0.01
		l-0.12-0.01c-0.81,6.5-1.62,13.01-2.43,19.52c-0.01,0.12-0.03,0.24-0.04,0.36c-0.46-0.8-0.93-1.6-1.39-2.4
		c-1.21-2.09-2.42-4.19-3.64-6.28c-1.37-8.04-2.74-16.09-4.11-24.14H56.2c0.01-0.3,0.01-0.61,0.02-0.91v-0.11l0.08-0.89
		c-0.29-0.06-0.56-0.15-0.83-0.27c-1.5-0.72-2.49-2.21-2.59-3.88c-0.06-1.27-0.11-2.55-0.14-3.87c-0.01-0.93-0.04-1.84-0.05-2.73
		c-1.81-2.22-2.29-5.57-2.36-8.19c-0.01-0.04-0.01-0.09-0.01-0.13v-0.2c-0.01-0.43,0-0.86,0.01-1.29c0.03-0.78,0.09-1.57,0.19-2.35
		c0.28-0.62,0.59-1.22,0.95-1.8l-2.4-1.04c0,0-1.13-3.19-2.37-7.75c-0.01-0.05-0.02-0.11-0.04-0.16
		c-1.41-5.26-2.94-12.29-3.03-18.35c-0.01-0.01-0.01-0.01,0-0.02c-0.01-0.01-0.01-0.01,0-0.02c-0.01-0.04-0.01-0.08,0-0.12
		c-0.08-7.01,1.82-12.68,8.14-12.67h0.15c-0.18-1.03-0.28-2.07-0.3-3.11v-0.4C51.5-0.14,55.11-19.36,93.16-9.88
		c47.78,11.91,48.48,18.46,75.23-1.56c0,0,0,0.37-0.04,1.04v0.01c-0.32,5.58-2.93,32.08-24.65,42.09l-2.06,0.4l0.02,1.01v0.01
		l0.85,44.48c-0.01,0.01-0.01,0.03-0.02,0.04c0,0.01-0.01,0.01-0.01,0.02c-2.05,4.66-6.66,10.29-12.11,15.9c0,0.33,0,0.66,0.01,1
		v0.01c0.06,10.39,0.13,20.77,0.22,31.16c0,0,15.22,9.45,28.37,17.56c0.64,0.39,1.26,0.78,1.87,1.16l4.05,2.48l3.72,2.29l3.24,2
		c0.29,0.17,0.57,0.34,0.84,0.51c2.77,1.68,4.62,2.8,5,2.99c2.08,1.04,52.29,6.72,52.29,6.72l23.29,18.64l11.91,27.43l0.61,0.5
		c5.49-0.86,10.85-2.42,15.94-4.63c0,0,11.39-45.8,22.78-60.09c0,0,17.95-9.04,28.3-13.9l-0.05,1.04l-1.33,28.7l-8.97,24.4
		l-39.35,33.3c-1.09,0.89-2.25,1.7-3.46,2.42l0.71,0.57L336.09,264.97z"/>
	<path class="st1" d="M177.51,288.8l-17.29-2.52c0.54-0.52,1.05-1.03,1.59-1.56h0.01l25.36-4.08l0.03-0.01l-9.67,8.18H177.51z"/>
	<path id="Path_3509" class="st17" d="M175.12,426.96c-0.16,0-0.33,0.01-0.5,0.01c-36.08,0.62-72.15,1.24-108.22,1.86l-56.41,0.97
		l-0.05-0.68l-6.15-81.62l-24.07-29.51v-26.47"/>
	<path id="Path_3510" class="st17" d="M9.4,429.13h0.54c18.82-0.1,37.64-0.2,56.46-0.29c36.05-0.18,72.09-0.37,108.15-0.56
		l0.07-1.31l4.3-81.11l23.4-30.03c-0.12-7.55-0.24-15.11-0.36-22.67"/>
	<path id="Path_3511" class="st18" d="M-49.53,217.85v-22.78c0,0,11.4-16.24,18.34-25.89c2.41-3.35,4.29-5.92,4.96-6.72
		c0.47-0.56,2.44-1.28,5.37-2.09c13.42-3.72,46.9-9.3,46.9-9.3l36.76-20.68l4.65-2.62c0.42-11.79,0.83-23.58,1.25-35.38"/>
	<path id="Path_3512" class="st18" d="M-104.4,262.89c8.63-3.33,17.25-6.67,25.88-10.02l21.4,10.7l85.46-8.77l22.2-2.28
		c-2.94,5.34-13.69,12.19-28.04,19.42C9.96,278.26-5.3,284.86-20.51,291c-34.9,14.08-69.39,25.71-69.39,25.71
		c-37.96-13.45-45.9-35.19-45.9-35.19c22.49-32.3,51.85-59.22,85.96-78.85"/>
	<path id="Path_3513" class="st18" d="M142.51,78.61c-2.04,4.67-6.65,10.32-12.13,15.96c-13.15,13.51-31.35,26.99-31.35,26.99
		c-13.78-4.92-24.64-21.28-30.75-32.59c-2.02-3.7-3.85-7.51-5.47-11.4V23.74c14.41,23.7,70,11.43,77.91,9.55l0.05-0.01
		c0.58-0.14,0.89-0.22,0.89-0.22v0.05L142.51,78.61z"/>
	<path id="Path_3514" class="st18" d="M61.3,75.19c-1.04,1.71-3.02,2.61-5,2.27c-0.28-0.06-0.56-0.15-0.82-0.26
		c-1.5-0.73-2.5-2.21-2.6-3.88c-0.06-1.27-0.11-2.55-0.14-3.87c-0.02-0.92-0.04-1.83-0.05-2.73c-3.37-4.15-2.16-12.16-2.16-12.16
		c0.27-0.62,0.58-1.22,0.93-1.8c4.21-6.92,9.51,0.24,9.51,0.24"/>
	<path class="st18" d="M56.23,78.35c1.37,8.05,2.74,16.1,4.11,24.14c0.08,0.49,0.17,0.97,0.25,1.46c1.13,1.6,2.26,3.21,3.39,4.82
		c0.48,0.68,0.96,1.36,1.43,2.04c0.42,0.59,0.84,1.18,1.25,1.77c0.01-6.78,0.41-13.54,1.19-20.27c0.04-0.34,0.07-0.68,0.11-1.01
		h0.01c0.09-0.78,0.19-1.54,0.29-2.31"/>
	<path id="Path_3516" class="st18" d="M140.7,33.29l0.05-0.01l0.89-0.17l2.07-0.4c24.33-11.21,24.67-43.13,24.67-43.13
		C141.64,9.59,140.94,3.05,93.16-8.86C45.37-20.77,51.92,12.62,51.92,12.62c-1.74-0.03-3.15,0.37-4.28,1.1
		c-7.96,5.16-1.14,28.89,1.44,37.98c0.52,1.85,1,3.35,1.31,4.32"/>
	<path id="Path_3517" class="st19" d="M30.86,150.11c-7.66,9.01-14.23,18.89-19.57,29.43l23.33-1.41c-0.66,1.06-1.65,2.63-2.87,4.54
		c-1.8,2.83-3.09,4.67-3.37,5.24c-2.35,3.95-4.5,8.03-6.44,12.2c-3.82,8.39-9.05,28.25-10.39,54.92l16.66-1.65
		c0.11-9.29,0.93-18.57,2.46-27.74c3.39-20.19,10.12-39.68,19.89-57.67c0,0-22.08,4.83-22.08,3.8s34.33-41.38,34.33-41.38
		L30.86,150.11"/>
	<rect id="Rectangle_719" x="163.57" y="249.75" class="st1" width="27.95" height="73.04"/>
	<path id="Path_3518" class="st19" d="M201.89,276.98c-1.77,0.31-3.57,0.88-5.36,1.18c-1.84,0.3-3.55,0.85-5.38,1.14
		c-0.69-3.05-3.51-5.68-4.21-8.75c-0.66-2.87,0.26-5.11-0.41-7.96v-1.39c-0.02-0.1,0.26-0.64,0.23-0.73
		c-8.79-32.44-22.62-63.3-40.97-91.45l26.57,6.9l-13.38-31.62c0.64,0.4,1.27,0.78,1.89,1.17l4.04,2.48l3.71,2.28l3.25,2
		c0.28,0.17,0.56,0.35,0.83,0.52c6.13,15.65,10.96,35.34,10.96,35.34l-18.55-8.37c8.01,16.83,15.96,35.47,23.35,55.86
		C193.62,249.86,198.14,263.87,201.89,276.98"/>
	<path id="Path_3519" class="st19" d="M17.35,276.1l89.27,72.64v-10.35l-73.75-70.34L17.35,276.1z"/>
	<path id="Path_3520" class="st19" d="M177.54,288.8c-23.65,19.98-47.29,39.96-70.92,59.94v-10.35
		c17.86-17.36,35.72-34.73,53.58-52.11h0.01l17.29,2.52H177.54z"/>
	<path id="Path_3521" class="st19" d="M190.9,277.5l0.38,1.08c-1.61-0.03-3.13,0.73-4.07,2.04l-0.03,0.01l-25.36,4.08
		c8.31-8.08,16.62-16.16,24.93-24.24v-0.01h0.01l0.06,0.24l0.02,0.07l0.04,0.18L190.9,277.5z"/>
	<path id="Path_3522" class="st20" d="M32.31,179.48l-5.6,11.27v0.01l-5.69,11.41l-0.04,0.09c-0.98,0.02-1.98,0.04-2.96,0.05
		c-10.04,0.16-19.96,0.16-29.76,0c-14.71-0.24-9.39-17.64-19.45-33.14c-6.65-10.25-13.6-19.57-18.34-22.25
		c-11.9-6.72-104.04,40.37-104.04,40.37v8.8l-35.71,3.97l16.56-28.82l2.07-7.24c0,0,91.44-33.14,128.02-26.92
		c6.17,6.65,12.4,13.32,18.67,20c1.02,1.09,2.05,2.19,3.09,3.27c6.35,6.76,12.69,13.47,19.04,20.12c9.2-0.31,18.41-0.63,27.61-0.95
		L32.31,179.48z"/>
	<path id="Path_3523" class="st18" d="M32.31,179.48l-5.6,11.27v0.01l-5.69,11.41l-0.04,0.09c-0.98,0.02-1.98,0.04-2.96,0.05
		c-10.04,0.16-19.96,0.16-29.76,0c-14.71-0.24-9.39-17.64-19.45-33.14c-6.65-10.25-13.6-19.57-18.34-22.25
		c-11.9-6.72-104.04,40.37-104.04,40.37v8.8l-35.71,3.97l16.56-28.82l2.07-7.24c0,0,91.44-33.14,128.02-26.92
		c6.17,6.65,12.4,13.32,18.67,20c1.02,1.09,2.05,2.19,3.09,3.27c6.35,6.76,12.69,13.47,19.04,20.12c9.2-0.31,18.41-0.63,27.61-0.95
		L32.31,179.48z"/>
	<path id="Path_3524" class="st21" d="M103.77,292.63l-59.74-60.58l25.41-24.72h33.21"/>
	<path id="Path_3525" class="st18" d="M103.77,292.63l-59.74-60.58l25.41-24.72h33.21"/>
	<path id="Path_3526" class="st21" d="M102.65,291.6l58.62-59.55l-25.41-24.72l-37.31,0.32"/>
	<path id="Path_3527" class="st18" d="M102.65,291.6l58.62-59.55l-25.41-24.72H98.49"/>
	<g id="Group_1218" transform="translate(275.914 218.625)" class="st1">
		<g id="Group_1217">
			<g>
				<defs>
					<rect id="SVGID_00000050642006949629008750000006820063075281667492_" x="-192.09" y="-13.48" width="47.84" height="89.77"/>
				</defs>
				<clipPath id="SVGID_00000161593828421919785310000002411205871403051178_">
					<use xlink:href="#SVGID_00000050642006949629008750000006820063075281667492_"  style="overflow:visible;"/>
				</clipPath>
				<g id="Group_1216" style="clip-path:url(#SVGID_00000161593828421919785310000002411205871403051178_);">
					<g id="Group_1215">
						<g id="Group_1214">
							<g>
								<defs>
									
										<rect id="SVGID_00000005955946729338799840000006503955047775155604_" x="-192.09" y="-13.48" width="47.84" height="89.77"/>
								</defs>
								<clipPath id="SVGID_00000063629050493615654510000005389589156188138429_">
									<use xlink:href="#SVGID_00000005955946729338799840000006503955047775155604_"  style="overflow:visible;"/>
								</clipPath>
								<g id="Group_1213" style="clip-path:url(#SVGID_00000063629050493615654510000005389589156188138429_);">
									<text transform="matrix(0.9994 -0.0345 0.0345 0.9994 -189.8867 52.0884)" class="st8 st24 st25">P</text>
								</g>
							</g>
						</g>
					</g>
				</g>
			</g>
		</g>
	</g>
	<path id="Path_3528" class="st18" d="M299.33,258.22l-31.58-0.52l-17.6,12.79l-62.95,10.13l-0.03,0.01l-25.36,4.08h-0.01
		l-5.86,0.94l4.26,0.62h0.01l17.29,2.52h0.03l24.4,3.57l0.11,0.02l95.73,13.97l38.31-40.38l-0.55-0.44l-55.88-45.29h-0.01
		l-13.86-11.23h-0.01l-0.61-0.5l-11.91-27.43l-23.29-18.63c0,0-50.21-5.69-52.27-6.72c-0.39-0.19-2.24-1.31-5-2.98
		c0-0.01,0-0.01-0.01-0.01l0,0c-0.27-0.17-0.55-0.35-0.83-0.52c-0.99-0.61-2.09-1.28-3.25-2s-2.41-1.48-3.71-2.28
		s-2.66-1.63-4.04-2.48c-0.3-0.19-0.61-0.38-0.92-0.58s-0.62-0.38-0.94-0.58h-0.01v-0.01h-0.01c-13.15-8.11-28.37-17.56-28.37-17.56
		c-0.07-10.72-0.14-21.45-0.22-32.16v-0.01"/>
	<path id="Path_3529" class="st20" d="M332.81,130.41l-1.38,29.73l-8.97,24.41l-39.34,33.3c-1.1,0.88-2.26,1.69-3.46,2.41
		c-11,6.53-24.05,8.69-36.56,6.04c-24.5-4.82-63.58-16.47-63.58-16.47l-11.56-27.27l15.44,6.19l2.42,0.97c0,0,41.4,25.47,79.98,19.3
		c5.49-0.86,10.85-2.42,15.95-4.63c0,0,11.38-45.8,22.78-60.09C304.52,144.31,322.47,135.26,332.81,130.41"/>
	<path id="Path_3530" class="st18" d="M332.81,130.41l-1.38,29.73l-8.97,24.41l-39.34,33.3c-1.1,0.88-2.26,1.69-3.46,2.41
		c-11,6.53-24.05,8.69-36.56,6.04c-24.5-4.82-63.58-16.47-63.58-16.47l-11.56-27.27l15.44,6.19l2.42,0.97c0,0,41.4,25.47,79.98,19.3
		c5.49-0.86,10.85-2.42,15.95-4.63c0,0,11.38-45.8,22.78-60.09C304.52,144.31,322.46,135.27,332.81,130.41z"/>
</g>
<g id="Group_1258" transform="translate(14.984) rotate(3)" class="st0">
	<g id="Group_1255" class="st1">
		<g>
			<defs>
				
					<rect id="SVGID_00000085229635852794923380000015531290702319976371_" x="-69.69" y="19.27" transform="matrix(0.0523 -0.9986 0.9986 0.0523 -135.476 267.991)" width="286.31" height="372.22"/>
			</defs>
			<clipPath id="SVGID_00000042734416469538456580000008260766781687202968_">
				<use xlink:href="#SVGID_00000085229635852794923380000015531290702319976371_"  style="overflow:visible;"/>
			</clipPath>
			<g id="Group_1254" style="clip-path:url(#SVGID_00000042734416469538456580000008260766781687202968_);">
				<path id="Path_3839" class="st4" d="M-91.91,213.32l-5.67-27.77c0,0-29.32-5.51-2.54,20.62s51.67,21.7,51.67,21.7
					s-6.34,72.12,5.39,87.96c0,0-48.5-13.15-60.7-40.26c-0.6-2.21-1.38-5.21-2.21-8.8c-5.67-24.52-7.38-49.8-5.06-74.86"/>
				<path id="Path_3840" class="st27" d="M-91.91,213.32l-5.67-27.77c0,0-29.32-5.51-2.54,20.62s51.67,21.7,51.67,21.7
					s-6.34,72.12,5.39,87.96c0,0-48.5-13.15-60.7-40.26c-0.6-2.21-1.38-5.21-2.21-8.8c-5.67-24.52-7.38-49.8-5.06-74.86"/>
				<path id="Path_3841" class="st4" d="M17.96,146.24l11.34,9.19H-3.82l1.01-1.85L17.96,146.24z"/>
				<path id="Path_3842" class="st4" d="M133.64,155.43H36.9l50.48-2.22l13.47-14.43l16.33,1.74L133.64,155.43z"/>
				<path id="Path_3843" class="st4" d="M100.56,138.42L87.2,152.77l-57.24,2.66l-11.68-9.45l24.36-15.06
					c-0.27-8.09-0.55-16.18-0.82-24.27l0.17-0.06c-0.12-0.37-0.21-0.67-0.28-0.9l-0.45,0.14l0.58,15.74
					c-1.94-4.62-4.91-11.81-8.5-20.81c-4.34-10.86-6.51-16.67-3.91-22.09c0.79-1.62,1.91-3.05,3.28-4.22
					c-0.07-0.65-0.08-1.31-0.04-1.96c0.02-0.37,0.06-0.76,0.12-1.19c0.02-0.13,0.04-0.25,0.06-0.39c0.02-0.13,0.04-0.27,0.07-0.4
					c0.06-0.27,0.12-0.54,0.2-0.81c0.24-0.88,0.61-1.73,1.08-2.52c0.08-0.13,0.17-0.27,0.26-0.41c0.09-0.14,0.19-0.27,0.29-0.4
					c0.42-0.56,0.91-1.06,1.45-1.5c0.13-0.1,0.26-0.2,0.4-0.3c0.02-0.02,0.04-0.03,0.06-0.05c0.31-0.22,0.64-0.42,0.98-0.6
					c0.17-0.09,0.34-0.17,0.53-0.26c0.03-0.02,0.07-0.04,0.11-0.05c0.17-0.07,0.34-0.14,0.51-0.2c0.19-0.07,0.39-0.15,0.6-0.21
					c0.02-0.01,0.05-0.02,0.07-0.02c0.44-0.13,0.89-0.25,1.34-0.33c0.22-0.04,0.43-0.08,0.66-0.11c0.05-0.01,0.1-0.02,0.15-0.03
					c0.24-0.04,0.5-0.06,0.75-0.09c11.09-1.02,21.03,7.07,21.03,7.07s3.97,2.8,13.74-0.58l7.08-2.9
					c-1.71,6.55-6.07,12.09-12.03,15.3l0.1,0.19c0.22,4.18,0.45,8.37,0.68,12.56c0.35,6.28,1.16-4.7,4.07-6.13
					s1.27,18.91-3.28,15.21l-1.19-1.1c-0.5,2.98-1.27,5.91-2.28,8.75h0.01c0.57,6.73,1.14,13.46,1.71,20.19L100.56,138.42z"/>
				<path id="Path_3844" class="st4" d="M75.97,103.69c0,0-1.56,9.93-4.73,14.5l-0.58-7.25c0.85-2.64,1.55-5.33,2.12-8.05
					C72.78,102.89,74.6,105.06,75.97,103.69"/>
				<path id="Path_3845" class="st4" d="M77.67,77.89c0.07-0.12-0.32,9.71-0.32,9.71c-2.06,0.9-3.57,2.72-4.08,4.91l-0.56-10.96
					C72.72,81.55,77,79.01,77.67,77.89"/>
				<path id="Path_3846" d="M241.5,189.72l-80.25,22.29l-24.73-2.85l-30.59-22.66v17.91l-7.29,22.19l2.22,26.47
					c-12.91,2.74-29.51,3.85-43.03,4.28c-13.87,0.44-24.49,0.15-24.49,0.15l-4.6-27.1l-10.75-13.08l0.33,1.03l-9.55,22.19
					l-26.79,13.79c-32.55-18.09-70.56-64.88-71.16-65.61l50.87,29l27.9,1.8l1.9-28.53l-4.02-19.65l8.71-15.9l1.01-1.85l20.76-7.34
					l11.34,9.19l0.39,0.32l7.21-0.32l50.48-2.22l13.47-14.43l16.33,1.74l16.46,14.9l1.92,1.74l1.79,11.89l21.03,19.02l15.69-7.03
					l26.41,7.18L241.5,189.72z"/>
				<path id="Path_3847" class="st28" d="M241.5,189.72l-80.25,22.29l-24.73-2.85l-30.59-22.66v17.91l-7.29,22.19l2.22,26.47
					c-12.91,2.74-29.51,3.85-43.03,4.28c-13.87,0.44-24.49,0.15-24.49,0.15l-4.6-27.1l-10.75-13.08l0.33,1.03l-9.55,22.19
					l-26.79,13.79c-32.55-18.09-70.56-64.88-71.16-65.61l50.87,29l27.9,1.8l1.9-28.53l-4.02-19.65l8.71-15.9l1.01-1.85l20.76-7.34
					l11.34,9.19l0.39,0.32l7.21-0.32l50.48-2.22l13.47-14.43l16.33,1.74l16.46,14.9l1.92,1.74l1.79,11.89l21.03,19.02l15.69-7.03
					l26.41,7.18L241.5,189.72z"/>
				<path id="Path_3848" d="M84.21,66.2c-1.71,6.55-6.07,12.09-12.03,15.3c-1.06,0.58-2.16,1.08-3.29,1.5
					c-12.94,4.86-28-1.74-28-1.74L39.67,93.2c0,0-3.01-2.22-4.12,0.84s-1.11,9.77,5.7,11.78l0.58,15.74
					c-1.94-4.62-4.91-11.81-8.5-20.81C29,89.9,26.82,84.09,29.42,78.67c0.79-1.62,1.91-3.05,3.28-4.22
					c-0.06-0.65-0.07-1.31-0.04-1.96c0.02-0.37,0.06-0.76,0.12-1.19c0.02-0.13,0.04-0.26,0.06-0.39s0.04-0.27,0.07-0.4
					c0.06-0.27,0.12-0.54,0.2-0.81c0.24-0.89,0.6-1.74,1.08-2.52c0.08-0.13,0.17-0.27,0.26-0.41c0.09-0.14,0.19-0.27,0.29-0.4
					c0.21-0.28,0.44-0.55,0.69-0.8c0.03-0.03,0.05-0.06,0.08-0.09c0.03-0.03,0.07-0.06,0.09-0.08c0.18-0.18,0.38-0.35,0.59-0.52
					c0.13-0.1,0.26-0.2,0.4-0.3c0.02-0.02,0.04-0.03,0.06-0.05c0.31-0.22,0.64-0.42,0.98-0.6c0.17-0.09,0.34-0.17,0.53-0.26
					c0.03-0.02,0.07-0.04,0.11-0.05c0.17-0.07,0.34-0.14,0.51-0.2c0.19-0.07,0.39-0.15,0.6-0.21c0.02-0.01,0.05-0.02,0.07-0.03
					c0.44-0.14,0.89-0.25,1.34-0.33c0.22-0.04,0.43-0.08,0.66-0.11c0.05-0.01,0.1-0.02,0.15-0.02c0.24-0.04,0.5-0.06,0.75-0.09
					c11.09-1.02,21.03,7.07,21.03,7.07s3.97,2.8,13.74-0.58L84.21,66.2z"/>
				<path id="Path_3849" class="st10" d="M84.21,66.2c-1.71,6.55-6.07,12.09-12.03,15.3c-1.06,0.58-2.16,1.08-3.29,1.5
					c-12.94,4.86-28-1.74-28-1.74L39.67,93.2c0,0-3.01-2.22-4.12,0.84s-1.11,9.77,5.7,11.78l0.58,15.74
					c-1.94-4.62-4.91-11.81-8.5-20.81C29,89.9,26.82,84.09,29.42,78.67c0.79-1.62,1.91-3.05,3.28-4.22
					c-0.06-0.65-0.07-1.31-0.04-1.96c0.02-0.37,0.06-0.76,0.12-1.19c0.02-0.13,0.04-0.26,0.06-0.39s0.04-0.27,0.07-0.4
					c0.06-0.27,0.12-0.54,0.2-0.81c0.24-0.89,0.6-1.74,1.08-2.52c0.08-0.13,0.17-0.27,0.26-0.41c0.09-0.14,0.19-0.27,0.29-0.4
					c0.21-0.28,0.44-0.55,0.69-0.8c0.03-0.03,0.05-0.06,0.08-0.09c0.03-0.03,0.07-0.06,0.09-0.08c0.18-0.18,0.38-0.35,0.59-0.52
					c0.13-0.1,0.26-0.2,0.4-0.3c0.02-0.02,0.04-0.03,0.06-0.05c0.31-0.22,0.64-0.42,0.98-0.6c0.17-0.09,0.34-0.17,0.53-0.26
					c0.03-0.02,0.07-0.04,0.11-0.05c0.17-0.07,0.34-0.14,0.51-0.2c0.19-0.07,0.39-0.15,0.6-0.21c0.02-0.01,0.05-0.02,0.07-0.03
					c0.44-0.14,0.89-0.25,1.34-0.33c0.22-0.04,0.43-0.08,0.66-0.11c0.05-0.01,0.1-0.02,0.15-0.02c0.24-0.04,0.5-0.06,0.75-0.09
					c11.09-1.02,21.03,7.07,21.03,7.07s3.97,2.8,13.74-0.58L84.21,66.2z"/>
				<path id="Path_3850" class="st11" d="M70.29,110.99c0.57,6.73,1.14,13.46,1.71,20.19l28.56,7.24L87.2,152.77l-57.24,2.66
					l-11.68-9.45l24.36-15.06c-0.27-8.09-0.55-16.18-0.82-24.27"/>
				<path id="Path_3851" class="st11" d="M72.28,81.7c0.22,4.18,0.45,8.37,0.68,12.56c0.35,6.28,1.16-4.7,4.07-6.13
					c2.9-1.43,1.27,18.91-3.28,15.21l-1.19-1.1c-0.5,2.98-1.27,5.91-2.28,8.75c-0.06,0.17-0.12,0.34-0.18,0.51
					c-1.38,3.78-3.19,7.38-5.39,10.75c-3.3,4.03-6,4.54-7.41,4.57c-8.06,0.12-13.75-15.43-15.31-20.24
					c-0.12-0.37-0.21-0.67-0.28-0.9s-0.12-0.37-0.14-0.45c-1.13-3.92-1.76-7.97-1.9-12.04"/>
				<path id="Path_3852" d="M77.36,87.6c-2.06,0.9-3.57,2.72-4.08,4.91l-0.56-10.96c0,0,4.28-2.54,4.95-3.66
					C77.75,77.77,77.36,87.6,77.36,87.6"/>
				<path id="Path_3853" class="st29" d="M77.36,87.6c-2.06,0.9-3.57,2.72-4.08,4.91l-0.56-10.96c0,0,4.28-2.54,4.95-3.66
					C77.75,77.77,77.36,87.6,77.36,87.6z"/>
				<path id="Path_3854" d="M75.97,103.69c0,0-1.56,9.93-4.73,14.5l-0.58-7.25c0.85-2.64,1.55-5.33,2.12-8.05
					C72.78,102.89,74.6,105.06,75.97,103.69"/>
				<path id="Path_3855" class="st29" d="M75.97,103.69c0,0-1.56,9.93-4.73,14.5l-0.58-7.25c0.85-2.64,1.55-5.33,2.12-8.05
					C72.78,102.89,74.6,105.06,75.97,103.69z"/>
				<path id="Path_3856" class="st8" d="M56.16,155.07c0.56,29.87,1.13,59.73,1.69,89.6l-5.28-5.5l5.29,17.71
					c-3.77,0.12-7.63,0.2-11.57,0.23c-4.29,0.03-8.48,0.01-12.57-0.08c-1.51-8.95-3.02-17.91-4.53-26.86l-13.16-16l-7.43-27.79
					l-0.91,0.24c2.49,9.34,4.98,18.68,7.46,28.01l2.86,3.47l-9.59,22.08l-26.39,13.63c-2.08-1.16-4.94-2.84-8.25-5.03
					c-5.33-3.56-10.41-7.48-15.2-11.74c-5.86-5.09-12.63-10.96-22-20.42c-6.61-6.66-14.81-15.41-23.76-26.21l48.85,27.86L-9.93,220
					c0.63-9.68,1.27-19.35,1.9-29.03c-1.36-6.61-2.71-13.21-4.07-19.81l9.72-17.28l20.25-7.13l11.66,9.48L56.16,155.07"/>
				<path id="Path_3857" class="st28" d="M56.16,155.07l1.69,89.6l-5.28-5.5l5.26,18.1"/>
				<path id="Path_3858" class="st3" d="M25.94,185.07l8.24-14.58l47.76-2.11l10.99,11.41L60.6,214.87L25.94,185.07z"/>
				<path id="Path_3859" class="st28" d="M25.94,185.07l8.24-14.58l47.76-2.11l10.99,11.41L60.6,214.87L25.94,185.07z"/>
				<path id="Path_3860" class="st28" d="M18.41,217.84l-2.84-3.41L8.13,186.5"/>
			</g>
		</g>
	</g>
	<text transform="matrix(0.9981 -0.062 0.062 0.9981 50.5047 203.948)" class="st20 st24 st30">P</text>
	<g id="Group_1257" class="st1">
		<g>
			<defs>
				
					<rect id="SVGID_00000078743140618158503530000002639085266513557937_" x="-69.69" y="19.27" transform="matrix(0.0523 -0.9986 0.9986 0.0523 -135.476 267.991)" width="286.31" height="372.22"/>
			</defs>
			<clipPath id="SVGID_00000165926793808957965370000015560618950784490913_">
				<use xlink:href="#SVGID_00000078743140618158503530000002639085266513557937_"  style="overflow:visible;"/>
			</clipPath>
			<g id="Group_1256" style="clip-path:url(#SVGID_00000165926793808957965370000015560618950784490913_);">
				<path id="Path_3861" class="st4" d="M241.43,222l6.83-37.13c0,0,21.34,5.28,1.9,28.95c-19.44,23.67-70.8,30.43-70.8,30.43
					l-3.17,79.67c0,0,65.93-12.89,77.77-59.59c1.38-21.73,2.76-43.47,4.14-65.21"/>
				<path id="Path_3862" class="st32" d="M241.43,222l6.83-37.13c0,0,21.34,5.28,1.9,28.95c-19.44,23.67-70.8,30.43-70.8,30.43
					l-3.17,79.67c0,0,65.93-12.89,77.77-59.59c1.38-21.73,2.76-43.47,4.14-65.21"/>
				<path id="Path_3863" class="st4" d="M11.92,339.92l-3.9-84.48c0,0,31.47,10.3,120.87-7.66l2.7,86.91
					C131.58,334.69,71.19,359.15,11.92,339.92"/>
				<path id="Path_3864" class="st32" d="M11.92,339.92l-3.9-84.48c0,0,31.47,10.3,120.87-7.66l2.7,86.91
					C131.58,334.69,71.19,359.15,11.92,339.92z"/>
				<path id="Path_3865" class="st33" d="M46.76,303.88v21.83c0,0.55-0.45,1-1,1h-8.62c-0.55,0-1-0.45-1-1v-21.83H46.76z
					 M36.13,296.75l22.79-19.95c5.05,4.93,9.94,10.92,14.93,15.86l18.21-18.29l-5.86-5.88l17.27-0.15v17.42l-5.63-5.63
					c-4.04,4.09-13.59,13.11-17.63,17.15c-5.11,5.11-7.55,5.2-12.66,0.09l-8.63-9.6l-10.12,8.97L36.13,296.75z M98.81,289.55v36.17
					c0,0.55-0.45,1-1,1h-8.62c-0.55-0.01-0.99-0.45-0.99-1v-25.98c1.64-1.6,3.56-3.45,5.52-5.33l4.08-3.93
					c0.33-0.33,0.67-0.64,1.02-0.93L98.81,289.55z M81.46,305.8v19.92c0,0.55-0.45,1-1,1h-8.62c-0.55,0-1-0.45-1-1v-17.79
					c1.03,0.25,2.08,0.37,3.14,0.35C76.67,308.24,79.28,307.37,81.46,305.8 M64.12,304.16v21.53c0,0.55-0.45,1-1,1h-8.63
					c-0.55,0-1-0.45-1-1v-23.37c0.18-0.13,0.35-0.27,0.51-0.41l4.31-3.84l3.47,3.84l0.27,0.28c0.7,0.71,1.39,1.35,2.07,1.93
					L64.12,304.16z"/>
				<path id="Path_3866" class="st34" d="M193.63,260.73l15.11,4.76l15-26.63l16.8,7.5l12.58-25.46l2.34,1.08"/>
				<path id="Path_3867" class="st8" d="M210.69,264.6c0,1.1-0.89,1.99-1.99,1.99c-1.1,0-1.99-0.89-1.99-1.99
					c0-1.1,0.89-1.99,1.99-1.99l0,0C209.8,262.61,210.69,263.51,210.69,264.6"/>
				<path id="Path_3868" class="st8" d="M225.84,239.05c0,1.1-0.89,1.99-1.99,1.99c-1.1,0-1.99-0.89-1.99-1.99
					c0-1.1,0.89-1.99,1.99-1.99l0,0C224.95,237.06,225.84,237.95,225.84,239.05"/>
				<path id="Path_3869" class="st8" d="M242.68,246.22c0,1.1-0.89,1.99-1.99,1.99c-1.1,0-1.99-0.89-1.99-1.99
					c0-1.1,0.89-1.99,1.99-1.99l0,0C241.79,244.23,242.68,245.12,242.68,246.22"/>
				<path id="Path_3870" class="st8" d="M255.05,220.89c0,1.1-0.89,1.99-1.99,1.99c-1.1,0-1.99-0.89-1.99-1.99s0.89-1.99,1.99-1.99
					l0,0C254.16,218.91,255.05,219.8,255.05,220.89"/>
				<path id="Path_3871" class="st35" d="M193.63,269.92l-1.27,36.98c6.82-1.18,29.62-5.99,46.39-26.52
					c7.22-8.9,12.28-19.35,14.79-30.54"/>
				<path id="Path_3872" class="st35" d="M199.54,283.95c-0.01,4.62-0.02,9.25-0.02,13.87c3.02-0.14,5.99-0.86,8.74-2.12l0.13-13.26
					c-1.44,0.31-2.94,0.6-4.52,0.87C202.38,283.57,200.94,283.78,199.54,283.95z"/>
				<path id="Path_3873" class="st8" d="M213.06,275.21c-0.03,6.39-0.06,12.78-0.09,19.17c3.16-0.7,6.15-2.03,8.77-3.92
					c-0.05-5.98-0.1-11.96-0.15-17.94c-1.39,0.53-2.87,1.04-4.44,1.54C215.74,274.49,214.37,274.87,213.06,275.21"/>
				<path id="Path_3874" class="st35" d="M226.42,264.13c0.1,7.38,0.21,14.77,0.31,22.15c3.15-1.71,6.04-3.87,8.59-6.39
					c-0.04-7.26-0.09-14.52-0.13-21.78c-1.32,1.08-2.79,2.21-4.44,3.33C229.25,262.46,227.8,263.35,226.42,264.13z"/>
				<path id="Path_3875" class="st8" d="M239.88,253.82c0.04,6.59,0.07,13.19,0.11,19.78c1.19-1.52,2.41-3.17,3.63-4.98
					c1.34-1.98,2.51-3.9,3.54-5.72c-0.01-4.9-0.02-9.8-0.03-14.7c-1.09,1.01-2.31,2.06-3.67,3.1
					C242.21,252.26,241.01,253.1,239.88,253.82"/>
				<path id="Path_3876" class="st35" d="M-111.32,211.45c0,0,6.92,10.67,34.55,20.08l-0.85,58.37
					c-11.5-4.65-21.27-12.74-27.97-23.17C-110.21,248.68-112.14,230.05-111.32,211.45L-111.32,211.45z"/>
				<path id="Path_3877" class="st8" d="M-71.31,239.28c0,0,5.28,3.91,16.27,4.65"/>
				<path id="Path_3878" class="st8" d="M-72.01,247.69c0,0,5.28,3.91,16.27,4.65"/>
				<path id="Path_3879" class="st8" d="M-71.31,256.1c0,0,5.28,3.91,16.27,4.65"/>
				<path id="Path_3880" class="st8" d="M-72.01,264.51c0,0,5.28,3.91,16.27,4.65"/>
				<path id="Path_3881" class="st8" d="M-72.45,272.92c0,0,5.28,3.91,16.27,4.65"/>
				<path id="Path_3882" class="st8" d="M-72.45,281.33c0,0,5.28,3.91,16.27,4.65"/>
				<path id="Path_3883" class="st8" d="M-72.01,289.74c0,0,5.28,3.91,16.27,4.65"/>
				<path id="Path_3884" class="st35" d="M-108.19,255.07c0.01,0.03,0.03,0.05,0.04,0.07c0.46,0.78,0.99,1.53,1.58,2.22
					c1.86,2.42,4.48,4.16,7.44,4.92c3.84,0.87,7.86-0.22,10.74-2.9c0.12-0.12,0.23-0.24,0.34-0.36c2.33-2.58,2.58-5.68,2.82-8.44
					c0.19-2.78-0.16-5.58-1.04-8.23c-0.93-3.02-2.55-5.78-4.74-8.06c-1.78-1.99-4.04-3.49-6.57-4.34c-1.82-0.57-3.74-0.77-5.64-0.59
					c-0.28,0.03-0.53,0.06-0.76,0.09c-2.07,0.39-3.96,1.44-5.38,2.99c-0.61,0.71-1.08,1.52-1.41,2.39
					c-0.06,0.17-0.12,0.34-0.17,0.52"/>
				<path id="Path_3885" class="st35" d="M-108.75,253.07l6.88-7.4l-1.37-16.03"/>
				<path id="Path_3886" class="st35" d="M-88.52,259.27l-13.34-13.6"/>
				<path id="Path_3887" class="st8" d="M-110.53,235.07c0.33-0.95,0.84-1.82,1.5-2.58c1.44-1.57,3.4-2.56,5.52-2.77
					c0.44,5.3,0.88,10.6,1.33,15.9l-6.3,6.72c-0.53-3.01-1.01-6.2-1.39-9.57C-110.17,240.09-110.38,237.53-110.53,235.07"/>
				<path id="Path_3888" class="st8" d="M-101.8,246.02l-6.48,6.97l0.38,1.94c2.38,4.6,6.83,7.51,11.51,7.45
					c2.82-0.09,5.53-1.15,7.66-3L-101.8,246.02"/>
				<path id="Path_3889" class="st36" d="M-108.78,252.7c0.05-0.04,0.09-0.09,0.14-0.13c1.11-1.07,2.22-2.14,3.33-3.2l3.87-3.72"/>
				<path id="Path_3890" class="st15" d="M6.31,176.91l14.13,13.87l4.81,20.67l10.88,14.83l3.23,30.99c0,0-3.14-0.2-5.65-0.24
					l-4.53-26.86l-13.16-16L6.31,176.91"/>
				<path id="Path_3891" d="M136.73,208.67l-33.26-33.42l-3.41,26.69l-5.86,18.96v32.17l5.97-1.37l-2.09-25.25l7.29-22.21
					l0.04-18.72L136.73,208.67"/>
				<path id="Path_3892" class="st15" d="M6.23,177.03c1.57,14.09,3.13,28.19,4.7,42.28l-4.62,14.16l-6.77,11.29l8.87-4.58
					l9.59-22.08l-2.86-3.47c-1.27-4.75-2.53-9.5-3.8-14.26c-1.79-6.74-2.69-10.1-2.72-10.2c-0.49-1.85-0.5-1.85-0.54-2.03
					C7.17,184.49,6.55,180.78,6.23,177.03"/>
				
					<rect id="Rectangle_738" x="6.51" y="176.86" transform="matrix(-0.9739 0.2271 -0.2271 -0.9739 55.3853 357.0648)" class="st37" width="1.27" height="9.72"/>
				<path id="Path_3893" class="st15" d="M24.56,152.19l-21.87,7.1l-7.4,13.1l2.75,14.1l-4.81,33.82
					c-4.37,2.51-9.26,3.98-14.29,4.31c-7.94,0.46-13.82-2.27-20.65-5.55c-8.03-3.87-15.39-9-21.81-15.19l25.18,14.36l28.41,1.76
					l1.9-29.03l-4.07-19.81l9.72-17.28l20.25-7.13L24.56,152.19z"/>
				<path id="Path_3894" d="M64.84,140.49c0,0,11.03-2.53,15.77-1.42"/>
				<path id="Path_3895" class="st38" d="M24.72,150.75l21.45-13.94c-0.35-7.18-0.71-14.37-1.06-21.55
					c-0.55-1.25-1.09-2.53-1.63-3.84c-0.46-1.11-0.89-2.21-1.3-3.3l0.82,22.92l-24.2,14.98L24.72,150.75"/>
				<path id="Path_3896" d="M34.16,141.49c0,0,11.41-2.38,16.48-0.63"/>
				<path id="Path_3897" d="M40.72,106.01c-0.16,0.02-0.07,3.51,0.69,15.51l0.65,1.38c-0.06-1.9-0.16-5.11-0.22-7.01
					c-0.09-2.93-0.2-6.28-0.29-9.21c-0.13-0.14-0.25-0.28-0.37-0.43c-0.06-0.09-0.14-0.15-0.23-0.2
					C40.88,106.02,40.8,106.01,40.72,106.01"/>
			</g>
		</g>
	</g>
</g>
<g class="st0">
	<g id="Group_1275" class="st1">
		<g>
			<defs>
				<rect id="SVGID_00000011743559043169471650000006846758168295922836_" x="-141.43" y="-72.56" width="563.21" height="627.46"/>
			</defs>
			<clipPath id="SVGID_00000176754187960066874270000000917883521905941642_">
				<use xlink:href="#SVGID_00000011743559043169471650000006846758168295922836_"  style="overflow:visible;"/>
			</clipPath>
			<g id="Group_1274" style="clip-path:url(#SVGID_00000176754187960066874270000000917883521905941642_);">
				<path id="Path_4030" class="st40" d="M260.01,349.37c0,0-2.09,0.29-5.96,0.62"/>
				<path id="Path_4031" class="st41" d="M241.9,350.71C195,352.44,67,345.96-22.34,235.28C-116.31,118.88,4.18,80.3,43.86,71.13"/>
				<path id="Path_4032" class="st40" d="M49.81,69.84c3.73-0.76,5.9-1.09,5.9-1.09"/>
				<path id="Path_4033" class="st4" d="M260.01,114.59H107.7v-4.95l16.51-14.11l22.47-4.43l10.55,15.66l39.15,6.81l41.54-12.25
					l16.68,5.1L260.01,114.59z"/>
				<path id="Path_4034" class="st27" d="M260.01,114.59H107.7v-4.95l16.51-14.11l22.47-4.43l10.55,15.66l39.15,6.81l41.54-12.25
					l16.68,5.1L260.01,114.59z"/>
				<path id="Path_4035" class="st4" d="M237.23,100.38l-41.1,12.08l-38.3-6.46l-10.81-15.79l26.17-8.94v-7.66l-0.04-0.89l1.02-0.72
					c-2.18-2.19-4.16-4.57-5.91-7.11c-3.67-5.3-6.3-11.25-7.75-17.53c-1.53-7.04-1.47-14.34,0.17-21.36l0.09-0.33
					c-0.68-0.21-1.37-0.45-2.05-0.73c-0.31-0.07-0.6-0.15-0.88-0.22c-0.4-0.22-0.82-0.47-1.25-0.76h-0.01
					c-1.27-0.82-2.47-1.75-3.58-2.79c-0.42-0.39-0.81-0.79-1.19-1.19c-0.33-0.36-0.64-0.71-0.94-1.07c-0.46-0.54-0.89-1.11-1.29-1.7
					c-0.39-0.55-0.73-1.08-1.03-1.59c-0.22-0.37-0.42-0.74-0.61-1.09c-0.09-0.17-0.18-0.34-0.26-0.5c-0.25-0.49-0.46-0.96-0.65-1.39
					c0.36,0.26,8.99,6.41,21.46-0.01c0,0,5.72-4.25,21.55-11.65c0,0,6.27-1.54,10.91,2.21c1.34,1.09,2.42,2.48,3.13,4.06
					c0.02,0.03,0.04,0.07,0.05,0.1c0.93,2.09,1.47,4.33,1.62,6.61c0,0,18.51-3.79,8.55,26.59l-8.55,28.2l3.83,14.18L237.23,100.38z"
					/>
				<path id="Path_4036" class="st27" d="M237.23,100.38l-41.1,12.08l-38.3-6.46l-10.81-15.79l26.17-8.94v-7.66l-0.04-0.89
					l1.02-0.72c-2.18-2.19-4.16-4.57-5.91-7.11c-3.67-5.3-6.3-11.25-7.75-17.53c-1.53-7.04-1.47-14.34,0.17-21.36l0.09-0.33
					c-0.68-0.21-1.37-0.45-2.05-0.73c-0.31-0.07-0.6-0.15-0.88-0.22c-0.4-0.22-0.82-0.47-1.25-0.76h-0.01
					c-1.27-0.82-2.47-1.75-3.58-2.79c-0.42-0.39-0.81-0.79-1.19-1.19c-0.33-0.36-0.64-0.71-0.94-1.07c-0.46-0.54-0.89-1.11-1.29-1.7
					c-0.39-0.55-0.73-1.08-1.03-1.59c-0.22-0.37-0.42-0.74-0.61-1.09c-0.09-0.17-0.18-0.34-0.26-0.5c-0.25-0.49-0.46-0.96-0.65-1.39
					c0.36,0.26,8.99,6.41,21.46-0.01c0,0,5.72-4.25,21.55-11.65c0,0,6.27-1.54,10.91,2.21c1.34,1.09,2.42,2.48,3.13,4.06
					c0.02,0.03,0.04,0.07,0.05,0.1c0.93,2.09,1.47,4.33,1.62,6.61c0,0,18.51-3.79,8.55,26.59l-8.55,28.2l3.83,14.18L237.23,100.38z"
					/>
				<path id="Path_4037" class="st8" d="M287.62,203.1l-32.68,90.56l-0.34-81.37l4.76-16.34l-27.91-43.57l-8.51,26.89l-20.43,18.05
					l-12.93,39.14c0,0-38.47-1.36-74.22-28.59l8.17-29.62l-4.76-18.72l1.36-18.73l-39.83,7.83L-25.23,88.72l77.61,11.23l0.18,0.17
					l16.5,15.49l36.43-4.08l2.21-1.89l16.51-14.11l22.47-4.43l10.55,15.66l39.15,6.81l41.54-12.25l16.68,5.1l5.41,8.17l11.95,18.04
					l-1.36,16L287.62,203.1z"/>
				<path id="Path_4038" class="st28" d="M287.62,203.1l-32.68,90.56l-0.34-81.37l4.76-16.34l-27.91-43.57l-8.51,26.89l-20.43,18.05
					l-12.93,39.14c0,0-38.47-1.36-74.22-28.59l8.17-29.62l-4.76-18.72l1.36-18.73l-39.83,7.83L-25.23,88.72l77.61,11.23l0.18,0.17
					l16.5,15.49l36.43-4.08l2.21-1.89l16.51-14.11l22.47-4.43l10.55,15.66l39.15,6.81l41.54-12.25l16.68,5.1l5.41,8.17l11.95,18.04
					l-1.36,16L287.62,203.1z"/>
				<path id="Path_4039" class="st10" d="M115.37,208.94l-4.6,10.6c0,0,14.81,21.32,75.83,27.06h2.81l0.89-9.83
					C190.3,236.77,151.49,234.98,115.37,208.94z"/>
				<path id="Path_4040" class="st8" d="M110.77,220.43l-83.75,40.38c0,0-19.66,27.92-19.92,37.87l62.81,128.94l-12-83.49L62,322.94
					l-6.64-25.28l73.02-27.06l-45.02,62.55l0.17,10.38l-11.75,20.08l-1.11,67.49l-6.38,72.25l-22.47,49.02l37.11-29.28l6.81-42.55
					l24.85-73.53l-4.43-26.89l74.04-86.47c3.07-15.54,6.13-31.08,9.19-46.62c-6.72-0.73-28.56-3.29-48.05-9.48
					c-8.9-2.82-15.72-5.9-22.4-10.79c-2.64-1.93-5.13-4.05-7.46-6.35"/>
				<path id="Path_4041" class="st28" d="M110.77,220.43l-83.75,40.38c0,0-19.66,27.92-19.92,37.87l62.81,128.94l-12-83.49
					L62,322.94l-6.64-25.28l73.02-27.06l-45.02,62.55l0.17,10.38l-11.75,20.08l-1.11,67.49l-6.38,72.25l-22.47,49.02l37.11-29.28
					l6.81-42.55l24.85-73.53l-4.43-26.89l74.04-86.47c3.07-15.54,6.13-31.08,9.19-46.62c-6.72-0.73-28.56-3.29-48.05-9.48
					c-8.9-2.82-15.72-5.9-22.4-10.79c-2.64-1.93-5.13-4.05-7.46-6.35"/>
				<path id="Path_4042" d="M214.3,40.55c-3.05,9.45-6.1,18.9-9.16,28.34c-1.24-6.72-2.48-13.44-3.73-20.17
					c4.83-2.49,7.34-7.04,6.44-10.8c-0.47-1.7-1.5-3.2-2.93-4.24c-0.92-0.22-1.88-0.19-2.79,0.08c-3.33,1.01-4.2,5.03-4.24,5.23
					c0,0,1.37-18.87-2.19-19.89c-3.68,2.33-7.67,4.13-11.85,5.36c-4.73,1.38-13.84,4.08-23.08,1.21c-0.68-0.21-1.37-0.45-2.05-0.73
					c-0.95-0.39-1.7-0.75-2.13-0.98h-0.01c-1.27-0.82-2.47-1.75-3.58-2.79c-0.42-0.39-0.81-0.79-1.19-1.19
					c-0.33-0.36-0.64-0.71-0.94-1.07c-0.46-0.54-0.89-1.11-1.29-1.7c-0.38-0.54-0.72-1.07-1.03-1.59c-0.22-0.37-0.42-0.74-0.61-1.09
					c-0.09-0.17-0.18-0.34-0.26-0.5c-0.25-0.49-0.46-0.96-0.65-1.39c1.98,0.65,4.04,1.02,6.12,1.1c7.3,0.26,13.38-3.26,19.91-7.15
					c4.85-2.88,5.85-4.14,9.71-5.44c3.01-1.01,6.17-1.53,9.35-1.53c3.2,0.17,6.27,1.38,8.71,3.46c0.04,0.04,0.08,0.07,0.12,0.11
					c1.29,1.14,2.35,2.52,3.13,4.06c0.02,0.03,0.04,0.07,0.05,0.1c1.02,2.06,1.57,4.31,1.62,6.61
					C205.75,13.96,224.26,10.17,214.3,40.55"/>
				<path id="Path_4043" class="st10" d="M214.3,40.55c-3.05,9.45-6.1,18.9-9.16,28.34c-1.24-6.72-2.48-13.44-3.73-20.17
					c4.83-2.49,7.34-7.04,6.44-10.8c-0.47-1.7-1.5-3.2-2.93-4.24c-0.92-0.22-1.88-0.19-2.79,0.08c-3.33,1.01-4.2,5.03-4.24,5.23
					c0,0,1.37-18.87-2.19-19.89c-3.68,2.33-7.67,4.13-11.85,5.36c-4.73,1.38-13.84,4.08-23.08,1.21c-0.68-0.21-1.37-0.45-2.05-0.73
					c-0.95-0.39-1.7-0.75-2.13-0.98h-0.01c-1.27-0.82-2.47-1.75-3.58-2.79c-0.42-0.39-0.81-0.79-1.19-1.19
					c-0.33-0.36-0.64-0.71-0.94-1.07c-0.46-0.54-0.89-1.11-1.29-1.7c-0.38-0.54-0.72-1.07-1.03-1.59c-0.22-0.37-0.42-0.74-0.61-1.09
					c-0.09-0.17-0.18-0.34-0.26-0.5c-0.25-0.49-0.46-0.96-0.65-1.39c1.98,0.65,4.04,1.02,6.12,1.1c7.3,0.26,13.38-3.26,19.91-7.15
					c4.85-2.88,5.85-4.14,9.71-5.44c3.01-1.01,6.17-1.53,9.35-1.53c3.2,0.17,6.27,1.38,8.71,3.46c0.04,0.04,0.08,0.07,0.12,0.11
					c1.29,1.14,2.35,2.52,3.13,4.06c0.02,0.03,0.04,0.07,0.05,0.1c1.02,2.06,1.57,4.31,1.62,6.61
					C205.75,13.96,224.26,10.17,214.3,40.55z"/>
				<path id="Path_4044" class="st42" d="M160.68,26c-1.64,7.02-1.7,14.32-0.17,21.36c1.45,6.28,4.08,12.23,7.75,17.53
					c1.75,2.54,3.73,4.92,5.91,7.11c9.39-2.14,17.65-7.71,23.15-15.62"/>
				<path id="Path_4045" class="st43" d="M128.19,217.75c-0.87,1.63-1.73,3.32-2.6,5.04c-0.97,1.93-1.88,3.84-2.75,5.71
					c2.74,1.47,4.82,2.61,6.05,3.29c3.66,2.02,6.03,3.32,9.62,4.27c0.18,0.05,0.36,0.09,0.53,0.13c0.26,0.05,4.93-9.58,5.23-10.4
					S137.51,223.05,128.19,217.75"/>
				<path id="Path_4046" class="st12" d="M128.19,217.75c-0.87,1.63-1.73,3.32-2.6,5.04c-0.97,1.93-1.88,3.84-2.75,5.71
					c2.74,1.47,4.82,2.61,6.05,3.29c3.66,2.02,6.03,3.32,9.62,4.27c0.18,0.05,0.36,0.09,0.53,0.13c0.26,0.05,4.93-9.58,5.23-10.4
					S137.51,223.04,128.19,217.75z"/>
				<path id="Path_4047" d="M115.62,209.79l-4.21,9.62c0,0,8.6,8.6,11.15,8.98l5.23-10.98
					C127.79,217.41,118.72,212.51,115.62,209.79"/>
				<path id="Path_4048" class="st12" d="M115.62,209.79l-4.21,9.62c0,0,8.6,8.6,11.15,8.98l5.23-10.98
					C127.79,217.41,118.72,212.51,115.62,209.79z"/>
				<path id="Path_4049" class="st8" d="M144.66,225.92l-5.23,10.28c0,0,33.06,10.53,49.4,9.77l0.83-8.78
					C189.66,237.18,170.06,236.26,144.66,225.92"/>
				<path id="Path_4050" class="st12" d="M144.66,225.92l-5.23,10.28c0,0,33.06,10.53,49.4,9.77l0.83-8.78
					C189.66,237.18,170.07,236.26,144.66,225.92z"/>
				<path id="Path_4051" d="M174.7,110.53l-35.17,86.79l-4-8.94l-8.68,26.3c0,0,26.72,18.89,62.55,20.94l12.25-38.38l20.68-18.55
					l8.77-27.91l29.28,45.15l-4.98,16.6l0.17,77.7l31.28-87.28l-17.08-54.19l1.53-16.02l-17.26-25.7l-16.21-4.94l-41.34,12.19
					L174.7,110.53z"/>
				<path id="Path_4052" class="st28" d="M174.7,110.53l-35.17,86.79l-4-8.94l-8.68,26.3c0,0,26.72,18.89,62.55,20.94l12.25-38.38
					l20.68-18.55l8.77-27.91l29.28,45.15l-4.98,16.6l0.17,77.7l31.28-87.28l-17.08-54.19l1.53-16.02l-17.26-25.7l-16.21-4.94
					l-41.34,12.19L174.7,110.53z"/>
				<path id="Path_4053" class="st3" d="M139.53,133.66l14.98-10.04l33.36,8l9.02,17.02L154,170.94L139.53,133.66z"/>
				<path id="Path_4054" class="st28" d="M139.53,133.66l14.98-10.04l33.36,8l9.02,17.02L154,170.94L139.53,133.66z"/>
			</g>
		</g>
	</g>
	<text transform="matrix(0.9715 0.2371 -0.2371 0.9715 150.8966 159.0331)" class="st20 st24 st44">P</text>
	<g id="Group_1277" class="st1">
		<g>
			<defs>
				<rect id="SVGID_00000058568942702903329510000014656331941140869817_" x="-141.43" y="-72.56" width="563.21" height="627.46"/>
			</defs>
			<clipPath id="SVGID_00000031915952805005594040000014389477634753197996_">
				<use xlink:href="#SVGID_00000058568942702903329510000014656331941140869817_"  style="overflow:visible;"/>
			</clipPath>
			<g id="Group_1276" style="clip-path:url(#SVGID_00000031915952805005594040000014389477634753197996_);">
				<path id="Path_4055" d="M136.7,236.83c-2.33,10.9-4.65,21.81-6.98,32.71c-15.28,21.25-30.57,42.5-45.85,63.76
					c0.04,3.4,0.09,6.8,0.13,10.19l-11.72,20.3c-0.37,22.33-0.74,44.65-1.12,66.97l-6.35,72.66l-21.65,47.32l35.33-27.89
					c2.25-14.14,4.49-28.28,6.74-42.41c8.29-24.49,16.57-48.97,24.86-73.46l-4.76-27.15l74.43-86.51
					c3.02-15.28,6.04-30.57,9.05-45.85c-4.76-0.39-10.34-1.01-16.56-2c-2.88-0.46-7.89-1.31-14.08-2.7
					C152.25,241.44,144.96,239.55,136.7,236.83"/>
				<path id="Path_4056" class="st4" d="M364.89,106.76c-0.45,0.37-0.98,0.63-1.55,0.77c-8.04,2.99-16.43,4.94-24.96,5.79
					c0,0-5.75,0.56-29.65,0h-0.22c0.07-0.01,0.15-0.02,0.22-0.04c-3.64-30.88-7.27-61.76-10.9-92.65
					c-5.44-46.33,62.64-27.23,67.06-31.65C364.89-11.02,389.41,69.32,364.89,106.76"/>
				<path id="Path_4057" class="st46" d="M364.89-11.02c-1.07,47.34-21.34,92.21-56.16,124.3c16.07-4.2,30.93-12.11,43.39-23.1
					c0,0,3.29,12.29,5.67,14.12c0,0,3.13,4.57,6.77,2.13c0,0,7.85-12.38,9.06-25.6c-0.32-18.98-0.64-37.96-0.95-56.94"/>
				<path id="Path_4058" class="st11" d="M308.73,113.32v-0.04c21.63-3.54,43.06-22.18,43.06-22.18
					c4.12,15.95,9.08,17.07,11.55,16.43c-8.04,2.99-16.43,4.94-24.96,5.79C338.38,113.32,332.63,113.88,308.73,113.32l-0.22,0
					c0.07-0.01,0.15-0.02,0.22-0.04c-3.64-30.88-7.27-61.76-10.9-92.65c-5.44-46.33,62.64-27.23,67.06-31.65
					c0,0,24.52,80.34,0,117.78c-0.45,0.37-0.98,0.63-1.55,0.77"/>
				<path id="Path_4059" class="st11" d="M306.68,25.58c0,0,20.43-1.02,47.66-19.92"/>
				<path id="Path_4060" class="st11" d="M306.68,35.28c0,0,17.87-3.23,28.77-8.34"/>
				<path id="Path_4061" class="st11" d="M308.38,45.49c0,0,43.57-7.15,57.53-16.17"/>
				<path id="Path_4062" class="st11" d="M312.3,58.77c0,0,17.53-1.87,28.08-6.3"/>
				<path id="Path_4063" class="st4" d="M421.23,188.64c0,0-51.06,6.86-60.76,7.52l-1.25-30.34l-0.03-0.66l58.47-15.07l0.12,1.33
					L421.23,188.64z"/>
				<path id="Path_4064" class="st42" d="M421.23,188.64c0,0-51.06,6.86-60.76,7.52l-1.25-30.34l-0.03-0.66l58.47-15.07l0.12,1.33
					L421.23,188.64z"/>
				<path id="Path_4065" class="st42" d="M359.96,165.79l32.17,13.02l24.77-27.32"/>
				<line id="Line_347" class="st42" x1="402.34" y1="176.89" x2="413.7" y2="182.89"/>
				<line id="Line_348" class="st42" x1="378.6" y1="179.89" x2="364.55" y2="192.09"/>
				<path id="Path_4066" class="st4" d="M56.98,1.66l-1.39,1.28L16.3,39.27V23.7L8.89,36.98V16.29L-5.15,5.84L56.98,1.66z"/>
				<path id="Path_4067" class="st11" d="M56.98,1.66l-1.39,1.28L16.3,39.27V23.7L8.89,36.98V16.29L-5.15,5.84L56.98,1.66z"/>
				<path id="Path_4068" class="st11" d="M8.89,16.29l46.3-13.78"/>
				<path id="Path_4069" class="st47" d="M16.24,22.62L55.7,2.15"/>
				<path id="Path_4070" class="st4" d="M335.43,323.71c-0.45,0.17-7.66,3.46-8.15,39.82c0,0-38.05,10.72-57.19,11.49l0.2-1.42
					l-0.2-0.03l-7.83-32.25l6.97-2.13l1.28-9.45l18.81-4.76l3.06,3.74l36.09-7.83l2.38,2.81l0.26,1.07L335.43,323.71z"/>
				<path id="Path_4071" class="st47" d="M335.43,323.71c-0.45,0.17-7.66,3.46-8.15,39.82c0,0-38.05,10.72-57.19,11.49l0.2-1.42
					l4.9-35.09l55.92-13.74L335.43,323.71z"/>
				<path id="Path_4072" class="st47" d="M270.09,373.57l-7.83-32.25l6.97-2.13l1.28-9.45l18.81-4.76l3.06,3.74l36.09-7.83
					l2.38,2.81"/>
				<path id="Path_4073" class="st47" d="M283.28,347.24c0.26,0.04,14.21-2.77,14.21-2.77"/>
				<line id="Line_349" class="st47" x1="282.77" y1="354.43" x2="288.47" y2="353.06"/>
				<path id="Path_4074" class="st4" d="M52.38,99.95l0.18,0.17h-0.18V99.95z"/>
				<path id="Path_4075" class="st4" d="M102.09,53.66L75.87,97.24c0,0-0.52-0.68-1.37-1.89C70.97,90.34,61.68,76.32,60,65.21
					c-0.3-1.79-0.34-3.62-0.13-5.42l35.75-42.04C95.62,17.75,94.94,46.69,102.09,53.66"/>
				<path id="Path_4076" class="st11" d="M102.09,53.66L75.87,97.24c0,0-0.52-0.68-1.37-1.89C70.97,90.34,61.68,76.32,60,65.21
					c-0.3-1.79-0.34-3.62-0.13-5.42l35.75-42.04C95.62,17.75,94.94,46.68,102.09,53.66z"/>
				<path id="Path_4077" class="st4" d="M19.62,222.98l-109.79,32.17l-9.96-0.64c-0.25-0.26-1.84-2.54-4.24-6.1
					c-10.42-15.39-36.27-54.5-36.27-54.5l88.85-25.53l44.94,49.36l-0.59,0.19l24.76-2.61C29.32,215.44,19.62,222.98,19.62,222.98"/>
				<path id="Path_4078" class="st11" d="M60,65.21c0.44-1.72,1.23-3.34,2.33-4.74c2-2.47,4.79-4.16,7.91-4.79
					c-2.16,13.36-0.69,27.06,4.27,39.66"/>
				<path id="Path_4079" class="st11" d="M73.66,50.68c0,0,5.7,17.45,10.47,22.89"/>
				<path id="Path_4080" class="st11" d="M82.43,57.49c0,0,1.62,6.81,3.32,8.51"/>
				<path id="Path_4081" class="st11" d="M84.64,43.79c0,0-0.94,7.23,6.3,15.15"/>
				<path id="Path_4082" class="st11" d="M88.64,37.07c0,0,3.06,11.75,6.81,17.45"/>
				<path id="Path_4083" class="st11" d="M-103.06,248.12l95.62-30.19l0.59-0.19l-44.94-49.36l-88.85,25.53
					c0,0,25.85,39.11,36.27,54.5c2.4,3.56,3.99,5.84,4.24,6.1l9.96,0.64l109.79-32.17c0,0,9.7-7.54-2.3-7.66
					c-8.25,0.87-16.5,1.74-24.76,2.61"/>
				<path id="Path_4084" class="st48" d="M7.11,25.58c-33.67-8.43-56.02-28.87-55.48-47.28C-47.61-47.6-1.84-61.75,9.15-65.15
					c45.58-14.09,85.28-2.69,134.81,12.26c90.09,27.18,146.17,44.3,182.38,55.4"/>
				<path id="Path_4085" class="st15" d="M-21.23,89.92l102.14,45.11l45.94-9.19c-0.57,10.96-1.15,21.91-1.72,32.87l5.11,18.89
					c-2.74,11.3-5.49,22.6-8.23,33.89l-5.7-3.91l8.06-29.4l-4.87-18.7l1.58-19.87l-40.68,8.06L-21.23,89.92z"/>
				<path id="Path_4086" class="st15" d="M136.7,236.83l-89.08,53.38l6.88,32.04l-3.13,13.96l-3.23,44.26l20.17,42.04
					c-3.72-26.07-7.43-52.13-11.15-78.19L61.21,323c-2.33-8.7-4.66-17.4-6.99-26.11l75.57-27.64
					C132.1,258.44,134.4,247.64,136.7,236.83"/>
				<path id="Path_4087" class="st49" d="M202.55,109.49c0.51-3.63,0.95-7.46,1.28-11.49c0.36-4.43,0.56-8.65,0.64-12.64
					l-14.84-19.99c1.3-1.03,2.54-2.14,3.68-3.34c3.52-3.71,6.24-8.11,7.96-12.92c1.29,7.15,2.58,14.3,3.86,21.45l3.57,13.08
					l26.06,16.41c-5.27,1.56-10.55,3.11-15.82,4.65C213.49,106.3,208.02,107.89,202.55,109.49"/>
				<path id="Path_4088" class="st50" d="M-52.53,168.6c0,0-34.66,61.91-51.94,78.68l95.62-30.55L-52.53,168.6z"/>
				<path id="Path_4089" class="st51" d="M-71.54,208.41c0.61,2.66-2.22,5.58-6.32,6.53s-7.93-0.45-8.54-3.11s2.22-5.58,6.32-6.53
					S-72.15,205.75-71.54,208.41"/>
				<path id="Path_4090" class="st52" d="M-71.54,208.41c0.61,2.66-2.22,5.58-6.32,6.53s-7.93-0.45-8.54-3.11s2.22-5.58,6.32-6.53
					S-72.15,205.75-71.54,208.41z"/>
				<path id="Path_4091" class="st50" d="M262.94,341.66l7.15,29.62c1.54-11.08,3.08-22.15,4.62-33.23l56.11-13.71l-2.61-2.85
					l-36.04,7.83l-3.07-3.75l-18.17,4.6L262.94,341.66z"/>
			</g>
		</g>
	</g>
</g>
<g id="Group_1265">
	<g>
		<defs>
			<rect id="SVGID_00000121976185906681616130000014781867243629004219_" x="20.87" y="29.35" width="238.45" height="393.58"/>
		</defs>
		<clipPath id="SVGID_00000064319335116485540430000018034449729910709182_">
			<use xlink:href="#SVGID_00000121976185906681616130000014781867243629004219_"  style="overflow:visible;"/>
		</clipPath>
		<g id="Group_1264" style="clip-path:url(#SVGID_00000064319335116485540430000018034449729910709182_);">
			<path id="Path_3933" class="st4" d="M192.9,96.84l-14.19,7.02l-31.72,0.19l-8.29-5.29l17.03-8.22l-0.37-8.36l0.37-0.36l0.27-0.26
				c-13.33-14.05-7.74-34.42-7.74-34.42l0.63-1.1l0.24-0.42c-3.67-1.42-6.89-3.82-9.3-6.93l4.3,0.59l-3.12-3.52
				c1.69,0.28,3.38,0.48,5.09,0.57c3.68,0.2,7.38-0.05,11-0.72c9.44-6.18,18.62-7.54,22.69-3.67c1.06,1.04,1.79,2.37,2.1,3.82
				c0.15-0.14,0.32-0.26,0.5-0.36c0.06-0.03,0.12-0.07,0.19-0.1c0.1-0.05,0.2-0.1,0.3-0.14c0.01,0,0.01-0.01,0.02-0.01
				c0.1-0.04,0.21-0.08,0.32-0.11c0.1-0.03,0.22-0.06,0.33-0.09c0.02,0,0.04-0.01,0.05-0.01c0.06-0.01,0.13-0.02,0.22-0.03
				c1.15-0.13,2.31,0.18,3.25,0.86c2.18,1.44,7.91,9.87,3.95,24.2c-1.04,2.64-2.25,5.21-3.6,7.7c-2.2,4.26-4.73,8.35-7.57,12.22
				c-0.52-5.17-1.03-10.36-1.55-15.53l0.9,16.39l0.5,9.07L192.9,96.84z"/>
			<path id="Path_3934" class="st4" d="M215.34,100.18v6.66h-84.52v-6.65l7.64-1.13l8.22,5.55l9.77-0.07h0.1l22.12-0.15l14.22-7.55
				L215.34,100.18z"/>
			<path id="Path_3935" class="st10" d="M130.46,186.38v10.22c0,0,15.55,5.33,55.32,1.78l1.11-8.89
				C186.9,189.49,142.79,193.49,130.46,186.38z"/>
			<path id="Path_3936" class="st8" d="M130.46,196.6l-18.66,85.17l9.33,22.81l-4.22,16.22l0.67,81.54l-25.11,11.77h52.44l-12-14
				l18.23-89.1l-4.9-14.44l9.33-37.55l9.11,28.22l17.55,21.33l-2.66,14.89L215.11,405l-7.32,13.34l49.32,3.78l-29.99-22.22
				l-8.22-69.32l-11.78-22.22l2.44-32.81l-23.55-76.73C186.01,198.82,150.91,202.93,130.46,196.6"/>
			<path id="Path_3937" class="st28" d="M130.46,196.6l-18.66,85.17l9.33,22.81l-4.22,16.22l0.67,81.54l-25.11,11.77h52.44l-12-14
				l18.23-89.1l-4.9-14.44l9.33-37.55l9.11,28.22l17.55,21.33l-2.66,14.89L215.11,405l-7.32,13.34l49.32,3.78l-29.99-22.22
				l-8.22-69.32l-11.78-22.22l2.44-32.81l-23.55-76.73C186.01,198.82,150.91,202.93,130.46,196.6z"/>
			<path id="Path_3938" class="st8" d="M36.58,38.53l76.17,28.25c0,0,2.52,5.18,0,9.63L34.69,95.07c3.41-4.35,5.89-9.35,7.28-14.7
				c0.96-3.76,1.07-6.69,1.3-12.55c0.2-5.07-0.05-10.14-0.77-15.16c-0.29-2.82-1-5.57-2.12-8.18
				C39.41,42.33,38.13,40.32,36.58,38.53"/>
			<path id="Path_3939" class="st28" d="M36.58,38.53l76.17,28.25c0,0,2.52,5.18,0,9.63L34.69,95.07c3.41-4.35,5.89-9.35,7.28-14.7
				c0.96-3.76,1.07-6.69,1.3-12.55c0.2-5.07-0.05-10.14-0.77-15.16c-0.29-2.82-1-5.57-2.12-8.18
				C39.41,42.33,38.12,40.32,36.58,38.53z"/>
			<path id="Path_3940" class="st54" d="M43.57,66.12c-0.28,13.16-5.27,29.72-10.96,29.81c-5.59,0.09-11.92-15.69-11.26-29.81
				C22,52.25,29.5,37.38,35.01,37.93S43.82,54.41,43.57,66.12"/>
			<path id="Path_3941" class="st10" d="M43.57,66.12c-0.28,13.16-5.27,29.72-10.96,29.81c-5.59,0.09-11.92-15.69-11.26-29.81
				C22,52.25,29.5,37.38,35.01,37.93S43.82,54.41,43.57,66.12z"/>
			<path id="Path_3942" class="st3" d="M73.01,52.04c0,0,11.66,17.55-5.52,34.66l20.44-5.04c0,0,5.41-12.37,2.52-22.66L73.01,52.04z
				"/>
			<path id="Path_3943" class="st28" d="M73.01,52.04c0,0,11.66,17.55-5.52,34.66l20.44-5.04c0,0,5.41-12.37,2.52-22.66L73.01,52.04
				z"/>
			<path id="Path_3944" class="st10" d="M42.31,58.71c-1.74,0.15-3.35,1.01-4.44,2.37c0,0,3.11,6.96-1.48,10.37
				c1.28,2.07,3.5,3.37,5.92,3.48C42.31,74.93,43.86,61.82,42.31,58.71z"/>
			<path id="Path_3945" class="st10" d="M37.27,61.15c0,0-5.67,5.06-1.39,10.28C38.98,68.91,39.59,64.41,37.27,61.15z"/>
			<path id="Path_3946" class="st11" d="M155.71,81.38l0.01,9.16l-17.03,8.22l8.29,5.29l31.72-0.19l14.19-7.02l-13.22-7l-1.4-25.46
				c-0.01-0.29-0.03-0.57-0.04-0.86"/>
			<path id="Path_3947" class="st11" d="M170.76,73.95c-2.67,6.07-12.44,9.83-12.44,9.83c-0.82-0.7-1.6-1.44-2.33-2.23
				c-13.33-14.05-7.74-34.42-7.74-34.42l0.62-1.1"/>
			<path id="Path_3948" d="M192.68,53.46c-0.31,2.23-0.87,4.42-1.68,6.52c-1.04,2.64-2.25,5.21-3.6,7.7
				c-2.2,4.26-4.73,8.35-7.57,12.22c-0.21,0.29-0.43,0.57-0.64,0.87l-0.16,0.22c-0.18-2.75-0.35-5.53-0.5-8.33
				c-0.22-3.9-0.4-7.75-0.56-11.56c0.99-0.53,1.87-1.25,2.59-2.11c1.16-1.63,1.82-3.56,1.89-5.56c0.04-0.55-0.09-1.11-0.36-1.59
				c-0.26-0.45-0.65-0.81-1.1-1.05c-1.22-0.59-2.64-0.59-3.86-0.02c-1.21,0.67-2.28,2.26-2.43,5.72l-0.08-13.33
				c0,0-13.52,7.08-25.51,2.49c-3.67-1.42-6.89-3.82-9.3-6.93l4.3,0.59l-3.12-3.52c1.69,0.28,3.38,0.48,5.09,0.57
				c3.68,0.2,7.38-0.05,11-0.72c9.44-6.19,18.63-7.54,22.7-3.67c1.06,1.04,1.79,2.37,2.1,3.82c0.15-0.14,0.32-0.26,0.5-0.36
				c0.06-0.03,0.12-0.07,0.19-0.1c0.1-0.05,0.2-0.1,0.3-0.14c0.01,0,0.01-0.01,0.02-0.01c0.1-0.04,0.21-0.08,0.32-0.11
				c0.1-0.03,0.22-0.06,0.33-0.09c0.02,0,0.04-0.01,0.05-0.01c1.22-0.15,2.45,0.15,3.47,0.83c2.04,1.34,3.6,3.29,4.46,5.57
				c0.83,1.99,2.04,5.91,1.17,12.11"/>
			<path id="Path_3949" class="st10" d="M192.68,53.46c-0.31,2.23-0.87,4.42-1.68,6.52c-1.04,2.64-2.25,5.21-3.6,7.7
				c-2.2,4.26-4.73,8.35-7.57,12.22c-0.21,0.29-0.43,0.57-0.64,0.87l-0.16,0.22c-0.18-2.75-0.35-5.53-0.5-8.33
				c-0.22-3.9-0.4-7.75-0.56-11.56c0.99-0.53,1.87-1.25,2.59-2.11c1.16-1.63,1.82-3.56,1.89-5.56c0.04-0.55-0.09-1.11-0.36-1.59
				c-0.26-0.45-0.65-0.81-1.1-1.05c-1.22-0.59-2.64-0.59-3.86-0.02c-1.21,0.67-2.28,2.26-2.43,5.72l-0.08-13.33
				c0,0-13.52,7.08-25.51,2.49c-3.67-1.42-6.89-3.82-9.3-6.93l4.3,0.59l-3.12-3.52c1.69,0.28,3.38,0.48,5.09,0.57
				c3.68,0.2,7.38-0.05,11-0.72c9.44-6.19,18.63-7.54,22.7-3.67c1.06,1.04,1.79,2.37,2.1,3.82c0.15-0.14,0.32-0.26,0.5-0.36
				c0.06-0.03,0.12-0.07,0.19-0.1c0.1-0.05,0.2-0.1,0.3-0.14c0.01,0,0.01-0.01,0.02-0.01c0.1-0.04,0.21-0.08,0.32-0.11
				c0.1-0.03,0.22-0.06,0.33-0.09c0.02,0,0.04-0.01,0.05-0.01c1.22-0.15,2.45,0.15,3.47,0.83c2.04,1.34,3.6,3.29,4.46,5.57
				C192.34,43.34,193.56,47.25,192.68,53.46z"/>
			<path id="Path_3950" class="st8" d="M252.22,166.82l-12.73,27.26l-56.29,31.7l45.03-55.99l-19.85-22.52
				c0,0-15.4,21.03-15.7,21.93s-5.78,20.29-5.78,20.29c-43.1,3.26-56.43-3.11-56.43-3.11l-13.33-31.1l3.55-29.33l-3.78,26.66
				l-40.66,22.89l-7.33-18.88l3.55-20l24.22-54.95l10.82-3.26l-10.82,60.66l10-12.23l1.56-10.44l10.66-14.44l11.91-1.76l7.64-1.13
				l8.22,5.55l9.77-0.07h0.1l22.12-0.15l14.22-7.55l22.44,3.34l4.89,0.73l14.81,19.25l1.02,21.78c0.17-2,0.34-4,0.52-6
				L252.22,166.82"/>
			<path id="Path_3951" class="st28" d="M252.22,166.82l-12.73,27.26l-56.29,31.7l45.03-55.99l-19.85-22.52
				c0,0-15.4,21.03-15.7,21.93s-5.78,20.29-5.78,20.29c-43.1,3.26-56.43-3.11-56.43-3.11l-13.33-31.1l3.55-29.33l-3.78,26.66
				l-40.66,22.89l-7.33-18.88l3.55-20l24.22-54.95l10.82-3.26l-10.82,60.66l10-12.23l1.56-10.44l10.66-14.44l11.91-1.76l7.64-1.13
				l8.22,5.55l9.77-0.07h0.1l22.12-0.15l14.22-7.55l22.44,3.34l4.89,0.73l14.81,19.25l1.02,21.78c0.17-2,0.34-4,0.52-6
				L252.22,166.82z"/>
			<path id="Path_3952" class="st43" d="M142.1,190.11l0.01,0.1c0.02,0.39,0.52,7.88,0.55,8.27c1.32,0.15,2.66,0.28,4.02,0.41
				c2.84,0.25,5.6,0.43,8.27,0.54l-0.82-8.44c-1.76-0.06-3.57-0.15-5.43-0.28C146.42,190.55,144.22,190.35,142.1,190.11"/>
			<path id="Path_3953" class="st12" d="M142.1,190.11l0.01,0.1c0.02,0.39,0.52,7.88,0.55,8.27c1.32,0.15,2.66,0.28,4.02,0.41
				c2.84,0.25,5.6,0.43,8.27,0.54l-0.82-8.44c-1.76-0.06-3.57-0.15-5.43-0.28C146.42,190.55,144.22,190.35,142.1,190.11z"/>
			<path id="Path_3954" d="M130.83,187.18v9c0,0,8.75,2.64,11.42,2.25l-0.47-8.36C141.77,190.07,134.15,188.88,130.83,187.18"/>
			<path id="Path_3955" class="st12" d="M130.83,187.18v9c0,0,8.75,2.64,11.42,2.25l-0.47-8.36
				C141.77,190.07,134.15,188.88,130.83,187.18z"/>
			<path id="Path_3956" class="st8" d="M154.43,191c0.25,2.81,0.5,5.63,0.76,8.44c3.93,0.13,8.04,0.15,12.33,0.04
				c6.43-0.16,12.47-0.6,18.09-1.21c0.25-2.72,0.49-5.45,0.74-8.17c-4.47,0.31-9.09,0.54-13.84,0.71
				C166.26,191.02,160.23,191.08,154.43,191"/>
			<path id="Path_3957" class="st12" d="M154.43,191c0.25,2.81,0.5,5.63,0.76,8.44c3.93,0.13,8.04,0.15,12.33,0.04
				c6.43-0.16,12.47-0.6,18.09-1.21c0.25-2.72,0.49-5.45,0.74-8.17c-4.47,0.31-9.09,0.54-13.84,0.71
				C166.26,191.02,160.23,191.08,154.43,191z"/>
			<path id="Path_3958" d="M155.91,200.73l-5.22,34.64l4.83,21.3c3.24,10.09,6.48,20.18,9.72,30.26
				c5.89,7.15,11.79,14.31,17.68,21.46l-2.69,14.94c11.87,27.22,23.75,54.44,35.62,81.65c-2.33,4.26-4.66,8.52-6.99,12.78
				l45.96,3.48l-28.32-20.97c-2.73-23.16-5.47-46.31-8.2-69.47c-3.97-7.44-7.94-14.89-11.9-22.33l2.49-32.89l-23.36-76.04
				c-4.2,0.42-8.61,0.76-13.22,0.97C166.53,200.79,161.06,200.84,155.91,200.73"/>
			<path id="Path_3959" d="M251.63,166.75l-12.66,26.88L185.19,224l43.92-54.17l-20.96-23.66l-16.15,22.73l-5.66,20
				c-15.5,1.48-31.11,1.24-46.55-0.74l-4.29-19.1l5.62,3.55l4.56-20.24l7.95-35.3l2.31-10.22l0.51-2.3h0.1l22.46,0.57l13.88-7.68
				l22.44,3.4l4.45,0.67l14.83,18.77l1.25,25.41l1.47-7.63L251.63,166.75z"/>
			<path id="Path_3960" class="st28" d="M251.63,166.75l-12.66,26.88L185.19,224l43.92-54.17l-20.96-23.66l-16.15,22.73l-5.66,20
				c-15.5,1.48-31.11,1.24-46.55-0.74l-4.29-19.1l5.62,3.55l4.56-20.24l7.95-35.3l2.31-10.22l0.51-2.3h0.1l22.46,0.57l13.88-7.68
				l22.44,3.4l4.45,0.67l14.83,18.77l1.25,25.41l1.47-7.63L251.63,166.75z"/>
			<path id="Path_3961" class="st3" d="M129.13,129.27l8.89-12.22h29.99l10.22,12.22l-31.11,25.11L129.13,129.27z"/>
			<path id="Path_3962" class="st28" d="M129.13,129.27l8.89-12.22h29.99l10.22,12.22l-31.11,25.11L129.13,129.27z"/>
		</g>
	</g>
</g>
<text transform="matrix(0.9993 0.0377 -0.0377 0.9993 142.5113 146.3692)" class="st8 st24 st55">P</text>
<g id="Group_1267">
	<g>
		<defs>
			<rect id="SVGID_00000176022286192674736350000014528355175890554019_" x="20.87" y="29.35" width="238.45" height="393.58"/>
		</defs>
		<clipPath id="SVGID_00000046311377638614874900000015350433766672135590_">
			<use xlink:href="#SVGID_00000176022286192674736350000014528355175890554019_"  style="overflow:visible;"/>
		</clipPath>
		<g id="Group_1266" style="clip-path:url(#SVGID_00000046311377638614874900000015350433766672135590_);">
			<path id="Path_3963" class="st15" d="M120.06,125.83l-26.32,25.66c4.31-24.06,8.61-48.11,12.92-72.17l-5.09,1.52
				c0,0-20.29,54.03-19.7,90.74l34.48-19.28C117.59,143.48,118.83,134.66,120.06,125.83"/>
			<path id="Path_3964" class="st15" d="M121.41,126l-3.54,29.09L131,185.88c0.44,0.17,0.89,0.33,1.37,0.49
				c0.59,0.2,1.16,0.37,1.71,0.51l-9.02-33.09L121.41,126z"/>
			<path id="Path_3965" class="st15" d="M136.24,198.82c-2.39,10.24-4.9,20.61-7.55,31.11c-4.49,17.76-9.16,35.04-14,51.84
				l-1.22,2.3l-0.98-2.34c6.16-28.1,12.31-56.2,18.47-84.3L136.24,198.82z"/>
			<path id="Path_3966" class="st15" d="M150.68,235.37c-4.72,19.81-9.43,39.62-14.15,59.43l5.71,15.6L124.5,413.43l18.94,0.02
				l-11.26-13.18c6.09-29.73,12.19-59.46,18.28-89.19l-4.95-14.44l10-39.96L150.68,235.37"/>
			<path id="Path_3967" class="st15" d="M88.73,81.46c3.7-2.16,7.42-4.36,11.17-6.6c4.19-2.51,8.32-5.02,12.39-7.54
				c1.27,2.68,1.3,5.78,0.08,8.48L88.73,81.46"/>
		</g>
	</g>
</g>
</svg>
