<?xml version="1.0" encoding="utf-8"?>
<!-- Generator: Adobe Illustrator 26.0.0, SVG Export Plug-In . SVG Version: 6.00 Build 0)  -->
<svg version="1.1" id="Layer_1" xmlns="http://www.w3.org/2000/svg" xmlns:xlink="http://www.w3.org/1999/xlink" x="0px" y="0px"
	 preserveAspectRatio="none" viewBox="0 0 1400 766" style="enable-background:new 0 0 1400 766;" xml:space="preserve">
<style type="text/css">
	.st0{fill:#D81330;}
	.st1{clip-path:url(#SVGID_00000040556577473827125080000001861873243425591459_);}
	.st2{fill:#F9C626;}
	.st3{fill:#FFFFFF;}
	.st4{fill:none;stroke:#FFFFFF;stroke-width:0.925;stroke-miterlimit:10;}
	.st5{fill:#494949;}
	.st6{fill:none;stroke:#FFFFFF;stroke-width:0.308;stroke-miterlimit:10;}
	.st7{fill:none;stroke:#FFFFFF;stroke-width:0.617;stroke-miterlimit:10;}
	.st8{fill:none;stroke:#FFFFFF;stroke-miterlimit:10;}
	.st9{fill:none;stroke:#000000;stroke-miterlimit:10;}
	.st10{fill:none;stroke:#FFFFFF;stroke-width:0.5;stroke-miterlimit:10;}
	.st11{fill:none;stroke:#000000;stroke-width:0.75;stroke-miterlimit:10;}
	.st12{font-family:'CenturyGothic';}
	.st13{font-size:33px;}
	.st14{clip-path:url(#SVGID_00000167373138553193952310000013749772304434383009_);}
	.st15{fill:#B9002D;}
</style>
<path id="Path_3678" d="M3717.45-220.6h1400v6133.8h-1400V-220.6z"/>
<rect y="0" width="1400" height="766"/>
<path id="Path_31" class="st0" d="M0,766L1400,0v766H0z"/>
<g id="Group_1283" transform="translate(215.217 131.29)">
	<g id="Group_1280">
		<g>
			<defs>
				<rect id="SVGID_1_" x="0" y="0" width="945.32" height="390.17"/>
			</defs>
			<clipPath id="SVGID_00000147940986607129861250000005332890481383680942_">
				<use xlink:href="#SVGID_1_"  style="overflow:visible;"/>
			</clipPath>
			<g id="Group_1279" style="clip-path:url(#SVGID_00000147940986607129861250000005332890481383680942_);">
				<path id="Path_4092" class="st2" d="M647.61,184.05l-225.1,94.91l7.33-43.99l-125.56,53.46c-1.22-15.89-2.44-31.77-3.67-47.66
					L0,390.17l285.95-116.4l-1.83,36.66l120.98-47.05l-11.94,59.13c46.26-22.41,93.96-47.09,143.11-74.03
					C575.09,227.08,612.21,205.61,647.61,184.05"/>
				<path id="Path_4093" class="st3" d="M812.96,35.46v6.2c0,0-3.35,26.66-19.85,35.47l1.08,2.07l18.77-9.74v26l-3.9,2.84h-65.85
					V63.74c2.45,0.38,4.3,0.92,5.18,1.64l0.23,0.92l0.49-0.12l17.97-4.27c-0.24-1.12-3.73-18.95,0.97-25.81
					c0.16-0.23,0.31-0.44,0.48-0.65H812.96z"/>
				<path id="Path_4094" d="M668.18,139.25l6.84-4.12l43.94,38.16l-7.17,7.11l-32.29-25.74l-4.93-3.43L668.18,139.25z"/>
				<path id="Path_4095" class="st4" d="M668.18,139.25l6.84-4.12l43.94,38.16l-7.17,7.11l-32.29-25.74l-4.93-3.43L668.18,139.25z"
					/>
				<path id="Path_4096" class="st5" d="M686.87,160.54l8.29-7.92l12.11,10.52l-6.67,8.35L686.87,160.54"/>
				<path id="Path_4097" class="st6" d="M686.87,160.54l8.29-7.92l12.11,10.52l-6.67,8.35L686.87,160.54z"/>
				<path id="Path_4098" class="st0" d="M674.57,151.24l9.4-8.33l11.14,9.47l-8.52,8.18l-11.48-8.93"/>
				<path id="Path_4099" class="st6" d="M674.57,151.24l9.4-8.33l11.14,9.47l-8.52,8.18l-11.48-8.93"/>
				<path id="Path_4100" class="st0" d="M700.62,171.75c2.3-2.88,4.61-5.76,6.91-8.64l11.65,10.21c-2.5,2.39-5,4.78-7.5,7.17
					L700.62,171.75"/>
				<path id="Path_4101" class="st7" d="M700.62,171.75c2.3-2.88,4.61-5.76,6.91-8.64l11.65,10.21c-2.5,2.39-5,4.78-7.5,7.17
					L700.62,171.75z"/>
				<path id="Path_4102" d="M667.34,139.46l6.36,12.67l37.58,29.54l-41.9,32.38l-28.92,5.7l-234.42,96.34l222.4-121.38l-165.38,66.8
					l77.8-60.29l22.4-4.48L667.34,139.46z"/>
				<path id="Path_4103" class="st8" d="M667.34,139.46l6.36,12.67l37.58,29.54l-41.9,32.38l-28.92,5.7l-234.42,96.34l222.4-121.38
					l-165.38,66.8l77.8-60.29l22.4-4.48L667.34,139.46z"/>
				<path id="Path_4104" d="M940.67,2.65l-127.71,92.8l-3.9,2.84l-13.01,9.45l-9.57,21.59l-66.18,43.9l-35.02-30.62l-9.18-8.03
					l14.81-12.53l6.37-15.42L559,172.04l-0.35,0.17l88.96-70.37h10.55l42.66-38.29c0,0,0.2-0.02,0.59-0.06c0,0,0.05,0,0.16-0.01
					c0.08,0,0.19-0.01,0.32-0.02c0.01,0.01,0.03,0.01,0.05,0c0.07,0,0.16-0.01,0.25-0.01c4.82-0.42,21.47-1.63,34.6-0.36
					c2.27,0.22,4.44,0.51,6.41,0.9c1.76,0.32,3.5,0.79,5.18,1.4l0.23,0.92l4.06,16.39l25.28,15.59l0.79,0.49l0.81-0.49l10.59-6.43
					l1.22-11.21l2.81-1.46l18.77-9.74l21.18-11l4.28-12.01L940.67,2.65z"/>
				<path id="Path_4105" class="st8" d="M940.67,2.65l-127.71,92.8l-3.9,2.84l-13.01,9.45l-9.57,21.59l-66.18,43.9l-35.02-30.62
					l-9.18-8.03l14.81-12.53l6.37-15.42L559,172.04l-0.35,0.17l88.96-70.37h10.55l42.66-38.29c0,0,0.2-0.02,0.59-0.06
					c0,0,0.05,0,0.16-0.01c0.08,0,0.19-0.01,0.32-0.02c0.01,0.01,0.03,0.01,0.05,0c0.07,0,0.16-0.01,0.25-0.01
					c4.82-0.42,21.47-1.63,34.6-0.36c2.27,0.22,4.44,0.51,6.41,0.9c1.76,0.32,3.5,0.79,5.18,1.4l0.23,0.92l4.06,16.39l25.28,15.59
					l0.79,0.49l0.81-0.49l10.59-6.43l1.22-11.21l2.81-1.46l18.77-9.74l21.18-11l4.28-12.01L940.67,2.65z"/>
				<path id="Path_4106" d="M822.89,32.88c-0.17,0.27-0.43,0.67-0.77,1.14c-0.29,0.38-3.51,6.37-9.17,7.04l-0.3,0.04
					c-5.67,0.41-11.35-0.64-16.5-3.05c0,0-8.03-2.24-10.91-2.24c-0.65,0-1.03,0.12-1.01,0.4c0.16,1.53-1.99,11.15-1.99,11.15
					l-3.86,2.5c0.34-1.44,0.18-2.95-0.45-4.29c-1.08-1.97-4.89-0.86-5.5,1.69s1.42,9.37,1.42,9.37c-0.89,1.76-1.76,3.53-2.64,5.29
					l-22.1,4.27l17.97-4.27c-0.24-1.12-3.73-18.95,0.97-25.81c0.16-0.23,0.31-0.44,0.48-0.65c4.52-5.7,10.83-2,10.83-2
					c0.36-2.44,1.26-4.77,2.64-6.81c1.12-1.63,3.17-4.62,6.4-4.92c0.6-0.05,1.21-0.02,1.79,0.11c0.46,0.17,1.27,0.44,2.27,0.83
					c12.1,4.51,14.38,8.52,22.46,10.14c0.52,0.11,1.03,0.18,1.03,0.18C818.26,33.31,820.6,33.28,822.89,32.88"/>
				<path id="Path_4107" class="st8" d="M822.89,32.88c-0.17,0.27-0.43,0.67-0.77,1.14c-0.29,0.38-3.51,6.37-9.17,7.04l-0.3,0.04
					c-5.67,0.41-11.35-0.64-16.5-3.05c0,0-8.03-2.24-10.91-2.24c-0.65,0-1.03,0.12-1.01,0.4c0.16,1.53-1.99,11.15-1.99,11.15
					l-3.86,2.5c0.34-1.44,0.18-2.95-0.45-4.29c-1.08-1.97-4.89-0.86-5.5,1.69s1.42,9.37,1.42,9.37c-0.89,1.76-1.76,3.53-2.64,5.29
					l-22.1,4.27l17.97-4.27c-0.24-1.12-3.73-18.95,0.97-25.81c0.16-0.23,0.31-0.44,0.48-0.65c4.52-5.7,10.83-2,10.83-2
					c0.36-2.44,1.26-4.77,2.64-6.81c1.12-1.63,3.17-4.62,6.4-4.92c0.6-0.05,1.21-0.02,1.79,0.11c0.46,0.17,1.27,0.44,2.27,0.83
					c12.1,4.51,14.38,8.52,22.46,10.14c0.52,0.11,1.03,0.18,1.03,0.18C818.26,33.31,820.6,33.28,822.89,32.88z"/>
				<path id="Path_4108" class="st9" d="M781.6,62.63c0.81,5.1,9.87,15.28,9.87,15.28c0.56-0.25,1.1-0.51,1.64-0.79
					c16.5-8.81,19.85-35.47,19.85-35.47l0.08-1.58"/>
				<path id="Path_4109" class="st0" d="M776.88,98.29l1.5,0.92l-17.53,9.72l-28.33,15.68l-25.63,14.19l-8.09-6.81l-13.53,10.63
					l-0.22,0.17l-8.96-8.2l14.81-12.53l6.37-15.42L559,172.04l88.62-70.2h10.55l43.24-38.35c0,0,0.05,0,0.16-0.01
					c0.08,0,0.19-0.01,0.32-0.02c0.01,0.01,0.03,0.01,0.05,0c3.39-0.19,22.08-1.19,34.85-0.37c2.39,0.14,4.58,0.36,6.41,0.66
					c2.45,0.38,4.3,0.92,5.18,1.64l4.01,17.79L776.88,98.29z"/>
				<path id="Path_4110" class="st8" d="M776.88,98.29l1.5,0.92l-17.53,9.72l-28.33,15.68l-25.63,14.19l-8.09-6.81l-13.53,10.63
					l-0.22,0.17l-8.96-8.2l14.81-12.53l6.37-15.42L559,172.04l88.62-70.2h10.55l43.24-38.35c0,0,0.05,0,0.16-0.01
					c0.08,0,0.19-0.01,0.32-0.02c0.01,0.01,0.03,0.01,0.05,0c3.39-0.19,22.08-1.19,34.85-0.37c2.39,0.14,4.58,0.36,6.41,0.66
					c2.45,0.38,4.3,0.92,5.18,1.64l4.01,17.79L776.88,98.29z"/>
				<path id="Path_4111" class="st0" d="M778.38,99.21l1.58-0.86l-1.52,0.9L778.38,99.21z"/>
				<path id="Path_4112" class="st10" d="M778.38,99.21l1.58-0.86l-1.52,0.9L778.38,99.21z"/>
				<path id="Path_4113" class="st0" d="M940.66,2.65L812.96,79.12l-21,12.58l-11.91,6.59l10.35-6.17l1.33-11.26l21.23-10.94
					l21.24-10.95l4.66-12.15L940.66,2.65z"/>
				<path id="Path_4114" class="st8" d="M940.66,2.65L812.96,79.12l-21,12.58l-11.91,6.59l10.35-6.17l1.33-11.26l21.23-10.94
					l21.24-10.95l4.66-12.15L940.66,2.65z"/>
				<path id="Path_4115" class="st0" d="M673.31,152.07l-6.15-11.99l-103.82,56.98l-22.37,4.47l-75.9,58.9l41.43-16.82
					L673.31,152.07"/>
				<path id="Path_4116" class="st8" d="M673.31,152.07l-6.15-11.99l-103.82,56.98l-22.37,4.47l-75.9,58.9l41.43-16.82
					L673.31,152.07z"/>
				<path id="Path_4117" class="st11" d="M793.46,77.57c0.22,0.44,0.45,0.88,0.67,1.32"/>
				<path id="Path_4118" class="st11" d="M748.8,65.8l18.28-3.89"/>
				<path id="Path_4119" class="st2" d="M729.56,102.96l11.81-3.36l26.38,12.63l3.46,14.97l-37.27,7.74L729.56,102.96z"/>
				<path id="Path_4120" class="st8" d="M729.56,102.96l11.81-3.36l26.38,12.63l3.46,14.97l-37.27,7.74L729.56,102.96z"/>
			</g>
		</g>
	</g>
	<text transform="matrix(0.8839 0.4678 -0.4678 0.8839 733.7831 127.7089)" class="st0 st12 st13">P</text>
	<g id="Group_1282">
		<g>
			<defs>
				<rect id="SVGID_00000091727760390754360940000008170948624565747609_" x="0" y="0" width="945.32" height="390.17"/>
			</defs>
			<clipPath id="SVGID_00000074426049709766469830000003790025672910929846_">
				<use xlink:href="#SVGID_00000091727760390754360940000008170948624565747609_"  style="overflow:visible;"/>
			</clipPath>
			<g id="Group_1281" style="clip-path:url(#SVGID_00000074426049709766469830000003790025672910929846_);">
				<path id="Path_4121" class="st15" d="M748.8,69.66l-44.3,2.14l-40.02,34.83c-33.66,20.87-67.31,41.75-100.97,62.63l84.27-66.8
					l10.63,0.05l43.27-38.34c0,0,42.58-2.29,46.17,1.64L748.8,69.66z"/>
				<path id="Path_4122" class="st15" d="M701.96,102.24l-4.89,22.4l-17.36,12.42l-2.62-2.47l14.36-12.17
					c2.32-5.68,4.65-11.35,6.98-17.03l-134.84,63.81l138.99-68.85L701.96,102.24"/>
				<path id="Path_4123" class="st15" d="M667.98,143.02l-102.27,57.22l-24.24,4.85l-62.44,49.01l-10.18,4.1l72.39-56.13l22.3-4.44
					l103.37-56.75L667.98,143.02"/>
				<path id="Path_4124" class="st15" d="M792.11,83.52l45.18-23.44l3.46-11.2l76.22-32.92l14.59-8.78l-92.18,40.17l-4.63,12.07
					l-42.38,21.84L792.11,83.52z"/>
			</g>
		</g>
	</g>
</g>
</svg>
