<?xml version="1.0" encoding="utf-8"?>
<!-- Generator: Adobe Illustrator 26.0.0, SVG Export Plug-In . SVG Version: 6.00 Build 0)  -->
<svg version="1.1" id="Layer_1" xmlns="http://www.w3.org/2000/svg" xmlns:xlink="http://www.w3.org/1999/xlink" x="0px" y="0px"
	 preserveAspectRatio="none"  viewBox="0 0 414 733" style="enable-background:new 0 0 414 733;" xml:space="preserve">
<style type="text/css">
	.st0{fill:#1D1D1B;}
	.st1{fill:#D81330;}
	.st2{fill:#F9C626;}
	.st3{fill:#FFFFFF;}
	.st4{stroke:#FFFFFF;stroke-width:0.9251;stroke-miterlimit:10;}
	.st5{fill:#494949;stroke:#FFFFFF;stroke-width:0.3084;stroke-miterlimit:10;}
	.st6{fill:#D81330;stroke:#FFFFFF;stroke-width:0.3084;stroke-miterlimit:10;}
	.st7{fill:#D81330;stroke:#FFFFFF;stroke-width:0.6167;stroke-miterlimit:10;}
	.st8{stroke:#FFFFFF;stroke-miterlimit:10;}
	.st9{fill:none;stroke:#000000;stroke-miterlimit:10;}
	.st10{fill:#D81330;stroke:#FFFFFF;stroke-miterlimit:10;}
	.st11{fill:#D81330;stroke:#FFFFFF;stroke-width:0.5;stroke-miterlimit:10;}
	.st12{fill:none;stroke:#000000;stroke-width:0.75;stroke-miterlimit:10;}
	.st13{fill:#F9C626;stroke:#FFFFFF;stroke-miterlimit:10;}
	.st14{display:none;}
	.st15{display:inline;}
	.st16{fill:none;stroke:#D81330;stroke-width:3;stroke-miterlimit:10;}
	.st17{fill:none;stroke:#1D1D1B;stroke-width:3;stroke-miterlimit:10;}
	.st18{fill:#AA0029;}
	.st19{clip-path:url(#SVGID_00000165201895439092924760000004695102667011178163_);}
	.st20{fill:none;stroke:#FFFFFF;stroke-width:0.925;stroke-miterlimit:10;}
	.st21{fill:#494949;}
	.st22{fill:none;stroke:#FFFFFF;stroke-width:0.308;stroke-miterlimit:10;}
	.st23{fill:none;stroke:#FFFFFF;stroke-width:0.617;stroke-miterlimit:10;}
	.st24{fill:none;stroke:#FFFFFF;stroke-miterlimit:10;}
	.st25{fill:none;stroke:#FFFFFF;stroke-width:0.5;stroke-miterlimit:10;}
	.st26{clip-path:url(#SVGID_00000085966210591337075530000011614078643729933233_);}
	.st27{fill:#B9002D;}
	.st28{clip-path:url(#SVGID_00000034055773333053958870000008823000269419658369_);}
	.st29{fill:none;stroke:#FFFFFF;stroke-width:1.5;stroke-miterlimit:10;}
	.st30{fill:none;stroke:#FFFFFF;stroke-width:1.5;stroke-linecap:round;stroke-miterlimit:10;}
	.st31{fill:#141414;}
	.st32{fill:none;stroke:#FFFFFF;stroke-width:1.204;stroke-miterlimit:10;}
	.st33{clip-path:url(#SVGID_00000151524753480231858190000010186677481064792209_);}
	.st34{clip-path:url(#SVGID_00000073713824441973390780000010268590893805205166_);}
	.st35{opacity:0.49;}
	.st36{clip-path:url(#SVGID_00000083064293430461890790000015499882099581320347_);}
	.st37{clip-path:url(#SVGID_00000132790869822961035480000003577643824173313725_);}
	.st38{clip-path:url(#SVGID_00000149362642311246541280000016951563160712822160_);}
	.st39{clip-path:url(#SVGID_00000091697491170953105970000011592235334092402853_);}
	.st40{fill:none;}
	.st41{fill:none;stroke:#000000;stroke-width:2;stroke-miterlimit:10;}
	.st42{clip-path:url(#SVGID_00000117658964718937904690000016610220295052260229_);}
	.st43{fill:#444444;}
	.st44{clip-path:url(#SVGID_00000111160245256938026270000005957308746355537052_);}
	.st45{fill:none;stroke:#FFFFFF;stroke-width:0.7784;stroke-miterlimit:10;}
	.st46{fill:none;stroke:#FFFFFF;stroke-width:0.7784;stroke-linecap:round;stroke-miterlimit:10;}
	.st47{fill:none;stroke:#FFFFFF;stroke-width:0.4688;stroke-miterlimit:10;}
	.st48{fill:#FFFFFF;stroke:#000000;stroke-width:0.4667;stroke-miterlimit:10;}
	.st49{fill:none;stroke:#FFFFFF;stroke-width:0.3439;stroke-miterlimit:10;}
	.st50{fill:#D81330;stroke:#FFFFFF;stroke-width:0.5158;stroke-miterlimit:10;}
	.st51{fill:#1D1D1B;stroke:#FFFFFF;stroke-width:0.3439;stroke-miterlimit:10;}
	.st52{fill:#F9C626;stroke:#FFFFFF;stroke-width:0.5158;stroke-miterlimit:10;}
	.st53{fill:none;stroke:#000000;stroke-width:0.3439;stroke-miterlimit:10;}
	.st54{stroke:#FFFFFF;stroke-width:0.3439;stroke-miterlimit:10;}
	.st55{fill:#444444;stroke:#FFFFFF;stroke-width:0.1719;stroke-miterlimit:10;}
	.st56{stroke:#FFFFFF;stroke-width:0.1719;stroke-miterlimit:10;}
	.st57{fill:#D81330;stroke:#FFFFFF;stroke-width:0.1719;stroke-miterlimit:10;}
	.st58{stroke:#FFFFFF;stroke-width:0.5158;stroke-miterlimit:10;}
	.st59{clip-path:url(#SVGID_00000018956141285158399380000006542691418960258462_);}
	.st60{display:inline;fill:#D81330;}
	.st61{font-family:'CenturyGothic';}
	.st62{font-size:20px;}
	.st63{clip-path:url(#SVGID_00000022551036375801153330000009116975911314743684_);}
	.st64{stroke:#FFFFFF;stroke-width:0.6516;stroke-miterlimit:10;}
	.st65{fill:#494949;stroke:#FFFFFF;stroke-width:0.2172;stroke-miterlimit:10;}
	.st66{fill:#D81330;stroke:#FFFFFF;stroke-width:0.2172;stroke-miterlimit:10;}
	.st67{fill:#D81330;stroke:#FFFFFF;stroke-width:0.4344;stroke-miterlimit:10;}
	.st68{stroke:#FFFFFF;stroke-width:0.7044;stroke-miterlimit:10;}
	.st69{fill:none;stroke:#000000;stroke-width:0.7044;stroke-miterlimit:10;}
	.st70{fill:#D81330;stroke:#FFFFFF;stroke-width:0.7044;stroke-miterlimit:10;}
	.st71{fill:#D81330;stroke:#FFFFFF;stroke-width:0.3522;stroke-miterlimit:10;}
	.st72{fill:none;stroke:#000000;stroke-width:0.5283;stroke-miterlimit:10;}
	.st73{fill:#F9C626;stroke:#FFFFFF;stroke-width:0.7044;stroke-miterlimit:10;}
	.st74{font-size:19.0115px;}
</style>
<rect id="Rectangle_759_00000002377312224785001620000012963669784179244435_" x="0.31" width="414" height="733"/>
<path id="Path_4130_00000062194081529623256450000017048060459911056819_" class="st1" d="M414.31,0l-414,733h414V0z"/>
<g class="st14">
	<g class="st15">
		<defs>
			
				<rect id="SVGID_00000039848994124369216950000006407106173249728942_" x="-98.68" y="259.98" transform="matrix(0.8572 -0.515 0.515 0.8572 -166.4152 137.9276)" width="528.3" height="218.05"/>
		</defs>
		<clipPath id="SVGID_00000094589858032845585290000011351969542324241545_">
			<use xlink:href="#SVGID_00000039848994124369216950000006407106173249728942_"  style="overflow:visible;"/>
		</clipPath>
		
			<g id="Group_1279_00000040556306429295273620000015186989390901983376_" style="clip-path:url(#SVGID_00000094589858032845585290000011351969542324241545_);">
			<path id="Path_4092_00000159450562894951043330000002408865453793440409_" class="st2" d="M246.1,313.36l-80.51,110.26
				l-9.15-23.19l-44.76,61.75c-5.16-7.26-10.32-14.52-15.48-21.77L-4.8,598.5L98.67,460.44l9.67,18.09l44.41-57.36l11.3,31.76
				c15.71-24.05,31.46-49.6,47.25-76.66C223.75,354.85,235.35,333.87,246.1,313.36"/>
			<path id="Path_4093_00000154393124899054450280000012568947299852501914_" class="st3" d="M282.54,194.58l1.79,2.97
				c0,0,6.07,13.74,0.7,22.7l1.11,0.68l6.19-10.07l7.48,12.45l-1.05,2.48l-31.54,18.95l-9.94-16.55c0.92-0.46,1.93-0.7,2.96-0.71
				l0.37,0.38l0.2-0.2l7.38-7.22c-0.44-0.47-7.24-8-6.96-12.64c0.01-0.15,0.02-0.3,0.04-0.45L282.54,194.58z"/>
			<path id="Path_4094_00000034047688524502575620000007997076623483649723_" d="M243.06,285.98l2.09-3.94l32.03,5.63l-1.39,5.47
				l-22.88-3.04l-3.35-0.23L243.06,285.98z"/>
			<path id="Path_4095_00000183220121281068214710000014138995306803068041_" class="st20" d="M243.06,285.98l2.09-3.94l32.03,5.63
				l-1.39,5.47l-22.88-3.04l-3.35-0.23L243.06,285.98z"/>
			<path id="Path_4096_00000175280417643668860800000008392582711936468637_" class="st21" d="M258.14,290.8l1.69-6.18l8.83,1.55
				l-0.8,5.92L258.14,290.8"/>
			<path id="Path_4097_00000158010842467988327940000012123666716388595380_" class="st22" d="M258.14,290.8l1.69-6.18l8.83,1.55
				l-0.8,5.92L258.14,290.8z"/>
			<path id="Path_4098_00000075856699842595677890000016228936448391999108_" class="st1" d="M249.57,289.88l2.11-6.7l8.06,1.33
				l-1.73,6.37l-8.07-0.97"/>
			<path id="Path_4099_00000060730195306986921240000000996814869589324958_" class="st22" d="M249.57,289.88l2.11-6.7l8.06,1.33
				l-1.73,6.37l-8.07-0.97"/>
			<path id="Path_4100_00000106120707275475410170000012471773482573773218_" class="st1" d="M267.95,292.21l0.82-6.13l8.52,1.53
				l-1.53,5.59L267.95,292.21"/>
			<path id="Path_4101_00000015339363401177720660000004745741064385087632_" class="st23" d="M267.95,292.21l0.82-6.13l8.52,1.53
				l-1.53,5.59L267.95,292.21z"/>
			<path id="Path_4102_00000127003062792486992440000012791620093642584200_" d="M242.72,286.32l6.7,4.24l26.5,3.34l-10.75,27.58
				l-12.21,11.06l-84.57,113.62l71.6-122.16l-59.99,79.6l19.92-51.27l9.44-8.59L242.72,286.32z"/>
			<path id="Path_4103_00000013162910590871285620000018397952598997666456_" class="st24" d="M242.72,286.32l6.7,4.24l26.5,3.34
				l-10.75,27.58l-12.21,11.06l-84.57,113.62l71.6-122.16l-59.99,79.6l19.92-51.27l9.44-8.59L242.72,286.32z"/>
			<path id="Path_4104_00000083811466268357214870000009514537060663484095_" d="M334.27,142.11l-34.46,81.22l-1.05,2.48l-3.51,8.27
				l1.63,13.09l-19.07,40.08l-25.59-4.59l-6.71-1.2L249,271.2l-1.39-9.22l-47.41,71.14l-0.12,0.18l22.36-59.32l5.06-3.04l9.41-30.62
				c0,0,0.09-0.07,0.26-0.2c0,0,0.02-0.01,0.07-0.05c0.05-0.04,0.09-0.06,0.15-0.1c0.01,0,0.02,0,0.02-0.01
				c0.03-0.02,0.07-0.05,0.12-0.08c5.21-3.81,10.72-7.2,16.47-10.13c1.15-0.55,2.27-1.03,3.33-1.42c0.94-0.35,1.9-0.63,2.89-0.82
				l0.37,0.38l6.66,6.68l16.6,0.19l0.52,0.01l0.25-0.47l3.22-6.13l-2.64-5.72l0.93-1.51l6.19-10.07l6.98-11.36l-1.41-6.99
				L334.27,142.11z"/>
			<path id="Path_4105_00000039112415665822308460000010277391294802038925_" class="st24" d="M334.27,142.11l-34.46,81.22
				l-1.05,2.48l-3.51,8.27l1.63,13.09l-19.07,40.08l-25.59-4.59l-6.71-1.2L249,271.2l-1.39-9.22l-47.41,71.14l-0.12,0.18
				l22.36-59.32l5.06-3.04l9.41-30.62c0,0,0.09-0.07,0.26-0.2c0,0,0.02-0.01,0.07-0.05c0.05-0.04,0.09-0.06,0.15-0.1
				c0.01,0,0.02,0,0.02-0.01c0.03-0.02,0.07-0.05,0.12-0.08c5.21-3.81,10.72-7.2,16.47-10.13c1.15-0.55,2.27-1.03,3.33-1.42
				c0.94-0.35,1.9-0.63,2.89-0.82l0.37,0.38l6.66,6.68l16.6,0.19l0.52,0.01l0.25-0.47l3.22-6.13l-2.64-5.72l0.93-1.51l6.19-10.07
				l6.98-11.36l-1.41-6.99L334.27,142.11z"/>
			<path id="Path_4106_00000060720389963305960930000017201214585134855613_" d="M286.55,190.49c0,0.18-0.01,0.44-0.04,0.77
				c-0.03,0.27,0.15,4.06-2.37,6.01l-0.13,0.1c-2.6,1.83-5.62,2.96-8.78,3.29c-2.01,0.53-3.97,1.22-5.87,2.07
				c-0.31,0.19-0.46,0.35-0.37,0.48c0.86,1.93,1.62,3.9,2.26,5.91l-1.13,2.31c-0.25-0.79-0.76-1.46-1.45-1.92
				c-1.08-0.63-2.59,1-2.15,2.39c0.44,1.4,3.38,4.08,3.38,4.08c0.08,1.1,0.17,2.2,0.26,3.29l-9.36,8.41l7.38-7.22
				c-0.44-0.47-7.24-8-6.96-12.64c0.01-0.15,0.02-0.3,0.04-0.45c0.53-4.03,4.61-4.07,4.61-4.07c-0.53-1.27-0.76-2.64-0.69-4.02
				c0.07-1.1,0.19-3.12,1.65-4.2c0.27-0.2,0.57-0.35,0.89-0.46c0.27-0.05,0.73-0.15,1.33-0.26c7.09-1.32,9.34-0.06,13.68-1.61
				c0.28-0.1,0.54-0.21,0.54-0.21C284.46,192.04,285.57,191.35,286.55,190.49"/>
			<path id="Path_4107_00000171000242738004315160000017277473141034626469_" class="st24" d="M286.55,190.49
				c0,0.18-0.01,0.44-0.04,0.77c-0.03,0.27,0.15,4.06-2.37,6.01l-0.13,0.1c-2.6,1.83-5.62,2.96-8.78,3.29
				c-2.01,0.53-3.97,1.22-5.87,2.07c-0.31,0.19-0.46,0.35-0.37,0.48c0.86,1.93,1.62,3.9,2.26,5.91l-1.13,2.31
				c-0.25-0.79-0.76-1.46-1.45-1.92c-1.08-0.63-2.59,1-2.15,2.39c0.44,1.4,3.38,4.08,3.38,4.08c0.08,1.1,0.17,2.2,0.26,3.29
				l-9.36,8.41l7.38-7.22c-0.44-0.47-7.24-8-6.96-12.64c0.01-0.15,0.02-0.3,0.04-0.45c0.53-4.03,4.61-4.07,4.61-4.07
				c-0.53-1.27-0.76-2.64-0.69-4.02c0.07-1.1,0.19-3.12,1.65-4.2c0.27-0.2,0.57-0.35,0.89-0.46c0.27-0.05,0.73-0.15,1.33-0.26
				c7.09-1.32,9.34-0.06,13.68-1.61c0.28-0.1,0.54-0.21,0.54-0.21C284.46,192.04,285.57,191.35,286.55,190.49z"/>
			<path id="Path_4108_00000011015045555869596930000003693562490920340626_" class="st9" d="M275.34,216.63
				c1.86,2.21,9.13,4.48,9.13,4.48c0.2-0.28,0.38-0.56,0.56-0.85c5.37-8.97-0.7-22.7-0.7-22.7l-0.42-0.78"/>
			<path id="Path_4109_00000016795760294344879160000004883532832840619703_" class="st1" d="M283.34,235.07l0.98,0.01l-5.6,9.7
				l-9.06,15.66l-8.19,14.17l-5.83-0.93l-3.42,8.99l-0.05,0.14l-6.65-1.35L249,271.2l-1.39-9.22l-47.41,71.14l22.24-59.14l5.06-3.04
				l9.68-30.82c0,0,0.02-0.01,0.07-0.05c0.05-0.04,0.09-0.06,0.15-0.1c0.01,0,0.02,0,0.02-0.01c1.57-1.07,10.23-6.92,16.59-10.21
				c1.19-0.62,2.3-1.15,3.26-1.53c0.92-0.46,1.93-0.7,2.96-0.71l7.04,7.37L283.34,235.07z"/>
			<path id="Path_4110_00000181766884470562377450000000880138042286061470_" class="st24" d="M283.34,235.07l0.98,0.01l-5.6,9.7
				l-9.06,15.66l-8.19,14.17l-5.83-0.93l-3.42,8.99l-0.05,0.14l-6.65-1.35L249,271.2l-1.39-9.22l-47.41,71.14l22.24-59.14l5.06-3.04
				l9.68-30.82c0,0,0.02-0.01,0.07-0.05c0.05-0.04,0.09-0.06,0.15-0.1c0.01,0,0.02,0,0.02-0.01c1.57-1.07,10.23-6.92,16.59-10.21
				c1.19-0.62,2.3-1.15,3.26-1.53c0.92-0.46,1.93-0.7,2.96-0.71l7.04,7.37L283.34,235.07z"/>
			<path id="Path_4111_00000168103694010191285210000003520488906469174180_" class="st1" d="M284.32,235.08l0.51-0.87l-0.47,0.87
				L284.32,235.08z"/>
			<path id="Path_4112_00000160907542256086791990000016974021615508529334_" class="st25" d="M284.32,235.08l0.51-0.87l-0.47,0.87
				L284.32,235.08z"/>
			<path id="Path_4113_00000046304020145952803380000005163434956136549555_" class="st1" d="M334.27,142.11L295.1,215.5
				l-6.44,12.07l-3.81,6.59l3.18-5.94l-2.61-5.78l7.02-11.35l7.02-11.36l-1.27-7.16L334.27,142.11z"/>
			<path id="Path_4114_00000109720199311453069290000001054373043848225433_" class="st24" d="M334.27,142.11L295.1,215.5
				l-6.44,12.07l-3.81,6.59l3.18-5.94l-2.61-5.78l7.02-11.35l7.02-11.36l-1.27-7.16L334.27,142.11z"/>
			<path id="Path_4115_00000163765113134769734810000018395746056184563356_" class="st1" d="M249.2,290.64l-6.4-3.97l-33.33,57.17
				l-9.43,8.58l-19.41,50.06l15.01-19.98L249.2,290.64"/>
			<path id="Path_4116_00000090989552326741223020000003647049524933518515_" class="st24" d="M249.2,290.64l-6.4-3.97l-33.33,57.17
				l-9.43,8.58l-19.41,50.06l15.01-19.98L249.2,290.64z"/>
			<path id="Path_4117_00000153668483830484790490000013341244200277536702_" class="st12" d="M285.32,220.37l0.7,0.44"/>
			<path id="Path_4118_00000088843409263038335550000001358213470403727235_" class="st12" d="M260.53,227.59l7.64-7.12"/>
			<path id="Path_4119_00000043419912096446106910000011018021484678842530_" class="st2" d="M262.01,250.92l4.69-5.01l16.27-1.54
				l5.97,6.17l-15.63,14.43L262.01,250.92z"/>
			<path id="Path_4120_00000137837066300745057430000006010658283753695405_" class="st24" d="M262.01,250.92l4.69-5.01l16.27-1.54
				l5.97,6.17l-15.63,14.43L262.01,250.92z"/>
		</g>
	</g>
	<text transform="matrix(0.9985 -0.0543 0.0543 0.9985 271.3065 262.0009)" class="st60 st61 st62">P</text>
	<g class="st15">
		<defs>
			
				<rect id="SVGID_00000017484162524981165690000012618994647864369809_" x="-98.68" y="259.98" transform="matrix(0.8572 -0.515 0.515 0.8572 -166.4152 137.9276)" width="528.3" height="218.05"/>
		</defs>
		<clipPath id="SVGID_00000161606585722139396430000010844148293025751467_">
			<use xlink:href="#SVGID_00000017484162524981165690000012618994647864369809_"  style="overflow:visible;"/>
		</clipPath>
		
			<g id="Group_1281_00000032637925519124573060000011268898488642651295_" style="clip-path:url(#SVGID_00000161606585722139396430000010844148293025751467_);">
			<path id="Path_4121_00000177469678448078499120000017497591109222073780_" class="st27" d="M261.65,229.43l-20.6,13.77
				l-9.15,28.21l-30.34,59.06l21.14-56.26l5.11-3.03l9.69-30.82c0,0,19.74-13.36,22.59-12.5L261.65,229.43z"/>
			<path id="Path_4122_00000093879678705461391370000005653584623127430558_" class="st27" d="M248.59,258.53l4.1,12.14l-4.74,10.95
				l-1.97-0.43l3.38-9.96l-1.56-10.17l-46.23,69.38l46.76-72.99L248.59,258.53"/>
			<path id="Path_4123_00000061441913402509114730000010794897412890357673_" class="st27" d="M244.05,287.84l-32.52,56.85
				l-10.21,9.3l-15.81,41.45l-3.69,4.9l18.52-47.72l9.41-8.55l33.18-56.94L244.05,287.84"/>
			<path id="Path_4124_00000171719832959919346880000005821936462168612003_" class="st27" d="M286.39,223.61l14.9-24.24l-1.57-6.36
				l27.04-37.71l4.46-8.4l-32.6,45.78l1.25,7.11l-14.01,22.66L286.39,223.61z"/>
		</g>
	</g>
</g>
<g>
	<path class="st2" d="M245.74,318.04l-83.73,116.92l-9.86-24.33l-46.54,65.48c-5.5-7.59-11.01-15.19-16.51-22.78
		C54.14,509.16,19.19,565-15.76,620.83C20.12,572.02,56,523.21,91.89,474.4l10.37,18.96l46.22-60.85
		c4.07,11.12,8.14,22.23,12.21,33.35c16.31-25.49,32.73-52.55,49.01-81.2C222.6,361.96,234.59,339.72,245.74,318.04z"/>
	<path class="st3" d="M282.95,192.57l1.91,3.11c0,0,6.53,14.41,0.96,23.91l1.18,0.71l6.42-10.67l8,13.05l-1.08,2.62l-33.04,20.27
		l-10.63-17.33c1.35-0.56,2.44-0.86,3.1-0.77l0.4,0.39l0.21-0.21l7.7-7.68c-0.47-0.49-7.71-8.36-7.46-13.25
		c0.01-0.16,0.02-0.32,0.04-0.47L282.95,192.57z"/>
	<g>
		<g>
			<polygon class="st64" points="242.26,289.23 244.43,285.05 278.23,290.67 276.82,296.45 252.69,293.48 249.16,293.27 			"/>
			<path class="st65" d="M258.19,294.15c0.57-2.18,1.15-4.35,1.72-6.53c3.11,0.52,6.21,1.03,9.32,1.55l-0.78,6.24
				C265.03,295,261.61,294.57,258.19,294.15z"/>
		</g>
		<path class="st66" d="M249.16,293.27l2.15-7.08c2.83,0.44,5.67,0.88,8.5,1.32c-0.59,2.24-1.17,4.48-1.76,6.73
			c-2.84-0.32-5.67-0.63-8.51-0.95"/>
		<path class="st67" d="M268.55,295.54c0.27-2.15,0.54-4.31,0.81-6.46c3,0.51,5.99,1.02,8.99,1.53c-0.52,1.97-1.04,3.94-1.55,5.91
			C274.04,296.2,271.29,295.87,268.55,295.54z"/>
	</g>
	<polygon class="st68" points="241.9,289.59 249,293.99 276.95,297.24 265.89,326.39 253.14,338.16 165.17,458.66 239.39,329.29 
		176.98,413.72 197.46,359.52 207.32,350.37 	"/>
	<path class="st68" d="M336.93,136.79l-35.51,85.88l-1.08,2.62l-3.62,8.75l1.84,13.78l-19.69,42.4l-27-4.58l-7.08-1.2l3.58-10.85
		l-1.55-9.7l-49.24,75.39l-0.12,0.19l22.97-62.7l5.3-3.25l9.62-32.34c0,0,0.09-0.07,0.28-0.21c0,0,0.02-0.01,0.07-0.05
		c0.04-0.03,0.09-0.06,0.15-0.11c0.01,0,0.02-0.01,0.02-0.01c0.04-0.02,0.07-0.05,0.12-0.08c2.29-1.69,10.27-7.43,17.25-10.83
		c1.21-0.59,2.39-1.11,3.49-1.52c1.08-0.41,2.1-0.71,3.03-0.89l0.4,0.39l7.08,6.98l17.49,0.04l0.55,0l0.26-0.5l3.34-6.48l-2.84-6
		l0.96-1.6l6.42-10.67l7.24-12.04l-1.55-7.35L336.93,136.79z"/>
	<path class="st68" d="M287.14,188.22c0,0.19-0.01,0.47-0.03,0.81c-0.03,0.28,0.2,4.27-2.43,6.35c-0.04,0.04-0.09,0.07-0.14,0.11
		c-4.36,3.21-9.22,3.55-9.22,3.55s-4.72,1.35-6.16,2.24c-0.32,0.2-0.48,0.38-0.38,0.51c0.55,0.72,2.44,6.21,2.44,6.21l-1.17,2.44
		c0,0-0.4-1.34-1.55-2.01c-1.15-0.66-2.72,1.07-2.24,2.54c0.48,1.47,3.6,4.26,3.6,4.26c0.1,1.16,0.2,2.31,0.3,3.47
		c-3.26,2.98-6.51,5.96-9.77,8.95l7.7-7.68c-0.47-0.49-7.71-8.36-7.46-13.25c0.01-0.16,0.02-0.32,0.04-0.47
		c0.52-4.25,4.82-4.34,4.82-4.34c-0.43-1.03-0.85-2.48-0.77-4.23c0.06-1.16,0.17-3.29,1.7-4.44c0.35-0.26,0.7-0.41,0.93-0.5
		c0.28-0.06,0.77-0.17,1.39-0.29c7.46-1.46,9.84-0.15,14.39-1.83c0.29-0.1,0.57-0.23,0.57-0.23
		C285.27,189.73,286.4,188.88,287.14,188.22z"/>
	<path class="st69" d="M275.58,215.86c1.98,2.31,9.66,4.63,9.66,4.63c0.2-0.3,0.39-0.6,0.58-0.9c5.57-9.5-0.96-23.91-0.96-23.91
		l-0.45-0.82"/>
	<path class="st70" d="M284.19,235.21l1.03,0l-5.8,10.27l-9.39,16.58l-8.49,15.01l-6.15-0.93l-3.52,9.5l-0.06,0.15l-7.02-1.35
		l3.58-10.85l-1.55-9.7l-49.24,75.39l22.85-62.51l5.3-3.25l9.89-32.56c0,0,0.02-0.01,0.07-0.05c0.04-0.03,0.09-0.06,0.15-0.11
		c0.01,0,0.02-0.01,0.02-0.01c1.64-1.14,10.71-7.39,17.38-10.92c1.24-0.66,2.41-1.23,3.42-1.64c1.35-0.56,2.44-0.86,3.1-0.77
		l7.49,7.69L284.19,235.21z"/>
	<polygon class="st71" points="285.23,235.21 285.75,234.29 285.27,235.21 	"/>
	<polygon class="st70" points="336.93,136.79 296.39,214.48 289.73,227.26 285.78,234.23 289.08,227.94 286.28,221.89 
		293.56,209.86 300.85,197.83 299.44,190.3 	"/>
	<path class="st70" d="M248.78,294.08c-2.26-1.37-4.52-2.75-6.78-4.12c-11.52,20.18-23.03,40.37-34.55,60.55
		c-3.28,3.04-6.56,6.08-9.85,9.13c-6.65,17.64-13.3,35.28-19.95,52.92c5.2-7.06,10.41-14.13,15.61-21.19
		C211.77,358.93,230.27,326.5,248.78,294.08z"/>
	<path class="st72" d="M286.14,219.7c0.25,0.15,0.5,0.3,0.74,0.46"/>
	<path class="st72" d="M260.1,227.55c2.66-2.53,5.32-5.05,7.97-7.58"/>
	<polygon class="st73" points="261.89,252.12 266.78,246.79 283.9,245.01 290.25,251.46 273.93,266.81 	"/>
	<text transform="matrix(0.998 -0.0635 0.0635 0.998 272.2979 262.7695)" class="st1 st61 st74">P</text>
	<path class="st18" d="M261.29,229.48l-21.57,14.71l-9.36,29.8c-10.46,20.84-20.92,41.67-31.38,62.51
		c7.24-19.82,14.48-39.64,21.72-59.46l5.35-3.25l9.91-32.56c0,0,20.66-14.26,23.67-13.39L261.29,229.48z"/>
	<path class="st18" d="M247.82,260.26l4.44,12.75c-1.63,3.86-3.26,7.72-4.89,11.58c-0.69-0.14-1.38-0.29-2.08-0.43
		c1.15-3.51,2.31-7.02,3.46-10.53c-0.58-3.56-1.16-7.13-1.74-10.69c-16,24.51-32.01,49.02-48.01,73.53
		c16.18-25.78,32.36-51.56,48.54-77.34C247.64,259.5,247.73,259.88,247.82,260.26z"/>
	<path class="st18" d="M243.32,291.18c-11.23,20.07-22.47,40.13-33.7,60.2l-10.67,9.89c-5.41,14.6-10.83,29.21-16.24,43.81
		c-1.28,1.73-2.56,3.46-3.84,5.19c6.35-16.82,12.7-33.63,19.04-50.45c3.28-3.03,6.55-6.06,9.83-9.09
		c11.47-20.1,22.93-40.2,34.4-60.3C242.53,290.68,242.93,290.93,243.32,291.18z"/>
	<polygon class="st18" points="287.29,223.11 302.75,197.44 301.04,190.75 329.15,150.77 333.76,141.87 299.88,190.41 
		301.27,197.89 286.73,221.89 	"/>
</g>
</svg>
