<?xml version="1.0" encoding="utf-8"?>
<!-- Generator: Adobe Illustrator 26.0.0, SVG Export Plug-In . SVG Version: 6.00 Build 0)  -->
<svg version="1.1" id="Layer_1" xmlns="http://www.w3.org/2000/svg" xmlns:xlink="http://www.w3.org/1999/xlink" x="0px" y="0px"
	 viewBox="0 0 959.78 422.68" style="enable-background:new 0 0 959.78 422.68;" xml:space="preserve">
<style type="text/css" >
	.st0{clip-path:url(#SVGID_00000088105617558930085710000009174333310982740625_);}
	.st1{fill:#F9C626;}
	.st2{fill:#FFFFFF;}
	.st3{fill:none;stroke:#FFFFFF;stroke-width:0.925;stroke-miterlimit:10;}
	.st4{fill:#494949;}
	.st5{fill:none;stroke:#FFFFFF;stroke-width:0.308;stroke-miterlimit:10;}
	.st6{fill:#D81330;}
	.st7{fill:none;stroke:#FFFFFF;stroke-width:0.617;stroke-miterlimit:10;}
	.st8{fill:none;stroke:#FFFFFF;stroke-miterlimit:10;}
	.st9{fill:none;stroke:#000000;stroke-miterlimit:10;}
	.st10{fill:none;stroke:#FFFFFF;stroke-width:0.5;stroke-miterlimit:10;}
	.st11{fill:none;stroke:#000000;stroke-width:0.75;stroke-miterlimit:10;}
	.st12{font-family:'CenturyGothic';}
	.st13{font-size:33px;}
	.st14{clip-path:url(#SVGID_00000022522361890809628080000000874170199689055624_);}
	.st15{fill:#B9002D;}
</style>
<g id="Group_1280">
	<g>
		<defs>
			<rect id="SVGID_1_" x="14.45" y="14.71" width="945.32" height="390.17"/>
		</defs>
		<clipPath id="SVGID_00000157992014493643949940000010732433221414565301_">
			<use xlink:href="#SVGID_1_"  style="overflow:visible;"/>
		</clipPath>
		<g id="Group_1279" style="clip-path:url(#SVGID_00000157992014493643949940000010732433221414565301_);">
			<path id="Path_4092" class="st1" d="M662.06,198.77l-225.1,94.91l7.33-43.99l-125.56,53.46c-1.22-15.89-2.44-31.77-3.67-47.66
				L14.45,404.88l285.95-116.4l-1.83,36.66l120.98-47.05l-11.94,59.13c46.26-22.41,93.96-47.09,143.11-74.03
				C589.54,241.79,626.66,220.32,662.06,198.77"/>
			<path id="Path_4093" class="st2" d="M827.41,50.17v6.2c0,0-3.35,26.66-19.85,35.47l1.08,2.07l18.77-9.74v26l-3.9,2.84h-65.85
				V78.45c2.45,0.38,4.3,0.92,5.18,1.64l0.23,0.92l0.49-0.12l17.97-4.27c-0.24-1.12-3.73-18.95,0.97-25.81
				c0.16-0.23,0.31-0.44,0.48-0.65L827.41,50.17z"/>
			<path id="Path_4094" d="M682.63,153.97l6.84-4.12l43.94,38.16l-7.17,7.11l-32.29-25.74l-4.93-3.43L682.63,153.97z"/>
			<path id="Path_4095" class="st3" d="M682.63,153.97l6.84-4.12l43.94,38.16l-7.17,7.11l-32.29-25.74l-4.93-3.43L682.63,153.97z"/>
			<path id="Path_4096" class="st4" d="M701.32,175.25l8.29-7.92l12.11,10.52l-6.67,8.35L701.32,175.25"/>
			<path id="Path_4097" class="st5" d="M701.32,175.25l8.29-7.92l12.11,10.52l-6.67,8.35L701.32,175.25z"/>
			<path id="Path_4098" class="st6" d="M689.02,165.95l9.4-8.33l11.14,9.47l-8.52,8.18l-11.48-8.93"/>
			<path id="Path_4099" class="st5" d="M689.02,165.95l9.4-8.33l11.14,9.47l-8.52,8.18l-11.48-8.93"/>
			<path id="Path_4100" class="st6" d="M715.07,186.46c2.3-2.88,4.61-5.76,6.91-8.64l11.65,10.21c-2.5,2.39-5,4.78-7.5,7.17
				L715.07,186.46"/>
			<path id="Path_4101" class="st7" d="M715.07,186.46c2.3-2.88,4.61-5.76,6.91-8.64l11.65,10.21c-2.5,2.39-5,4.78-7.5,7.17
				L715.07,186.46z"/>
			<path id="Path_4102" d="M681.79,154.18l6.36,12.67l37.58,29.54l-41.9,32.38l-28.92,5.7l-234.42,96.34l222.4-121.38l-165.38,66.8
				l77.8-60.29l22.4-4.48L681.79,154.18z"/>
			<path id="Path_4103" class="st8" d="M681.79,154.18l6.36,12.67l37.58,29.54l-41.9,32.38l-28.92,5.7l-234.42,96.34l222.4-121.38
				l-165.38,66.8l77.8-60.29l22.4-4.48L681.79,154.18z"/>
			<path id="Path_4104" d="M955.12,17.36l-127.71,92.8l-3.9,2.84l-13.01,9.45l-9.57,21.59l-66.18,43.9l-35.02-30.62l-9.18-8.03
				l14.81-12.53l6.37-15.42l-138.27,65.42l-0.35,0.17l88.96-70.37h10.55l42.66-38.29c0,0,0.2-0.02,0.59-0.06c0,0,0.05,0,0.16-0.01
				c0.08,0,0.19-0.01,0.32-0.02c0.01,0.01,0.03,0.01,0.05,0c0.07,0,0.16-0.01,0.25-0.01c4.82-0.42,21.47-1.63,34.6-0.36
				c2.27,0.22,4.44,0.51,6.41,0.9c1.76,0.32,3.5,0.79,5.18,1.4l0.23,0.92l4.06,16.39L792.4,113l0.79,0.49L794,113l10.59-6.43
				l1.22-11.21l2.81-1.46l18.77-9.74l21.18-11l4.28-12.01L955.12,17.36z"/>
			<path id="Path_4105" class="st8" d="M955.12,17.36l-127.71,92.8l-3.9,2.84l-13.01,9.45l-9.57,21.59l-66.18,43.9l-35.02-30.62
				l-9.18-8.03l14.81-12.53l6.37-15.42l-138.27,65.42l-0.35,0.17l88.96-70.37h10.55l42.66-38.29c0,0,0.2-0.02,0.59-0.06
				c0,0,0.05,0,0.16-0.01c0.08,0,0.19-0.01,0.32-0.02c0.01,0.01,0.03,0.01,0.05,0c0.07,0,0.16-0.01,0.25-0.01
				c4.82-0.42,21.47-1.63,34.6-0.36c2.27,0.22,4.44,0.51,6.41,0.9c1.76,0.32,3.5,0.79,5.18,1.4l0.23,0.92l4.06,16.39L792.4,113
				l0.79,0.49L794,113l10.59-6.43l1.22-11.21l2.81-1.46l18.77-9.74l21.18-11l4.28-12.01L955.12,17.36z"/>
			<path id="Path_4106" d="M837.34,47.6c-0.17,0.28-0.43,0.67-0.77,1.14c-0.29,0.38-3.51,6.37-9.17,7.04l-0.3,0.04
				c-5.67,0.41-11.35-0.64-16.5-3.05c0,0-8.03-2.24-10.91-2.24c-0.65,0-1.03,0.12-1.01,0.4c0.16,1.53-1.99,11.15-1.99,11.15
				l-3.86,2.5c0.34-1.44,0.18-2.95-0.45-4.29c-1.08-1.97-4.89-0.86-5.5,1.69c-0.61,2.55,1.42,9.37,1.42,9.37
				c-0.89,1.76-1.76,3.53-2.64,5.29l-22.1,4.27l17.97-4.27c-0.24-1.12-3.73-18.95,0.97-25.81c0.16-0.23,0.31-0.44,0.48-0.65
				c4.52-5.7,10.83-2,10.83-2c0.36-2.44,1.26-4.77,2.64-6.81c1.12-1.63,3.17-4.62,6.4-4.92c0.6-0.05,1.21-0.02,1.79,0.11
				c0.46,0.17,1.27,0.44,2.27,0.83c12.1,4.51,14.38,8.52,22.46,10.13c0.52,0.11,1.03,0.18,1.03,0.18
				C832.71,48.02,835.05,47.99,837.34,47.6"/>
			<path id="Path_4107" class="st8" d="M837.34,47.6c-0.17,0.28-0.43,0.67-0.77,1.14c-0.29,0.38-3.51,6.37-9.17,7.04l-0.3,0.04
				c-5.67,0.41-11.35-0.64-16.5-3.05c0,0-8.03-2.24-10.91-2.24c-0.65,0-1.03,0.12-1.01,0.4c0.16,1.53-1.99,11.15-1.99,11.15
				l-3.86,2.5c0.34-1.44,0.18-2.95-0.45-4.29c-1.08-1.97-4.89-0.86-5.5,1.69c-0.61,2.55,1.42,9.37,1.42,9.37
				c-0.89,1.76-1.76,3.53-2.64,5.29l-22.1,4.27l17.97-4.27c-0.24-1.12-3.73-18.95,0.97-25.81c0.16-0.23,0.31-0.44,0.48-0.65
				c4.52-5.7,10.83-2,10.83-2c0.36-2.44,1.26-4.77,2.64-6.81c1.12-1.63,3.17-4.62,6.4-4.92c0.6-0.05,1.21-0.02,1.79,0.11
				c0.46,0.17,1.27,0.44,2.27,0.83c12.1,4.51,14.38,8.52,22.46,10.13c0.52,0.11,1.03,0.18,1.03,0.18
				C832.71,48.02,835.05,47.99,837.34,47.6z"/>
			<path id="Path_4108" class="st9" d="M796.05,77.34c0.81,5.1,9.87,15.28,9.87,15.28c0.56-0.25,1.1-0.51,1.64-0.79
				c16.5-8.81,19.85-35.47,19.85-35.47l0.08-1.58"/>
			<path id="Path_4109" class="st6" d="M791.33,113l1.5,0.92l-17.53,9.72l-28.33,15.68l-25.63,14.19l-8.09-6.81l-13.53,10.63
				l-0.22,0.17l-8.96-8.2l14.81-12.53l6.37-15.42l-138.27,65.41l88.62-70.2h10.55l43.24-38.35c0,0,0.05,0,0.16-0.01
				c0.08,0,0.19-0.01,0.32-0.02c0.01,0.01,0.03,0.01,0.05,0c3.39-0.19,22.08-1.19,34.85-0.37c2.39,0.14,4.58,0.36,6.41,0.66
				c2.45,0.38,4.3,0.92,5.18,1.64l4.01,17.79L791.33,113z"/>
			<path id="Path_4110" class="st8" d="M791.33,113l1.5,0.92l-17.53,9.72l-28.33,15.68l-25.63,14.19l-8.09-6.81l-13.53,10.63
				l-0.22,0.17l-8.96-8.2l14.81-12.53l6.37-15.42l-138.27,65.41l88.62-70.2h10.55l43.24-38.35c0,0,0.05,0,0.16-0.01
				c0.08,0,0.19-0.01,0.32-0.02c0.01,0.01,0.03,0.01,0.05,0c3.39-0.19,22.08-1.19,34.85-0.37c2.39,0.14,4.58,0.36,6.41,0.66
				c2.45,0.38,4.3,0.92,5.18,1.64l4.01,17.79L791.33,113z"/>
			<path id="Path_4111" class="st6" d="M792.83,113.92l1.58-0.86l-1.52,0.9L792.83,113.92z"/>
			<path id="Path_4112" class="st10" d="M792.83,113.92l1.58-0.86l-1.52,0.9L792.83,113.92z"/>
			<path id="Path_4113" class="st6" d="M955.12,17.36L827.41,93.83l-21,12.58L794.5,113l10.35-6.17l1.33-11.26l21.23-10.94
				l21.24-10.95l4.66-12.15L955.12,17.36z"/>
			<path id="Path_4114" class="st8" d="M955.12,17.36L827.41,93.83l-21,12.58L794.5,113l10.35-6.17l1.33-11.26l21.23-10.94
				l21.24-10.95l4.66-12.15L955.12,17.36z"/>
			<path id="Path_4115" class="st6" d="M687.76,166.78l-6.15-11.99l-103.82,56.98l-22.37,4.47l-75.9,58.9l41.43-16.82L687.76,166.78
				"/>
			<path id="Path_4116" class="st8" d="M687.76,166.78l-6.15-11.99l-103.82,56.98l-22.37,4.47l-75.9,58.9l41.43-16.82L687.76,166.78
				z"/>
			<path id="Path_4117" class="st11" d="M807.92,92.28c0.22,0.44,0.45,0.88,0.67,1.32"/>
			<path id="Path_4118" class="st11" d="M763.25,80.51l18.28-3.89"/>
			<path id="Path_4119" class="st1" d="M744.01,117.67l11.81-3.36l26.38,12.63l3.46,14.97l-37.27,7.74L744.01,117.67z"/>
			<path id="Path_4120" class="st8" d="M744.01,117.67l11.81-3.36l26.38,12.63l3.46,14.97l-37.27,7.74L744.01,117.67z"/>
		</g>
	</g>
</g>
<text  transform="matrix(0.8839 0.4678 -0.4678 0.8839 748.2343 142.4203)" class="st6 st12 st13">P</text>
<g id="Group_1282">
	<g>
		<defs>
			<rect id="SVGID_00000047026595202394542750000017065785286141330845_" x="14.45" y="14.71" width="945.32" height="390.17"/>
		</defs>
		<clipPath id="SVGID_00000047036377903744984690000013218751516801639568_">
			<use xlink:href="#SVGID_00000047026595202394542750000017065785286141330845_"  style="overflow:visible;"/>
		</clipPath>
		<g id="Group_1281" style="clip-path:url(#SVGID_00000047036377903744984690000013218751516801639568_);">
			<path id="Path_4121" class="st15" d="M763.26,84.37l-44.3,2.14l-40.02,34.83c-33.66,20.87-67.31,41.75-100.97,62.63l84.27-66.8
				l10.63,0.05l43.27-38.34c0,0,42.58-2.29,46.17,1.64L763.26,84.37z"/>
			<path id="Path_4122" class="st15" d="M716.41,116.95l-4.89,22.4l-17.36,12.42l-2.62-2.47l14.36-12.17
				c2.32-5.68,4.65-11.35,6.98-17.03l-134.84,63.81l138.99-68.85L716.41,116.95"/>
			<path id="Path_4123" class="st15" d="M682.43,157.73l-102.27,57.22l-24.24,4.85l-62.44,49.01l-10.18,4.1l72.39-56.13l22.3-4.44
				l103.37-56.75L682.43,157.73"/>
			<path id="Path_4124" class="st15" d="M806.57,98.23l45.18-23.44l3.46-11.2l76.22-32.92l14.59-8.78l-92.18,40.18l-4.63,12.07
				l-42.38,21.84L806.57,98.23z"/>
		</g>
	</g>
</g>
</svg>
