<?xml version="1.0" encoding="utf-8"?>
<!-- Generator: Adobe Illustrator 26.0.0, SVG Export Plug-In . SVG Version: 6.00 Build 0)  -->
<svg version="1.1" id="Layer_1" xmlns="http://www.w3.org/2000/svg" xmlns:xlink="http://www.w3.org/1999/xlink" x="0px" y="0px"
	 viewBox="0 0 736.85 713.87" enable-background="new 0 0 736.85 713.87" xml:space="preserve">
<g>
	<polygon fill="none" stroke="#FFFFFF" stroke-width="1.3631" stroke-miterlimit="10" points="345.64,208.98 340.15,212.21 
		340.15,277.3 345.64,280.32 	"/>
	<path stroke="#FFFFFF" stroke-width="1.2893" stroke-miterlimit="10" d="M645.34,677.42H370.19c-13.81,0-25-11.19-25-25v-550.3
		c0-13.81,11.19-25,25-25h275.15c13.81,0,25,11.19,25,25v550.3C670.34,666.22,659.15,677.42,645.34,677.42z"/>
	<path fill="#EFEFEF" d="M640.17,655.61H375.38c-13.81,0-25-11.19-25-25V123.98c0-13.81,11.19-25,25-25h264.79
		c13.81,0,25,11.19,25,25v506.63C665.17,644.41,653.98,655.61,640.17,655.61z"/>
	<circle fill="#FFFFFF" cx="621.34" cy="89.95" r="3.21"/>
	<circle fill="none" stroke="#FFFFFF" stroke-width="1.077" stroke-miterlimit="10" cx="606.47" cy="88.8" r="5.59"/>
</g>
<path fill="#FFFFFF" d="M526.72,515.08v109.41c-5.32-0.63-9.74-1.8-14.04-4.13c-0.2-0.11-0.41-0.22-0.6-0.35l-0.01,0.01
	c-2.53,11.67-5.07,23.34-7.6,35c-10.87,0-21.74,0-32.61,0c0.04-8.65,0.4-17.89,1.21-27.64c0.59-7.15,1.38-13.98,2.29-20.46
	l0.39-0.26c-14.79-22.96-8.69-69.19-8.69-69.19c-13.85-1.88-32.9-10.51-45.53-16.89v-5.5H526.72z"/>
<path fill="#FFFFFF" d="M629.87,290.75c0.43-0.34,0.73-0.51,0.84-0.57C630.61,290.26,630.32,290.45,629.87,290.75z"/>
<path fill="#FFFFFF" d="M664.88,240.87v101.11h-97.53v-27.63c4.93-1.9,12.29-3.99,21.72-4.25c0.63-0.02,1.26-0.03,1.91-0.03h0.35
	c0.01-0.06,0.01-0.1,0.02-0.14c3.88-5.42,7.75-10.83,11.63-16.25c0,0-0.05,0.56,1.85,3.77c1.89,3.21,5.08,1.94,5.08,1.94
	c6.63-1.18,13.4-4.7,17.36-7.03c1.1-0.65,1.98-1.21,2.58-1.6c-1.43,1.14-4.23,4.11-6.06,10.84c-2.41,8.81,1.1,16.89,1.53,17.82h0.01
	l0.33-0.06l0.13-0.02c-0.99-2.11-3.18-7.53-2.14-14.49c1.26-8.4,6.39-13.5,7.99-14.97c3.12-2.39,6.23-4.78,9.34-7.17
	c-3.53,2.49-8.15,5.63-12.57,8.29l-0.01,0.01c-1.87,1.14-3.71,2.18-5.42,3.06c-0.9,0.46-1.62,0.78-3.07,1.43
	c-10.02,4.52-12.19,3.76-13.1,3.25c-0.74-0.41-1.31-1.03-1.9-2c-0.09-0.14-0.17-0.28-0.24-0.43c-1.17-2.15-2.66-6.32-2.66-12.51
	c0-0.31,0-0.62,0.01-0.93c0.01-0.15,0.01-0.29,0.02-0.44c0.03-1.05,0.11-2.15,0.25-3.31c0.02-0.17,0.04-0.34,0.06-0.51
	c0.04-0.31,0.08-0.61,0.12-0.9c0.14-0.98,0.29-1.87,0.44-2.63c0.07-0.38,0.15-0.76,0.24-1.15c0-0.05,0.01-0.1,0.03-0.15
	c0.1-0.46,0.22-0.93,0.33-1.41c0.01-0.04,0.02-0.06,0.02-0.06c0.3-1.16,0.62-2.3,0.98-3.41c0.23-0.73,0.48-1.46,0.74-2.17
	c0.13-0.35,0.26-0.71,0.4-1.06c2.39-6.31,5.64-11.54,8.8-15.67c0.36-0.46,0.71-0.91,1.05-1.34c0.43-0.53,0.85-1.04,1.26-1.53
	c0.61-0.72,1.21-1.4,1.79-2.03c-1.08,0.58-2.19,1.25-3.32,2.03c-2.19,1.52-4.45,3.46-6.66,5.94c-0.05-2.4,0.25-7.11,2.78-12.21
	H664.88z"/>
<path fill="#FFFFFF" stroke="#000000" stroke-miterlimit="10" d="M590.98,310.07l-16.36,17.7l-7.27,7.86l-2,2.17l-27.01,29.22
	l-10.6,11.47l-2.61,2.82c-2.79,4.15-7.23,9.83-13.85,15.27c-1.96,1.61-7.74,6.18-17.87,10.72c-18.68,8.37-35.59,9.23-43.78,9.57
	c-8.41,0.35-20.15,0.05-33.95-2.84c7.29-5.55,14.58-11.09,21.86-16.64c6.23,0.29,15.29,0.07,25.75-2.6
	c5.21-1.33,19.62-5.17,33.17-16.49c1.78-1.49,0.63-0.66,23.44-24.33c6.7-6.94,6.13-6.36,7.85-8.14c3.92-4.06,7.83-8.12,11.74-12.18
	c0.02-0.02,0.05-0.05,0.09-0.09c0.25-0.25,0.53-0.52,0.82-0.8c12.5-12.21,24.57-17.44,24.57-17.44c0.72-0.31,1.52-0.64,2.39-0.97
	C572.61,312.32,580.63,310.08,590.98,310.07z"/>
<path fill="none" stroke="#000000" stroke-miterlimit="10" d="M630.71,290.18c-0.1,0.08-0.39,0.27-0.84,0.57
	C630.3,290.41,630.6,290.24,630.71,290.18z"/>
<path fill="#B70F2F" stroke="#000000" stroke-miterlimit="10" d="M467.28,537.15c-26-7.9-38.86-13.11-45.75-16.57
	c-0.9-0.45-13.59-6.85-13.6-6.85l0,0l0,0c-1.28-0.57-10.54-4.83-11.9-13.48c-0.2-1.28-0.27-2.92,0.09-4.86
	c2.39-1.26,6.99-3.2,12.7-2.62c1.57,0.16,2.98,0.49,4.19,0.88c2.26,0.34,18.13,11.66,18.13,11.66c5.35,3.99,9.49,7.44,12.21,9.78
	c3.08,2.65,5.08,4.51,14.46,13.25C458.63,529.09,466.53,536.45,467.28,537.15z"/>
<path fill="#B70F2F" stroke="#000000" stroke-miterlimit="10" d="M554.02,544.75c1.42,0.75,4.88,2.34,9.43,1.94
	c6.15-0.54,9.95-4.35,10.91-5.37c-2.08-0.71-4.43-1.7-6.9-3.08c-4.97-2.78-8.53-6.11-10.89-8.74
	C555.72,534.59,554.87,539.67,554.02,544.75z"/>
<path fill="#D81330" d="M621.02,320.07v72.32c-0.5,0.09-1.01,0.17-1.53,0.24c-1.61,0.22-3.28,0.36-5.02,0.38
	c-0.2,0.15-0.4,0.29-0.6,0.43h-86.13v-69.89c3.55,3.78,5.79,6.09,5.79,6.09c1.85,1.6,3.84,2.92,5.95,4.01
	c0.02-0.02,0.05-0.05,0.09-0.09c0.25-0.25,0.53-0.52,0.82-0.8c0.15-0.15,0.31-0.3,0.48-0.46c2.01-1.92,4.86-4.4,8.87-7.3
	c4.73-3.41,8.01-5.78,12.93-8.19c1.21-0.59,2.78-1.32,4.68-2.07c5.16-2.06,12.71-4.31,21.72-4.64c0.63-0.01,1.27-0.03,1.91-0.03
	h0.54c-0.12,0.79-0.39,3.04,0.17,5.31c0.01,0.02,0.02,0.05,0.02,0.07c0.61,2.35,2.11,4.69,5.57,5.42
	C602.71,322.02,614.59,320.85,621.02,320.07z"/>
<path stroke="#FFFFFF" stroke-miterlimit="10" d="M649.92,395.94c0,0,2.93,20.28,15.68,31.78c-0.97-0.28-36.96-11.16-24.75-43.65
	c0,0-7.94,6.27-19.83,8.32c-0.5,0.09-1.01,0.17-1.53,0.24c-1.61,0.22-3.28,0.36-5.02,0.38c-0.5,0.02-1.01,0.02-1.53,0.01
	c-0.31,0-0.62-0.01-0.94-0.02c0,0,3.06-1.91,7.49-5.19c0.49-0.36,1-0.74,1.53-1.14c0.85-0.64,1.74-1.33,2.65-2.06
	c0.04-0.02,0.07-0.05,0.11-0.08c10.46-8.28,24.53-21.56,27.6-35.07c0.06-0.26,0.12-0.52,0.17-0.77s0.1-0.5,0.13-0.75
	c0.34-2,0.42-3.99,0.19-5.96c-0.46-4.26-2.31-8.45-6-12.42c0,0-6.18-6.32-15.06-9.04c-0.3-0.09-0.6-0.18-0.9-0.26
	c-0.49-0.12-0.95-0.24-1.37-0.34c-1.04-0.22-2.09-0.4-3.18-0.5h-0.07c-0.34-0.04-0.68-0.06-1.03-0.08
	c-1.05-2.33-3.06-7.68-2.14-14.49c0.25-1.8,1.2-7.41,5.15-12.49c0.36-0.46,0.73-0.9,1.13-1.35l0.01-0.01
	c0.02-0.02,0.04-0.04,0.06-0.06c3.99-4.35,10.47-7.98,10.47-7.98s5.49-11.19,1.57-19.36c0,0-5.11,1.53-4.59,7.74
	c0,0-19.32-18.98-4.6-29.61c0,0-0.17-0.01-0.49-0.01c-1.51,0-6.41,0.27-12.28,3.39c-1.08,0.58-2.19,1.25-3.32,2.03
	c-2.19,1.52-4.45,3.46-6.66,5.94c-0.48,0.53-0.95,1.09-1.42,1.67c0,0-0.97-6.53,2.67-13.88c2.28-4.59,6.35-9.5,13.59-13.32
	c0.4-0.21,0.8-0.42,1.22-0.62h0.01c1.91-0.94,4.03-1.81,6.38-2.57c0,0,11.87-4.72,22.6,2.68c3.81,2.63,8.76,6.81,13.22,12.2
	c8.08,9.78,14.52,23.53,9.5,39.25c-0.46,2.6-0.75,5.94-0.3,9.75c1.11,9.51,6.1,16.05,8.6,18.91c3.62,4.17,10.19,12.93,12.77,25.82
	c4,20-4.47,35.74-6.94,39.99c0,0-14.81,40.51,28.76,47.15C719.23,420.11,680.17,442.02,649.92,395.94z"/>
<path fill="none" stroke="#000000" stroke-miterlimit="10" d="M618.55,245.11c-0.58,0.63-1.18,1.31-1.79,2.03
	c-0.41,0.49-0.83,1-1.26,1.53c-0.34,0.43-0.69,0.88-1.05,1.34c-3.16,4.17-6.39,9.4-8.8,15.67c-0.14,0.35-0.27,0.71-0.4,1.06
	c-0.26,0.71-0.51,1.44-0.74,2.17c-0.36,1.11-0.68,2.25-0.98,3.41c0,0-0.01,0.02-0.02,0.06c-0.04,0.17-0.17,0.66-0.33,1.41
	c-0.02,0.05-0.03,0.1-0.03,0.15c-0.08,0.34-0.16,0.72-0.24,1.15c-0.15,0.76-0.3,1.65-0.44,2.63c-0.04,0.29-0.08,0.59-0.12,0.9
	c-0.02,0.17-0.04,0.34-0.06,0.51c-0.11,1.04-0.2,2.15-0.25,3.31c-0.01,0.15-0.01,0.29-0.02,0.44c-0.01,0.31-0.01,0.62-0.01,0.93
	c-0.05,4.18,0.55,8.79,2.66,12.51c0.07,0.15,0.15,0.29,0.24,0.43c0.59,0.97,1.16,1.59,1.9,2c0.91,0.51,3.08,1.27,13.1-3.25
	c1.45-0.65,2.17-0.97,3.07-1.43c1.71-0.88,3.55-1.92,5.42-3.06l0.01-0.01c4.42-2.66,9.04-5.8,12.57-8.29
	c1.47-1.04,2.76-1.96,3.76-2.69"/>
<path fill="#D81330" stroke="#000000" stroke-miterlimit="10" d="M610.73,321.82l-0.2,0.04l-0.55,0.09l-1.18,0.19l-3.53,0.58
	l-4.11,0.68l-6.42,1.06l-17.07,2.81l-1.14,0.18c0,0.01,0,0.01-0.01,0.01l-1.9,0.31l-0.16,0.03l-0.67,0.11l-1.26,0.2l-3.84,0.64
	l-1.34,0.22l-11.86,1.95c0,0-0.83,0.89-2.22,2.4c0,0,0,0-0.01,0c-0.92,1.01-2.1,2.31-3.45,3.79h-0.01
	c-6.37,7.01-16.4,18.28-20.85,24.5c-0.47,0.66-0.88,1.27-1.21,1.8c-0.57,0.89-0.92,1.6-1.02,2.06c-0.53,2.47-0.83,8.72-1.59,15.84
	c-0.7,6.62-1.8,13.99-3.85,19.73c-1.04,2.47-2.94,6.06-6.47,9.11c-3.5,3.02-6.25,3.48-11.61,6.59c-2.48,1.44-6.04,3.74-10.01,7.28
	c-4.22,3.34-8.49,6.84-12.81,10.5c-7.57,6.43-14.62,12.83-21.17,19.12c-3.91,3.24-7.26,5.6-9.49,7.09
	c-13.14,8.8-30.08,16.23-34.91,18.36c-2.04,0.89-5.08,2.2-8.6,4.85c-4.69,3.53-7.64,7.46-9.36,10.21c0,0,11.74-3.91,18.38,0
	c9.53,5.62,20.19,13.52,29.01,20.93c6.94,5.84,12.75,11.38,15.97,15.28c2.11,2.56,6.3,7.79,12.47,8.22
	c4.85,0.33,8.99-2.44,11.61-4.68c1.06-1.06,8.96-8.83,18.73-15.12c0.02-0.01,0.03-0.02,0.05-0.04c0.02-0.01,0.04-0.02,0.06-0.03
	c2.02-1.3,4.13-2.54,6.26-3.63c7.51-3.85,15.45-6.02,21.93-3.35c1.94,0.8,4.91,2.51,8.08,4.55c0.01,0,0.01,0.01,0.02,0.01
	c0.05,0.03,0.1,0.06,0.14,0.09c2.52,1.62,5.14,3.45,7.46,5.18c3.59,2.67,6.61,5.24,9.02,7.45c0.07,0.06,0.13,0.12,0.19,0.17
	c0.22,0.21,0.34,0.32,0.34,0.32c0.89,0.82,1.68,1.58,2.39,2.27c1.77,1.86,4.65,4.43,8.8,6.41c2.63,1.26,5.05,1.94,6.99,2.33
	c0.46-23.79,5.66-39.21,10.57-49.08c1.18-2.38,1.99-3.72,3.44-6.98c7.74-17.31,8.41-32.02,9.03-39.41
	c1.38-16.64-2.84-39.07,11.31-48.34c1.57-1.03,3.16-2.12,4.77-3.26c0.2-0.14,0.4-0.28,0.6-0.43c2.17-1.56,4.37-3.22,6.55-4.96
	c15.5-12.33,30.22-28.37,32.18-39.98c0.15-1.79,0.16-3.86-0.17-6.09c-0.25-1.69-0.7-3.47-1.43-5.28
	c-3.98-9.9-14.35-14.32-20.79-16.18c-0.3-0.09-0.6-0.18-0.9-0.26c-0.49-0.12-0.95-0.24-1.37-0.34c-0.85-0.2-1.56-0.35-2.09-0.45
	c-0.28-0.06-0.52-0.1-0.66-0.13l-0.46,0.08h-0.01h-0.03l-3.06,0.51l-0.09,0.01l-1.12,0.19"/>
<path fill="none" stroke="#000000" stroke-linecap="round" stroke-miterlimit="10" d="M624.77,322.28
	c-26.51,6.64-33.42,8.4-33.42,8.43c0.01,0.04,1.44-0.67,2.79-0.13c1.03,0.41,1.69,1.38,2.13,2.47c1.99,1.95,5.54,6.04,6.77,12.17
	c1.94,9.69-2.96,17.5-6.57,21.57c-1.46,1.65-2.89,2.82-3.91,3.57c-2.66,1.7-5.84,1.94-8.24,0.54c-1.58-0.92-2.41-2.32-2.79-3.12"/>
<path fill="none" stroke="#000000" stroke-linecap="round" stroke-miterlimit="10" d="M592.15,370.66c0,0,13.69-2.62,18.7-5.07"/>
<path fill="#FFFFFF" stroke="#000000" stroke-miterlimit="10" d="M603.08,351.11c-0.17,1.95-0.64,5.01-2.18,8.57
	c-0.21,0.51-0.45,1.03-0.71,1.55c-0.13,0.26-0.26,0.52-0.4,0.78c0,0-7.21,3.02-18.37,5.29c-9.59,1.96-22.09,3.36-35.42,1.83
	c-5.62-0.65-11.39-3.44-17.05-7.52c-0.41-0.3-0.81-0.59-1.21-0.9c-2.66-2-5.28-4.28-7.85-6.74c-19.61-18.8-35.81-48.22-35.81-48.22
	c3.2-10.52-0.51-39.9-0.51-39.9c3.58,13.3,31.8,44.49,44.17,57.7c3.55,3.78,5.79,6.09,5.79,6.09c1.85,1.6,3.84,2.92,5.95,4.01
	c3.23,1.67,6.72,2.78,10.32,3.46c20.68,3.94,45.03-6.28,45.03-6.28c0.43,0.22,1.11,0.6,1.87,1.17c1.52,1.14,2.69,2.55,3.59,4.08
	c1.62,2.74,2.36,5.88,2.68,8.6v0.04c0.1,0.84,0.16,1.64,0.19,2.38c0,0.11,0,0.22,0.01,0.33c0.01,0.16,0.01,0.34,0.01,0.52
	C603.21,349.48,603.12,350.62,603.08,351.11z"/>
<path fill="#FFFFFF" stroke="#1D1D1B" stroke-width="1.5" stroke-miterlimit="10" d="M662.23,644.43c-1.09-0.48-1.95-0.83-2.41-1.02
	c-5.82-2.35-9.64-3.14-24.59-7.09c-3.33-0.88-15.38-4-35.74-6.76c-39.25-5.33-59.02-3.41-72.77-5.07c-5.32-0.63-9.74-1.8-14.04-4.13
	c0,0-0.33-0.19-0.6-0.35c-10.69-6.43-16.03-9.64-9-100.98c0.04-0.02,0.07-0.05,0.11-0.07c3.26-2.11,6.15-3.58,8.29-4.56
	c3.23-1.48,5.34-2.44,8.43-3.02c2.1-0.39,5.22-0.97,9.02-0.11c4.13,0.94,7.82,3.3,10.5,5.01c0,0,0.06,0.04,0.14,0.09
	c0,0,5.68,3.67,16.78,13.98l0,0l0,0l0,0c-1.71,9.4-3.43,18.79-5.16,28.19c-1.79,9.69-3.58,19.37-5.39,29.05
	c7.13-1.9,18.07-3.84,30.79-1.84c19.91,3.13,28.68,13.6,54.06,24.9c7.78,3.46,19.78,8.19,35.53,11.91c0.16,3.6-0.02,8.31-1.25,13.63
	C664.18,639.37,663.21,642.12,662.23,644.43z"/>
<path fill="none" stroke="#000000" stroke-miterlimit="10" d="M482.42,614.11c-2.59-2.02-4.79-4.55-6.67-7.45
	c-14.79-22.96-8.69-69.19-8.69-69.19"/>
<path fill="none" stroke="#000000" stroke-miterlimit="10" d="M512.07,620.02c-0.68,5.05-1.59,10.44-2.79,16.09
	c-1.53,7.16-3.32,13.74-5.21,19.7c-10.72-0.02-21.45-0.04-32.17-0.05c-0.46-9.16-0.32-19.71,1.04-31.31
	c0.74-6.32,1.76-12.21,2.92-17.62"/>
<path fill="#99001D" stroke="#000000" stroke-miterlimit="10" d="M294.89,235.43c6.58-20.54,13.16-41.08,19.74-61.62l14.09-19.79
	c17.62,3.93,43.14,11.52,70.68,27.28c29.63,16.95,75.32,42.52,84.52,87.65c3.96,19.4,0.64,39.68-0.95,49.37
	c-1.88,11.48-4.68,27.82-14.3,45.45c-13.75,25.2-34.16,39.73-47.28,47.23c-5.38,2.52-13.29,5.74-23.2,8.07
	c-20.7,4.85-39.66,1.33-72.67-4.49c-34.91-6.15-64.31-17.71-86.81-29.02c0,0,18.72-56.17,19.06-57.19s10.89-18.3,10.89-18.3
	c17.19,7.07,32.01,12.54,43.45,16.55c23.78,8.35,43.63,13.93,64.47,12.21c6.8-0.56,14.67-1.98,21.45-7.74
	c1.77-1.51,7.42-6.67,9.7-15.32c2.64-10.01-0.85-18.54-2.04-21.45c-6.65-16.22-24.31-22.73-67.57-40.68
	C328.86,249.8,313.79,243.51,294.89,235.43z"/>
<polygon fill="#F9C626" stroke="#1D1D1B" stroke-miterlimit="10" points="311.92,138.41 288.09,74.07 311.92,76.45 300,15.86 
	329.28,95.86 300.68,84.28 "/>
<polygon fill="#F9C626" stroke="#1D1D1B" stroke-miterlimit="10" points="269.36,148.28 243.15,116.28 263.92,120.03 204.68,44.45 
	241.79,104.37 222.38,107.77 "/>
<path fill="#F9C626" stroke="#1D1D1B" stroke-miterlimit="10" d="M270.13,426.84l-22.72,43.4l-6.38-15.32l-43.4,54.38l36.26-31.66
	c0,0,9.7,25.02,9.7,24.26S270.13,426.84,270.13,426.84z"/>
<polygon fill="#F9C626" stroke="#1D1D1B" stroke-miterlimit="10" points="122.3,424.79 175.92,393.9 178.47,406.67 208.34,389.56 
	165.32,435.26 166.47,407.43 "/>
<g>
	<path fill-rule="evenodd" clip-rule="evenodd" fill="#EE4856" stroke="#1D1D1B" stroke-miterlimit="10" d="M188.52,195.16
		l34.63-7.46c1.71-0.36,3.39,0.72,3.76,2.43l5.27,24.46c0.36,1.71-0.72,3.39-2.43,3.76l-9.87,2.13l-4,7.49
		c-0.68,1.38-2.34,1.94-3.72,1.27c-0.19-0.1-0.38-0.21-0.54-0.35l-6.63-5.2l-9.86,2.12c-1.71,0.36-3.39-0.72-3.76-2.43l-5.27-24.46
		C185.72,197.21,186.81,195.53,188.52,195.16z"/>
	<path fill-rule="evenodd" clip-rule="evenodd" fill="#FFFFFF" d="M204.43,209.08l9.95-2.14c2.02-0.43,4.01,0.85,4.44,2.87
		l0.31,1.43c0.05,0.25-0.11,0.49-0.35,0.54l-16.36,3.52c-0.25,0.05-0.49-0.1-0.54-0.35l-0.31-1.43
		C201.13,211.5,202.42,209.51,204.43,209.08L204.43,209.08z M207.1,197.26c2.61-0.56,5.18,1.11,5.73,3.72
		c0.56,2.61-1.11,5.18-3.72,5.73c-2.61,0.56-5.17-1.1-5.73-3.71C202.82,200.4,204.48,197.83,207.1,197.26L207.1,197.26z"/>
</g>
<g>
	<path fill-rule="evenodd" clip-rule="evenodd" fill="#EE4856" stroke="#1D1D1B" stroke-width="0.904" stroke-miterlimit="10" d="
		M29.48,138.71l35.01,4.36c1.73,0.22,2.95,1.79,2.74,3.52l-3.08,24.72c-0.22,1.72-1.79,2.95-3.52,2.74l-9.98-1.24l-6.22,5.72
		c-1.09,1.07-2.84,1.06-3.91-0.03c-0.15-0.15-0.28-0.32-0.4-0.51l-4.53-7.06l-9.97-1.24c-1.72-0.22-2.95-1.79-2.74-3.52l3.08-24.72
		C26.18,139.72,27.76,138.5,29.48,138.71z"/>
	<path fill-rule="evenodd" clip-rule="evenodd" fill="#FFFFFF" d="M39.87,157.02l10.05,1.25c2.04,0.25,3.49,2.11,3.23,4.15
		l-0.18,1.44c-0.03,0.25-0.26,0.42-0.51,0.39l-16.53-2.06c-0.25-0.03-0.43-0.26-0.4-0.51l0.18-1.44
		C35.97,158.21,37.83,156.76,39.87,157.02L39.87,157.02z M46.26,146.79c2.64,0.33,4.5,2.74,4.17,5.38c-0.33,2.64-2.74,4.5-5.38,4.17
		c-2.63-0.33-4.5-2.74-4.17-5.37c0.33-2.64,2.73-4.51,5.37-4.18L46.26,146.79z"/>
</g>
<g>
	<path fill-rule="evenodd" clip-rule="evenodd" fill="#FFFFFF" d="M186.57,293.66c0.07,0.7,0.02,1.41-0.14,2.09
		c-0.27,1.01-0.63,1.59-1.11,1.98c-0.47,0.39-1.06,0.58-1.79,0.82c-0.2,0.08-0.42,0.16-0.75,0.28l-12.95,4.87
		c-0.99,0.42-2.07,0.59-3.14,0.51c-1.09-0.15-2.13-0.53-3.05-1.13l-0.39-0.5l-5.67-15.1l0.59-0.42c1.51-1.08,2.28-3,2.66-5.09
		c0.33-2.1,0.42-4.23,0.24-6.35l-1.64-4.37l-0.04-0.17h-0.02c-0.2-0.84,0.04-1.73,0.64-2.36c0.49-0.47,1.12-0.75,1.79-0.79
		c0.71-0.06,1.41,0.02,2.08,0.24c2.47,0.81,4.48,2.63,5.54,5c0.39,0.9,0.73,1.82,0.99,2.77c0.19,0.66,0.36,1.37,0.51,2.11l6.65-2.49
		c1.06-0.36,2.18-0.49,3.29-0.36c0.88,0.09,1.73,0.41,2.45,0.92c0.75,0.56,1.31,1.34,1.59,2.23c0.25,0.81,0.34,1.66,0.26,2.51
		c0.57,0.81,0.98,1.72,1.21,2.69c0.18,0.74,0.1,1.52-0.21,2.21c0.44,1.04,0.68,2.16,0.7,3.28c0,0.99-0.21,1.97-0.61,2.86
		C186.41,292.48,186.51,293.07,186.57,293.66z"/>
	<g>
		<path fill-rule="evenodd" clip-rule="evenodd" fill="#FFFFFF" d="M186.25,291.9c0.4-0.89,0.61-1.87,0.61-2.86
			c-0.02-1.12-0.26-2.24-0.7-3.28c0.31-0.69,0.39-1.47,0.21-2.21c-0.23-0.97-0.64-1.88-1.21-2.69c0.08-0.85-0.01-1.7-0.26-2.51
			c-0.28-0.89-0.84-1.67-1.59-2.23c-0.72-0.51-1.57-0.83-2.45-0.92c-1.11-0.13-2.23,0-3.29,0.36l-6.65,2.49
			c-0.15-0.74-0.32-1.45-0.51-2.11c-0.26-0.95-0.6-1.87-0.99-2.77c-1.06-2.37-3.07-4.19-5.54-5c-0.67-0.22-1.37-0.3-2.08-0.24
			c-0.67,0.04-1.3,0.32-1.79,0.79c-0.6,0.63-0.84,1.52-0.64,2.36h0.02l0.04,0.17l1.64,4.37c0.18,2.12,0.09,4.25-0.24,6.35
			c-0.38,2.09-1.15,4.01-2.66,5.09l-0.59,0.42l5.67,15.1l0.39,0.5c0.92,0.6,1.96,0.98,3.05,1.13c1.07,0.08,2.15-0.09,3.14-0.51
			l12.95-4.87c0.33-0.12,0.55-0.2,0.75-0.28c0.73-0.24,1.32-0.43,1.79-0.82c0.48-0.39,0.84-0.97,1.11-1.98
			c0.16-0.68,0.21-1.39,0.14-2.09C186.51,293.07,186.41,292.48,186.25,291.9z M184.72,293.86c0.01,0.14,0.02,0.28,0.02,0.41
			c0,0.35-0.04,0.69-0.12,1.03c-0.27,1.03-0.81,1.21-1.67,1.49c-0.3,0.08-0.6,0.2-0.83,0.28l-12.95,4.87
			c-0.72,0.31-1.5,0.45-2.28,0.4c-0.7-0.1-1.38-0.35-1.99-0.73l-5.06-13.48c1.58-1.43,2.43-3.56,2.84-5.83
			c0.36-2.29,0.44-4.63,0.25-6.94l-0.06-0.27l-1.65-4.4c-0.06-0.23-0.01-0.46,0.13-0.65l-0.02-0.01c0.18-0.15,0.42-0.24,0.66-0.25
			c0.45-0.03,0.91,0.03,1.34,0.17c1.96,0.66,3.54,2.11,4.37,4c0.36,0.81,0.65,1.65,0.89,2.5c0.28,1,0.51,2.02,0.69,3.05l0.19,1.12
			l8.72-3.28c0.79-0.27,1.62-0.36,2.44-0.27c0.56,0.06,1.1,0.26,1.57,0.59c0.44,0.32,0.76,0.78,0.93,1.3
			c0.19,0.66,0.23,1.36,0.12,2.04l0.17,0.67c0.52,0.67,0.9,1.43,1.11,2.26c0.12,0.4,0.06,0.83-0.17,1.19l-0.35,0.44l0.24,0.52
			c0.45,0.93,0.7,1.94,0.74,2.98c0,0.82-0.2,1.64-0.57,2.37l-0.06,0.69C184.54,292.68,184.66,293.27,184.72,293.86z M162.59,305.46
			l-6.63-17.67c-0.28-0.72-1.09-1.09-1.82-0.82l-3.96,1.49l-5.38,2.02l0.01,0.01c-0.73,0.28-1.1,1.09-0.83,1.81l6.12,16.29
			l0.52,1.37c0.27,0.73,1.08,1.09,1.81,0.82l5.91-2.22l3.43-1.29C162.5,307,162.87,306.19,162.59,305.46z M157.4,305.37
			c-0.94,0.35-1.98-0.13-2.33-1.06c-0.08-0.21-0.11-0.42-0.11-0.63c0-0.73,0.45-1.42,1.17-1.69c0.93-0.35,1.97,0.12,2.32,1.05
			S158.33,305.02,157.4,305.37z"/>
	</g>
</g>
<path fill="#FFFFFF" d="M95.65,284.04c-0.82,1.27-1.83,2.41-2.98,3.38l0.76,5.89c0.15,0.72-0.32,1.42-1.03,1.57
	c-0.23,0.04-0.46,0.03-0.68-0.04l-7.24-2.38c-4.52,1.92-9.56,2.17-14.25,0.73c-3.24-1.05-6.18-2.86-8.58-5.27
	c0.31,0,0.63,0.03,0.98,0.04c1.04,0.03,2.06,0,3.07-0.05c1.62,1.21,3.42,2.13,5.34,2.75c3.99,1.26,8.43,1.07,12.88-0.83
	c0.3-0.13,0.64-0.14,0.95-0.04l5.7,1.9l-0.64-4.63c-0.06-0.45,0.12-0.91,0.47-1.2c1.17-0.9,2.19-2,3-3.23
	c1.16-1.74,1.63-3.86,1.3-5.92c-0.42-2.2-1.4-4.24-2.85-5.94c-0.29-0.36-0.6-0.71-0.91-1.06c0.28-1.03,0.48-2.07,0.6-3.13
	c0.85,0.79,1.65,1.63,2.37,2.54c1.74,2.06,2.91,4.54,3.4,7.19C97.74,279,97.15,281.76,95.65,284.04z"/>
<g>
	<path fill="#FFFFFF" d="M73.36,260.87c-0.84,0-1.6,0.34-2.15,0.89c-0.55,0.55-0.89,1.31-0.89,2.15c0.01,1.68,1.37,3.03,3.05,3.03
		c1.67,0,3.03-1.36,3.03-3.04C76.39,262.22,75.03,260.87,73.36,260.87z M63.34,260.87h-0.01c-1.66,0.01-3.02,1.35-3.02,3.02
		c0,0.01,0,0.01,0,0.02c0,1.68,1.36,3.03,3.04,3.03c1.67,0,3.03-1.36,3.03-3.04C66.37,262.22,65.01,260.87,63.34,260.87z
		 M53.32,260.87c-0.84,0-1.6,0.34-2.15,0.89c-0.54,0.55-0.88,1.31-0.88,2.15c0,1.68,1.36,3.03,3.04,3.03c1.67,0,3.03-1.36,3.03-3.04
		C56.36,262.22,55,260.87,53.32,260.87z M73.36,260.87c-0.84,0-1.6,0.34-2.15,0.89c-0.55,0.55-0.89,1.31-0.89,2.15
		c0.01,1.68,1.37,3.03,3.05,3.03c1.67,0,3.03-1.36,3.03-3.04C76.39,262.22,75.03,260.87,73.36,260.87z M63.34,260.87h-0.01
		c-1.66,0.01-3.02,1.35-3.02,3.02c0,0.01,0,0.01,0,0.02c0,1.68,1.36,3.03,3.04,3.03c1.67,0,3.03-1.36,3.03-3.04
		C66.37,262.22,65.01,260.87,63.34,260.87z M80.78,250.36c-4.25-3.65-10.19-6-16.81-6.22h-0.03c-6.63-0.18-12.71,1.82-17.19,5.22
		c-4.57,3.46-7.47,8.38-7.65,13.92c-0.08,2.82,0.56,5.62,1.85,8.13c1.18,2.3,2.79,4.36,4.75,6.05l-3.63,8.64l10.84-4.28
		c1.45,0.58,2.95,1.04,4.48,1.37c1.76,0.37,3.54,0.59,5.34,0.64c6.62,0.17,12.71-1.83,17.18-5.22c2.28-1.74,4.15-3.83,5.47-6.18
		c1.32-2.36,2.09-4.97,2.17-7.74C87.73,259.15,85.13,254.08,80.78,250.36z M84.55,264.62c-0.14,4.58-2.6,8.68-6.45,11.6
		c-3.95,3-9.35,4.76-15.28,4.59c-1.61-0.05-3.22-0.24-4.8-0.58c-1.54-0.33-3.05-0.81-4.5-1.43l-0.57-0.24l-5.33,2.09l1.74-4.11
		l-0.9-0.72c-2-1.56-3.65-3.53-4.82-5.78c-1.05-2.06-1.57-4.36-1.51-6.68c0.14-4.58,2.59-8.67,6.44-11.62
		c3.95-2.97,9.35-4.75,15.27-4.58h0.02l0.01,0.01c5.92,0.18,11.19,2.26,14.94,5.48c3.55,3.05,5.75,7.1,5.75,11.53
		C84.56,264.33,84.55,264.47,84.55,264.62z M53.32,260.87c-0.84,0-1.6,0.34-2.15,0.89c-0.54,0.55-0.88,1.31-0.88,2.15
		c0,1.68,1.36,3.03,3.04,3.03c1.67,0,3.03-1.36,3.03-3.04C56.36,262.22,55,260.87,53.32,260.87z M63.34,260.87h-0.01
		c-1.66,0.01-3.02,1.35-3.02,3.02c0,0.01,0,0.01,0,0.02c0,1.68,1.36,3.03,3.04,3.03c1.67,0,3.03-1.36,3.03-3.04
		C66.37,262.22,65.01,260.87,63.34,260.87z M53.32,260.87c-0.84,0-1.6,0.34-2.15,0.89c-0.54,0.55-0.88,1.31-0.88,2.15
		c0,1.68,1.36,3.03,3.04,3.03c1.67,0,3.03-1.36,3.03-3.04C56.36,262.22,55,260.87,53.32,260.87z M73.36,260.87
		c-0.84,0-1.6,0.34-2.15,0.89c-0.55,0.55-0.89,1.31-0.89,2.15c0.01,1.68,1.37,3.03,3.05,3.03c1.67,0,3.03-1.36,3.03-3.04
		C76.39,262.22,75.03,260.87,73.36,260.87z M97.31,276.31c-0.49-2.65-1.66-5.13-3.4-7.19c-0.72-0.91-1.52-1.75-2.37-2.54
		c-0.12,1.06-0.32,2.1-0.6,3.13c0.31,0.35,0.62,0.7,0.91,1.06c1.45,1.7,2.43,3.74,2.85,5.94c0.33,2.06-0.14,4.18-1.3,5.92
		c-0.81,1.23-1.83,2.33-3,3.23c-0.35,0.29-0.53,0.75-0.47,1.2l0.64,4.63l-5.7-1.9c-0.31-0.1-0.65-0.09-0.95,0.04
		c-4.45,1.9-8.89,2.09-12.88,0.83c-1.92-0.62-3.72-1.54-5.34-2.75c-1.01,0.05-2.03,0.08-3.07,0.05c-0.35-0.01-0.67-0.04-0.98-0.04
		c2.4,2.41,5.34,4.22,8.58,5.27c4.69,1.44,9.73,1.19,14.25-0.73l7.24,2.38c0.22,0.07,0.45,0.08,0.68,0.04
		c0.71-0.15,1.18-0.85,1.03-1.57l-0.76-5.89c1.15-0.97,2.16-2.11,2.98-3.38C97.15,281.76,97.74,279,97.31,276.31z"/>
</g>
<path fill="#B5092B" stroke="#000000" stroke-miterlimit="10" d="M315.32,173.73c0,0,189.1,51.07,160.76,173.32
	c0,0,35.53-88.11-29.43-134.76c0,0-72.79-53.97-117.64-57.63l-13.78,19.31"/>
<path fill="#C6C6C6" stroke="#000000" stroke-miterlimit="10" d="M328.18,249.08l24.07-62.5c4.94-6.86,9.88-13.73,14.82-20.59
	c-4.96-2.06-10.43-4.09-16.38-5.94c-7.77-2.42-15.06-4.15-21.68-5.38l-13.7,19.06l-20.17,60.91L328.18,249.08z"/>
<path fill="none" stroke="#000000" stroke-miterlimit="10" d="M352.18,186.79c-12.2-4.25-24.4-8.49-36.6-12.74"/>
<path fill="#B5092B" stroke="#000000" stroke-miterlimit="10" d="M258.47,328.54c0,0,147.5,64.52,148.64-10.72
	c-1.47,3.72-4.42,9.57-10.29,14.25c-8.71,6.95-19.11,7.19-27.86,7.44c-6.38,0.18-11.69-0.56-16.46-1.23c0,0-7.63-1.07-15.87-3.23
	c-11.33-2.97-35.77-11.23-67.36-23.53L258.47,328.54z"/>
<path fill="#C6C6C6" stroke="#000000" stroke-miterlimit="10" d="M275.83,400.79c6.3-19.66,12.6-39.32,18.89-58.98
	c3.6-5.73,7.2-11.47,10.8-17.2c-12.24-4.65-24.49-9.3-36.73-13.95l-10.32,17.87l-19.49,56.26c6.3,3.11,12.98,6.21,20.04,9.23
	C264.77,396.49,270.39,398.74,275.83,400.79z"/>
<path fill="none" stroke="#000000" stroke-miterlimit="10" d="M294.72,341.82c-11.96-4.38-23.91-8.77-35.87-13.15"/>
<path fill="none" stroke="#000000" stroke-miterlimit="10" d="M623.79,301.6c-2.41,8.81,1.1,16.89,1.53,17.82
	c0.03,0.06,0.04,0.09,0.04,0.09s-1.2,0.18-3.13,0.42l-0.09,0.01c-0.35,0.04-0.72,0.09-1.12,0.13c-8.92,0.89-15.27,0.98-15.27,0.98
	c-1.96,0.01-4.65-0.04-7.89-0.27c-1.34-0.1-2.77-0.79-4.05-1.95c-1.07-0.96-1.72-2.17-2.1-3.38c0-0.02-0.01-0.05-0.02-0.07
	c-0.69-2.27-0.46-4.56-0.36-5.31c0.01-0.06,0.01-0.1,0.02-0.14c3.88-5.42,7.75-10.83,11.63-16.25c0,0-0.05,0.56,1.85,3.77
	c1.89,3.21,5.08,1.94,5.08,1.94c8.47-1.51,17.16-6.82,19.94-8.63C628.42,291.9,625.62,294.87,623.79,301.6z"/>
<g>
	<g>
		<path d="M571.04,326.91c0.15,0.45,0.25,0.91,0.32,1.38c-0.03-0.22-0.06-0.44-0.09-0.66c0.05,0.35,0.07,0.7,0.07,1.05
			c-0.01,0.34,0.06,0.67,0.22,0.96c0.1,0.31,0.27,0.58,0.52,0.8c0.23,0.24,0.49,0.42,0.8,0.52c0.3,0.16,0.62,0.23,0.96,0.22
			c0.22-0.03,0.44-0.06,0.66-0.09c0.42-0.12,0.79-0.33,1.1-0.64c0.45-0.49,0.73-1.09,0.73-1.77c0-0.63-0.08-1.25-0.18-1.87
			c-0.06-0.41-0.16-0.82-0.29-1.22c-0.08-0.33-0.23-0.61-0.45-0.85c-0.18-0.27-0.41-0.49-0.7-0.64c-0.29-0.18-0.6-0.28-0.93-0.3
			c-0.33-0.07-0.66-0.06-1,0.04c-0.2,0.08-0.4,0.17-0.6,0.25c-0.38,0.22-0.67,0.52-0.9,0.9c-0.08,0.2-0.17,0.4-0.25,0.6
			C570.92,326.02,570.92,326.46,571.04,326.91L571.04,326.91z"/>
	</g>
</g>
<g>
	<g>
		<path fill="#D81330" d="M577.93,321.51c-1.69,0.55-3.38,1.11-5.07,1.66c-1.78,0.58-3.67,1.05-5.38,1.83
			c-1.17,0.54-1.95,1.63-2.12,2.9c-0.15,1.12,0.35,2.19,1.35,2.73c0.46,0.25,0.98,0.46,1.5,0.57c1.7,0.38,3.92,0.45,5.56-0.14
			c2.04-0.74,3.66-2.37,4.17-4.52c0.46-1.9-1.2-3.5-3.08-3.08c-2.42,0.55-4.26,2.4-5.08,4.7c-0.33,0.92,0.2,2.42,1.15,2.82
			c1.72,0.73,3.62,1.02,5.41,0.31c1.62-0.64,3.02-1.76,3.8-3.34c0.46-0.92,0.45-1.94-0.2-2.78c-0.56-0.72-1.71-1.26-2.63-0.9
			c-2.08,0.83-5.69,2.81-4.53,5.58c0.65,1.55,2.37,2.11,3.91,1.66c1.53-0.45,2.43-1.84,2.54-3.37c0.09-1.31-1.21-2.56-2.5-2.5
			c-1.43,0.06-2.4,1.1-2.5,2.5c0.04-0.53,0.23-1.02,0.71-1.29c0.4-0.14,0.48-0.18,0.23-0.1c0.85-0.19,1.53,0.1,2.05,0.88
			c0.11,0.42,0.23,0.84,0.34,1.26c0-0.05,0-0.09,0.01-0.14c-0.11,0.42-0.23,0.84-0.34,1.26c-0.06,0.12-0.36,0.38-0.1,0.14
			c0.11-0.1,0.21-0.2,0.32-0.3c0.05-0.05,0.37-0.28,0.08-0.08c-0.32,0.23,0.14-0.1,0.17-0.12c0.19-0.13,0.39-0.25,0.59-0.37
			c0.16-0.09,0.99-0.44,0.35-0.19c-0.94-1.22-1.88-2.45-2.82-3.67c-0.1,0.2-0.21,0.38-0.32,0.57c-0.23,0.38,0.25-0.26,0.04-0.06
			c-0.08,0.07-0.15,0.16-0.22,0.24c-0.08,0.08-0.16,0.14-0.24,0.22c-0.22,0.21,0.39-0.24,0.12-0.09c-0.18,0.1-0.49,0.23-0.64,0.36
			c0.11-0.1,0.47-0.16,0.13-0.07c-0.12,0.03-0.23,0.06-0.35,0.1c-0.35,0.1,0.01-0.05,0.13,0c-0.07-0.03-0.28,0.02-0.36,0.02
			c-0.12,0-0.24,0-0.36-0.01c-0.56,0,0.33,0.1,0.04,0.01c-0.17-0.05-0.95-0.3-0.34-0.05c0.38,0.94,0.77,1.88,1.15,2.82
			c0.17-0.47-0.27,0.51,0.02-0.04c0.07-0.14,0.16-0.26,0.24-0.4c0.11-0.15,0.05-0.09-0.16,0.19c0.06-0.08,0.13-0.16,0.2-0.23
			c0.11-0.11,0.22-0.22,0.33-0.33c0.36-0.36-0.46,0.27-0.02,0.01c0.13-0.08,0.26-0.17,0.4-0.24c0.53-0.28,0.04,0.06-0.03,0
			c0.03,0.02,0.53-0.15,0.6-0.17c-1.03-1.03-2.05-2.05-3.08-3.08c-0.01,0.03-0.15,0.43-0.13,0.45c0.15-0.33,0.18-0.41,0.1-0.24
			c-0.03,0.07-0.07,0.14-0.11,0.21c-0.07,0.12-0.21,0.27-0.25,0.39c0.07-0.09,0.13-0.17,0.2-0.26c-0.07,0.08-0.14,0.16-0.21,0.23
			c-0.04,0.04-0.08,0.07-0.11,0.11c-0.2,0.17-0.15,0.14,0.14-0.09c-0.03-0.01-0.3,0.19-0.33,0.21c-0.5,0.29,0.3-0.06,0.02,0.02
			c-0.18,0.05-0.36,0.12-0.55,0.16c-0.09,0.02-0.19,0.04-0.28,0.05c0.09-0.01,0.19-0.03,0.28-0.04c-0.14,0.07-0.41,0.03-0.58,0.04
			c-0.37,0.01-0.75,0.01-1.13-0.01c-0.18-0.01-0.35-0.02-0.53-0.03c-0.51-0.03,0.49,0.14-0.04-0.01c-0.14-0.04-0.28-0.09-0.42-0.11
			c-0.18-0.06-0.11-0.03,0.19,0.1c-0.11-0.05-0.21-0.1-0.31-0.16c0.41,0.72,0.83,1.44,1.24,2.16c0.02,0.45-0.3,0.86-0.64,1.1
			c0.4-0.28-0.43,0.1,0.07-0.05c0.47-0.14,0.93-0.3,1.39-0.46c0.88-0.29,1.76-0.58,2.64-0.86c1.82-0.6,3.65-1.19,5.47-1.79
			c1.24-0.41,2.18-1.75,1.75-3.08C580.6,322.02,579.26,321.08,577.93,321.51L577.93,321.51z"/>
	</g>
</g>
<g>
	<g>
		<path fill="#D81330" d="M568.28,328.41c-3.09-0.45-6.18-0.61-9.29-0.31c-1.72,0.17-3.46,0.37-4.8,1.58
			c-0.31,0.28-0.59,0.61-0.8,0.96c-0.07,0.11-0.13,0.23-0.18,0.35c-0.2,0.37-0.07,0.25,0.4-0.37c0.27-0.12,0.25-0.11-0.05,0
			c-0.16,0.06-0.32,0.11-0.48,0.16c-0.32,0.1-0.65,0.18-0.98,0.25c-1.28,0.28-2.15,1.84-1.75,3.08c0.44,1.34,1.71,2.05,3.08,1.75
			c1.46-0.32,3.22-0.79,4.01-2.17c0.06-0.11,0.11-0.22,0.16-0.33c0.15-0.24,0.14-0.24-0.03,0.01c-0.36,0.25,0,0,0.17-0.08
			c-0.4,0.18,0.54-0.09,0.66-0.11c-0.32,0.05,0.49-0.05,0.59-0.06c1.36-0.13,2.74-0.19,4.11-0.16c0.66,0.01,1.32,0.04,1.98,0.09
			c0.38,0.03,0.75,0.06,1.13,0.1c0.19,0.02,0.38,0.04,0.56,0.07c-0.2-0.03-0.14-0.02,0.18,0.03c1.29,0.19,2.75-0.32,3.08-1.75
			C570.3,330.3,569.67,328.61,568.28,328.41L568.28,328.41z"/>
	</g>
</g>
<g>
	<g>
		<path fill="#D81330" d="M553.59,333.61C553.59,333.6,553.59,333.6,553.59,333.61c0.03,0.21,0.06,0.43,0.09,0.66
			c0-0.01,0-0.02,0-0.03c-0.03,0.22-0.06,0.44-0.09,0.66c0-0.01,0-0.02,0.01-0.03c-0.08,0.2-0.17,0.4-0.25,0.6
			c0.01-0.01,0.01-0.03,0.02-0.04c-0.13,0.17-0.26,0.34-0.39,0.51c0.02-0.02,0.04-0.04,0.06-0.06c-0.17,0.13-0.34,0.26-0.51,0.39
			c0.16-0.12,0.34-0.23,0.52-0.32c0.29-0.16,0.53-0.37,0.7-0.64c0.22-0.24,0.37-0.52,0.45-0.85c0.1-0.33,0.12-0.66,0.04-1
			c-0.02-0.33-0.11-0.64-0.3-0.93c-0.13-0.17-0.26-0.34-0.39-0.51c-0.31-0.31-0.68-0.52-1.1-0.64c-0.22-0.03-0.44-0.06-0.66-0.09
			c-0.45,0-0.87,0.12-1.26,0.34c-0.14,0.07-0.27,0.15-0.4,0.24c-0.03,0.02-0.06,0.04-0.1,0.07c-0.01,0-0.01,0.01-0.02,0.01
			c-0.09,0.07-0.17,0.13-0.26,0.2c-0.09,0.07-0.17,0.13-0.26,0.2c-0.01,0.01-0.02,0.02-0.03,0.03c-0.01,0.01-0.01,0.01-0.02,0.02
			c-0.07,0.08-0.14,0.17-0.2,0.26c-0.07,0.08-0.13,0.17-0.2,0.26c-0.07,0.09-0.13,0.29-0.15,0.33c-0.17,0.4-0.12,0.23-0.18,0.66
			c-0.07,0.51-0.07,0.36,0.05,1.03c0.08,0.33,0.23,0.61,0.45,0.85c0.18,0.27,0.41,0.49,0.7,0.64c0.29,0.18,0.6,0.28,0.93,0.3
			c0.33,0.07,0.66,0.06,1-0.04c0.2-0.08,0.4-0.17,0.6-0.25c0.38-0.22,0.67-0.52,0.9-0.9c0.08-0.2,0.17-0.4,0.25-0.6
			C553.71,334.49,553.71,334.05,553.59,333.61L553.59,333.61z"/>
	</g>
</g>
<g>
	<g>
		<path fill="#D81330" d="M551.84,336.25c3.22,0,3.22-5,0-5C548.62,331.25,548.62,336.25,551.84,336.25L551.84,336.25z"/>
	</g>
</g>
<g>
	<g>
		<path fill="#D81330" d="M550.82,336.67c3.22,0,3.22-5,0-5C547.6,331.67,547.6,336.67,550.82,336.67L550.82,336.67z"/>
	</g>
</g>
<g>
	<g>
		<path fill="#D81330" d="M550.66,336.66c3.22,0,3.22-5,0-5C547.44,331.66,547.44,336.66,550.66,336.66L550.66,336.66z"/>
	</g>
</g>
<g>
	<g>
		<path fill="#D81330" d="M550.58,336.66c3.22,0,3.22-5,0-5C547.36,331.66,547.35,336.66,550.58,336.66L550.58,336.66z"/>
	</g>
</g>
<g>
	<g>
		<path fill="#D81330" d="M550.51,336.67c3.22,0,3.22-5,0-5C547.29,331.67,547.29,336.67,550.51,336.67L550.51,336.67z"/>
	</g>
</g>
<g>
	<g>
		<path fill="#D81330" d="M550.7,336.72c3.22,0,3.22-5,0-5C547.49,331.72,547.48,336.72,550.7,336.72L550.7,336.72z"/>
	</g>
</g>
<g>
	<g>
		<path fill="#D81330" d="M551.12,336.78c3.22,0,3.22-5,0-5C547.9,331.78,547.9,336.78,551.12,336.78L551.12,336.78z"/>
	</g>
</g>
<g>
	<g>
		<path fill="#D81330" d="M590.6,323.69c-1.85,0.34-3.71,0.66-5.57,0.94c-0.91,0.14-1.83,0.27-2.74,0.4
			c-0.73,0.1,0.52-0.07-0.21,0.03c-0.22,0.03-0.44,0.06-0.66,0.09c-0.51,0.07-1.03,0.13-1.54,0.19c-1.29,0.16-2.57,1.04-2.5,2.5
			c0.05,1.22,1.11,2.67,2.5,2.5c4.04-0.49,8.06-1.09,12.05-1.82c1.29-0.24,2.14-1.87,1.75-3.08
			C593.22,324.05,591.98,323.43,590.6,323.69L590.6,323.69z"/>
	</g>
</g>
<g>
	<g>
		<path fill="#D81330" d="M599.94,321.69c-2.45,0.17-4.91,0.28-7.36,0.33c-1.31,0.02-2.56,1.13-2.5,2.5c0.06,1.33,1.1,2.53,2.5,2.5
			c2.46-0.04,4.91-0.15,7.36-0.33c0.67-0.05,1.28-0.25,1.77-0.73c0.43-0.43,0.76-1.15,0.73-1.77
			C602.38,322.91,601.34,321.59,599.94,321.69L599.94,321.69z"/>
	</g>
</g>
<g>
	<g>
		<path fill="#D81330" d="M608.28,321.64c0.32-0.06-0.16,0.02-0.23,0.02c-0.16,0.02-0.32,0.04-0.48,0.05
			c-0.28,0.02-0.56,0.03-0.84,0.04c-0.61,0.02-1.21,0.02-1.82,0.05c-1.22,0.07-2.42,0.27-3.62,0.48c-0.7,0.12-1.67,0.46-1.61,1.33
			c0.04,0.69,0.98,1.08,1.54,1.25c0.82,0.25,1.65,0.2,2.48,0.05c0.49-0.09,1.27-0.55,1.22-1.13c-0.05-0.58-0.81-0.76-1.29-0.67
			c-0.61,0.1-1.15,0.25-1.73,0.46c-0.38,0.14-0.88,0.56-0.84,1c0.04,0.48,0.51,0.62,0.92,0.68c0.34,0.05,0.69,0.1,1.03,0.15
			c0.1-0.6,0.2-1.21,0.3-1.81c-0.3,0.1-0.61,0.2-0.91,0.3c-0.45,0.15-1.03,0.39-1.18,0.89c-0.13,0.41,0.13,0.78,0.55,0.87
			c0.35,0.07,0.67,0.11,1.03,0.07c0.55-0.07,1.25-0.31,1.53-0.84c0.25-0.47-0.07-0.83-0.51-0.99c-0.27-0.1-0.56-0.15-0.84-0.17
			c0.22,0.43,0.44,0.86,0.66,1.28c-0.04,0.04-0.07,0.07-0.11,0.11c-0.23,0.1-0.47,0.21-0.7,0.31c-0.07,0.01-0.14,0.02-0.22,0.04
			c-0.32-0.06-0.65-0.11-0.97-0.17c0.37,0.17,0.69,0.27,1.1,0.3c0.66,0.06,1.57-0.23,1.9-0.84c0.34-0.63-0.29-1-0.84-1.05
			c0.04,0,0.08,0.02,0.11,0.04c-0.09-0.04-0.18-0.08-0.27-0.11c-0.32-0.11-0.67-0.07-0.99-0.01c-0.54,0.1-0.98,0.33-1.39,0.7
			c-0.24,0.22-0.35,0.55-0.2,0.84c0.16,0.32,0.53,0.42,0.86,0.45c-0.18-0.02,0.15,0.05,0.18,0.06c0.34-0.61,0.68-1.22,1.02-1.83
			c0.12,0.01,0.24,0.03,0.37,0.04c-0.21,0.59-0.42,1.17-0.63,1.76c0.3-0.1,0.61-0.2,0.91-0.3c0.46-0.15,1.14-0.45,1.23-1.01
			c0.08-0.54-0.51-0.74-0.93-0.8c-0.34-0.05-0.69-0.1-1.03-0.15c0.03,0.56,0.05,1.12,0.08,1.68c-0.35,0.13,0.04,0,0.09-0.02
			c0.08-0.02,0.45-0.09,0.09-0.03c-0.02-0.6-0.05-1.21-0.07-1.81c0.12-0.02,0.2-0.06,0.03-0.02c0.12-0.03,0.15,0.01,0,0
			c-0.08-0.01-0.16-0.01-0.24-0.03c0.18,0.03-0.01-0.01-0.09-0.04c-0.2-0.06-0.1-0.02-0.29-0.13c-0.04-0.03-0.13-0.11-0.12-0.08
			c0.04,0.07,0.05,0.06,0.04-0.04c-0.54,0.44-1.07,0.89-1.61,1.33c1.25-0.22,2.49-0.43,3.76-0.49c1.35-0.06,2.67-0.06,4.01-0.31
			c0.51-0.09,1.39-0.63,1.22-1.26C609.77,321.43,608.77,321.54,608.28,321.64L608.28,321.64z"/>
	</g>
</g>
<g>
	<g>
		<path fill="#D81330" d="M602.88,324.53c0.55-0.05,1.1-0.11,1.65-0.16c0.16-0.36,0.33-0.72,0.49-1.09
			c-0.65,0.19,0.47-0.15,0.48-0.04c-0.04,0.1-0.09,0.2-0.13,0.29c0.03-0.03,0.05-0.07,0.08-0.1c-0.53,0.22-1.05,0.44-1.58,0.66
			c0.43-0.07,1.08,0,1.57-0.02c0.2,0,2.42-0.53,2.07-1c-0.44-0.58-1.29-0.36-1.9-0.2c-0.03,0.01-1.82,0.73-1.24,0.98
			c0.8,0.35,1.82,0.18,2.68,0.15c0.94-0.03,1.88-0.07,2.82-0.12c1.88-0.1,3.76-0.26,5.63-0.47c0.61-0.07,1.51-0.21,1.94-0.7
			c0.41-0.48-0.36-0.55-0.69-0.51c-1.67,0.18-3.34,0.33-5.02,0.43c-1.61,0.1-3.28,0.26-4.9,0.17c0.14,0.04,0.29,0.07,0.43,0.11
			c-0.05-0.02-0.11-0.05-0.16-0.07c-0.41,0.33-0.82,0.65-1.24,0.98c0.04-0.01,0.08-0.02,0.12-0.03c-0.44,0.03-0.88,0.07-1.31,0.1
			c0.04,0.01,0.08,0.03,0.12,0.04c-0.09-0.06-0.17-0.13-0.26-0.19c0.03,0.03,0.05,0.07,0.08,0.1c0.69-0.33,1.38-0.66,2.07-1
			c-0.6,0.01-1.21-0.01-1.8,0.04c-0.68,0.05-1.72,0.23-2.14,0.82c-0.34,0.49,0.13,0.77,0.6,0.81c0.64,0.06,1.33-0.11,1.94-0.3
			c0.31-0.09,1.21-0.31,1.3-0.72c0.09-0.4-0.57-0.39-0.81-0.36c-0.55,0.05-1.1,0.11-1.65,0.16c-0.61,0.06-1.51,0.21-1.94,0.7
			C601.77,324.49,602.55,324.56,602.88,324.53L602.88,324.53z"/>
	</g>
</g>
<g>
	<g>
		<path fill="#D81330" d="M624.46,320.15c-0.06,0.02-0.12,0.05-0.19,0.07c0.13-0.04,0.25-0.08,0.38-0.12
			c-0.06,0.02-0.12,0.04-0.18,0.05c-0.19,0.05-0.37,0.11-0.55,0.19c-0.15,0.06-0.3,0.13-0.44,0.23c-0.11,0.06-0.19,0.14-0.26,0.24
			c-0.06,0.06-0.09,0.13-0.07,0.22c0.03,0.04,0.06,0.08,0.09,0.12c0.13,0.08,0.28,0.12,0.43,0.12c0.1,0,0.21,0,0.31,0
			c0.25-0.02,0.5-0.06,0.75-0.13c0.19-0.05,0.38-0.11,0.56-0.17c0.06-0.02,0.12-0.04,0.19-0.07c0.17-0.06,0.32-0.13,0.47-0.22
			c0.12-0.06,0.24-0.14,0.34-0.24c0.08-0.06,0.12-0.14,0.12-0.23c0.03-0.08,0-0.14-0.08-0.19c-0.06-0.03-0.12-0.05-0.18-0.08
			c-0.19-0.04-0.38-0.06-0.57-0.04c-0.12,0.01-0.24,0.03-0.36,0.04C624.97,319.99,624.71,320.05,624.46,320.15L624.46,320.15z"/>
	</g>
</g>
<g>
	<g>
		<path fill="#D81330" d="M608.42,322.67c0.03,0.05,0.05,0.1,0.05,0.16c0.03,0.08,0.09,0.13,0.17,0.15
			c0.11,0.05,0.22,0.07,0.34,0.07c0.17,0.01,0.33,0,0.49-0.03c0.19-0.02,0.38-0.06,0.57-0.11c0.13-0.04,0.25-0.08,0.38-0.12
			c0.21-0.08,0.42-0.17,0.61-0.29c0.07-0.05,0.13-0.1,0.2-0.15c0.1-0.07,0.14-0.17,0.14-0.29c0-0.06-0.02-0.12-0.05-0.16
			c-0.03-0.08-0.09-0.13-0.17-0.15c-0.11-0.05-0.22-0.07-0.34-0.07c-0.17-0.01-0.33,0-0.49,0.03c-0.19,0.02-0.38,0.06-0.57,0.11
			c-0.13,0.04-0.25,0.08-0.38,0.12c-0.21,0.08-0.42,0.17-0.61,0.29c-0.07,0.05-0.13,0.1-0.2,0.15
			C608.46,322.45,608.41,322.55,608.42,322.67L608.42,322.67z"/>
	</g>
</g>
<g>
	<g>
		<path fill="#D81330" d="M609.24,323.4c0.03,0,0.07,0,0.1,0c0.15,0,0.3,0.01,0.45,0c0.07,0,0.13-0.01,0.2-0.02
			c-0.16-0.6-0.32-1.2-0.48-1.8c-0.03,0.01-0.05,0.02-0.08,0.04c0.13-0.05,0.25-0.09,0.38-0.14c-0.05,0.02-0.1,0.03-0.14,0.04
			c0.13-0.02,0.26-0.05,0.39-0.07c-0.21,0.04-0.42,0.04-0.63,0.05c-0.2,0.01-0.4,0.06-0.58,0.14c-0.18,0.05-0.35,0.14-0.51,0.26
			c-0.14,0.09-0.26,0.21-0.34,0.35c-0.1,0.11-0.15,0.24-0.17,0.39c0,0.09,0.01,0.18,0.01,0.26c0.06,0.18,0.16,0.32,0.32,0.42
			c0.09,0.04,0.18,0.09,0.28,0.13c0.23,0.07,0.46,0.09,0.7,0.07c0.16-0.01,0.31-0.02,0.47-0.03c0.04,0,0.07-0.01,0.11-0.01
			c0.16-0.02,0.32-0.05,0.48-0.08c0.2-0.04,0.39-0.11,0.57-0.2c0.11-0.06,0.21-0.12,0.32-0.19c0.14-0.09,0.26-0.21,0.34-0.35
			c0.07-0.07,0.11-0.16,0.13-0.26c0.06-0.12,0.07-0.26,0.03-0.39c-0.04-0.08-0.08-0.16-0.12-0.23c-0.07-0.06-0.14-0.12-0.21-0.18
			c-0.14-0.09-0.28-0.14-0.44-0.16c-0.18-0.05-0.35-0.06-0.54-0.04c-0.09,0.01-0.18,0.02-0.26,0.02c0.12,0,0.25,0,0.37,0
			c-0.04,0-0.08,0-0.12,0c-0.19-0.02-0.38-0.01-0.57,0.03c-0.2,0.02-0.39,0.08-0.57,0.17c-0.17,0.07-0.32,0.17-0.45,0.3
			c-0.13,0.1-0.23,0.22-0.3,0.36c-0.03,0.09-0.06,0.18-0.09,0.26c-0.02,0.18,0.02,0.35,0.13,0.5c0.07,0.06,0.14,0.12,0.21,0.18
			C608.82,323.32,609.02,323.38,609.24,323.4L609.24,323.4z"/>
	</g>
</g>
<path fill="none" stroke="#1D1D1B" stroke-width="1.2" stroke-miterlimit="10" d="M538.98,333.39c4.4-4.7,12.48-12.11,24.69-17.45
	c11.12-4.86,21.09-6,27.31-6.23"/>
<path d="M649.86,396.75c0,0,2.93,20.28,15.68,31.78c-0.97-0.28-36.96-11.16-24.75-43.65c0,0-7.94,6.27-19.83,8.32
	c-0.5,0.09-1.01,0.17-1.53,0.24c-1.61,0.22-3.28,0.36-5.02,0.38c-0.5,0.02-1.01,0.02-1.53,0.01c-0.31,0-0.62-0.01-0.94-0.02
	c0,0,3.06-1.91,7.49-5.19c0.49-0.36,1-0.74,1.53-1.14c0.85-0.64,1.74-1.33,2.65-2.06c0.04-0.02,0.07-0.05,0.11-0.08
	c10.46-8.28,24.53-21.56,27.6-35.07c0.06-0.26,0.12-0.52,0.17-0.77s0.1-0.5,0.13-0.75c0.34-2,0.42-3.99,0.19-5.96
	c-0.46-4.26-2.31-8.45-6-12.42c0,0-6.18-6.32-15.06-9.04c-0.3-0.09-0.6-0.18-0.9-0.26c-0.49-0.12-0.95-0.24-1.37-0.34
	c-1.04-0.22-2.09-0.4-3.18-0.5h-0.07c-0.34-0.04-0.68-0.06-1.03-0.08c-1.05-2.33-3.06-7.68-2.14-14.49c0.25-1.8,1.2-7.41,5.15-12.49
	c0.36-0.46,0.73-0.9,1.13-1.35l0.01-0.01c0.02-0.02,0.04-0.04,0.06-0.06c3.99-4.35,10.47-7.98,10.47-7.98s5.49-11.19,1.57-19.36
	c0,0-5.11,1.53-4.59,7.74c0,0-19.32-18.98-4.6-29.61c0,0-0.17-0.01-0.49-0.01c-1.51,0-6.41,0.27-12.28,3.39
	c-1.08,0.58-2.19,1.25-3.32,2.03c-2.19,1.52-4.45,3.46-6.66,5.94c-0.48,0.53-0.95,1.09-1.42,1.67c0,0-0.97-6.53,2.67-13.88
	c2.28-4.59,6.35-9.5,13.59-13.32c0.4-0.21,0.8-0.42,1.22-0.62h0.01c1.91-0.94,4.03-1.81,6.38-2.57c0,0,11.87-4.72,22.6,2.68
	c3.81,2.63,8.76,6.81,13.22,12.2c8.08,9.78,14.52,23.53,9.5,39.25c-0.46,2.6-0.75,5.94-0.3,9.75c1.11,9.51,6.1,16.05,8.6,18.91
	c3.62,4.17,10.19,12.93,12.77,25.82c4,20-4.47,35.74-6.94,39.99c0,0-14.81,40.51,28.76,47.15
	C719.17,420.92,680.11,442.83,649.86,396.75z"/>
<path fill="#CC0232" d="M614.99,234.36c2.31-0.49,13.42-2.62,23.31,4.18c10.07,6.93,14.78,20.3,11.66,33.57
	c0,0-2.21,15.08-16.09,27.03c2.92-1.48,7.04-3.97,11.13-8c1.23-1.22,6.22-6.28,9.15-13c4.88-11.24,4.9-29.15-6.67-40.77
	c-8.17-8.21-18.52-9.66-22.56-9.99c-1.55,0.72-3.37,1.71-5.29,3.06C617.72,231.77,616.19,233.14,614.99,234.36z"/>
<path fill="none" stroke="#000000" stroke-linecap="round" stroke-miterlimit="10" d="M591.33,330.79
	c-0.18,0.52-0.36,1.03-0.54,1.55"/>
<g>
	<path fill-rule="evenodd" clip-rule="evenodd" fill="#ED1B24" d="M106.13,346.5c2.61-2.73,4.45-5.09,8.5-5.56
		c7.57-0.86,14.52,6.89,10.7,14.52c-1.09,2.17-3.3,4.76-5.76,7.29c-2.69,2.78-5.67,5.51-7.75,7.58l-5.69,5.64l-4.7-4.52
		c-5.65-5.44-14.86-12.3-15.18-20.79c-0.21-5.95,4.49-9.76,9.89-9.69C100.96,341.05,103,343.44,106.13,346.5z"/>
</g>
<g>
	<path fill-rule="evenodd" clip-rule="evenodd" fill="#ED1B24" d="M155.31,118.23c2.61-2.73,4.45-5.09,8.5-5.56
		c7.57-0.86,14.52,6.89,10.7,14.52c-1.09,2.17-3.3,4.76-5.76,7.29c-2.69,2.78-5.67,5.51-7.75,7.58l-5.69,5.64l-4.7-4.52
		c-5.65-5.44-14.86-12.3-15.18-20.79c-0.21-5.95,4.49-9.76,9.89-9.69C150.14,112.77,152.18,115.17,155.31,118.23z"/>
</g>
<path fill="#B70F2F" d="M581.52,381.9c-18.27,10.08-36.53,20.16-54.8,30.23l34.34-5.98L540,436.28
	c-28.85,37.28-54.89,37.02-54.89,37.02l24.77-2.81c-20.17,16.08-40.34,32.16-60.51,48.24c3.38,3.51,6.89,6.91,10.21,10.48
	c2.76,2.97,4,4.46,6.55,6.21c2.92,2.01,4.7,2.41,5.74,2.55c2.49,0.34,4.47-0.3,5.77-0.72c3-0.98,5.01-2.64,6.03-3.49
	c0.86-0.73,0.77-0.77,2.62-2.52c0,0,1.76-1.66,4.01-3.59c6.08-5.21,12.19-9.16,12.19-9.16c2.29-1.48,4.14-2.66,6.85-4.01
	c2.33-1.16,4.8-2.38,8.2-3.23c1.08-0.27,5.06-1.33,9.33-0.9c6.15,0.62,13.71,4.53,27.93,17.52c0,0,3.33,3.1,6.95,5.83
	c2.4,1.81,4.1,3.07,6.66,4.23c2.37,1.08,4.48,1.62,5.96,1.91c-0.04-7.36,0.57-13.57,1.26-18.3c0.88-6.1,2.01-10.56,2.33-11.81
	c1.09-4.21,2.04-7.91,4.1-12.53c1.15-2.58,1.91-3.8,4.55-9.59c0.72-1.57,1.38-3.01,2.03-4.54c0,0,2.62-6.12,4.49-12.36
	c3.31-11.08,4.12-24.57,4.24-26.7c0.06-5.83,0.26-11.67,0.29-17.5c0.05-8.62-0.11-12.57,2.06-17.86c0.53-1.29,1.06-2.31,1.43-3
	c2.18-12.77,4.35-25.54,6.53-38.31c-1.51,0.48-3.06,0.94-4.67,1.38c-3.77,1.03-7.38,1.82-10.79,2.43c-1.09,0.5-1.45,0.63-1.45,0.63
	c-0.11,0.04-0.69,0.25-1.46,0.38c-1.54,0.27-2.75,0.04-3.04-0.02c-0.48-0.1-0.87-0.22-1.13-0.32
	C583.92,375.2,582.72,378.55,581.52,381.9c-5.89,1.23-12.31,2.29-19.21,3.01c-13.92,1.47-26.46,1.26-37.11,0.33
	c0.2-1.86,0.35-3.37,0.45-4.41c0.1-1.06,0.15-1.52,0.46-4.81c0.37-3.81,0.36-3.72,0.36-3.77c0.18-2.39,0.21-3.85,0.65-6.15
	c0.06-0.33,0.12-0.6,0.16-0.78c0.1-0.27,0.21-0.55,0.34-0.83c0.42-0.91,0.92-1.66,1.39-2.25c3.85,2.66,10,6.97,18.38,7.54
	c10.02,0.69,16.55,0.96,33.49-1.84c0.22,0.46,0.53,0.97,0.95,1.49c1.12,1.38,2.46,2.07,3.28,2.41
	C583.92,375.2,582.72,378.55,581.52,381.9z"/>
<path fill="#CC0232" d="M582.03,367.68c2.41-0.48,4.97-1.07,7.64-1.8c3.28-0.9,6.31-1.89,9.08-2.92c-0.93,1.47-1.86,2.62-2.63,3.47
	c-0.24,0.27-1.06,1.16-2.24,2.19c-0.78,0.68-1.27,1.1-2.03,1.54c-0.93,0.53-1.77,0.81-2.35,0.97c-0.48,0.11-2.91,0.65-5.18-0.83
	C582.98,369.43,582.32,368.27,582.03,367.68z"/>
<path fill="#E2E2E2" d="M430,406.26c6.28,1.12,13.62,1.85,21.78,1.63c23.06-0.62,41.01-8.57,51.55-14.45
	c2.64-1.64,5.47-3.64,8.36-6.07c6.32-5.32,10.76-10.93,13.82-15.56c0.07-0.84,0.18-2,0.32-3.39c0.27-2.66,0.36-3.01,0.52-3.44
	c0.66-1.73,2.04-3.28,2.04-3.28s0,0,0,0c-1.1-0.79-2.23-1.64-3.38-2.57c-1.9-1.53-3.62-3.06-5.16-4.54
	c-7.22,7.61-14.44,15.22-21.65,22.84c-2.15,1.86-4.79,3.95-7.91,6.06c-3.69,2.49-6.76,4.14-8.28,4.91
	c-3.11,1.6-7.18,3.44-12.13,5.03c-2.83,0.92-5.94,1.78-9.3,2.5c-7.37,1.57-14.07,2.06-19.7,2.04c-3.48,2.65-6.96,5.31-10.44,7.96"/>
<path fill="#E2E2E2" d="M486.29,291.44c3.81,6.7,9.71,16.09,18.22,26.29c8.5,10.17,18.68,22.36,31.91,29.32
	c25.98,13.67,56.13,3.21,66.17-0.79c0.02-2.91-0.59-5.18-1.09-6.57c-0.34-0.97-0.92-2.54-2.19-4.28c-1.57-2.14-3.37-3.39-4.51-4.06
	c-6.33,2.47-11.84,3.96-16,4.88c-4.19,0.93-8.8,1.94-15.06,2.18c0,0-6.96,0.27-14.64-1.02c-1.93-0.33-3.72-0.73-5.72-1.45
	c-2.01-0.72-3.61-1.53-4.72-2.16c-1.01-0.58-2.11-1.29-3.25-2.13c-1.37-1.02-2.53-2.05-3.49-3c-3.56-3.61-7.18-7.43-10.84-11.47
	c-3.52-3.89-6.84-7.73-9.97-11.48c-2.9-3.16-5.24-5.9-6.98-7.99c-3.03-3.64-5.24-6.53-7.72-9.79c-2.44-3.19-3.66-4.79-4.86-6.51
	c-1.84-2.65-4.31-6.44-6.88-11.31c0.56,3.11,1.03,6.55,1.32,10.28C486.31,284.38,486.37,288.09,486.29,291.44z"/>
<path fill="#E2E2E2" d="M615.48,298.44c-0.96,3.15-2,6.39-3.16,9.71c-1.51,4.34-3.07,8.46-4.66,12.37c0,0,14.55-0.7,15.93-1.33
	c-0.8-2.1-1.57-4.81-1.84-8.02c-0.67-8.04,2.2-14.32,3.8-17.26c-1.29,0.72-2.69,1.44-4.18,2.13
	C619.3,297,617.32,297.79,615.48,298.44z"/>
<path fill="#E2E2E2" d="M478.72,537.98c-1.69,7.58-2.97,17.57-1.96,29.14c2.42,27.47,16.3,46.64,23.13,54.86
	c-2.02,11.11-4.05,22.22-6.07,33.33c3.29,0,6.57,0,9.86-0.01c1.22-3.81,2.39-7.84,3.46-12.08c2.04-8.08,3.42-15.69,4.34-22.68
	c-0.47-0.27-1.15-0.67-1.94-1.21c0,0-1.8-1.21-3.18-2.43c-4.01-3.54-5.57-11.75-5.82-13.1c-0.2-1.07-0.32-2.05-0.55-4
	c-0.75-6.28-0.76-10.19-0.76-10.19c-0.11-2.81-0.18-6.27-0.1-10.25l0,0c0,0,0.3-11.01,0.32-11.66c0.16-5.76,0.78-18.25,2.81-47.83
	c-2.59,1.75-5.31,3.72-8.11,5.94c-3.03,2.41-5.76,4.79-8.2,7.09c-0.61,0.67-1.33,1.38-2.2,2.08
	C481.95,536.46,480.16,537.39,478.72,537.98z"/>
<path fill="#E2E2E2" d="M519.8,512.21c-9.17,51.5-4,91.54,14.77,99.42c3.04,1.28,6.91,1.91,11.9,1.07
	c9.6-1.63,20.54-2.69,32.59-2.49c37.91,0.62,67.72,13.36,85.68,23.14c0.31-1.34,0.58-2.91,0.72-4.66c0.17-2.1,0.11-3.98-0.03-5.56
	c0,0-22.66-6.09-27.77-8.64c-4.35-1.78-8.03-3.45-10.92-4.82c-5.39-2.57-9.52-4.82-12.33-6.35c-2.1-1.15-3.86-2.14-5.13-2.87
	c-2.63-1.53-6.45-3.7-11.15-6.17c-3.87-2.04-5.8-3.05-8.09-4.02c-6.7-2.84-12.39-3.61-15.49-4.02c-12.71-1.7-24.14,0.86-29.6,2.36
	c3.53-19.33,7.07-38.67,10.6-58c-5.01-4.55-9.27-8.07-12.4-10.57c-1.87-1.49-3.38-2.65-5.49-3.94c-3.32-2.03-6.6-3.99-11.09-4.42
	C525.02,511.51,522.68,511.48,519.8,512.21z"/>
</svg>
