<?xml version="1.0" encoding="utf-8"?>
<!-- Generator: Adobe Illustrator 26.0.0, SVG Export Plug-In . SVG Version: 6.00 Build 0)  -->
<svg version="1.1" id="Layer_1" xmlns="http://www.w3.org/2000/svg" xmlns:xlink="http://www.w3.org/1999/xlink" x="0px" y="0px"
	 viewBox="0 0 414.38 335.49" style="enable-background:new 0 0 414.38 335.49;" xml:space="preserve">
<style type="text/css">
	.st0{display:none;}
	.st1{display:inline;}
	.st2{clip-path:url(#SVGID_00000059292659652849173770000010806895889405768610_);}
	.st3{fill:#F9C626;}
	.st4{fill:#FFFFFF;}
	.st5{fill:none;stroke:#FFFFFF;stroke-width:0.925;stroke-miterlimit:10;}
	.st6{fill:#494949;}
	.st7{fill:none;stroke:#FFFFFF;stroke-width:0.308;stroke-miterlimit:10;}
	.st8{fill:#D81330;}
	.st9{fill:none;stroke:#FFFFFF;stroke-width:0.617;stroke-miterlimit:10;}
	.st10{fill:none;stroke:#FFFFFF;stroke-miterlimit:10;}
	.st11{fill:none;stroke:#000000;stroke-miterlimit:10;}
	.st12{fill:none;stroke:#FFFFFF;stroke-width:0.5;stroke-miterlimit:10;}
	.st13{fill:none;stroke:#000000;stroke-width:0.75;stroke-miterlimit:10;}
	.st14{clip-path:url(#SVGID_00000021830156143834463510000002230490141649564342_);}
	.st15{fill:#B9002D;}
	.st16{display:inline;fill:none;}
	.st17{display:inline;fill:none;stroke:#000000;stroke-width:3;stroke-miterlimit:10;}
	.st18{display:inline;fill:none;stroke:#FFFFFF;stroke-width:3;stroke-miterlimit:10;}
	.st19{display:inline;fill:#FFFFFF;}
	.st20{display:inline;fill:#D81330;}
	.st21{display:inline;fill:#F9C626;}
	.st22{clip-path:url(#SVGID_00000116923287884816711930000013623584884393816501_);}
	.st23{clip-path:url(#SVGID_00000025412562962748753500000009991495016894105762_);}
	.st24{font-family:'CenturyGothic';}
	.st25{font-size:75px;}
	.st26{clip-path:url(#SVGID_00000137822704981857298340000006873190496183387776_);}
	.st27{fill:none;stroke:#000000;stroke-width:2;stroke-miterlimit:10;}
	.st28{fill:none;stroke:#FFFFFF;stroke-width:1.5;stroke-miterlimit:10;}
	.st29{fill:none;stroke:#FFFFFF;stroke-width:0.25;stroke-miterlimit:10;}
	.st30{font-size:40.9969px;}
	.st31{clip-path:url(#SVGID_00000152950801028680642320000007796527986012025246_);}
	.st32{fill:none;stroke:#000000;stroke-width:4;stroke-miterlimit:10;}
	.st33{fill-rule:evenodd;clip-rule:evenodd;fill:#D81330;}
	.st34{fill:none;stroke:#D81330;stroke-width:2;stroke-miterlimit:10;}
	.st35{fill:none;stroke:#D81330;stroke-miterlimit:10;}
	.st36{fill:none;stroke:#FFFFFF;stroke-width:0.75;stroke-miterlimit:10;}
	.st37{fill:#AA0029;}
	.st38{fill:#D8D8D8;}
</style>
<g class="st0">
	<g id="Group_1280" class="st1">
		<g>
			<defs>
				<rect id="SVGID_1_" x="-272.35" y="-32.35" width="945.32" height="390.17"/>
			</defs>
			<clipPath id="SVGID_00000051346618465055385470000015101267156510527163_">
				<use xlink:href="#SVGID_1_"  style="overflow:visible;"/>
			</clipPath>
			<g id="Group_1279" style="clip-path:url(#SVGID_00000051346618465055385470000015101267156510527163_);">
				<path id="Path_4092" class="st3" d="M375.27,151.7l-225.1,94.91l7.33-43.99L31.93,256.08c-1.22-15.89-2.44-31.77-3.67-47.66
					l-300.61,149.39L13.6,241.41l-1.83,36.66l120.98-47.05l-11.94,59.13c46.26-22.41,93.96-47.09,143.11-74.03
					C302.75,194.73,339.86,173.26,375.27,151.7"/>
				<path id="Path_4093" class="st4" d="M540.61,3.11v6.2c0,0-3.35,26.66-19.85,35.47l1.08,2.07l18.77-9.74v26l-3.9,2.84h-65.85
					V31.39c2.45,0.38,4.3,0.92,5.18,1.64l0.23,0.92l0.49-0.12l17.97-4.27c-0.24-1.12-3.73-18.95,0.97-25.81
					c0.16-0.23,0.31-0.44,0.48-0.65L540.61,3.11z"/>
				<path id="Path_4094" d="M395.84,106.9l6.84-4.12l43.94,38.16l-7.17,7.11l-32.29-25.74l-4.93-3.43L395.84,106.9z"/>
				<path id="Path_4095" class="st5" d="M395.84,106.9l6.84-4.12l43.94,38.16l-7.17,7.11l-32.29-25.74l-4.93-3.43L395.84,106.9z"/>
				<path id="Path_4096" class="st6" d="M414.52,128.19l8.29-7.92l12.11,10.52l-6.67,8.35L414.52,128.19"/>
				<path id="Path_4097" class="st7" d="M414.52,128.19l8.29-7.92l12.11,10.52l-6.67,8.35L414.52,128.19z"/>
				<path id="Path_4098" class="st8" d="M402.23,118.89l9.4-8.33l11.14,9.47l-8.52,8.18l-11.48-8.93"/>
				<path id="Path_4099" class="st7" d="M402.23,118.89l9.4-8.33l11.14,9.47l-8.52,8.18l-11.48-8.93"/>
				<path id="Path_4100" class="st8" d="M428.27,139.4c2.3-2.88,4.61-5.76,6.91-8.64l11.65,10.21c-2.5,2.39-5,4.78-7.5,7.17
					L428.27,139.4"/>
				<path id="Path_4101" class="st9" d="M428.27,139.4c2.3-2.88,4.61-5.76,6.91-8.64l11.65,10.21c-2.5,2.39-5,4.78-7.5,7.17
					L428.27,139.4z"/>
				<path id="Path_4102" d="M394.99,107.11l6.36,12.67l37.58,29.54l-41.9,32.38l-28.92,5.7l-234.42,96.34l222.4-121.38l-165.38,66.8
					l77.8-60.29l22.4-4.48L394.99,107.11z"/>
				<path id="Path_4103" class="st10" d="M394.99,107.11l6.36,12.67l37.58,29.54l-41.9,32.38l-28.92,5.7l-234.42,96.34l222.4-121.38
					l-165.38,66.8l77.8-60.29l22.4-4.48L394.99,107.11z"/>
				<path id="Path_4104" d="M668.32-29.7L540.61,63.1l-3.9,2.84l-13.01,9.45l-9.57,21.59l-66.18,43.9l-35.02-30.62l-9.18-8.03
					l14.81-12.53l6.37-15.42l-138.27,65.42l-0.35,0.17l88.96-70.37h10.55l42.66-38.29c0,0,0.2-0.02,0.59-0.06c0,0,0.05,0,0.16-0.01
					c0.08,0,0.19-0.01,0.32-0.02c0.01,0.01,0.03,0.01,0.05,0c0.07,0,0.16-0.01,0.25-0.01c4.82-0.42,21.47-1.63,34.6-0.36
					c2.27,0.22,4.44,0.51,6.41,0.9c1.76,0.32,3.5,0.79,5.18,1.4l0.23,0.92l4.06,16.39l25.28,15.59l0.79,0.49l0.81-0.49l10.59-6.43
					l1.22-11.21l2.81-1.46l18.77-9.74l21.18-11l4.28-12.01L668.32-29.7z"/>
				<path id="Path_4105" class="st10" d="M668.32-29.7L540.61,63.1l-3.9,2.84l-13.01,9.45l-9.57,21.59l-66.18,43.9l-35.02-30.62
					l-9.18-8.03l14.81-12.53l6.37-15.42l-138.27,65.42l-0.35,0.17l88.96-70.37h10.55l42.66-38.29c0,0,0.2-0.02,0.59-0.06
					c0,0,0.05,0,0.16-0.01c0.08,0,0.19-0.01,0.32-0.02c0.01,0.01,0.03,0.01,0.05,0c0.07,0,0.16-0.01,0.25-0.01
					c4.82-0.42,21.47-1.63,34.6-0.36c2.27,0.22,4.44,0.51,6.41,0.9c1.76,0.32,3.5,0.79,5.18,1.4l0.23,0.92l4.06,16.39l25.28,15.59
					l0.79,0.49l0.81-0.49l10.59-6.43l1.22-11.21l2.81-1.46l18.77-9.74l21.18-11l4.28-12.01L668.32-29.7z"/>
				<path id="Path_4106" d="M550.54,0.53c-0.17,0.27-0.43,0.67-0.77,1.14c-0.29,0.38-3.51,6.37-9.17,7.04l-0.3,0.04
					c-5.67,0.41-11.35-0.64-16.5-3.05c0,0-8.03-2.24-10.91-2.24c-0.65,0-1.03,0.12-1.01,0.4C512.05,5.38,509.9,15,509.9,15
					l-3.86,2.5c0.34-1.44,0.18-2.95-0.45-4.29c-1.08-1.97-4.89-0.86-5.5,1.69s1.42,9.37,1.42,9.37c-0.89,1.76-1.76,3.53-2.64,5.29
					l-22.1,4.27l17.97-4.27c-0.24-1.12-3.73-18.95,0.97-25.81c0.16-0.23,0.31-0.44,0.48-0.65c4.52-5.7,10.83-2,10.83-2
					c0.36-2.44,1.26-4.77,2.64-6.81c1.12-1.63,3.17-4.62,6.4-4.92c0.6-0.05,1.21-0.02,1.79,0.11c0.46,0.17,1.27,0.44,2.27,0.83
					c12.1,4.51,14.38,8.52,22.46,10.14c0.52,0.11,1.03,0.18,1.03,0.18C545.92,0.96,548.26,0.93,550.54,0.53"/>
				<path id="Path_4107" class="st10" d="M550.54,0.53c-0.17,0.27-0.43,0.67-0.77,1.14c-0.29,0.38-3.51,6.37-9.17,7.04l-0.3,0.04
					c-5.67,0.41-11.35-0.64-16.5-3.05c0,0-8.03-2.24-10.91-2.24c-0.65,0-1.03,0.12-1.01,0.4C512.05,5.38,509.9,15,509.9,15
					l-3.86,2.5c0.34-1.44,0.18-2.95-0.45-4.29c-1.08-1.97-4.89-0.86-5.5,1.69s1.42,9.37,1.42,9.37c-0.89,1.76-1.76,3.53-2.64,5.29
					l-22.1,4.27l17.97-4.27c-0.24-1.12-3.73-18.95,0.97-25.81c0.16-0.23,0.31-0.44,0.48-0.65c4.52-5.7,10.83-2,10.83-2
					c0.36-2.44,1.26-4.77,2.64-6.81c1.12-1.63,3.17-4.62,6.4-4.92c0.6-0.05,1.21-0.02,1.79,0.11c0.46,0.17,1.27,0.44,2.27,0.83
					c12.1,4.51,14.38,8.52,22.46,10.14c0.52,0.11,1.03,0.18,1.03,0.18C545.92,0.96,548.25,0.93,550.54,0.53z"/>
				<path id="Path_4108" class="st11" d="M509.25,30.28c0.81,5.1,9.87,15.28,9.87,15.28c0.56-0.25,1.1-0.51,1.64-0.79
					c16.5-8.81,19.85-35.47,19.85-35.47l0.08-1.58"/>
				<path id="Path_4109" class="st8" d="M504.53,65.94l1.5,0.92l-17.53,9.72l-28.33,15.68l-25.63,14.19l-8.09-6.81l-13.53,10.63
					l-0.22,0.17l-8.96-8.2l14.81-12.53l6.37-15.42l-138.27,65.41l88.62-70.2h10.55l43.24-38.35c0,0,0.05,0,0.16-0.01
					c0.08,0,0.19-0.01,0.32-0.02c0.01,0.01,0.03,0.01,0.05,0c3.39-0.19,22.08-1.19,34.85-0.37c2.39,0.14,4.58,0.36,6.41,0.66
					c2.45,0.38,4.3,0.92,5.18,1.64l4.01,17.79L504.53,65.94z"/>
				<path id="Path_4110" class="st10" d="M504.53,65.94l1.5,0.92l-17.53,9.72l-28.33,15.68l-25.63,14.19l-8.09-6.81l-13.53,10.63
					l-0.22,0.17l-8.96-8.2l14.81-12.53l6.37-15.42l-138.27,65.41l88.62-70.2h10.55l43.24-38.35c0,0,0.05,0,0.16-0.01
					c0.08,0,0.19-0.01,0.32-0.02c0.01,0.01,0.03,0.01,0.05,0c3.39-0.19,22.08-1.19,34.85-0.37c2.39,0.14,4.58,0.36,6.41,0.66
					c2.45,0.38,4.3,0.92,5.18,1.64l4.01,17.79L504.53,65.94z"/>
				<path id="Path_4111" class="st8" d="M506.03,66.86l1.58-0.86l-1.52,0.9L506.03,66.86z"/>
				<path id="Path_4112" class="st12" d="M506.03,66.86l1.58-0.86l-1.52,0.9L506.03,66.86z"/>
				<path id="Path_4113" class="st8" d="M668.32-29.7L540.61,46.77l-21,12.58l-11.91,6.59l10.35-6.17l1.33-11.26l21.23-10.94
					l21.24-10.95l4.66-12.14L668.32-29.7z"/>
				<path id="Path_4114" class="st10" d="M668.32-29.7L540.61,46.77l-21,12.58l-11.91,6.59l10.35-6.17l1.33-11.26l21.23-10.94
					l21.24-10.95l4.66-12.14L668.32-29.7z"/>
				<path id="Path_4115" class="st8" d="M400.96,119.72l-6.15-11.99L290.99,164.7l-22.37,4.47l-75.9,58.9l41.43-16.82L400.96,119.72
					"/>
				<path id="Path_4116" class="st10" d="M400.96,119.72l-6.15-11.99L290.99,164.7l-22.37,4.47l-75.9,58.9l41.43-16.82
					L400.96,119.72z"/>
				<path id="Path_4117" class="st13" d="M521.12,45.22c0.22,0.44,0.45,0.88,0.67,1.32"/>
				<path id="Path_4118" class="st13" d="M476.45,33.45l18.28-3.89"/>
				<path id="Path_4119" class="st3" d="M457.21,70.61l11.81-3.36l26.38,12.63l3.46,14.97l-37.27,7.74L457.21,70.61z"/>
				<path id="Path_4120" class="st10" d="M457.21,70.61l11.81-3.36l26.38,12.63l3.46,14.97l-37.27,7.74L457.21,70.61z"/>
			</g>
		</g>
	</g>
	<text transform="matrix(0.8839 0.4678 -0.4678 0.8839 461.4363 95.3585)" class="st20 st24" style="font-size:33px;">P</text>
	<g id="Group_1282" class="st1">
		<g>
			<defs>
				<rect id="SVGID_00000057121412098156276080000008649752175693804706_" x="-272.35" y="-32.35" width="945.32" height="390.17"/>
			</defs>
			<clipPath id="SVGID_00000152943810347739660880000014763773623936452998_">
				<use xlink:href="#SVGID_00000057121412098156276080000008649752175693804706_"  style="overflow:visible;"/>
			</clipPath>
			<g id="Group_1281" style="clip-path:url(#SVGID_00000152943810347739660880000014763773623936452998_);">
				<path id="Path_4121" class="st15" d="M476.46,37.31l-44.3,2.14l-40.02,34.83c-33.66,20.87-67.31,41.75-100.97,62.63l84.27-66.8
					l10.63,0.05l43.27-38.34c0,0,42.58-2.29,46.17,1.64L476.46,37.31z"/>
				<path id="Path_4122" class="st15" d="M429.61,69.89l-4.89,22.4l-17.36,12.42l-2.62-2.47l14.36-12.17
					c2.32-5.68,4.65-11.35,6.98-17.03l-134.84,63.81l138.99-68.85L429.61,69.89"/>
				<path id="Path_4123" class="st15" d="M395.63,110.67l-102.27,57.22l-24.24,4.85l-62.44,49.01l-10.18,4.1l72.39-56.13l22.3-4.44
					l103.37-56.75L395.63,110.67"/>
				<path id="Path_4124" class="st15" d="M519.77,51.17l45.18-23.44l3.46-11.2l76.22-32.92l14.59-8.78L567.04,15l-4.63,12.07
					l-42.38,21.84L519.77,51.17z"/>
			</g>
		</g>
	</g>
</g>
<g class="st0">
	<rect x="-59.58" y="-60.2" class="st16" width="530.43" height="444.83"/>
	<path class="st1" d="M468.61,218.24l-0.55,0.58l-37.76,39.8l-95.72-13.97l-0.12,0.77v0.23c0.13,7.48,0.25,14.96,0.38,22.44
		l-0.03,0.03l-23.38,30l-4.3,81.11l-0.05,1.01l-0.02,0.3l-23.96,0.12h-0.28c-27.97,0.15-55.94,0.29-83.91,0.44l-56.41,0.97
		l-0.05-0.68l-6.15-81.62l-24.08-29.51v-26.45l-0.21-0.55c-34.9,14.08-69.4,25.7-69.4,25.7c-34.15-12.1-44-30.91-45.63-34.56
		c-0.18-0.41-0.26-0.63-0.26-0.63c22.48-32.3,51.84-59.23,85.96-78.85h0.31v-7.59c0,0,11.03-15.71,17.98-25.4
		c0.11-0.17,0.23-0.33,0.35-0.49c-6.65-10.25-13.61-19.57-18.33-22.25c-11.9-6.72-104.05,40.37-104.05,40.37v8.8l-35.08,3.9
		l-0.62,0.07l16.56-28.81l2.07-7.24c0,0,91.43-33.13,128.02-26.92c6.18,6.65,12.4,13.32,18.67,20c1.02,1.1,2.07,2.19,3.09,3.27
		c13.43-3.72,46.9-9.3,46.9-9.3l36.76-20.67l4.65-2.62l0.59-16.67l0.62-17.7c0.02-0.33,0.03-0.68,0.04-1.01l-0.72-0.09h-0.01
		l-0.12-0.01c-0.81,6.5-1.62,13.01-2.43,19.52c-0.01,0.12-0.03,0.24-0.04,0.36c-0.46-0.8-0.93-1.6-1.39-2.4
		c-1.21-2.09-2.42-4.19-3.64-6.28c-1.37-8.04-2.74-16.09-4.11-24.14h-0.03c0.01-0.3,0.01-0.61,0.02-0.91V30.6l0.08-0.89
		c-0.29-0.06-0.56-0.15-0.83-0.27c-1.5-0.72-2.49-2.21-2.59-3.88c-0.06-1.27-0.11-2.55-0.14-3.87c-0.01-0.93-0.04-1.84-0.05-2.73
		c-1.81-2.22-2.29-5.57-2.36-8.19c-0.01-0.04-0.01-0.09-0.01-0.13v-0.2c-0.01-0.43,0-0.86,0.01-1.29c0.03-0.78,0.09-1.57,0.19-2.35
		c0.28-0.62,0.59-1.22,0.95-1.8l-2.4-1.04c0,0-1.13-3.19-2.37-7.75c-0.01-0.05-0.02-0.11-0.04-0.16
		c-1.41-5.26-2.94-12.29-3.03-18.35c-0.01-0.01-0.01-0.01,0-0.02c-0.01-0.01-0.01-0.01,0-0.02c-0.01-0.04-0.01-0.08,0-0.12
		c-0.08-7.01,1.82-12.68,8.14-12.67h0.15c-0.18-1.03-0.28-2.07-0.3-3.11v-0.4c-0.12-8.23,3.49-27.45,41.54-17.97
		c47.78,11.91,48.48,18.46,75.23-1.56c0,0,0,0.37-0.04,1.04v0.01c-0.32,5.58-2.93,32.08-24.65,42.09l-2.06,0.4l0.02,1.01v0.01
		l0.85,44.48c-0.01,0.01-0.01,0.03-0.02,0.04c0,0.01-0.01,0.01-0.01,0.02c-2.05,4.66-6.66,10.29-12.11,15.9c0,0.33,0,0.66,0.01,1
		v0.01c0.06,10.39,0.13,20.77,0.22,31.16c0,0,15.22,9.45,28.37,17.56c0.64,0.39,1.26,0.78,1.87,1.16l4.05,2.48l3.72,2.29l3.24,2
		c0.29,0.17,0.57,0.34,0.84,0.51c2.77,1.68,4.62,2.8,5,2.99c2.08,1.04,52.29,6.72,52.29,6.72l23.29,18.64l11.91,27.43l0.61,0.5
		c5.49-0.86,10.85-2.42,15.94-4.63c0,0,11.39-45.8,22.78-60.09c0,0,17.95-9.04,28.3-13.9l-0.05,1.04l-1.33,28.7l-8.97,24.4
		l-39.35,33.3c-1.09,0.89-2.25,1.7-3.46,2.42l0.71,0.57L468.61,218.24z"/>
	<path class="st1" d="M310.02,242.08l-17.29-2.52c0.54-0.52,1.05-1.03,1.59-1.56h0.01l25.36-4.08l0.03-0.01l-9.67,8.18H310.02z"/>
	<path id="Path_3509" class="st17" d="M307.63,380.24c-0.16,0-0.33,0.01-0.5,0.01c-36.08,0.62-72.15,1.24-108.22,1.86l-56.41,0.97
		l-0.05-0.68l-6.15-81.62l-24.07-29.51v-26.47"/>
	<path id="Path_3510" class="st17" d="M141.91,382.41h0.54c18.82-0.1,37.64-0.2,56.46-0.29c36.05-0.18,72.09-0.37,108.15-0.56
		l0.07-1.31l4.3-81.11l23.4-30.03c-0.12-7.55-0.24-15.11-0.36-22.67"/>
	<path id="Path_3511" class="st18" d="M82.98,171.12v-22.78c0,0,11.4-16.24,18.34-25.89c2.41-3.35,4.29-5.92,4.96-6.72
		c0.47-0.56,2.44-1.28,5.37-2.09c13.42-3.72,46.9-9.3,46.9-9.3l36.76-20.68l4.65-2.62c0.42-11.79,0.83-23.58,1.25-35.38"/>
	<path id="Path_3512" class="st18" d="M28.11,216.16c8.63-3.33,17.25-6.67,25.88-10.02l21.4,10.7l85.46-8.77l22.2-2.28
		c-2.94,5.34-13.69,12.19-28.04,19.42c-12.54,6.32-27.8,12.91-43.01,19.06c-34.9,14.08-69.39,25.71-69.39,25.71
		c-37.96-13.45-45.9-35.19-45.9-35.19c22.49-32.3,51.85-59.22,85.96-78.85"/>
	<path id="Path_3513" class="st18" d="M275.02,31.89c-2.04,4.67-6.65,10.32-12.13,15.96c-13.15,13.51-31.35,26.99-31.35,26.99
		c-13.78-4.92-24.64-21.28-30.75-32.59c-2.02-3.7-3.85-7.51-5.47-11.4v-53.84c14.41,23.7,70,11.43,77.91,9.55l0.05-0.01
		c0.58-0.14,0.89-0.22,0.89-0.22v0.05L275.02,31.89z"/>
	<path id="Path_3514" class="st18" d="M193.81,28.46c-1.04,1.71-3.02,2.61-5,2.27c-0.28-0.06-0.56-0.15-0.82-0.26
		c-1.5-0.73-2.5-2.21-2.6-3.88c-0.06-1.27-0.11-2.55-0.14-3.87c-0.02-0.92-0.04-1.83-0.05-2.73c-3.37-4.15-2.16-12.16-2.16-12.16
		c0.27-0.62,0.58-1.22,0.93-1.8c4.21-6.92,9.51,0.24,9.51,0.24"/>
	<path class="st18" d="M188.75,31.62c1.37,8.05,2.74,16.1,4.11,24.14c0.08,0.49,0.17,0.97,0.25,1.46c1.13,1.6,2.26,3.21,3.39,4.82
		c0.48,0.68,0.96,1.36,1.43,2.04c0.42,0.59,0.84,1.18,1.25,1.77c0.01-6.78,0.41-13.54,1.19-20.27c0.04-0.34,0.07-0.68,0.11-1.01
		h0.01c0.09-0.78,0.19-1.54,0.29-2.31"/>
	<path id="Path_3516" class="st18" d="M273.21-13.43l0.05-0.01l0.89-0.17l2.07-0.4c24.33-11.21,24.67-43.13,24.67-43.13
		c-26.74,20.01-27.44,13.46-75.22,1.55c-47.78-11.91-41.24,21.48-41.24,21.48c-1.74-0.03-3.15,0.37-4.28,1.1
		c-7.96,5.16-1.14,28.89,1.44,37.98c0.52,1.85,1,3.35,1.31,4.32"/>
	<path id="Path_3517" class="st19" d="M163.37,103.39c-7.66,9.01-14.23,18.89-19.57,29.43l23.33-1.41
		c-0.66,1.06-1.65,2.63-2.87,4.54c-1.8,2.83-3.09,4.67-3.37,5.24c-2.35,3.95-4.5,8.03-6.44,12.2c-3.82,8.39-9.05,28.25-10.39,54.92
		l16.66-1.65c0.11-9.29,0.93-18.57,2.46-27.74c3.39-20.19,10.12-39.68,19.89-57.67c0,0-22.08,4.83-22.08,3.8
		s34.33-41.38,34.33-41.38L163.37,103.39"/>
	<rect id="Rectangle_719" x="296.08" y="203.03" class="st1" width="27.95" height="73.04"/>
	<path id="Path_3518" class="st19" d="M334.4,230.26c-1.77,0.31-3.57,0.88-5.36,1.18c-1.84,0.3-3.55,0.85-5.38,1.14
		c-0.69-3.05-3.51-5.68-4.21-8.75c-0.66-2.87,0.26-5.11-0.41-7.96v-1.39c-0.02-0.1,0.26-0.64,0.23-0.73
		c-8.79-32.44-22.62-63.3-40.97-91.45l26.57,6.9l-13.38-31.62c0.64,0.4,1.27,0.78,1.89,1.17l4.04,2.48l3.71,2.28l3.25,2
		c0.28,0.17,0.56,0.35,0.83,0.52c6.13,15.65,10.96,35.34,10.96,35.34l-18.55-8.37c8.01,16.83,15.96,35.47,23.35,55.86
		C326.13,203.13,330.65,217.15,334.4,230.26"/>
	<path id="Path_3519" class="st19" d="M149.86,229.38l89.27,72.64v-10.35l-73.75-70.34L149.86,229.38z"/>
	<path id="Path_3520" class="st19" d="M310.05,242.08c-23.65,19.98-47.29,39.96-70.92,59.94v-10.35
		c17.86-17.36,35.72-34.73,53.58-52.11h0.01l17.29,2.52H310.05z"/>
	<path id="Path_3521" class="st19" d="M323.41,230.77l0.38,1.08c-1.61-0.03-3.13,0.73-4.07,2.04l-0.03,0.01l-25.36,4.08
		c8.31-8.08,16.62-16.16,24.93-24.24v-0.01h0.01l0.06,0.24l0.02,0.07l0.04,0.18L323.41,230.77z"/>
	<path id="Path_3522" class="st20" d="M164.82,132.76l-5.6,11.27v0.01l-5.69,11.41l-0.04,0.09c-0.98,0.02-1.98,0.04-2.96,0.05
		c-10.04,0.16-19.96,0.16-29.76,0c-14.71-0.24-9.39-17.64-19.45-33.14c-6.65-10.25-13.6-19.57-18.34-22.25
		c-11.9-6.72-104.04,40.37-104.04,40.37v8.8l-35.71,3.97l16.56-28.82l2.07-7.24c0,0,91.44-33.14,128.02-26.92
		c6.17,6.65,12.4,13.32,18.67,20c1.02,1.09,2.05,2.19,3.09,3.27c6.35,6.76,12.69,13.47,19.04,20.12c9.2-0.31,18.41-0.63,27.61-0.95
		L164.82,132.76z"/>
	<path id="Path_3523" class="st18" d="M164.82,132.76l-5.6,11.27v0.01l-5.69,11.41l-0.04,0.09c-0.98,0.02-1.98,0.04-2.96,0.05
		c-10.04,0.16-19.96,0.16-29.76,0c-14.71-0.24-9.39-17.64-19.45-33.14c-6.65-10.25-13.6-19.57-18.34-22.25
		c-11.9-6.72-104.04,40.37-104.04,40.37v8.8l-35.71,3.97l16.56-28.82l2.07-7.24c0,0,91.44-33.14,128.02-26.92
		c6.17,6.65,12.4,13.32,18.67,20c1.02,1.09,2.05,2.19,3.09,3.27c6.35,6.76,12.69,13.47,19.04,20.12c9.2-0.31,18.41-0.63,27.61-0.95
		L164.82,132.76z"/>
	<path id="Path_3524" class="st21" d="M236.28,245.91l-59.74-60.58l25.41-24.72h33.21"/>
	<path id="Path_3525" class="st18" d="M236.28,245.91l-59.74-60.58l25.41-24.72h33.21"/>
	<path id="Path_3526" class="st21" d="M235.16,244.88l58.62-59.55l-25.41-24.72l-37.31,0.32"/>
	<path id="Path_3527" class="st18" d="M235.16,244.88l58.62-59.55l-25.41-24.72H231"/>
	<g id="Group_1218" transform="translate(275.914 218.625)" class="st1">
		<g id="Group_1217">
			<g>
				<defs>
					<rect id="SVGID_00000148645507332643801870000013841414745745642411_" x="-59.58" y="-60.2" width="47.84" height="89.77"/>
				</defs>
				<clipPath id="SVGID_00000018944629954989360110000012228443207525460404_">
					<use xlink:href="#SVGID_00000148645507332643801870000013841414745745642411_"  style="overflow:visible;"/>
				</clipPath>
				<g id="Group_1216" style="clip-path:url(#SVGID_00000018944629954989360110000012228443207525460404_);">
					<g id="Group_1215">
						<g id="Group_1214">
							<g>
								<defs>
									
										<rect id="SVGID_00000165206196017539459130000000705865346448341688_" x="-59.58" y="-60.2" width="47.84" height="89.77"/>
								</defs>
								<clipPath id="SVGID_00000026152902607805617690000016918787507610961544_">
									<use xlink:href="#SVGID_00000165206196017539459130000000705865346448341688_"  style="overflow:visible;"/>
								</clipPath>
								<g id="Group_1213" style="clip-path:url(#SVGID_00000026152902607805617690000016918787507610961544_);">
									<text transform="matrix(0.9994 -0.0345 0.0345 0.9994 -57.3761 5.365)" class="st8 st24 st25">P</text>
								</g>
							</g>
						</g>
					</g>
				</g>
			</g>
		</g>
	</g>
	<path id="Path_3528" class="st18" d="M431.84,211.49l-31.58-0.52l-17.6,12.79l-62.95,10.13l-0.03,0.01l-25.36,4.08h-0.01
		l-5.86,0.94l4.26,0.62h0.01l17.29,2.52h0.03l24.4,3.57l0.11,0.02l95.73,13.97l38.31-40.38l-0.55-0.44l-55.88-45.29h-0.01
		L398.3,162.3h-0.01l-0.61-0.5l-11.91-27.43l-23.29-18.63c0,0-50.21-5.69-52.27-6.72c-0.39-0.19-2.24-1.31-5-2.98
		c0-0.01,0-0.01-0.01-0.01l0,0c-0.27-0.17-0.55-0.35-0.83-0.52c-0.99-0.61-2.09-1.28-3.25-2s-2.41-1.48-3.71-2.28
		s-2.66-1.63-4.04-2.48c-0.3-0.19-0.61-0.38-0.92-0.58s-0.62-0.38-0.94-0.58h-0.01v-0.01h-0.01c-13.15-8.11-28.37-17.56-28.37-17.56
		c-0.07-10.72-0.14-21.45-0.22-32.16v-0.01"/>
	<path id="Path_3529" class="st20" d="M465.32,83.69l-1.38,29.73l-8.97,24.41l-39.34,33.3c-1.1,0.88-2.26,1.69-3.46,2.41
		c-11,6.53-24.05,8.69-36.56,6.04c-24.5-4.82-63.58-16.47-63.58-16.47l-11.56-27.27l15.44,6.19l2.42,0.97c0,0,41.4,25.47,79.98,19.3
		c5.49-0.86,10.85-2.42,15.95-4.63c0,0,11.38-45.8,22.78-60.09C437.03,97.58,454.98,88.54,465.32,83.69"/>
	<path id="Path_3530" class="st18" d="M465.32,83.69l-1.38,29.73l-8.97,24.41l-39.34,33.3c-1.1,0.88-2.26,1.69-3.46,2.41
		c-11,6.53-24.05,8.69-36.56,6.04c-24.5-4.82-63.58-16.47-63.58-16.47l-11.56-27.27l15.44,6.19l2.42,0.97c0,0,41.4,25.47,79.98,19.3
		c5.49-0.86,10.85-2.42,15.95-4.63c0,0,11.38-45.8,22.78-60.09C437.03,97.59,454.97,88.54,465.32,83.69z"/>
</g>
<g id="Group_1258" transform="translate(14.984) rotate(3)">
	<g id="Group_1255">
		<g>
			<defs>
				
					<rect id="SVGID_00000097481976791000266210000006142859373973565853_" x="60.19" y="-34.33" transform="matrix(0.0523 -0.9986 0.9986 0.0523 41.1311 346.9072)" width="286.31" height="372.22"/>
			</defs>
			<clipPath id="SVGID_00000134968595423873485460000003160259378689424518_">
				<use xlink:href="#SVGID_00000097481976791000266210000006142859373973565853_"  style="overflow:visible;"/>
			</clipPath>
			<g id="Group_1254" style="clip-path:url(#SVGID_00000134968595423873485460000003160259378689424518_);">
				<path id="Path_3839" class="st4" d="M37.97,159.73l-5.67-27.77c0,0-29.32-5.51-2.54,20.62s51.67,21.7,51.67,21.7
					s-6.34,72.12,5.39,87.96c0,0-48.5-13.16-60.7-40.26c-0.6-2.21-1.38-5.21-2.21-8.8c-5.67-24.52-7.38-49.8-5.06-74.86"/>
				<path id="Path_3840" class="st27" d="M37.97,159.73l-5.67-27.77c0,0-29.32-5.51-2.54,20.62s51.67,21.7,51.67,21.7
					s-6.34,72.12,5.39,87.96c0,0-48.5-13.16-60.7-40.26c-0.6-2.21-1.38-5.21-2.21-8.8c-5.67-24.52-7.38-49.8-5.06-74.86"/>
				<path id="Path_3841" class="st4" d="M147.85,92.64l11.34,9.19h-33.11l1.01-1.85L147.85,92.64z"/>
				<path id="Path_3842" class="st4" d="M263.53,101.84l-96.74,0l50.48-2.22l13.47-14.43l16.33,1.74L263.53,101.84z"/>
				<path id="Path_3843" class="st4" d="M230.45,84.83l-13.36,14.35l-57.24,2.66l-11.68-9.45l24.36-15.06
					c-0.27-8.09-0.55-16.18-0.82-24.27l0.17-0.06c-0.12-0.37-0.21-0.67-0.28-0.9l-0.45,0.14l0.58,15.74
					c-1.94-4.62-4.91-11.81-8.5-20.81c-4.34-10.86-6.51-16.67-3.91-22.09c0.79-1.62,1.91-3.05,3.28-4.22
					c-0.07-0.65-0.08-1.31-0.04-1.96c0.02-0.37,0.06-0.76,0.12-1.19c0.02-0.13,0.04-0.25,0.06-0.39c0.02-0.13,0.04-0.27,0.07-0.4
					c0.06-0.27,0.12-0.54,0.2-0.81c0.24-0.88,0.61-1.73,1.08-2.52c0.08-0.13,0.17-0.27,0.26-0.41c0.09-0.14,0.19-0.27,0.29-0.4
					c0.42-0.56,0.91-1.06,1.45-1.5c0.13-0.1,0.26-0.2,0.4-0.3c0.02-0.02,0.04-0.03,0.06-0.05c0.31-0.22,0.64-0.42,0.98-0.6
					c0.17-0.09,0.34-0.17,0.53-0.26c0.03-0.02,0.07-0.04,0.11-0.05c0.17-0.07,0.34-0.14,0.51-0.2c0.19-0.07,0.39-0.15,0.6-0.21
					c0.02-0.01,0.05-0.02,0.07-0.02c0.44-0.13,0.89-0.25,1.34-0.34c0.22-0.04,0.43-0.08,0.66-0.11c0.05-0.01,0.1-0.02,0.15-0.03
					c0.24-0.04,0.5-0.06,0.75-0.09c11.09-1.02,21.03,7.07,21.03,7.07s3.97,2.8,13.74-0.58l7.08-2.9
					c-1.71,6.55-6.07,12.09-12.03,15.3l0.1,0.19c0.22,4.18,0.45,8.37,0.68,12.56c0.35,6.28,1.16-4.7,4.07-6.13
					c2.9-1.43,1.27,18.91-3.28,15.21l-1.19-1.1c-0.5,2.98-1.27,5.91-2.28,8.75h0.01c0.57,6.73,1.14,13.46,1.71,20.19L230.45,84.83z"
					/>
				<path id="Path_3844" class="st4" d="M205.86,50.09c0,0-1.56,9.93-4.73,14.5l-0.58-7.25c0.85-2.64,1.55-5.33,2.12-8.05
					C202.66,49.29,204.48,51.46,205.86,50.09"/>
				<path id="Path_3845" class="st4" d="M207.56,24.3c0.07-0.12-0.32,9.71-0.32,9.71c-2.06,0.9-3.57,2.72-4.08,4.91l-0.56-10.96
					C202.6,27.96,206.88,25.42,207.56,24.3"/>
				<path id="Path_3846" d="M371.38,136.13l-80.25,22.29l-24.73-2.85l-30.59-22.66v17.91l-7.29,22.19l2.22,26.47
					c-12.91,2.74-29.51,3.85-43.03,4.28c-13.87,0.44-24.49,0.15-24.49,0.15l-4.6-27.1l-10.75-13.08l0.33,1.03l-9.55,22.19
					l-26.79,13.79c-32.55-18.09-70.56-64.88-71.16-65.61l50.87,29l27.9,1.8l1.9-28.53l-4.02-19.65l8.71-15.9l1.01-1.85l20.76-7.34
					l11.34,9.19l0.39,0.32l7.21-0.32l50.48-2.22l13.47-14.43l16.33,1.74l16.46,14.9l1.92,1.74l1.79,11.89l21.03,19.02l15.69-7.03
					l26.41,7.18L371.38,136.13z"/>
				<path id="Path_3847" class="st28" d="M371.38,136.13l-80.25,22.29l-24.73-2.85l-30.59-22.66v17.91l-7.29,22.19l2.22,26.47
					c-12.91,2.74-29.51,3.85-43.03,4.28c-13.87,0.44-24.49,0.15-24.49,0.15l-4.6-27.1l-10.75-13.08l0.33,1.03l-9.55,22.19
					l-26.79,13.79c-32.55-18.09-70.56-64.88-71.16-65.61l50.87,29l27.9,1.8l1.9-28.53l-4.02-19.65l8.71-15.9l1.01-1.85l20.76-7.34
					l11.34,9.19l0.39,0.32l7.21-0.32l50.48-2.22l13.47-14.43l16.33,1.74l16.46,14.9l1.92,1.74l1.79,11.89l21.03,19.02l15.69-7.03
					l26.41,7.18L371.38,136.13z"/>
				<path id="Path_3848" d="M214.1,12.61c-1.71,6.55-6.07,12.09-12.03,15.3c-1.06,0.58-2.16,1.08-3.29,1.5
					c-12.94,4.86-28-1.74-28-1.74l-1.22,11.94c0,0-3.01-2.22-4.12,0.84c-1.11,3.07-1.11,9.77,5.7,11.78l0.58,15.74
					c-1.94-4.62-4.91-11.81-8.5-20.81c-4.34-10.86-6.51-16.67-3.91-22.09c0.79-1.62,1.91-3.05,3.28-4.22
					c-0.06-0.65-0.07-1.31-0.04-1.96c0.02-0.37,0.06-0.76,0.12-1.19c0.02-0.13,0.04-0.25,0.06-0.39c0.02-0.13,0.04-0.27,0.07-0.4
					c0.06-0.27,0.12-0.54,0.2-0.81c0.24-0.89,0.6-1.74,1.08-2.52c0.08-0.13,0.17-0.27,0.26-0.41c0.09-0.14,0.19-0.27,0.29-0.4
					c0.21-0.28,0.44-0.55,0.69-0.8c0.03-0.03,0.05-0.06,0.08-0.09c0.03-0.03,0.07-0.06,0.09-0.08c0.18-0.18,0.38-0.35,0.59-0.52
					c0.13-0.1,0.26-0.2,0.4-0.3c0.02-0.02,0.04-0.03,0.06-0.05c0.31-0.22,0.64-0.42,0.98-0.6c0.17-0.09,0.34-0.17,0.53-0.26
					c0.03-0.02,0.07-0.04,0.11-0.05c0.17-0.07,0.34-0.14,0.51-0.2c0.19-0.07,0.39-0.15,0.6-0.21c0.02-0.01,0.05-0.02,0.07-0.03
					c0.44-0.14,0.89-0.25,1.34-0.34c0.22-0.04,0.43-0.08,0.66-0.11c0.05-0.01,0.1-0.02,0.15-0.02c0.24-0.04,0.5-0.06,0.75-0.09
					c11.1-1.02,21.03,7.07,21.03,7.07s3.97,2.8,13.74-0.58L214.1,12.61z"/>
				<path id="Path_3849" class="st10" d="M214.1,12.61c-1.71,6.55-6.07,12.09-12.03,15.3c-1.06,0.58-2.16,1.08-3.29,1.5
					c-12.94,4.86-28-1.74-28-1.74l-1.22,11.94c0,0-3.01-2.22-4.12,0.84c-1.11,3.07-1.11,9.77,5.7,11.78l0.58,15.74
					c-1.94-4.62-4.91-11.81-8.5-20.81c-4.34-10.86-6.51-16.67-3.91-22.09c0.79-1.62,1.91-3.05,3.28-4.22
					c-0.06-0.65-0.07-1.31-0.04-1.96c0.02-0.37,0.06-0.76,0.12-1.19c0.02-0.13,0.04-0.25,0.06-0.39c0.02-0.13,0.04-0.27,0.07-0.4
					c0.06-0.27,0.12-0.54,0.2-0.81c0.24-0.89,0.6-1.74,1.08-2.52c0.08-0.13,0.17-0.27,0.26-0.41c0.09-0.14,0.19-0.27,0.29-0.4
					c0.21-0.28,0.44-0.55,0.69-0.8c0.03-0.03,0.05-0.06,0.08-0.09c0.03-0.03,0.07-0.06,0.09-0.08c0.18-0.18,0.38-0.35,0.59-0.52
					c0.13-0.1,0.26-0.2,0.4-0.3c0.02-0.02,0.04-0.03,0.06-0.05c0.31-0.22,0.64-0.42,0.98-0.6c0.17-0.09,0.34-0.17,0.53-0.26
					c0.03-0.02,0.07-0.04,0.11-0.05c0.17-0.07,0.34-0.14,0.51-0.2c0.19-0.07,0.39-0.15,0.6-0.21c0.02-0.01,0.05-0.02,0.07-0.03
					c0.44-0.14,0.89-0.25,1.34-0.34c0.22-0.04,0.43-0.08,0.66-0.11c0.05-0.01,0.1-0.02,0.15-0.02c0.24-0.04,0.5-0.06,0.75-0.09
					c11.1-1.02,21.03,7.07,21.03,7.07s3.97,2.8,13.74-0.58L214.1,12.61z"/>
				<path id="Path_3850" class="st11" d="M200.18,57.4c0.57,6.73,1.14,13.46,1.71,20.19l28.56,7.24l-13.36,14.35l-57.24,2.66
					l-11.68-9.45l24.36-15.06c-0.27-8.09-0.55-16.18-0.82-24.27"/>
				<path id="Path_3851" class="st11" d="M202.16,28.1c0.22,4.18,0.45,8.37,0.68,12.56c0.35,6.28,1.16-4.7,4.07-6.13
					c2.9-1.43,1.27,18.91-3.28,15.21l-1.19-1.1c-0.5,2.98-1.27,5.91-2.28,8.75c-0.06,0.17-0.12,0.34-0.18,0.51
					c-1.38,3.78-3.19,7.38-5.39,10.75c-3.3,4.03-6,4.54-7.41,4.57c-8.06,0.12-13.75-15.43-15.31-20.24
					c-0.12-0.37-0.21-0.67-0.28-0.9s-0.12-0.37-0.14-0.45c-1.13-3.92-1.76-7.97-1.9-12.04"/>
				<path id="Path_3852" d="M207.24,34.01c-2.06,0.9-3.57,2.72-4.08,4.91l-0.56-10.96c0,0,4.28-2.54,4.95-3.66
					C207.63,24.18,207.24,34.01,207.24,34.01"/>
				<path id="Path_3853" class="st29" d="M207.24,34.01c-2.06,0.9-3.57,2.72-4.08,4.91l-0.56-10.96c0,0,4.28-2.54,4.95-3.66
					C207.63,24.17,207.24,34.01,207.24,34.01z"/>
				<path id="Path_3854" d="M205.86,50.09c0,0-1.56,9.93-4.73,14.5l-0.58-7.25c0.85-2.64,1.55-5.33,2.12-8.05
					C202.66,49.29,204.48,51.46,205.86,50.09"/>
				<path id="Path_3855" class="st29" d="M205.86,50.09c0,0-1.56,9.93-4.73,14.5l-0.58-7.25c0.85-2.64,1.55-5.33,2.12-8.05
					C202.66,49.29,204.48,51.46,205.86,50.09z"/>
				<path id="Path_3856" class="st8" d="M186.05,101.47c0.56,29.87,1.13,59.73,1.69,89.6l-5.28-5.5l5.29,17.71
					c-3.77,0.12-7.63,0.2-11.57,0.23c-4.29,0.03-8.48,0.01-12.57-0.08c-1.51-8.95-3.02-17.91-4.53-26.86l-13.16-16l-7.42-27.79
					l-0.91,0.24c2.49,9.34,4.98,18.68,7.46,28.01l2.86,3.47l-9.59,22.08l-26.39,13.63c-2.08-1.16-4.94-2.84-8.25-5.03
					c-5.33-3.56-10.41-7.48-15.2-11.74c-5.86-5.09-12.63-10.96-22-20.42c-6.61-6.66-14.81-15.41-23.76-26.21l48.85,27.86l28.41,1.76
					c0.63-9.68,1.27-19.35,1.9-29.03c-1.36-6.61-2.71-13.21-4.07-19.81l9.72-17.28l20.25-7.13l11.66,9.48L186.05,101.47"/>
				<path id="Path_3857" class="st28" d="M186.05,101.47l1.69,89.6l-5.28-5.5l5.26,18.1"/>
				<path id="Path_3858" class="st3" d="M155.82,131.48l8.24-14.58l47.76-2.11l10.99,11.41l-32.33,35.08L155.82,131.48z"/>
				<path id="Path_3859" class="st28" d="M155.82,131.48l8.24-14.58l47.76-2.11l10.99,11.41l-32.33,35.08L155.82,131.48z"/>
				<path id="Path_3860" class="st28" d="M148.3,164.24l-2.84-3.41l-7.44-27.93"/>
			</g>
		</g>
	</g>
	<text transform="matrix(0.9981 -0.062 0.062 0.9981 180.3883 150.3536)" class="st8 st24 st30">P</text>
	<g id="Group_1257">
		<g>
			<defs>
				
					<rect id="SVGID_00000129208214076197527100000004959870916609208501_" x="60.19" y="-34.33" transform="matrix(0.0523 -0.9986 0.9986 0.0523 41.1311 346.9072)" width="286.31" height="372.22"/>
			</defs>
			<clipPath id="SVGID_00000173882147456985209960000007488530755250717606_">
				<use xlink:href="#SVGID_00000129208214076197527100000004959870916609208501_"  style="overflow:visible;"/>
			</clipPath>
			<g id="Group_1256" style="clip-path:url(#SVGID_00000173882147456985209960000007488530755250717606_);">
				<path id="Path_3861" class="st4" d="M371.31,168.4l6.83-37.13c0,0,21.34,5.28,1.9,28.95c-19.44,23.67-70.8,30.43-70.8,30.43
					l-3.17,79.67c0,0,65.93-12.89,77.77-59.59c1.38-21.73,2.76-43.47,4.14-65.21"/>
				<path id="Path_3862" class="st32" d="M371.31,168.4l6.83-37.13c0,0,21.34,5.28,1.9,28.95c-19.44,23.67-70.8,30.43-70.8,30.43
					l-3.17,79.67c0,0,65.93-12.89,77.77-59.59c1.38-21.73,2.76-43.47,4.14-65.21"/>
				<path id="Path_3863" class="st4" d="M141.8,286.32l-3.9-84.48c0,0,31.47,10.3,120.87-7.66l2.7,86.91
					C261.46,281.09,201.08,305.55,141.8,286.32"/>
				<path id="Path_3864" class="st32" d="M141.8,286.32l-3.9-84.48c0,0,31.47,10.3,120.87-7.66l2.7,86.91
					C261.46,281.09,201.08,305.55,141.8,286.32z"/>
				<path id="Path_3865" class="st33" d="M176.64,250.29v21.83c0,0.55-0.45,1-1,1h-8.62c-0.55,0-1-0.45-1-1v-21.83H176.64z
					 M166.01,243.16l22.79-19.95c5.05,4.93,9.94,10.92,14.93,15.86l18.21-18.29l-5.86-5.88l17.27-0.15v17.42l-5.63-5.63
					c-4.04,4.09-13.59,13.11-17.63,17.15c-5.11,5.11-7.55,5.2-12.66,0.09l-8.63-9.6l-10.12,8.97L166.01,243.16z M228.7,235.96v36.17
					c0,0.55-0.45,1-1,1h-8.62c-0.55-0.01-0.99-0.45-0.99-1v-25.98c1.64-1.6,3.56-3.45,5.52-5.33l4.08-3.93
					c0.33-0.33,0.67-0.64,1.02-0.93L228.7,235.96z M211.34,252.21v19.92c0,0.55-0.45,1-1,1h-8.62c-0.55,0-1-0.45-1-1v-17.79
					c1.03,0.25,2.08,0.37,3.14,0.35C206.55,254.64,209.17,253.78,211.34,252.21 M194,250.57v21.53c0,0.55-0.45,1-1,1h-8.63
					c-0.55,0-1-0.45-1-1v-23.37c0.18-0.13,0.35-0.27,0.51-0.41l4.31-3.84l3.47,3.84l0.27,0.28c0.7,0.71,1.39,1.35,2.07,1.93
					L194,250.57z"/>
				<path id="Path_3866" class="st34" d="M323.51,207.14l15.11,4.76l15-26.63l16.8,7.5L383,167.3l2.34,1.08"/>
				<path id="Path_3867" class="st8" d="M340.58,211.01c0,1.1-0.89,1.99-1.99,1.99c-1.1,0-1.99-0.89-1.99-1.99
					c0-1.1,0.89-1.99,1.99-1.99l0,0C339.69,209.02,340.58,209.91,340.58,211.01"/>
				<path id="Path_3868" class="st8" d="M355.73,185.45c0,1.1-0.89,1.99-1.99,1.99c-1.1,0-1.99-0.89-1.99-1.99
					c0-1.1,0.89-1.99,1.99-1.99l0,0C354.84,183.47,355.73,184.36,355.73,185.45"/>
				<path id="Path_3869" class="st8" d="M372.57,192.63c0,1.1-0.89,1.99-1.99,1.99c-1.1,0-1.99-0.89-1.99-1.99
					c0-1.1,0.89-1.99,1.99-1.99l0,0C371.68,190.64,372.57,191.53,372.57,192.63"/>
				<path id="Path_3870" class="st8" d="M384.93,167.3c0,1.1-0.89,1.99-1.99,1.99c-1.1,0-1.99-0.89-1.99-1.99s0.89-1.99,1.99-1.99
					l0,0C384.04,165.31,384.93,166.2,384.93,167.3"/>
				<path id="Path_3871" class="st35" d="M323.51,216.33l-1.27,36.98c6.82-1.18,29.62-5.99,46.39-26.52
					c7.22-8.9,12.28-19.35,14.79-30.54"/>
				<path id="Path_3872" class="st35" d="M329.43,230.36c-0.01,4.62-0.02,9.25-0.02,13.88c3.02-0.14,5.99-0.86,8.74-2.12l0.13-13.26
					c-1.44,0.31-2.94,0.6-4.52,0.87C332.27,229.97,330.82,230.18,329.43,230.36z"/>
				<path id="Path_3873" class="st8" d="M342.95,221.61c-0.03,6.39-0.06,12.78-0.09,19.17c3.16-0.7,6.15-2.03,8.77-3.92
					c-0.05-5.98-0.1-11.96-0.15-17.94c-1.39,0.53-2.88,1.04-4.45,1.54C345.62,220.89,344.26,221.28,342.95,221.61"/>
				<path id="Path_3874" class="st35" d="M356.3,210.53c0.1,7.38,0.21,14.77,0.31,22.15c3.15-1.71,6.04-3.87,8.59-6.39
					c-0.04-7.26-0.09-14.52-0.13-21.78c-1.32,1.08-2.79,2.21-4.44,3.33C359.14,208.86,357.68,209.75,356.3,210.53z"/>
				<path id="Path_3875" class="st8" d="M369.76,200.23c0.04,6.59,0.07,13.19,0.11,19.78c1.19-1.52,2.41-3.17,3.63-4.98
					c1.34-1.98,2.51-3.9,3.54-5.72c-0.01-4.9-0.02-9.8-0.03-14.7c-1.09,1.01-2.31,2.06-3.67,3.1
					C372.1,198.67,370.9,199.5,369.76,200.23"/>
				<path id="Path_3876" class="st35" d="M18.57,157.85c0,0,6.92,10.67,34.55,20.08l-0.85,58.37c-11.5-4.65-21.27-12.74-27.97-23.17
					C19.67,195.08,17.74,176.46,18.57,157.85L18.57,157.85z"/>
				<path id="Path_3877" class="st8" d="M58.57,185.69c0,0,5.28,3.91,16.27,4.65"/>
				<path id="Path_3878" class="st8" d="M57.88,194.1c0,0,5.28,3.91,16.27,4.65"/>
				<path id="Path_3879" class="st8" d="M58.57,202.51c0,0,5.28,3.91,16.27,4.65"/>
				<path id="Path_3880" class="st8" d="M57.88,210.92c0,0,5.28,3.91,16.27,4.65"/>
				<path id="Path_3881" class="st8" d="M57.44,219.33c0,0,5.28,3.91,16.27,4.65"/>
				<path id="Path_3882" class="st8" d="M57.44,227.74c0,0,5.28,3.91,16.27,4.65"/>
				<path id="Path_3883" class="st8" d="M57.88,236.14c0,0,5.28,3.91,16.27,4.65"/>
				<path id="Path_3884" class="st35" d="M21.69,201.48c0.01,0.03,0.03,0.05,0.04,0.07c0.46,0.78,0.99,1.53,1.58,2.22
					c1.86,2.42,4.48,4.16,7.44,4.92c3.84,0.87,7.86-0.22,10.74-2.9c0.12-0.12,0.23-0.24,0.34-0.36c2.33-2.58,2.58-5.68,2.82-8.44
					c0.19-2.78-0.16-5.58-1.04-8.23c-0.93-3.02-2.55-5.78-4.74-8.06c-1.78-1.99-4.04-3.49-6.57-4.34c-1.82-0.57-3.74-0.77-5.64-0.59
					c-0.28,0.03-0.53,0.06-0.76,0.09c-2.07,0.39-3.96,1.44-5.38,2.99c-0.61,0.71-1.08,1.52-1.41,2.39
					c-0.06,0.17-0.12,0.34-0.17,0.52"/>
				<path id="Path_3885" class="st35" d="M21.14,199.47l6.88-7.4l-1.37-16.03"/>
				<path id="Path_3886" class="st35" d="M41.36,205.67l-13.34-13.6"/>
				<path id="Path_3887" class="st8" d="M19.36,181.47c0.33-0.95,0.84-1.82,1.5-2.58c1.44-1.57,3.4-2.56,5.52-2.77
					c0.44,5.3,0.88,10.6,1.33,15.9l-6.3,6.72c-0.53-3.01-1.01-6.2-1.39-9.57C19.72,186.5,19.5,183.93,19.36,181.47"/>
				<path id="Path_3888" class="st8" d="M28.08,192.42l-6.48,6.97l0.38,1.94c2.38,4.6,6.83,7.51,11.51,7.45
					c2.82-0.09,5.53-1.15,7.66-3L28.08,192.42"/>
				<path id="Path_3889" class="st36" d="M21.11,199.11c0.05-0.04,0.09-0.09,0.14-0.13c1.11-1.07,2.22-2.14,3.33-3.2l3.87-3.72"/>
				<path id="Path_3890" class="st15" d="M136.2,123.32l14.13,13.87l4.81,20.67l10.88,14.83l3.23,30.99c0,0-3.14-0.2-5.65-0.24
					l-4.53-26.86l-13.16-16L136.2,123.32"/>
				<path id="Path_3891" d="M266.62,155.08l-33.26-33.42l-3.41,26.69l-5.86,18.96v32.17l5.97-1.37l-2.09-25.25l7.29-22.21
					l0.04-18.72L266.62,155.08"/>
				<path id="Path_3892" class="st15" d="M136.12,123.44c1.57,14.09,3.13,28.19,4.7,42.28l-4.62,14.16l-6.77,11.29l8.87-4.58
					l9.59-22.08l-2.86-3.47c-1.27-4.75-2.53-9.5-3.8-14.26c-1.79-6.74-2.69-10.1-2.72-10.2c-0.49-1.85-0.5-1.85-0.54-2.03
					C137.06,130.9,136.44,127.18,136.12,123.44"/>
				
					<rect id="Rectangle_738" x="136.39" y="123.26" transform="matrix(-0.9739 0.2271 -0.2271 -0.9739 299.5837 221.7742)" class="st37" width="1.27" height="9.72"/>
				<path id="Path_3893" class="st15" d="M154.45,98.59l-21.87,7.1l-7.4,13.1l2.75,14.1l-4.81,33.82
					c-4.37,2.51-9.26,3.98-14.29,4.31c-7.94,0.46-13.82-2.27-20.65-5.55c-8.03-3.87-15.39-9-21.81-15.19l25.18,14.36l28.41,1.76
					l1.9-29.03l-4.07-19.81l9.72-17.28l20.25-7.13L154.45,98.59z"/>
				<path id="Path_3894" d="M194.72,86.9c0,0,11.04-2.53,15.77-1.42"/>
				<path id="Path_3895" class="st38" d="M154.61,97.16l21.45-13.94c-0.35-7.18-0.71-14.37-1.06-21.55
					c-0.55-1.25-1.09-2.53-1.63-3.84c-0.46-1.11-0.89-2.21-1.3-3.3l0.82,22.92l-24.2,14.98L154.61,97.16"/>
				<path id="Path_3896" d="M164.04,87.89c0,0,11.41-2.38,16.48-0.63"/>
				<path id="Path_3897" d="M170.6,52.42c-0.16,0.02-0.07,3.51,0.69,15.51l0.65,1.38c-0.06-1.9-0.16-5.11-0.22-7.01
					c-0.09-2.93-0.2-6.28-0.29-9.21c-0.13-0.14-0.25-0.28-0.37-0.43c-0.06-0.09-0.14-0.15-0.23-0.2
					C170.76,52.43,170.68,52.42,170.6,52.42"/>
			</g>
		</g>
	</g>
</g>
</svg>
