<?xml version="1.0" encoding="utf-8"?>
<!-- Generator: Adobe Illustrator 26.0.0, SVG Export Plug-In . SVG Version: 6.00 Build 0)  -->
<svg version="1.1" id="Layer_1" xmlns="http://www.w3.org/2000/svg" xmlns:xlink="http://www.w3.org/1999/xlink" x="0px" y="0px"
	 viewBox="0 0 23.62 30.32" style="enable-background:new 0 0 23.62 30.32;" xml:space="preserve">
<style type="text/css">
	.st0{fill-rule:evenodd;clip-rule:evenodd;fill:#FFFFFF;}
</style>
<g id="Group_990" transform="translate(-1364.93 -2493.946)">
	<g id="Group_989">
		<g id="Big_Arrow" transform="translate(1372.93 2493.946)">
			<path id="Big_Arrow-2" class="st0" d="M13.12,14.35L5.1,1.39C4.87,1.02,4.38,0.9,4.01,1.13C3.98,1.15,3.94,1.17,3.91,1.2
				L2.76,2.14c-0.3,0.25-0.38,0.68-0.17,1.02l6.95,11.19c0.16,0.25,0.16,0.57,0,0.82L2.59,26.36c-0.21,0.33-0.14,0.77,0.17,1.02
				l1.15,0.95c0.34,0.28,0.84,0.23,1.12-0.1c0.02-0.03,0.05-0.06,0.07-0.09l8.02-12.96C13.28,14.92,13.28,14.6,13.12,14.35z"/>
		</g>
	</g>
	<g id="Big_Arrow-3" transform="translate(1364.93 2493.946)">
		<path id="Big_Arrow-4" class="st0" d="M13.12,14.35L5.1,1.39C4.87,1.02,4.38,0.9,4.01,1.13C3.98,1.15,3.94,1.17,3.91,1.2
			L2.76,2.14c-0.3,0.25-0.38,0.68-0.17,1.02l6.95,11.19c0.16,0.25,0.16,0.57,0,0.82L2.59,26.36c-0.21,0.33-0.14,0.77,0.17,1.02
			l1.15,0.95c0.34,0.28,0.84,0.23,1.12-0.1c0.02-0.03,0.05-0.06,0.07-0.09l8.02-12.96C13.28,14.92,13.28,14.6,13.12,14.35z"/>
	</g>
</g>
</svg>
